<svg xmlns="http://www.w3.org/2000/svg" xmlns:xlink="http://www.w3.org/1999/xlink" width="1080" zoomAndPan="magnify" viewBox="0 0 810 809.999993" height="1080" preserveAspectRatio="xMidYMid meet" version="1.0"><defs><clipPath id="ea8c411986"><path d="M 486 534.742188 L 810 534.742188 L 810 809 L 486 809 Z M 486 534.742188 " clip-rule="nonzero"/></clipPath><clipPath id="4939b07a87"><path d="M 596 600 L 810 600 L 810 809.992188 L 596 809.992188 Z M 596 600 " clip-rule="nonzero"/></clipPath><clipPath id="4ca19ea8d6"><path d="M 622 624 L 810 624 L 810 809.992188 L 622 809.992188 Z M 622 624 " clip-rule="nonzero"/></clipPath><clipPath id="1de19e69e8"><path d="M 642 647 L 810 647 L 810 809.992188 L 642 809.992188 Z M 642 647 " clip-rule="nonzero"/></clipPath><clipPath id="5356c4d4a0"><path d="M 659 667 L 810 667 L 810 809.992188 L 659 809.992188 Z M 659 667 " clip-rule="nonzero"/></clipPath><clipPath id="68e08d85cd"><path d="M 675 684 L 809 684 L 809 809.992188 L 675 809.992188 Z M 675 684 " clip-rule="nonzero"/></clipPath><clipPath id="97479ad75e"><path d="M 687 701 L 809 701 L 809 809.992188 L 687 809.992188 Z M 687 701 " clip-rule="nonzero"/></clipPath><clipPath id="f74ddeb608"><path d="M 698 718 L 809 718 L 809 809.992188 L 698 809.992188 Z M 698 718 " clip-rule="nonzero"/></clipPath><clipPath id="5d9a8200e7"><path d="M 710 735 L 809 735 L 809 809.992188 L 710 809.992188 Z M 710 735 " clip-rule="nonzero"/></clipPath><clipPath id="d56c38653c"><path d="M 724 747 L 809 747 L 809 809.992188 L 724 809.992188 Z M 724 747 " clip-rule="nonzero"/></clipPath><clipPath id="c09ee16842"><path d="M 739 763 L 809 763 L 809 809.992188 L 739 809.992188 Z M 739 763 " clip-rule="nonzero"/></clipPath><clipPath id="568b9f45e9"><path d="M 761 779 L 809 779 L 809 809.992188 L 761 809.992188 Z M 761 779 " clip-rule="nonzero"/></clipPath><clipPath id="4bc720e0ab"><path d="M 785 796 L 809 796 L 809 809.992188 L 785 809.992188 Z M 785 796 " clip-rule="nonzero"/></clipPath></defs><g clip-path="url(#ea8c411986)"><path fill="#ff914d" d="M 493.050781 808.457031 L 494.148438 807.785156 C 503.589844 802.984375 510.390625 800.492188 514.558594 800.308594 C 524.789062 798.285156 543.382812 795.546875 570.34375 792.085938 C 574.484375 790.660156 581.507812 786.535156 591.421875 779.714844 C 594.898438 778.105469 603.382812 765.890625 616.867188 743.070312 C 625.84375 717.632812 632.539062 695.636719 636.949219 677.085938 C 642.863281 667.421875 647.042969 661.320312 649.488281 658.789062 C 659.347656 647.710938 672.8125 637.769531 689.878906 628.957031 C 715.960938 623.226562 734.640625 618.5 745.917969 614.773438 C 753.308594 612.765625 761.074219 608.332031 769.214844 601.476562 C 784.015625 590.039062 793.835938 579.839844 798.667969 570.878906 C 802.21875 564.046875 805.835938 555.792969 809.527344 546.117188 L 809.585938 534.625 C 808.554688 539.148438 806.214844 545.480469 802.5625 553.617188 C 797.679688 563.632812 792.503906 572.679688 787.039062 580.761719 L 777.34375 590.125 L 757.980469 606.074219 C 749.597656 610.730469 725.269531 617.695312 684.992188 626.976562 C 672.308594 634.449219 660.128906 643.738281 648.457031 654.847656 C 641.589844 662.566406 635.921875 671.273438 631.445312 680.972656 C 624.042969 710.4375 618.71875 729.746094 615.464844 738.898438 C 605.097656 757.613281 595.570312 771.0625 586.886719 779.253906 C 585.050781 781.214844 578.285156 784.613281 566.585938 789.453125 C 533.09375 793.4375 512.75 796.539062 505.558594 798.753906 C 499.308594 801.390625 492.792969 804.613281 486.011719 808.421875 Z M 493.050781 808.457031 " fill-opacity="1" fill-rule="nonzero"/></g><path fill="#ff914d" d="M 560.179688 808.800781 L 569.34375 807.597656 C 576.4375 806.921875 580.066406 806.207031 580.226562 805.453125 C 585.839844 803.148438 591.066406 800.234375 595.902344 796.707031 C 602.6875 791.785156 608.699219 784.925781 613.941406 776.132812 C 617.988281 769.828125 622.425781 762.070312 627.257812 752.867188 L 644.730469 692.671875 C 649.59375 683.5 654.128906 676.585938 658.335938 671.929688 C 676.0625 655.769531 689.335938 646.148438 698.164062 643.066406 C 746.570312 632.136719 771.945312 624.417969 774.277344 619.90625 C 780.367188 615.839844 788.507812 607.144531 798.703125 593.820312 L 809.359375 578.8125 L 809.398438 571.085938 C 802.308594 584.390625 797.007812 593.097656 793.496094 597.203125 C 785.992188 604.925781 776.800781 612.316406 765.929688 619.371094 C 762.324219 622.097656 758.210938 624.140625 753.582031 625.507812 C 741.277344 629.210938 721.347656 634.414062 693.792969 641.117188 C 678.527344 649.921875 666.339844 659.078125 657.226562 668.585938 C 652.0625 674.574219 647.359375 680.886719 643.113281 687.515625 L 623.039062 754.332031 C 617.492188 763.984375 612.632812 771.875 608.457031 778.003906 C 603.59375 787.808594 594.492188 795.46875 581.144531 800.980469 L 574.867188 803.5625 C 561.960938 805.027344 549.035156 806.734375 536.097656 808.679688 Z M 560.179688 808.800781 " fill-opacity="1" fill-rule="nonzero"/><g clip-path="url(#4939b07a87)"><path fill="#ff914d" d="M 602.890625 809.023438 L 604.292969 808.054688 C 610.367188 803.589844 615.019531 799.238281 618.246094 795.003906 C 624.480469 786.605469 630.679688 777.238281 636.839844 766.894531 C 640.757812 756.886719 647.097656 735.347656 655.863281 702.269531 C 660.019531 694.082031 665.441406 686.285156 672.128906 678.878906 C 688.085938 664.796875 700.535156 656 709.480469 652.492188 C 742.207031 645.164062 764.027344 639.269531 774.941406 634.800781 C 782.714844 630.917969 794.140625 621.335938 809.21875 606.0625 L 809.246094 600.464844 C 792.46875 617.960938 781.171875 628.160156 775.359375 631.066406 C 772.367188 633.496094 749.980469 639.558594 708.199219 649.25 C 697.765625 654.941406 691.015625 658.921875 687.953125 661.191406 C 674.859375 669.609375 663.796875 681.582031 654.765625 697.109375 C 653.445312 699.542969 652.191406 702.042969 651 704.617188 C 644.648438 730.246094 639.746094 748.238281 636.289062 758.589844 C 621.699219 787.855469 608.320312 804.652344 596.144531 808.988281 Z M 602.890625 809.023438 " fill-opacity="1" fill-rule="nonzero"/></g><g clip-path="url(#4ca19ea8d6)"><path fill="#ff914d" d="M 627.042969 809.148438 L 627.671875 808.433594 C 628.253906 809.101562 634.855469 797.941406 647.472656 774.949219 C 649.53125 769.023438 655.042969 749.4375 664.015625 716.195312 C 667.070312 709.300781 672.765625 701.394531 681.09375 692.480469 C 688.878906 684.8125 699.949219 676.742188 714.304688 668.265625 L 717.761719 666.601562 C 734.265625 662.996094 749.460938 659.296875 763.347656 655.507812 C 769.691406 653.566406 774.792969 651.863281 778.652344 650.394531 C 796.804688 639.578125 806.953125 632.5 809.097656 629.164062 L 809.125 624.023438 C 808.234375 627.078125 797.578125 634.96875 777.15625 647.699219 C 773.816406 649.144531 751.457031 655.347656 710.082031 666.304688 C 693.273438 676.492188 681.492188 685.902344 674.734375 694.53125 C 670.328125 699.671875 666.148438 705.445312 662.199219 711.851562 L 659.332031 718.597656 C 654.125 739.574219 648.941406 758.648438 643.773438 775.816406 C 635.363281 790.734375 628.242188 801.835938 622.402344 809.121094 L 627.042969 809.144531 Z M 627.042969 809.148438 " fill-opacity="1" fill-rule="nonzero"/></g><g clip-path="url(#1de19e69e8)"><path fill="#ff914d" d="M 647.511719 809.25 L 648.726562 807.191406 C 651.992188 801.566406 655.445312 794.890625 659.089844 787.164062 L 674.484375 730.773438 C 679.320312 721.023438 686.355469 711.722656 695.589844 702.859375 C 711.992188 689.925781 722.28125 682.730469 726.457031 681.273438 C 760.582031 673.039062 781.191406 667.65625 788.28125 665.117188 C 789.957031 664.667969 791.402344 663.972656 792.625 663.039062 L 808.980469 652.027344 L 809.003906 647.855469 C 797.632812 656.574219 789.289062 661.65625 783.96875 663.101562 C 777.984375 665.09375 759.117188 669.765625 727.367188 677.117188 C 718.554688 681.640625 710.570312 686.5625 703.414062 691.882812 L 698.203125 695.945312 C 694.832031 698.703125 691.671875 701.5625 688.714844 704.519531 C 686.25 706.84375 683.011719 710.53125 678.992188 715.585938 C 677.816406 717.007812 674.898438 722.597656 670.242188 732.359375 C 661.734375 765.488281 656.582031 784.425781 654.78125 789.171875 C 652.425781 793.511719 648.433594 800.195312 642.796875 809.226562 Z M 647.511719 809.25 " fill-opacity="1" fill-rule="nonzero"/></g><g clip-path="url(#5356c4d4a0)"><path fill="#ff914d" d="M 662.996094 809.332031 L 663.746094 807.929688 C 665.835938 804.839844 667.515625 800.8125 668.785156 795.851562 C 670.382812 791.097656 675.59375 772.945312 684.414062 741.394531 C 686.070312 737.609375 692.804688 728.921875 704.609375 715.335938 C 705.386719 713.773438 716.171875 706.8125 736.960938 694.453125 C 749.917969 692.335938 768.277344 687.699219 792.039062 680.550781 C 802.769531 676.429688 808.445312 673.226562 809.074219 670.941406 C 809.691406 669.691406 809.632812 668.617188 808.902344 667.710938 C 802.144531 673.121094 795.992188 676.320312 790.449219 677.304688 C 776.519531 681.667969 758.265625 686.304688 735.679688 691.210938 C 717.125 701.417969 705.128906 709.519531 699.691406 715.527344 C 688.554688 728.695312 681.746094 738.300781 679.261719 744.347656 C 671.117188 775.519531 666.457031 792.871094 665.285156 796.402344 C 664.050781 800.65625 662.84375 803.9375 661.671875 806.246094 L 659.753906 809.316406 Z M 662.996094 809.332031 " fill-opacity="1" fill-rule="nonzero"/></g><g clip-path="url(#68e08d85cd)"><path fill="#ff914d" d="M 678.984375 809.414062 L 679.835938 806.609375 L 694.820312 753.480469 C 703.867188 737.957031 709.855469 729.464844 712.789062 728.011719 C 722.414062 719.449219 734.242188 711.402344 748.277344 703.878906 C 783.140625 695.660156 803.316406 690.246094 808.796875 687.632812 L 808.816406 684.121094 C 801.285156 687.4375 780.464844 693.023438 746.355469 700.878906 C 735.9375 705.621094 725.871094 712.46875 716.15625 721.421875 C 709.160156 727.925781 702.78125 734.914062 697.023438 742.386719 L 695.074219 744.886719 L 690.675781 753.773438 C 684.046875 778.886719 679 797.425781 675.535156 809.394531 Z M 678.984375 809.414062 " fill-opacity="1" fill-rule="nonzero"/></g><g clip-path="url(#97479ad75e)"><path fill="#ff914d" d="M 691.347656 809.476562 L 692.34375 806.113281 C 694.988281 797.003906 698.558594 783.773438 703.050781 766.417969 C 704.339844 763.472656 709.742188 756.171875 719.253906 744.515625 C 721.417969 742.457031 723.667969 740.441406 726.003906 738.460938 C 735.886719 730.113281 746.070312 723.289062 756.558594 717.988281 L 802.734375 707.023438 C 805.085938 706.433594 807.078125 705.671875 808.710938 704.746094 L 808.726562 701.433594 C 798.449219 704.53125 780.621094 708.972656 755.246094 714.761719 C 747.328125 718.777344 742.699219 721.296875 741.355469 722.320312 C 735.480469 725.957031 730.003906 729.964844 724.929688 734.34375 C 716.6875 741.042969 708.695312 750.65625 700.949219 763.191406 L 687.648438 809.457031 Z M 691.347656 809.476562 " fill-opacity="1" fill-rule="nonzero"/></g><g clip-path="url(#f74ddeb608)"><path fill="#ff914d" d="M 702.210938 809.535156 L 710.261719 780.824219 C 710.351562 779.761719 716.175781 772.023438 727.730469 757.609375 C 733.945312 751.902344 742.652344 745.648438 753.855469 738.835938 L 763.347656 733.296875 C 787.355469 727.988281 802.445312 724.324219 808.621094 722.300781 L 808.640625 718.484375 C 785.835938 724.789062 770.3125 728.644531 762.066406 730.058594 C 754.042969 734.578125 747.109375 738.792969 741.265625 742.703125 L 737.089844 745.574219 C 734.445312 747.449219 732.070312 749.25 729.96875 750.972656 C 724.363281 755.730469 720.582031 759.476562 718.628906 762.214844 C 715.933594 765.867188 711.710938 772.636719 705.964844 782.527344 L 698.875 809.515625 L 702.210938 809.53125 Z M 702.210938 809.535156 " fill-opacity="1" fill-rule="nonzero"/></g><g clip-path="url(#5d9a8200e7)"><path fill="#ff914d" d="M 714.652344 809.597656 L 715.019531 808.160156 C 715.980469 804.40625 716.738281 801.226562 717.285156 798.628906 C 719.382812 794.453125 721.9375 790.070312 724.945312 785.480469 C 731.363281 776.089844 738.621094 768.589844 746.71875 762.984375 C 751.230469 759.390625 759.535156 754.199219 771.628906 747.410156 L 808.535156 738.671875 L 808.554688 735.226562 L 766.726562 745.789062 C 764.371094 746.285156 759.1875 749.503906 751.183594 755.453125 C 745.1875 760.09375 736.460938 767.828125 725.007812 778.65625 C 722.691406 782.160156 718.757812 789.078125 713.203125 799.402344 L 710.613281 809.578125 Z M 714.652344 809.597656 " fill-opacity="1" fill-rule="nonzero"/></g><g clip-path="url(#d56c38653c)"><path fill="#ff914d" d="M 728.03125 809.667969 L 728.332031 808.535156 C 729.226562 806.492188 730.734375 803.792969 732.855469 800.433594 C 734.101562 798.28125 737.710938 793.054688 743.683594 784.742188 C 747.355469 781.183594 753.738281 776.019531 762.839844 769.25 C 772.667969 762.5625 779.058594 758.550781 782.003906 757.210938 L 782.945312 756.835938 L 808.472656 751 L 808.492188 747.375 L 781.601562 753.621094 C 767.121094 762.402344 757.066406 768.808594 751.4375 772.835938 C 748.554688 774.703125 745.894531 777.15625 743.460938 780.195312 C 737.273438 787.425781 733.28125 792.601562 731.492188 795.722656 C 726.726562 803.574219 724.328125 808.214844 724.304688 809.648438 Z M 728.03125 809.667969 " fill-opacity="1" fill-rule="nonzero"/></g><g clip-path="url(#c09ee16842)"><path fill="#ff914d" d="M 743.8125 809.746094 L 744.125 809.242188 C 745.855469 806.417969 748.539062 802.902344 752.175781 798.695312 C 755.132812 795.6875 761.035156 790.722656 769.871094 783.796875 L 791.226562 770.945312 L 808.390625 767.222656 L 808.40625 763.519531 L 798.671875 764.960938 C 789.128906 768.195312 780.855469 771.984375 773.84375 776.332031 C 772.230469 777.375 770.71875 778.445312 769.308594 779.542969 L 759.9375 787.808594 C 751.585938 795.261719 746.304688 800.292969 744.085938 802.898438 C 742.351562 805.050781 740.941406 807.328125 739.855469 809.726562 Z M 743.8125 809.746094 " fill-opacity="1" fill-rule="nonzero"/></g><g clip-path="url(#568b9f45e9)"><path fill="#ff914d" d="M 767.070312 809.867188 L 768.890625 808.183594 C 776.375 801.460938 782.960938 796.039062 788.652344 791.914062 C 790.765625 790.542969 793.585938 789.03125 797.109375 787.378906 C 800.628906 785.910156 804.359375 784.554688 808.304688 783.316406 C 808.605469 782.140625 808.644531 781.261719 808.425781 780.683594 C 807.917969 780.015625 807.136719 779.707031 806.078125 779.75 C 804.628906 780.113281 802.59375 780.800781 799.980469 781.8125 C 794.609375 784.574219 790.480469 786.945312 787.585938 788.917969 C 778.402344 794.746094 770.445312 800.910156 763.707031 807.40625 C 762.953125 808.175781 762.1875 808.984375 761.402344 809.839844 Z M 767.070312 809.867188 " fill-opacity="1" fill-rule="nonzero"/></g><g clip-path="url(#4bc720e0ab)"><path fill="#ff914d" d="M 791.371094 809.992188 L 793.136719 808.824219 C 797.878906 805.734375 802.90625 802.804688 808.21875 800.03125 L 808.242188 796.035156 C 804.703125 797.546875 799.707031 800.441406 793.253906 804.722656 L 785.652344 809.960938 Z M 791.371094 809.992188 " fill-opacity="1" fill-rule="nonzero"/></g></svg>