<svg xmlns="http://www.w3.org/2000/svg" xmlns:xlink="http://www.w3.org/1999/xlink" width="1080" zoomAndPan="magnify" viewBox="0 0 810 809.999993" height="1080" preserveAspectRatio="xMidYMid meet" version="1.0"><defs><clipPath id="380495bffe"><path d="M 1 486 L 275.253906 486 L 275.253906 809.996094 L 1 809.996094 Z M 1 486 " clip-rule="nonzero"/></clipPath><clipPath id="8d55b67820"><path d="M 1 536 L 239 536 L 239 809.996094 L 1 809.996094 Z M 1 536 " clip-rule="nonzero"/></clipPath><clipPath id="f78ba73cb4"><path d="M 0.00390625 596 L 210 596 L 210 809.996094 L 0.00390625 809.996094 Z M 0.00390625 596 " clip-rule="nonzero"/></clipPath><clipPath id="20373fede0"><path d="M 0.00390625 622 L 186 622 L 186 809.996094 L 0.00390625 809.996094 Z M 0.00390625 622 " clip-rule="nonzero"/></clipPath><clipPath id="bcc54ea1f0"><path d="M 0.00390625 642 L 163 642 L 163 809 L 0.00390625 809 Z M 0.00390625 642 " clip-rule="nonzero"/></clipPath><clipPath id="0499e2f303"><path d="M 0.00390625 659 L 143 659 L 143 809.996094 L 0.00390625 809.996094 Z M 0.00390625 659 " clip-rule="nonzero"/></clipPath><clipPath id="d5909d95b6"><path d="M 0.00390625 675 L 126 675 L 126 809 L 0.00390625 809 Z M 0.00390625 675 " clip-rule="nonzero"/></clipPath><clipPath id="f3d8e975c4"><path d="M 0.00390625 687 L 109 687 L 109 809 L 0.00390625 809 Z M 0.00390625 687 " clip-rule="nonzero"/></clipPath><clipPath id="bcbe98ce5d"><path d="M 0.00390625 698 L 92 698 L 92 809 L 0.00390625 809 Z M 0.00390625 698 " clip-rule="nonzero"/></clipPath><clipPath id="f01b86c941"><path d="M 0.00390625 710 L 75 710 L 75 809 L 0.00390625 809 Z M 0.00390625 710 " clip-rule="nonzero"/></clipPath><clipPath id="ccd56068de"><path d="M 0.00390625 724 L 63 724 L 63 809 L 0.00390625 809 Z M 0.00390625 724 " clip-rule="nonzero"/></clipPath><clipPath id="216d144a5b"><path d="M 0.00390625 739 L 47 739 L 47 809 L 0.00390625 809 Z M 0.00390625 739 " clip-rule="nonzero"/></clipPath><clipPath id="c12a7ae80e"><path d="M 0.00390625 761 L 31 761 L 31 809 L 0.00390625 809 Z M 0.00390625 761 " clip-rule="nonzero"/></clipPath><clipPath id="867dd78f1c"><path d="M 0.00390625 785 L 14 785 L 14 809 L 0.00390625 809 Z M 0.00390625 785 " clip-rule="nonzero"/></clipPath></defs><g clip-path="url(#380495bffe)"><path fill="#ff914d" d="M 1.539062 493.042969 L 2.210938 494.144531 C 7.011719 503.582031 9.503906 510.386719 9.6875 514.554688 C 11.710938 524.78125 14.449219 543.378906 17.910156 570.339844 C 19.335938 574.476562 23.460938 581.503906 30.28125 591.417969 C 31.890625 594.894531 44.105469 603.375 66.925781 616.863281 C 92.363281 625.839844 114.359375 632.535156 132.90625 636.945312 C 142.574219 642.859375 148.675781 647.035156 151.207031 649.484375 C 162.28125 659.34375 172.226562 672.804688 181.039062 689.875 C 186.769531 715.957031 191.496094 734.636719 195.21875 745.914062 C 197.230469 753.304688 201.664062 761.070312 208.519531 769.210938 C 219.957031 784.011719 230.15625 793.828125 239.117188 798.664062 C 245.949219 802.214844 254.203125 805.832031 263.878906 809.523438 L 275.371094 809.582031 C 270.847656 808.550781 264.515625 806.210938 256.378906 802.558594 C 246.363281 797.675781 237.316406 792.5 229.234375 787.035156 L 219.871094 777.335938 L 203.921875 757.976562 C 199.265625 749.59375 192.300781 725.265625 183.019531 684.984375 C 175.546875 672.300781 166.257812 660.125 155.144531 648.453125 C 147.429688 641.585938 138.722656 635.914062 129.023438 631.441406 C 99.558594 624.039062 80.25 618.714844 71.097656 615.460938 C 52.382812 605.09375 38.929688 595.566406 30.738281 586.882812 C 28.78125 585.046875 25.378906 578.277344 20.542969 566.582031 C 16.558594 533.085938 13.457031 512.746094 11.242188 505.554688 C 8.605469 499.304688 5.382812 492.789062 1.574219 486.007812 Z M 1.539062 493.042969 " fill-opacity="1" fill-rule="nonzero"/></g><g clip-path="url(#8d55b67820)"><path fill="#ff914d" d="M 1.191406 560.175781 L 2.394531 569.339844 C 3.074219 576.433594 3.789062 580.0625 4.542969 580.21875 C 6.847656 585.835938 9.761719 591.0625 13.289062 595.898438 C 18.210938 602.683594 25.070312 608.695312 33.863281 613.9375 C 40.167969 617.980469 47.925781 622.421875 57.128906 627.253906 L 117.324219 644.726562 C 126.496094 649.589844 133.410156 654.125 138.066406 658.332031 C 154.226562 676.058594 163.847656 689.332031 166.929688 698.15625 C 177.859375 746.566406 185.578125 771.9375 190.089844 774.273438 C 194.15625 780.363281 202.851562 788.503906 216.175781 798.699219 L 231.183594 809.355469 L 238.90625 809.394531 C 225.605469 802.304688 216.898438 797.003906 212.792969 793.492188 C 205.070312 785.988281 197.679688 776.796875 190.621094 765.925781 C 187.898438 762.320312 185.855469 758.207031 184.488281 753.578125 C 180.785156 741.273438 175.578125 721.34375 168.878906 693.789062 C 160.074219 678.523438 150.917969 666.332031 141.410156 657.222656 C 135.417969 652.058594 129.109375 647.351562 122.480469 643.109375 L 55.664062 623.035156 C 46.011719 617.488281 38.121094 612.628906 31.992188 608.453125 C 22.183594 603.589844 14.527344 594.488281 9.015625 581.140625 L 6.433594 574.863281 C 4.96875 561.957031 3.261719 549.03125 1.316406 536.09375 L 1.195312 560.175781 Z M 1.191406 560.175781 " fill-opacity="1" fill-rule="nonzero"/></g><g clip-path="url(#f78ba73cb4)"><path fill="#ff914d" d="M 0.972656 602.886719 L 1.9375 604.285156 C 6.40625 610.363281 10.757812 615.015625 14.992188 618.242188 C 23.386719 624.476562 32.757812 630.671875 43.101562 636.835938 C 53.105469 640.753906 74.648438 647.09375 107.726562 655.859375 C 115.910156 660.015625 123.707031 665.4375 131.117188 672.125 C 145.199219 688.082031 153.992188 700.53125 157.503906 709.472656 C 164.828125 742.203125 170.726562 764.023438 175.195312 774.9375 C 179.078125 782.707031 188.660156 794.132812 203.933594 809.214844 L 209.527344 809.242188 C 192.035156 792.464844 181.835938 781.167969 178.929688 775.351562 C 176.5 772.363281 170.4375 749.976562 160.742188 708.191406 C 155.054688 697.761719 151.074219 691.011719 148.804688 687.945312 C 140.386719 674.851562 128.414062 663.789062 112.886719 654.761719 C 110.453125 653.441406 107.949219 652.1875 105.378906 650.996094 C 79.75 644.644531 61.757812 639.742188 51.40625 636.28125 C 22.140625 621.695312 5.34375 608.316406 1.007812 596.136719 Z M 0.972656 602.886719 " fill-opacity="1" fill-rule="nonzero"/></g><g clip-path="url(#20373fede0)"><path fill="#ff914d" d="M 0.847656 627.039062 L 1.5625 627.667969 C 0.894531 628.25 12.054688 634.851562 35.046875 647.46875 C 40.972656 649.523438 60.558594 655.039062 93.800781 664.011719 C 100.695312 667.066406 108.601562 672.757812 117.515625 681.089844 C 125.179688 688.875 133.253906 699.945312 141.730469 714.296875 L 143.390625 717.753906 C 147 734.261719 150.699219 749.457031 154.488281 763.34375 C 156.429688 769.6875 158.132812 774.789062 159.597656 778.648438 C 170.417969 796.800781 177.496094 806.949219 180.832031 809.09375 L 185.972656 809.121094 C 182.917969 808.226562 175.023438 797.570312 162.296875 777.152344 C 160.851562 773.8125 154.648438 751.453125 143.691406 710.078125 C 133.503906 693.269531 124.09375 681.484375 115.464844 674.730469 C 110.324219 670.324219 104.550781 666.144531 98.144531 662.195312 L 91.398438 659.328125 C 70.421875 654.121094 51.347656 648.933594 34.179688 643.769531 C 19.261719 635.359375 8.160156 628.234375 0.871094 622.398438 Z M 0.847656 627.039062 " fill-opacity="1" fill-rule="nonzero"/></g><g clip-path="url(#bcc54ea1f0)"><path fill="#ff914d" d="M 0.742188 647.507812 L 2.804688 648.722656 C 8.425781 651.988281 15.101562 655.441406 22.832031 659.085938 L 79.222656 674.480469 C 88.96875 679.316406 98.273438 686.351562 107.132812 695.585938 C 120.070312 711.988281 127.265625 722.277344 128.722656 726.453125 C 136.953125 760.578125 142.339844 781.183594 144.875 788.277344 C 145.328125 789.949219 146.019531 791.398438 146.957031 792.621094 L 157.96875 808.976562 L 162.140625 809 C 153.421875 797.628906 148.339844 789.28125 146.894531 783.964844 C 144.902344 777.980469 140.230469 759.113281 132.878906 727.363281 C 128.355469 718.550781 123.433594 710.566406 118.113281 703.410156 L 114.050781 698.199219 C 111.292969 694.828125 108.433594 691.664062 105.476562 688.710938 C 103.152344 686.246094 99.464844 683.003906 94.410156 678.984375 C 92.988281 677.8125 87.398438 674.894531 77.636719 670.238281 C 44.507812 661.730469 25.570312 656.578125 20.824219 654.777344 C 16.484375 652.421875 9.796875 648.425781 0.769531 642.792969 Z M 0.742188 647.507812 " fill-opacity="1" fill-rule="nonzero"/></g><g clip-path="url(#0499e2f303)"><path fill="#ff914d" d="M 0.664062 662.988281 L 2.066406 663.742188 C 5.15625 665.832031 9.179688 667.511719 14.144531 668.78125 C 18.894531 670.378906 37.046875 675.585938 68.601562 684.410156 C 72.386719 686.066406 81.070312 692.796875 94.660156 704.605469 C 96.222656 705.382812 103.179688 716.164062 115.542969 736.957031 C 117.660156 749.914062 122.292969 768.273438 129.445312 792.035156 C 133.566406 802.765625 136.769531 808.441406 139.050781 809.066406 C 140.300781 809.6875 141.378906 809.628906 142.285156 808.894531 C 136.875 802.140625 133.675781 795.988281 132.691406 790.445312 C 128.328125 776.515625 123.691406 758.257812 118.785156 735.675781 C 108.578125 717.121094 100.472656 705.125 94.46875 699.6875 C 81.300781 688.550781 71.695312 681.742188 65.648438 679.257812 C 34.476562 671.109375 17.125 666.449219 13.59375 665.277344 C 9.335938 664.042969 6.054688 662.839844 3.75 661.664062 L 0.679688 659.75 Z M 0.664062 662.988281 " fill-opacity="1" fill-rule="nonzero"/></g><g clip-path="url(#d5909d95b6)"><path fill="#ff914d" d="M 0.582031 678.980469 L 3.386719 679.828125 L 56.515625 694.816406 C 72.039062 703.859375 80.527344 709.851562 81.984375 712.785156 C 90.546875 722.410156 98.59375 734.238281 106.117188 748.273438 C 114.332031 783.136719 119.75 803.3125 122.363281 808.792969 L 125.875 808.8125 C 122.554688 801.28125 116.96875 780.460938 109.117188 746.351562 C 104.371094 735.933594 97.523438 725.867188 88.574219 716.152344 C 82.070312 709.15625 75.082031 702.777344 67.609375 697.015625 L 65.109375 695.066406 L 56.222656 690.671875 C 31.109375 684.042969 12.566406 678.996094 0.597656 675.53125 Z M 0.582031 678.980469 " fill-opacity="1" fill-rule="nonzero"/></g><g clip-path="url(#f3d8e975c4)"><path fill="#ff914d" d="M 0.519531 691.34375 L 3.882812 692.339844 C 12.992188 694.984375 26.222656 698.554688 43.578125 703.046875 C 46.523438 704.335938 53.824219 709.738281 65.480469 719.246094 C 67.539062 721.414062 69.554688 723.664062 71.535156 726 C 79.882812 735.882812 86.707031 746.066406 92.007812 756.554688 L 102.972656 802.730469 C 103.5625 805.082031 104.324219 807.074219 105.246094 808.707031 L 108.5625 808.722656 C 105.464844 798.445312 101.019531 780.617188 95.234375 755.242188 C 91.21875 747.324219 88.699219 742.695312 87.675781 741.351562 C 84.039062 735.476562 80.03125 730 75.652344 724.925781 C 68.953125 716.683594 59.339844 708.691406 46.804688 700.945312 L 0.535156 687.644531 Z M 0.519531 691.34375 " fill-opacity="1" fill-rule="nonzero"/></g><g clip-path="url(#bcbe98ce5d)"><path fill="#ff914d" d="M 0.460938 702.207031 L 29.171875 710.257812 C 30.234375 710.347656 37.972656 716.171875 52.386719 727.726562 C 58.089844 733.941406 64.347656 742.648438 71.15625 753.851562 L 76.695312 763.34375 C 82.007812 787.351562 85.671875 802.441406 87.691406 808.617188 L 91.511719 808.636719 C 85.207031 785.832031 81.347656 770.308594 79.9375 762.0625 C 75.414062 754.035156 71.199219 747.101562 67.292969 741.261719 L 64.421875 737.085938 C 62.542969 734.4375 60.746094 732.066406 59.023438 729.964844 C 54.265625 724.359375 50.519531 720.578125 47.78125 718.625 C 44.128906 715.929688 37.359375 711.707031 27.46875 705.957031 L 0.480469 698.867188 Z M 0.460938 702.207031 " fill-opacity="1" fill-rule="nonzero"/></g><g clip-path="url(#f01b86c941)"><path fill="#ff914d" d="M 0.398438 714.648438 L 1.835938 715.015625 C 5.589844 715.976562 8.765625 716.730469 11.363281 717.28125 C 15.542969 719.378906 19.925781 721.929688 24.515625 724.9375 C 33.90625 731.355469 41.40625 738.613281 47.011719 746.710938 C 50.605469 751.222656 55.796875 759.527344 62.585938 771.625 L 71.324219 808.53125 L 74.769531 808.546875 L 64.203125 766.722656 C 63.710938 764.367188 60.492188 759.183594 54.542969 751.175781 C 49.902344 745.179688 42.167969 736.457031 31.339844 725.003906 C 27.832031 722.6875 20.917969 718.75 10.59375 713.199219 L 0.417969 710.609375 Z M 0.398438 714.648438 " fill-opacity="1" fill-rule="nonzero"/></g><g clip-path="url(#ccd56068de)"><path fill="#ff914d" d="M 0.328125 728.023438 L 1.460938 728.324219 C 3.503906 729.21875 6.203125 730.726562 9.5625 732.847656 C 11.714844 734.09375 16.941406 737.703125 25.25 743.679688 C 28.8125 747.347656 33.976562 753.734375 40.746094 762.832031 C 47.433594 772.664062 51.445312 779.050781 52.785156 782 L 53.160156 782.941406 L 58.996094 808.46875 L 62.621094 808.484375 L 56.371094 781.597656 C 47.59375 767.117188 41.1875 757.0625 37.160156 751.433594 C 35.292969 748.550781 32.839844 745.890625 29.800781 743.457031 C 22.570312 737.269531 17.394531 733.277344 14.273438 731.488281 C 6.421875 726.71875 1.78125 724.324219 0.347656 724.300781 Z M 0.328125 728.023438 " fill-opacity="1" fill-rule="nonzero"/></g><g clip-path="url(#216d144a5b)"><path fill="#ff914d" d="M 0.246094 743.804688 L 0.75 744.121094 C 3.578125 745.851562 7.09375 748.535156 11.300781 752.167969 C 14.304688 755.128906 19.273438 761.027344 26.199219 769.867188 L 39.050781 791.222656 L 42.773438 808.382812 L 46.476562 808.402344 L 45.035156 798.667969 C 41.800781 789.125 38.011719 780.851562 33.664062 773.839844 C 32.621094 772.226562 31.550781 770.710938 30.453125 769.304688 L 22.1875 759.933594 C 14.734375 751.582031 9.703125 746.296875 7.097656 744.082031 C 4.941406 742.347656 2.667969 740.9375 0.269531 739.851562 Z M 0.246094 743.804688 " fill-opacity="1" fill-rule="nonzero"/></g><g clip-path="url(#c12a7ae80e)"><path fill="#ff914d" d="M 0.128906 767.066406 L 1.8125 768.886719 C 8.53125 776.367188 13.957031 782.957031 18.082031 788.648438 C 19.449219 790.761719 20.960938 793.582031 22.617188 797.105469 C 24.085938 800.625 25.4375 804.355469 26.679688 808.300781 C 27.855469 808.601562 28.734375 808.640625 29.3125 808.417969 C 29.976562 807.914062 30.289062 807.132812 30.246094 806.074219 C 29.882812 804.621094 29.195312 802.589844 28.183594 799.972656 C 25.417969 794.605469 23.050781 790.476562 21.078125 787.582031 C 15.25 778.398438 9.085938 770.4375 2.589844 763.703125 C 1.820312 762.949219 1.011719 762.183594 0.15625 761.398438 Z M 0.128906 767.066406 " fill-opacity="1" fill-rule="nonzero"/></g><g clip-path="url(#867dd78f1c)"><path fill="#ff914d" d="M 0.00390625 791.363281 L 1.171875 793.128906 C 4.261719 797.875 7.191406 802.902344 9.964844 808.214844 L 13.960938 808.234375 C 12.449219 804.699219 9.554688 799.703125 5.273438 793.246094 L 0.03125 785.648438 Z M 0.00390625 791.363281 " fill-opacity="1" fill-rule="nonzero"/></g></svg>