<?xml version="1.0" encoding="utf-8"?>
<!-- Generator: Adobe Illustrator 27.5.0, SVG Export Plug-In . SVG Version: 6.00 Build 0)  -->
<svg version="1.1" xmlns="http://www.w3.org/2000/svg" xmlns:xlink="http://www.w3.org/1999/xlink" x="0px" y="0px"
	 viewBox="0 0 500 500" style="enable-background:new 0 0 500 500;" xml:space="preserve">
<g id="BACKGROUND">
	<rect style="fill:#FFFEFF;" width="500" height="500"/>
</g>
<g id="OBJECTS">
	<g>
		<path style="fill:#DDEAFB;" d="M49.522,408.044c-39.394-58.865-7.261-127.516,19.953-170.139
			c27.214-42.624-28.786-142.361,47.38-180.861s107.997-15.486,146.779,15c38.782,30.486,119.524,2.993,164.706,32.496
			s42.182,83.672,28.682,134.838s-4.545,49.852,5.727,85.759c10.273,35.907,14.122,101.64-46.833,129.407
			c-63.663,29-127.465-24.871-173.43-19.686C196.522,440.044,93.022,473.044,49.522,408.044z"/>
		<g>
			<circle style="fill:#C1DAF9;" cx="282.811" cy="189.692" r="93.058"/>
			<g>
				<g>
					<path style="fill:#DDEAFB;" d="M304.076,172.637c-9.894-12.338-26.192-9.865-43.448-7.247
						c-18.846,2.859-38.332,5.816-51.249-10.293l6.544-5.247c9.894,12.338,26.192,9.865,43.448,7.247
						c18.845-2.86,38.332-5.816,51.249,10.292L304.076,172.637z"/>
					<path style="fill:#C3DAF9;" d="M252.448,158.113l-2.901,8.821c3.682-0.423,7.394-0.985,11.081-1.544
						c3.073-0.466,6.115-0.926,9.096-1.301l2.642-8.742c-4.308,0.435-8.669,1.094-12.996,1.75
						C257.04,157.452,254.729,157.801,252.448,158.113z"/>
				</g>
				<g>
					
						<line style="fill:none;stroke:#FFFFFF;stroke-width:2;stroke-miterlimit:10;" x1="218.059" y1="156.425" x2="264.408" y2="119.258"/>
					
						<line style="fill:none;stroke:#FFFFFF;stroke-width:2;stroke-miterlimit:10;" x1="225.705" y1="161.492" x2="267.693" y2="127.823"/>
					
						<line style="fill:none;stroke:#FFFFFF;stroke-width:2;stroke-miterlimit:10;" x1="235.261" y1="165.029" x2="269.069" y2="137.919"/>
				</g>
				<g>
					<g>
						<g>
							<path style="fill:#77CBF9;" d="M356.242,224.286l-6.544,5.247c-9.894-12.338-26.192-9.865-43.448-7.248
								c-18.846,2.859-38.333,5.815-51.251-10.294c-12.917-16.108-5.797-34.487,1.089-52.261
								c6.305-16.275,12.26-31.646,2.366-43.985l6.543-5.247c12.917,16.108,5.797,34.487-1.089,52.261
								c-6.305,16.274-12.26,31.646-2.366,43.985c9.894,12.339,26.193,9.867,43.449,7.249
								C323.838,211.133,343.325,208.177,356.242,224.286z"/>
						</g>
					</g>
					<path style="fill:#56A3F1;" d="M318.44,220.629l2.737-8.665c-5.335,0.384-10.786,1.209-16.184,2.028
						c-2.397,0.364-4.774,0.723-7.12,1.042l-3.505,8.885c3.945-0.431,7.928-1.033,11.883-1.633
						C310.395,221.656,314.482,221.038,318.44,220.629z"/>
				</g>
				<g>
					
						<line style="fill:none;stroke:#FFFFFF;stroke-width:2;stroke-miterlimit:10;" x1="348.328" y1="223.913" x2="301.978" y2="261.079"/>
					
						<line style="fill:none;stroke:#FFFFFF;stroke-width:2;stroke-miterlimit:10;" x1="340.681" y1="218.845" x2="298.694" y2="252.514"/>
					
						<line style="fill:none;stroke:#FFFFFF;stroke-width:2;stroke-miterlimit:10;" x1="331.126" y1="215.309" x2="297.318" y2="242.419"/>
				</g>
				<g>
					
						<line style="fill:none;stroke:#FFFFFF;stroke-width:2;stroke-miterlimit:10;" x1="262.521" y1="211.873" x2="308.87" y2="174.706"/>
					
						<line style="fill:none;stroke:#FFFFFF;stroke-width:2;stroke-miterlimit:10;" x1="270.182" y1="216.958" x2="312.169" y2="183.289"/>
					
						<line style="fill:none;stroke:#FFFFFF;stroke-width:2;stroke-miterlimit:10;" x1="279.751" y1="220.512" x2="313.559" y2="193.402"/>
					
						<line style="fill:none;stroke:#FFFFFF;stroke-width:2;stroke-miterlimit:10;" x1="303.391" y1="167.872" x2="257.041" y2="205.039"/>
					
						<line style="fill:none;stroke:#FFFFFF;stroke-width:2;stroke-miterlimit:10;" x1="295.729" y1="162.787" x2="253.742" y2="196.456"/>
					
						<line style="fill:none;stroke:#FFFFFF;stroke-width:2;stroke-miterlimit:10;" x1="286.16" y1="159.233" x2="252.352" y2="186.342"/>
				</g>
				<path style="fill:#DDEAFB;" d="M310.62,167.39c12.917,16.109,5.798,34.488-1.087,52.263
					c-6.305,16.275-12.26,31.646-2.366,43.985l-6.543,5.247c-12.917-16.109-5.797-34.488,1.088-52.262
					c6.305-16.274,12.259-31.647,2.365-43.986L310.62,167.39z"/>
			</g>
		</g>
		<g>
			<g>
				<g>
					<polygon style="fill:none;stroke:#C1DAF9;stroke-width:0.75;stroke-miterlimit:10;" points="98.205,68.555 108.315,62.718 
						118.424,68.555 118.424,80.228 108.315,86.065 98.205,80.228 					"/>
					<polyline style="fill:none;stroke:#C1DAF9;stroke-width:0.75;stroke-miterlimit:10;" points="98.205,80.296 108.315,86.133 
						108.315,97.807 98.205,103.643 					"/>
					<polygon style="fill:none;stroke:#C1DAF9;stroke-width:0.75;stroke-miterlimit:10;" points="98.205,103.715 108.315,97.878 
						118.424,103.715 118.424,115.388 108.315,121.225 98.205,115.388 					"/>
					<polygon style="fill:none;stroke:#C1DAF9;stroke-width:0.75;stroke-miterlimit:10;" points="88.095,121.293 98.205,115.456 
						108.315,121.293 108.315,132.966 98.205,138.803 88.095,132.966 					"/>
					<polygon style="fill:none;stroke:#C1DAF9;stroke-width:0.75;stroke-miterlimit:10;" points="108.315,121.293 118.424,115.456 
						128.534,121.293 128.534,132.966 118.424,138.803 108.315,132.966 					"/>
					<polygon style="fill:none;stroke:#C1DAF9;stroke-width:0.75;stroke-miterlimit:10;" points="138.643,103.715 148.753,97.878 
						158.862,103.715 158.862,115.388 148.753,121.225 138.643,115.388 					"/>
					
						<line style="fill:none;stroke:#C1DAF9;stroke-width:0.75;stroke-miterlimit:10;" x1="128.534" y1="121.293" x2="138.643" y2="115.456"/>
					<polygon style="fill:none;stroke:#C1DAF9;stroke-width:0.75;stroke-miterlimit:10;" points="67.876,121.293 77.986,115.456 
						88.095,121.293 88.095,132.966 77.986,138.803 67.876,132.966 					"/>
					<polygon style="fill:none;stroke:#C1DAF9;stroke-width:0.75;stroke-miterlimit:10;" points="37.548,103.715 47.657,97.878 
						57.767,103.715 57.767,115.388 47.657,121.225 37.548,115.388 					"/>
					<polyline style="fill:none;stroke:#C1DAF9;stroke-width:0.75;stroke-miterlimit:10;" points="88.095,156.417 77.986,150.581 
						77.986,138.907 88.095,133.07 98.205,138.907 					"/>
					<polygon style="fill:none;stroke:#C1DAF9;stroke-width:0.75;stroke-miterlimit:10;" points="128.534,156.485 138.643,150.649 
						148.753,156.485 148.753,168.159 138.643,173.996 128.534,168.159 					"/>
					<polyline style="fill:none;stroke:#C1DAF9;stroke-width:0.75;stroke-miterlimit:10;" points="138.643,150.581 128.534,156.417 
						118.424,150.581 118.424,138.907 128.534,133.07 					"/>
					<polygon style="fill:none;stroke:#C1DAF9;stroke-width:0.75;stroke-miterlimit:10;" points="118.424,174.109 128.534,168.272 
						138.643,174.109 138.643,185.782 128.534,191.619 118.424,185.782 					"/>
					<polygon style="fill:none;stroke:#C1DAF9;stroke-width:0.75;stroke-miterlimit:10;" points="47.657,156.485 57.767,150.649 
						67.876,156.485 67.876,168.159 57.767,173.996 47.657,168.159 					"/>
					
						<line style="fill:none;stroke:#C1DAF9;stroke-width:0.75;stroke-miterlimit:10;" x1="57.767" y1="115.388" x2="67.876" y2="121.293"/>
					
						<line style="fill:none;stroke:#C1DAF9;stroke-width:0.75;stroke-miterlimit:10;" x1="67.876" y1="156.485" x2="77.986" y2="150.581"/>
				</g>
			</g>
			<g>
				<path style="fill:#77CBF9;" d="M100.102,103.643c0,1.048-0.849,1.897-1.897,1.897c-1.048,0-1.897-0.849-1.897-1.897
					c0-1.048,0.849-1.897,1.897-1.897C99.253,101.746,100.102,102.595,100.102,103.643z"/>
				<path style="fill:#77CBF9;" d="M120.321,103.643c0,1.048-0.849,1.897-1.897,1.897c-1.048,0-1.897-0.849-1.897-1.897
					c0-1.048,0.85-1.897,1.897-1.897C119.472,101.746,120.321,102.595,120.321,103.643z"/>
				<path style="fill:#77CBF9;" d="M120.321,115.388c0,1.048-0.849,1.897-1.897,1.897c-1.048,0-1.897-0.849-1.897-1.897
					c0-1.048,0.85-1.897,1.897-1.897C119.472,113.491,120.321,114.34,120.321,115.388z"/>
				<path style="fill:#77CBF9;" d="M130.431,133.07c0,1.048-0.85,1.897-1.897,1.897c-1.048,0-1.897-0.849-1.897-1.897
					s0.849-1.897,1.897-1.897C129.581,131.173,130.431,132.023,130.431,133.07z"/>
				<path style="fill:#77CBF9;" d="M100.102,138.803c0,1.048-0.849,1.897-1.897,1.897c-1.048,0-1.897-0.85-1.897-1.897
					c0-1.048,0.849-1.897,1.897-1.897C99.253,136.906,100.102,137.755,100.102,138.803z"/>
				<path style="fill:#77CBF9;" d="M79.883,138.803c0,1.048-0.85,1.897-1.897,1.897c-1.048,0-1.897-0.85-1.897-1.897
					c0-1.048,0.85-1.897,1.897-1.897C79.034,136.906,79.883,137.755,79.883,138.803z"/>
				<path style="fill:#77CBF9;" d="M89.993,156.417c0,1.048-0.849,1.897-1.897,1.897c-1.048,0-1.897-0.849-1.897-1.897
					s0.85-1.897,1.897-1.897C89.143,154.52,89.993,155.37,89.993,156.417z"/>
				<path style="fill:#77CBF9;" d="M79.883,115.456c0,1.048-0.85,1.897-1.897,1.897c-1.048,0-1.897-0.85-1.897-1.897
					s0.85-1.897,1.897-1.897C79.034,113.559,79.883,114.408,79.883,115.456z"/>
				<path style="fill:#77CBF9;" d="M69.774,133.07c0,1.048-0.85,1.897-1.897,1.897c-1.048,0-1.897-0.849-1.897-1.897
					s0.85-1.897,1.897-1.897C68.924,131.173,69.774,132.023,69.774,133.07z"/>
				<circle style="fill:#77CBF9;" cx="138.643" cy="150.581" r="1.897"/>
				<circle style="fill:#77CBF9;" cx="118.424" cy="150.649" r="1.897"/>
			</g>
		</g>
		<g>
			<g>
				<polygon style="fill:none;stroke:#C1DAF9;stroke-width:0.75;stroke-miterlimit:10;" points="447.752,351.872 454.064,362.806 
					447.752,373.74 435.126,373.74 428.814,362.806 435.126,351.872 				"/>
				<polyline style="fill:none;stroke:#C1DAF9;stroke-width:0.75;stroke-miterlimit:10;" points="435.053,351.872 428.74,362.806 
					416.115,362.806 409.802,351.872 				"/>
				<polygon style="fill:none;stroke:#C1DAF9;stroke-width:0.75;stroke-miterlimit:10;" points="409.725,351.872 416.038,362.806 
					409.725,373.74 397.1,373.74 390.787,362.806 397.1,351.872 				"/>
				<polygon style="fill:none;stroke:#C1DAF9;stroke-width:0.75;stroke-miterlimit:10;" points="390.714,340.938 397.026,351.872 
					390.714,362.806 378.088,362.806 371.776,351.872 378.088,340.938 				"/>
				<polygon style="fill:none;stroke:#C1DAF9;stroke-width:0.75;stroke-miterlimit:10;" points="390.714,362.806 397.026,373.74 
					390.714,384.673 378.088,384.673 371.776,373.74 378.088,362.806 				"/>
				<polygon style="fill:none;stroke:#C1DAF9;stroke-width:0.75;stroke-miterlimit:10;" points="409.725,395.607 416.038,406.541 
					409.725,417.475 397.1,417.475 390.787,406.541 397.1,395.607 				"/>
				
					<line style="fill:none;stroke:#C1DAF9;stroke-width:0.75;stroke-miterlimit:10;" x1="390.714" y1="384.673" x2="397.026" y2="395.607"/>
				<polygon style="fill:none;stroke:#C1DAF9;stroke-width:0.75;stroke-miterlimit:10;" points="390.714,319.071 397.026,330.004 
					390.714,340.938 378.088,340.938 371.776,330.004 378.088,319.071 				"/>
				<polygon style="fill:none;stroke:#C1DAF9;stroke-width:0.75;stroke-miterlimit:10;" points="409.725,286.269 416.038,297.203 
					409.725,308.137 397.1,308.137 390.787,297.203 397.1,286.269 				"/>
				<polyline style="fill:none;stroke:#C1DAF9;stroke-width:0.75;stroke-miterlimit:10;" points="352.725,340.938 359.038,330.004 
					371.663,330.004 377.976,340.938 371.663,351.872 				"/>
				<polygon style="fill:none;stroke:#C1DAF9;stroke-width:0.75;stroke-miterlimit:10;" points="352.652,384.673 358.964,395.607 
					352.652,406.541 340.026,406.541 333.714,395.607 340.026,384.673 				"/>
				<polyline style="fill:none;stroke:#C1DAF9;stroke-width:0.75;stroke-miterlimit:10;" points="359.038,395.607 352.725,384.673 
					359.038,373.74 371.663,373.74 377.976,384.673 				"/>
				<polygon style="fill:none;stroke:#C1DAF9;stroke-width:0.75;stroke-miterlimit:10;" points="333.592,373.74 339.904,384.673 
					333.592,395.607 320.966,395.607 314.654,384.673 320.966,373.74 				"/>
				<polygon style="fill:none;stroke:#C1DAF9;stroke-width:0.75;stroke-miterlimit:10;" points="352.652,297.203 358.964,308.137 
					352.652,319.071 340.026,319.071 333.714,308.137 340.026,297.203 				"/>
				
					<line style="fill:none;stroke:#C1DAF9;stroke-width:0.75;stroke-miterlimit:10;" x1="397.1" y1="308.137" x2="390.714" y2="319.071"/>
				
					<line style="fill:none;stroke:#C1DAF9;stroke-width:0.75;stroke-miterlimit:10;" x1="352.652" y1="319.071" x2="359.038" y2="330.004"/>
			</g>
			<g>
				<path style="fill:#77CBF9;" d="M409.802,353.924c-1.133,0-2.052-0.919-2.052-2.052c0-1.133,0.919-2.052,2.052-2.052
					c1.133,0,2.052,0.919,2.052,2.052C411.854,353.005,410.936,353.924,409.802,353.924z"/>
				<path style="fill:#77CBF9;" d="M409.802,375.792c-1.133,0-2.052-0.919-2.052-2.052c0-1.133,0.919-2.052,2.052-2.052
					c1.133,0,2.052,0.919,2.052,2.052C411.854,374.873,410.936,375.792,409.802,375.792z"/>
				<path style="fill:#77CBF9;" d="M397.1,375.792c-1.133,0-2.052-0.919-2.052-2.052c0-1.133,0.919-2.052,2.052-2.052
					c1.133,0,2.052,0.919,2.052,2.052C399.152,374.873,398.233,375.792,397.1,375.792z"/>
				<circle style="fill:#77CBF9;" cx="377.976" cy="384.673" r="2.052"/>
				<path style="fill:#77CBF9;" d="M371.776,353.924c-1.133,0-2.052-0.919-2.052-2.052c0-1.133,0.919-2.052,2.052-2.052
					c1.133,0,2.052,0.919,2.052,2.052C373.828,353.005,372.909,353.924,371.776,353.924z"/>
				<path style="fill:#77CBF9;" d="M371.776,332.056c-1.133,0-2.052-0.919-2.052-2.052s0.919-2.052,2.052-2.052
					c1.133,0,2.052,0.919,2.052,2.052S372.909,332.056,371.776,332.056z"/>
				<circle style="fill:#77CBF9;" cx="352.725" cy="340.938" r="2.052"/>
				<path style="fill:#77CBF9;" d="M397.026,332.056c-1.133,0-2.052-0.919-2.052-2.052s0.919-2.052,2.052-2.052
					c1.133,0,2.052,0.919,2.052,2.052S398.16,332.056,397.026,332.056z"/>
				<circle style="fill:#77CBF9;" cx="377.976" cy="319.071" r="2.052"/>
				<path style="fill:#77CBF9;" d="M359.038,397.659c-1.133,0-2.052-0.919-2.052-2.052s0.919-2.052,2.052-2.052
					c1.133,0,2.052,0.919,2.052,2.052S360.171,397.659,359.038,397.659z"/>
				<path style="fill:#77CBF9;" d="M358.964,375.792c-1.133,0-2.052-0.919-2.052-2.052c0-1.133,0.919-2.052,2.052-2.052
					c1.133,0,2.052,0.919,2.052,2.052C361.016,374.873,360.098,375.792,358.964,375.792z"/>
			</g>
		</g>
		<g>
			<g>
				<polygon style="fill:none;stroke:#C1DAF9;stroke-width:0.75;stroke-miterlimit:10;" points="373.493,176.884 362.559,183.196 
					351.625,176.884 351.625,164.258 362.559,157.946 373.493,164.258 				"/>
				<polyline style="fill:none;stroke:#C1DAF9;stroke-width:0.75;stroke-miterlimit:10;" points="373.493,164.185 362.559,157.872 
					362.559,145.247 373.493,138.934 				"/>
				<polygon style="fill:none;stroke:#C1DAF9;stroke-width:0.75;stroke-miterlimit:10;" points="373.493,138.857 362.559,145.17 
					351.625,138.857 351.625,126.232 362.559,119.919 373.493,126.232 				"/>
				<polygon style="fill:none;stroke:#C1DAF9;stroke-width:0.75;stroke-miterlimit:10;" points="384.427,119.846 373.493,126.158 
					362.559,119.846 362.559,107.22 373.493,100.908 384.427,107.22 				"/>
				<polygon style="fill:none;stroke:#C1DAF9;stroke-width:0.75;stroke-miterlimit:10;" points="362.559,119.846 351.625,126.158 
					340.692,119.846 340.692,107.22 351.625,100.908 362.559,107.22 				"/>
				<polygon style="fill:none;stroke:#C1DAF9;stroke-width:0.75;stroke-miterlimit:10;" points="329.758,138.857 318.824,145.17 
					307.89,138.857 307.89,126.232 318.824,119.919 329.758,126.232 				"/>
				
					<line style="fill:none;stroke:#C1DAF9;stroke-width:0.75;stroke-miterlimit:10;" x1="340.692" y1="119.846" x2="329.758" y2="126.158"/>
				<polygon style="fill:none;stroke:#C1DAF9;stroke-width:0.75;stroke-miterlimit:10;" points="406.294,119.846 395.361,126.158 
					384.427,119.846 384.427,107.22 395.361,100.908 406.294,107.22 				"/>
				<polygon style="fill:none;stroke:#C1DAF9;stroke-width:0.75;stroke-miterlimit:10;" points="439.096,138.857 428.162,145.17 
					417.228,138.857 417.228,126.232 428.162,119.919 439.096,126.232 				"/>
				<polyline style="fill:none;stroke:#C1DAF9;stroke-width:0.75;stroke-miterlimit:10;" points="384.427,81.857 395.361,88.17 
					395.361,100.795 384.427,107.108 373.493,100.795 				"/>
				<polygon style="fill:none;stroke:#C1DAF9;stroke-width:0.75;stroke-miterlimit:10;" points="340.692,81.784 329.758,88.096 
					318.824,81.784 318.824,69.159 329.758,62.846 340.692,69.159 				"/>
				<polyline style="fill:none;stroke:#C1DAF9;stroke-width:0.75;stroke-miterlimit:10;" points="329.758,88.17 340.692,81.857 
					351.625,88.17 351.625,100.795 340.692,107.108 				"/>
				<polygon style="fill:none;stroke:#C1DAF9;stroke-width:0.75;stroke-miterlimit:10;" points="351.625,62.724 340.692,69.036 
					329.758,62.724 329.758,50.098 340.692,43.786 351.625,50.098 				"/>
				<polygon style="fill:none;stroke:#C1DAF9;stroke-width:0.75;stroke-miterlimit:10;" points="428.162,81.784 417.228,88.096 
					406.294,81.784 406.294,69.159 417.228,62.846 428.162,69.159 				"/>
				
					<line style="fill:none;stroke:#C1DAF9;stroke-width:0.75;stroke-miterlimit:10;" x1="417.228" y1="126.232" x2="406.294" y2="119.846"/>
				
					<line style="fill:none;stroke:#C1DAF9;stroke-width:0.75;stroke-miterlimit:10;" x1="406.294" y1="81.784" x2="395.361" y2="88.17"/>
			</g>
			<g>
				<path style="fill:#77CBF9;" d="M371.441,138.934c0-1.133,0.919-2.052,2.052-2.052c1.133,0,2.052,0.919,2.052,2.052
					c0,1.133-0.919,2.052-2.052,2.052C372.36,140.986,371.441,140.068,371.441,138.934z"/>
				<path style="fill:#77CBF9;" d="M349.573,138.934c0-1.133,0.919-2.052,2.052-2.052c1.133,0,2.052,0.919,2.052,2.052
					c0,1.133-0.919,2.052-2.052,2.052C350.492,140.986,349.573,140.068,349.573,138.934z"/>
				<path style="fill:#77CBF9;" d="M349.573,126.232c0-1.133,0.919-2.052,2.052-2.052c1.133,0,2.052,0.919,2.052,2.052
					c0,1.133-0.919,2.052-2.052,2.052C350.492,128.284,349.573,127.365,349.573,126.232z"/>
				<circle style="fill:#77CBF9;" cx="340.692" cy="107.108" r="2.052"/>
				<path style="fill:#77CBF9;" d="M371.441,100.908c0-1.133,0.919-2.052,2.052-2.052c1.133,0,2.052,0.919,2.052,2.052
					c0,1.133-0.919,2.052-2.052,2.052C372.36,102.96,371.441,102.041,371.441,100.908z"/>
				<path style="fill:#77CBF9;" d="M393.309,100.908c0-1.133,0.919-2.052,2.052-2.052s2.052,0.919,2.052,2.052
					c0,1.133-0.919,2.052-2.052,2.052S393.309,102.041,393.309,100.908z"/>
				<circle style="fill:#77CBF9;" cx="384.427" cy="81.857" r="2.052"/>
				<path style="fill:#77CBF9;" d="M393.309,126.158c0-1.133,0.919-2.052,2.052-2.052s2.052,0.919,2.052,2.052
					c0,1.133-0.919,2.052-2.052,2.052S393.309,127.292,393.309,126.158z"/>
				<circle style="fill:#77CBF9;" cx="406.294" cy="107.108" r="2.052"/>
				<path style="fill:#77CBF9;" d="M327.706,88.17c0-1.133,0.919-2.052,2.052-2.052s2.052,0.919,2.052,2.052
					c0,1.133-0.919,2.052-2.052,2.052S327.706,89.303,327.706,88.17z"/>
				<path style="fill:#77CBF9;" d="M349.573,88.096c0-1.133,0.919-2.052,2.052-2.052c1.133,0,2.052,0.919,2.052,2.052
					c0,1.133-0.919,2.052-2.052,2.052C350.492,90.148,349.573,89.23,349.573,88.096z"/>
			</g>
		</g>
		<g>
			<g>
				<rect x="288.031" y="390.235" style="fill:#2D55AD;" width="42.907" height="33.679"/>
				<path style="fill:#57A2F3;" d="M261.214,436.178v-10.732c0-3.824,3.1-6.924,6.924-6.924h82.693c3.824,0,6.924,3.1,6.924,6.924
					v10.732H261.214z"/>
				<path style="fill:#0B2A6B;" d="M227.961,456.741V443.44c0-4.739,3.842-8.582,8.582-8.582h145.884
					c4.74,0,8.582,3.842,8.582,8.582v13.301H227.961z"/>
			</g>
			<g>
				<path style="fill:#57A2F3;" d="M374.659,158.607l-18.039,29.203c27.712,17.118,44.257,46.756,44.257,79.282
					c0,51.339-41.768,93.108-93.108,93.108h-98.852v10.912c0,3.888,3.152,7.04,7.04,7.04h29.312
					c19.011,10.713,40.545,16.373,62.5,16.373c70.267,0,127.434-57.167,127.434-127.434
					C435.202,222.581,412.569,182.026,374.659,158.607z"/>
				<path style="fill:#368BD8;" d="M358.517,345.115c-14.608,9.534-32.041,15.085-50.749,15.085h-98.852v10.912
					c0,3.888,3.152,7.04,7.04,7.04h29.312c19.011,10.713,40.545,16.373,62.5,16.373c59.795,0,110.094-41.4,123.761-97.039
					C406.139,329.835,375.68,341.168,358.517,345.115z"/>
			</g>
			<g>
				
					<rect x="361.479" y="75.79" transform="matrix(0.4117 -0.9113 0.9113 0.4117 136.0117 394.4248)" style="fill:#57A2F3;" width="24.028" height="32.159"/>
				
					<rect x="372.345" y="92.622" transform="matrix(0.4116 -0.9113 0.9113 0.4116 137.9431 407.2246)" style="fill:#368BD8;" width="24.028" height="8.313"/>
				
					<rect x="253.436" y="144.646" transform="matrix(0.4117 -0.9113 0.9113 0.4117 41.1915 408.6485)" style="fill:#2D55AD;" width="167.337" height="55.548"/>
				
					<rect x="268.585" y="168.113" transform="matrix(0.4117 -0.9113 0.9113 0.4117 43.8659 426.4786)" style="fill:#0B2A6B;" width="167.337" height="22.302"/>
				<g>
					
						<rect x="262.561" y="273.191" transform="matrix(0.4117 -0.9113 0.9113 0.4117 -93.4219 414.8261)" style="fill:#57A2F3;" width="24.028" height="13.156"/>
					
						<rect x="285.874" y="283.722" transform="matrix(0.4117 -0.9113 0.9113 0.4117 -89.3032 442.2695)" style="fill:#57A2F3;" width="24.028" height="13.156"/>
					
						<rect x="289.801" y="289.806" transform="matrix(0.4117 -0.9113 0.9113 0.4117 -88.607 446.8985)" style="fill:#368BD8;" width="24.028" height="4.538"/>
					
						<rect x="266.655" y="279.533" transform="matrix(0.4116 -0.9114 0.9114 0.4116 -92.6917 419.6643)" style="fill:#368BD8;" width="24.028" height="4.171"/>
				</g>
				
					<rect x="281.509" y="241.474" transform="matrix(0.4117 -0.9113 0.9113 0.4117 -72.7834 425.7506)" style="fill:#2D55AD;" width="23.708" height="55.548"/>
				
					<rect x="296.558" y="264.786" transform="matrix(0.4117 -0.9113 0.9113 0.4117 -70.126 443.4632)" style="fill:#0B2A6B;" width="23.708" height="22.521"/>
				
					<rect x="288.98" y="212.487" transform="matrix(0.4117 -0.9113 0.9113 0.4117 -51.7826 422.5998)" style="fill:#57A2F3;" width="24.886" height="77.84"/>
				
					<rect x="288.98" y="246.154" transform="matrix(0.4117 -0.9113 0.9113 0.4117 -51.7834 422.5981)" style="fill:#76C9FB;" width="24.886" height="10.505"/>
				
					<rect x="276.891" y="241.889" transform="matrix(0.4117 -0.9113 0.9113 0.4117 -53.9184 408.3692)" style="fill:#76C9FB;" width="24.886" height="8.115"/>
			</g>
			<g>
				
					<ellipse transform="matrix(0.1476 -0.989 0.989 0.1476 137.1563 516.5547)" style="fill:#0B2A6B;" cx="368.267" cy="178.704" rx="31.322" ry="31.322"/>
				<path style="fill:#368BD8;" d="M387.508,178.704c0,10.626-8.614,19.241-19.241,19.241c-10.627,0-19.241-8.614-19.241-19.241
					c0-10.626,8.614-19.24,19.241-19.24C378.893,159.463,387.508,168.077,387.508,178.704z"/>
				<path style="fill:#57A2F3;" d="M384.844,178.704c0,9.156-7.422,16.577-16.577,16.577c-9.156,0-16.578-7.422-16.578-16.577
					c0-9.155,7.422-16.577,16.578-16.577C377.423,162.126,384.844,169.548,384.844,178.704z"/>
			</g>
			<g>
				<path style="fill:#2D55AD;" d="M364.356,348.544c0-2.762-2.239-5-5-5H207.583c-2.761,0-5,2.238-5,5v6.656c0,2.761,2.239,5,5,5
					h151.773c2.761,0,5-2.239,5-5V348.544z"/>
				<path style="fill:#0B2A6B;" d="M202.583,351.872v3.328c0,2.761,2.239,5,5,5h151.773c2.761,0,5-2.239,5-5v-3.328H202.583z"/>
			</g>
		</g>
		<g>
			<circle style="fill:#C1DAF9;" cx="431.529" cy="245.946" r="37.332"/>
			<g>
				<path style="fill:#2F52AC;" d="M435.301,245.946c0,2.083-1.689,3.772-3.772,3.772c-2.083,0-3.772-1.689-3.772-3.772
					c0-2.083,1.689-3.772,3.772-3.772C433.612,242.174,435.301,243.863,435.301,245.946z"/>
				<g>
					<path style="fill:none;stroke:#FFFFFF;stroke-miterlimit:10;" d="M455.668,245.946c0,3.963-10.807,7.175-24.139,7.175
						c-13.331,0-24.139-3.213-24.139-7.175c0-3.963,10.807-7.175,24.139-7.175C444.861,238.771,455.668,241.983,455.668,245.946z"/>
					<path style="fill:none;stroke:#FFFFFF;stroke-miterlimit:10;" d="M448.598,228.877c2.802,2.802-2.568,12.716-11.995,22.143
						c-9.427,9.427-19.34,14.797-22.142,11.995c-2.802-2.802,2.568-12.716,11.995-22.143
						C435.882,231.445,445.796,226.075,448.598,228.877z"/>
					<path style="fill:none;stroke:#FFFFFF;stroke-miterlimit:10;" d="M448.598,263.015c-2.802,2.802-12.716-2.568-22.143-11.995
						c-9.427-9.427-14.797-19.34-11.995-22.143c2.802-2.802,12.716,2.568,22.142,11.995
						C446.03,250.299,451.4,260.212,448.598,263.015z"/>
					<path style="fill:none;stroke:#FFFFFF;stroke-miterlimit:10;" d="M431.529,221.807c3.963,0,7.176,10.807,7.176,24.139
						c0,13.332-3.213,24.139-7.176,24.139c-3.963,0-7.175-10.807-7.175-24.139C424.354,232.614,427.566,221.807,431.529,221.807z"/>
				</g>
			</g>
		</g>
		<g>
			<g>
				<path style="fill:#74C8F6;" d="M137.557,160.637c0,0-12.574,20.072-0.654,20.072
					C148.824,180.71,137.557,160.637,137.557,160.637z"/>
				<g>
					<path style="fill:#FFFEFF;" d="M193.367,90.652c0,0-45.541,46.384-49.53,50.447c-3.989,4.063-3.547,5.75-3.737,8.082
						c-0.19,2.332-3.027,5.648-3.027,5.648l1.924,1.889l1.924,1.889c0,0,3.264-2.897,5.592-3.13s4.023,0.178,8.012-3.885
						c3.989-4.063,49.53-50.447,49.53-50.447L193.367,90.652z"/>
					<path style="fill:#0B2A6B;" d="M194.199,88.95l8.456-8.613c2.934-2.988,7.735-3.032,10.723-0.098l0.721,0.708
						c2.988,2.934,3.032,7.735,0.098,10.723l-8.456,8.613L194.199,88.95z"/>
					<path style="fill:#74C8F6;" d="M163.262,124.629c-8.27,8.423-17.058,17.374-18.449,18.79c-2.724,2.774-2.422,3.927-2.552,5.519
						c-0.13,1.592-2.067,3.857-2.067,3.857l1.314,1.29l1.314,1.29c0,0,2.229-1.978,3.818-2.137c1.59-0.159,2.747,0.122,5.471-2.653
						c1.805-1.839,16.065-16.363,25.484-25.956H163.262z"/>
					<path style="fill:#2956A9;" d="M207.469,103.868c-0.869,0.885-2.292,0.898-3.177,0.029l-13.68-13.431
						c-0.885-0.869-0.898-2.292-0.029-3.177l0,0c0.869-0.885,2.292-0.898,3.177-0.029l13.68,13.431
						C208.325,101.56,208.339,102.982,207.469,103.868L207.469,103.868z"/>
				</g>
			</g>
			<g>
				<path style="fill:#76C9FB;" d="M92.969,355.576v97.75c0,3.452,21.267,8.25,47.5,8.25s47.5-4.798,47.5-8.25v-97.75H92.969z"/>
				<path style="fill:#2D55AD;" d="M97.969,389.576v59.04c0,3.088,19.028,7.382,42.5,7.382s42.5-4.293,42.5-7.382v-59.04H97.969z"/>
				<g>
					<g>
						<path style="fill:#0B2A6B;" d="M118.78,405.742c0,3.209-2.602,5.811-5.811,5.811s-5.811-2.602-5.811-5.811
							c0-3.21,2.602-5.811,5.811-5.811S118.78,402.533,118.78,405.742z"/>
						<path style="fill:#0B2A6B;" d="M121.969,425.076c0,1.761-1.428,3.189-3.189,3.189s-3.189-1.428-3.189-3.189
							c0-1.761,1.428-3.189,3.189-3.189S121.969,423.315,121.969,425.076z"/>
						<circle style="fill:#0B2A6B;" cx="145.969" cy="405.742" r="2"/>
						<circle style="fill:#0B2A6B;" cx="157.302" cy="417.076" r="8"/>
						<path style="fill:#0B2A6B;" d="M175.469,401.076c0,1.473-1.194,2.667-2.667,2.667c-1.473,0-2.667-1.194-2.667-2.667
							c0-1.473,1.194-2.667,2.667-2.667C174.275,398.409,175.469,399.603,175.469,401.076z"/>
						<path style="fill:#0B2A6B;" d="M176.135,430.242c0,1.841-1.492,3.333-3.333,3.333c-1.841,0-3.333-1.492-3.333-3.333
							c0-1.841,1.492-3.333,3.333-3.333C174.643,426.909,176.135,428.401,176.135,430.242z"/>
						<path style="fill:#0B2A6B;" d="M110.824,440.242c0,2.025-1.642,3.667-3.667,3.667c-2.025,0-3.667-1.642-3.667-3.667
							c0-2.025,1.642-3.667,3.667-3.667C109.182,436.576,110.824,438.217,110.824,440.242z"/>
					</g>
				</g>
				<path style="fill:#FFFEFF;" d="M107.157,438.481c0,1.709-1.385,3.094-3.094,3.094l0,0c-1.709,0-3.094-1.385-3.094-3.094V370.67
					c0-1.709,1.385-3.094,3.094-3.094l0,0c1.709,0,3.094,1.385,3.094,3.094V438.481z"/>
				<g>
					<g>
						<path style="fill:#2B53AB;" d="M135.617,346.242c0,0,8.494-12.799,16.278-29.404c7.783-16.605,34.247-40.474,63.824-37.187
							c0,0-1.257,14.597-14.702,33.142C185.796,333.789,156.259,337.182,135.617,346.242z"/>
						<g>
							<g>
								<path style="fill:none;stroke:#0B2A6B;stroke-width:0.75;stroke-miterlimit:10;" d="M205.058,285.878
									c0,0-38.326,27.155-69.441,60.365"/>
								<path style="fill:none;stroke:#0B2A6B;stroke-width:0.75;stroke-miterlimit:10;" d="M192.195,282.184
									c0,0-1.932,6.203-3.215,15.845"/>
								<path style="fill:none;stroke:#0B2A6B;stroke-width:0.75;stroke-miterlimit:10;" d="M182.437,303.257
									c0,0,11.275,2.678,24.7,0"/>
								<path style="fill:none;stroke:#0B2A6B;stroke-width:0.75;stroke-miterlimit:10;" d="M175.245,291.055
									c0,0-2.421,9.083-2.767,20.46"/>
								<path style="fill:none;stroke:#0B2A6B;stroke-width:0.75;stroke-miterlimit:10;" d="M163.049,319.701
									c0,0,20.898,1.182,33.411-1.532"/>
								<path style="fill:none;stroke:#0B2A6B;stroke-width:0.75;stroke-miterlimit:10;" d="M158.19,306.896
									c0,0-2.686,11.115-3.107,20.041"/>
								<path style="fill:none;stroke:#0B2A6B;stroke-width:0.75;stroke-miterlimit:10;" d="M148.156,333.511
									c0,0,17.935-0.175,28.393-2.111"/>
							</g>
						</g>
					</g>
					<g>
						<path style="fill:#2B53AB;" d="M138.302,329.576c0,0-1.348-31.481-21.933-47.105c-20.586-15.624-43.439-16.79-50.901-22.62
							c0,0-0.7,25.418,10.027,37.544C86.222,309.521,120.424,313.019,138.302,329.576z"/>
						<g>
							<g>
								<path style="fill:none;stroke:#0B2A6B;stroke-width:0.75;stroke-miterlimit:10;" d="M76.969,274.65
									c0,0,44.667,16.175,61.333,54.925"/>
								<path style="fill:none;stroke:#0B2A6B;stroke-width:0.75;stroke-miterlimit:10;" d="M68.422,283.332
									c0,0,16.803,3.536,31.303,3.154"/>
								<path style="fill:none;stroke:#0B2A6B;stroke-width:0.75;stroke-miterlimit:10;" d="M92.347,269.676
									c0,0,9.06,10.103,11.716,19.752"/>
								<path style="fill:none;stroke:#0B2A6B;stroke-width:0.75;stroke-miterlimit:10;" d="M82.79,302.922
									c0,0,23.551-5.403,35.99-1.25"/>
								<path style="fill:none;stroke:#0B2A6B;stroke-width:0.75;stroke-miterlimit:10;" d="M111.548,279.098
									c0,0,9.231,15.221,10.304,25.725"/>
								<path style="fill:none;stroke:#0B2A6B;stroke-width:0.75;stroke-miterlimit:10;" d="M105.783,312.402
									c0,0,15.346-1.205,23.641,1.609"/>
								<path style="fill:none;stroke:#0B2A6B;stroke-width:0.75;stroke-miterlimit:10;" d="M126.336,293.064
									c0,0,4.627,14.428,5.255,24.095"/>
							</g>
						</g>
					</g>
					<g>
						<path style="fill:#2B53AB;" d="M139.834,297.681c0,0,3.667-38.577-4.333-60.594c-8-22.017-27.667-39.542-38.333-41.613
							c0,0-13,17.596-2.667,40.263C104.834,258.405,132.834,267.958,139.834,297.681z"/>
						<g>
							<g>
								<path style="fill:none;stroke:#0B2A6B;stroke-width:0.75;stroke-miterlimit:10;" d="M105.022,210.22
									c0,0,29.478,37.405,34.811,87.461"/>
								<path style="fill:none;stroke:#0B2A6B;stroke-width:0.75;stroke-miterlimit:10;" d="M90.51,218.071
									c0,0,17.374,3.474,29.682,16.654"/>
								<path style="fill:none;stroke:#0B2A6B;stroke-width:0.75;stroke-miterlimit:10;" d="M122.428,214.5
									c0,0,3.546,13.203,0.622,25.96"/>
								<path style="fill:none;stroke:#0B2A6B;stroke-width:0.75;stroke-miterlimit:10;" d="M97.334,241.238
									c0,0,20.161,3.98,31.491,12.503"/>
								<path style="fill:none;stroke:#0B2A6B;stroke-width:0.75;stroke-miterlimit:10;" d="M136.331,239.572
									c0,0-0.99,14.999-3.91,24.166"/>
								<path style="fill:none;stroke:#0B2A6B;stroke-width:0.75;stroke-miterlimit:10;" d="M117.334,263.071
									c0,0,15.13,8.212,18.815,13.689"/>
							</g>
						</g>
						<path style="fill:#59A4F5;" d="M108.689,246.14c-7.041-3.46-12.357-9.529-15.883-14.658c0.478,1.396,1.038,2.816,1.695,4.256
							c10.333,22.667,38.333,32.22,45.333,61.943C139.5,274.291,130.834,257.02,108.689,246.14z"/>
					</g>
					<path style="fill:#0B2A6B;" d="M140.469,287.201c0,0-3.125,10.371-2.75,26.811s-1.838,27.299-2.919,35.057
						c-1.081,7.758,1.669,43.133,1.919,52.883s1.875,22.792,0.375,24.958c-1.5,2.167-5.375,8.667-10.5,11.292s-12,7.625-12,7.625
						s7.25-4.25,10.375-4.875s6.875-3,9-5.5s4.875-6.375,5.625-6.625s-0.875,7.458,0.875,11.417c1.75,3.958,4.125,6.728,4.5,9.531
						c0,0,0.25-2.947-1-6.322s-2.25-6.5-2.375-9s0-7.747,1-6.186c1,1.561,6.375,11.936,10.5,13.311s8.5,0.542,14.125,2.333
						c0,0-2.625-2.25-5.875-3.667c-3.25-1.417-7.25,0.458-9.125-2.042s-7.375-9.5-8.25-11.875s-3-2.875-3.5-8.25
						s-1.5-32.5-2.25-38.625s-1.25-28.125-0.75-31.75s3.125-19.25,3-25.875S138.344,302.951,140.469,287.201z"/>
					<g>
						<path style="fill:#2B53AB;" d="M138.302,301.829c0,0,3.333-27.256,3.333-45.001s7.333-70.745,46.333-65.079
							c0,0-5.333,5-7,33.667C179.302,254.082,162.969,287.242,138.302,301.829z"/>
						<g>
							<g>
								<path style="fill:none;stroke:#0B2A6B;stroke-width:0.75;stroke-miterlimit:10;" d="M177.969,195.816
									c0,0-21.333,11.992-28.667,53.462c-7.333,41.47-11,52.55-11,52.55"/>
								<path style="fill:none;stroke:#0B2A6B;stroke-width:0.75;stroke-miterlimit:10;" d="M160.973,199.754
									c0,0-4.671,11.103-3.671,22.716"/>
								<path style="fill:none;stroke:#0B2A6B;stroke-width:0.75;stroke-miterlimit:10;" d="M152.434,235.777
									c0,0,14.27-1.91,28.902-15.635"/>
								<path style="fill:none;stroke:#0B2A6B;stroke-width:0.75;stroke-miterlimit:10;" d="M148.333,254.698
									c0,0,14.934-2.143,29.434-9.815"/>
								<path style="fill:none;stroke:#0B2A6B;stroke-width:0.75;stroke-miterlimit:10;" d="M145.969,227.101
									c0,0,1.126,10.677,4.73,15.329"/>
								<path style="fill:none;stroke:#0B2A6B;stroke-width:0.75;stroke-miterlimit:10;" d="M141.822,251.418
									c0,0,0.214,17.166,2.88,22.5"/>
								<path style="fill:none;stroke:#0B2A6B;stroke-width:0.75;stroke-miterlimit:10;" d="M168.053,269.278
									c0,0-12.54,8.62-24.479,10.212"/>
							</g>
						</g>
					</g>
				</g>
				<path style="fill:#FFFEFF;" d="M194.802,356.909c0,2.762-2.239,5-5,5H91.135c-2.761,0-5-2.238-5-5v-12.871c0-2.761,2.239-5,5-5
					h98.667c2.761,0,5,2.239,5,5V356.909z"/>
			</g>
		</g>
	</g>
</g>
</svg>
