<svg width="5483" height="3656" viewBox="0 0 5483 3656" fill="none" xmlns="http://www.w3.org/2000/svg">
<g clip-path="url(#clip0_377_336)">
<path d="M5268.22 2078.39C5268.22 1354.72 4681.68 768.067 3958.14 768.067C3931.42 768.067 3904.91 768.967 3878.59 770.539C3590.78 426.005 3158.05 206.762 2674.06 206.762C1934.93 206.762 1315.28 718.002 1149.05 1406.19C712.036 1528.26 391.441 1929.36 391.441 2405.38C391.441 2690.49 506.467 2948.72 692.604 3136.23H4731.21C5056.76 2897.85 5268.22 2512.84 5268.22 2078.39Z" fill="#D1F4F5"/>
<path d="M5205.33 3252.62C5205.33 3239.83 5194.97 3229.46 5182.18 3229.46H5021.21C5008.42 3229.46 4998.05 3219.09 4998.05 3206.31C4998.05 3193.52 4987.69 3183.15 4974.9 3183.15H4931.97C4919.19 3183.15 4908.82 3172.78 4908.82 3159.99C4908.82 3147.2 4898.45 3136.83 4885.67 3136.83H597.325C584.539 3136.83 574.172 3147.2 574.172 3159.99C574.172 3172.78 563.806 3183.15 551.019 3183.15H508.091C495.305 3183.15 484.938 3193.52 484.938 3206.31C484.938 3219.09 474.572 3229.46 461.785 3229.46H300.819C288.033 3229.46 277.666 3239.83 277.666 3252.62C277.666 3265.41 288.033 3275.78 300.819 3275.78H1763.16C1775.95 3275.78 1786.32 3286.15 1786.32 3298.93C1786.32 3311.72 1775.95 3322.09 1763.16 3322.09H947.828C935.041 3322.09 924.675 3332.46 924.675 3345.25C924.675 3358.04 935.041 3368.41 947.828 3368.41H4936.15C4948.93 3368.41 4959.3 3358.04 4959.3 3345.25C4959.3 3332.46 4948.93 3322.09 4936.15 3322.09H4150.23C4137.44 3322.09 4127.08 3311.72 4127.08 3298.93C4127.08 3286.15 4137.44 3275.78 4150.23 3275.78H5182.18C5194.97 3275.78 5205.33 3265.41 5205.33 3252.62Z" fill="#9EE6E0"/>
<path d="M794.904 3368.4H607.268C594.482 3368.4 584.115 3358.03 584.115 3345.24C584.115 3332.45 594.482 3322.08 607.268 3322.08H794.911C807.697 3322.08 818.064 3332.45 818.064 3345.24C818.057 3358.03 807.69 3368.4 794.904 3368.4Z" fill="#9EE6E0"/>
<path d="M3237.97 2491.74H3202.03L3192.41 2577.93L3230.67 2557.27L3237.97 2491.74Z" fill="#422C4F"/>
<path d="M3192.41 2577.93L3131.36 3125.45H3167.31L3230.67 2557.27L3192.41 2577.93Z" fill="#99A3B0"/>
<path d="M3506.03 2568.36L3443.9 3125.45H3479.85L3544.28 2547.69L3506.03 2568.36Z" fill="#99A3B0"/>
<path d="M3550.52 2491.74H3514.57L3506.03 2568.36L3544.27 2547.69L3550.52 2491.74Z" fill="#422C4F"/>
<path d="M3685.77 2491.74H3649.83L3658.6 2570.37L3692.5 2552.06L3685.77 2491.74Z" fill="#422C4F"/>
<path d="M3756.45 3125.45L3692.5 2552.06L3658.6 2570.37L3720.5 3125.45H3756.45Z" fill="#99A3B0"/>
<path d="M3998.32 2491.74H3962.37L3970.55 2565.09L4004.45 2546.77L3998.32 2491.74Z" fill="#422C4F"/>
<path d="M4068.98 3125.45L4004.45 2546.77L3970.55 2565.09L4033.04 3125.45H4068.98Z" fill="#99A3B0"/>
<path d="M3176.15 2491.74L3176.15 2491.72C3208.8 2421.05 3279.55 2375.79 3357.4 2375.79H3595.3L3723.93 1538.4L3904.66 1392.2H4019.12C4162.48 1392.2 4272.12 1519.99 4250.35 1661.71L4141.9 2367.71C4130.94 2439.06 4069.56 2491.74 3997.38 2491.74H3176.15Z" fill="#797C99"/>
<path d="M3061.69 2491.74L3061.7 2491.72C3094.35 2421.05 3165.09 2375.79 3242.94 2375.79H3480.84L3590.52 1661.82C3614.34 1506.71 3747.77 1392.2 3904.66 1392.2C4048.02 1392.2 4157.66 1519.99 4135.89 1661.71L4039.54 2288.97C4031.87 2338.92 3988.9 2375.79 3938.37 2375.79H3788.31C3710.46 2375.79 3639.72 2421.05 3607.06 2491.72L3607.05 2491.74H3061.69Z" fill="#495375"/>
<path d="M3403.32 1392.81C3438.27 1410.02 3481.36 1409.63 3516 1391.78C3542.83 1377.96 3564.03 1353.91 3575.17 1325.91H3546.89C3530.74 1325.91 3517.65 1312.81 3517.65 1296.66V1199.17L3391.54 1232.07V1302.76C3391.54 1318.91 3378.45 1332.01 3362.3 1332.01H3344.69C3356.68 1358.07 3377.54 1380.13 3403.32 1392.81Z" fill="#EBA58E"/>
<path d="M3517.65 1199.17C3496.32 1275.34 3452.46 1307.02 3391.54 1285.69V1232.07L3517.65 1199.17Z" fill="#422C4F"/>
<path d="M3274.57 1089.49C3225.22 1052.32 3241.67 976.152 3248.98 965.184C3231.22 954.523 3213.93 940.038 3203.47 922.146C3193.01 904.261 3189.03 881.915 3196.01 862.399C3202.99 842.891 3222.11 827.426 3242.83 827.784C3267 828.209 3286.12 847.958 3308.95 855.892C3332.03 863.906 3357.44 859.38 3381.09 853.238C3404.73 847.095 3428.62 839.337 3452.98 841.136C3473.65 842.664 3493.72 851.322 3509.01 865.31C3524.3 879.297 3534.72 898.513 3538.09 918.965C3557.81 909.511 3585.35 917.005 3597.44 935.22C3609.09 952.761 3607.36 975.684 3604.57 996.56C3599.54 1034.34 3579.07 1125.57 3570.04 1162.59L3501.81 1179.67L3274.57 1089.49Z" fill="#422C4F"/>
<path d="M3549.52 1109.01C3556.01 1098.63 3565.67 1089.79 3577.44 1086.42C3589.22 1083.05 3603.12 1085.99 3611.04 1095.33C3617.67 1103.14 3619.39 1114.27 3617.54 1124.34C3615.71 1134.42 3610.71 1143.63 3605.14 1152.23C3600.08 1160.03 3594.43 1167.57 3587.26 1173.48C3580.09 1179.4 3571.26 1183.62 3561.97 1184C3552.69 1184.38 3543.02 1180.51 3537.62 1172.95C3531.5 1164.38 3533.2 1152.3 3535.98 1142.76C3539.35 1131.22 3543.11 1119.25 3549.52 1109.01Z" fill="#EBA58E"/>
<path d="M3560.72 1169.39C3556.06 1169.39 3551.66 1167.45 3549.51 1164.44C3548.52 1163.05 3546.61 1158.58 3550.02 1146.84C3553.08 1136.36 3556.52 1125.4 3561.92 1116.76C3567.08 1108.49 3574.21 1102.56 3581.46 1100.49C3583.29 1099.97 3585.2 1099.7 3587.16 1099.7C3592.43 1099.7 3597.2 1101.6 3599.9 1104.8C3603.12 1108.59 3604.37 1115.07 3603.16 1121.71C3601.66 1129.95 3596.87 1138.1 3592.86 1144.28C3587.46 1152.63 3582.87 1158.16 3577.96 1162.2C3572.61 1166.62 3566.72 1169.16 3561.38 1169.38L3560.72 1169.39Z" fill="#DE7274"/>
<path d="M3526.79 1080.96C3526.79 1080.96 3468.3 1056.58 3476.06 987.815C3414.84 1007.4 3347.15 1005.8 3286.79 983.786C3273.34 1005.49 3265.43 1030.99 3265.43 1058.4V1126.65C3265.43 1205.06 3328.99 1268.62 3407.38 1268.62C3472.22 1268.62 3526.78 1225.11 3543.76 1165.72C3539.99 1161.67 3536.48 1157.37 3533.53 1152.59C3520.83 1131.96 3517.73 1103.43 3526.79 1080.96Z" fill="#EBA58E"/>
<path d="M3298.92 1047.5C3286.29 1050.65 3276.24 1061.43 3270.91 1075.51L3332.74 1060.04C3323.88 1049.51 3311.54 1044.34 3298.92 1047.5Z" fill="#422C4F"/>
<path d="M3304.86 1109.91C3310.08 1109.91 3314.31 1104.33 3314.31 1097.44C3314.31 1090.55 3310.08 1084.96 3304.86 1084.96C3299.64 1084.96 3295.41 1090.55 3295.41 1097.44C3295.41 1104.33 3299.64 1109.91 3304.86 1109.91Z" fill="#422C4F"/>
<path d="M3433.44 1054.22C3450.1 1057.37 3463.36 1068.15 3470.4 1082.23L3388.8 1066.76C3400.51 1056.24 3416.78 1051.06 3433.44 1054.22Z" fill="#422C4F"/>
<path d="M3413.13 1104.16C3413.13 1111.05 3418.72 1116.64 3425.6 1116.64C3432.49 1116.64 3438.07 1111.05 3438.07 1104.16C3438.07 1097.28 3432.49 1091.69 3425.6 1091.69C3418.72 1091.69 3413.13 1097.28 3413.13 1104.16Z" fill="#422C4F"/>
<path d="M3368.89 1174.96C3368.83 1174.96 3368.78 1174.96 3368.73 1174.95C3362.28 1174.38 3355.78 1173.55 3349.12 1172.68C3342.35 1171.78 3336.27 1168.05 3332.42 1162.41C3328.66 1156.92 3327.42 1150.1 3328.99 1143.7C3334.17 1122.64 3341.11 1101.82 3349.64 1081.85C3350.03 1080.91 3351.12 1080.49 3352.03 1080.88C3352.96 1081.28 3353.39 1082.35 3352.99 1083.28C3344.56 1103.08 3337.67 1123.7 3332.54 1144.57C3331.19 1150.04 3332.22 1155.65 3335.44 1160.35C3338.69 1165.12 3343.85 1168.3 3349.59 1169.05C3356.21 1169.92 3362.67 1170.75 3369.04 1171.31C3370.05 1171.4 3370.79 1172.28 3370.71 1173.29C3370.63 1174.24 3369.83 1174.96 3368.89 1174.96Z" fill="#422C4F"/>
<path d="M3425.86 1182.38C3395.56 1185.93 3365.26 1189.47 3334.95 1193.01C3346.17 1207.58 3364.36 1217.02 3382.69 1215.42C3401.02 1213.81 3417.33 1198.68 3425.86 1182.38Z" fill="white"/>
<path d="M3533.46 2060.76H3266.65L2854.24 2173.41C2757.65 2199.79 2705.38 2304.23 2742.13 2397.38L2924.27 2858.99L3103.36 2788.68L3033.93 2405.39H3193.54L3533.46 2183.85V2060.76Z" fill="#5088BA"/>
<path d="M3122.72 2781.08L2904.92 2866.59L2928.53 2944.5L3146.33 2858.99L3122.72 2781.08Z" fill="#6CA7D3"/>
<path d="M2913.42 3136.24C2910.09 3146.1 2908.26 3156.56 2908.26 3167.32H3203.29L3193.79 3136.24H2913.42Z" fill="#BD6C67"/>
<path d="M3113 2872.07L2969.35 2928.47L3005.01 3022.66C3011.72 3040.38 3003.77 3060.3 2986.7 3068.53L2963.12 3079.91C2939.26 3091.43 2921.64 3111.95 2913.42 3136.24H3193.78L3113 2872.07Z" fill="#8C404C"/>
<path d="M3095.33 2335.86L3108.86 2405.39H3193.54L3533.46 2183.85V2112.25L3197.79 2181.84C3127.23 2196.46 3081.56 2265.13 3095.33 2335.86Z" fill="#457BA3"/>
<path d="M3660.82 2060.76L3312.81 2154.1C3214.7 2180.42 3150.72 2274.71 3162.52 2375.63L3213.04 2807.81H3421.39L3437.84 2378.23H3589.54C3738.92 2378.23 3860.03 2257.11 3860.03 2107.68V1990.9L3660.82 2060.76Z" fill="#5088BA"/>
<path d="M3438.45 2807.81H3193.54V2882.15H3438.45V2807.81Z" fill="#6CA7D3"/>
<path d="M3405.55 2882.15H3228.87V3006.56C3228.87 3045.58 3207.63 3081.5 3173.44 3100.29C3149.16 3113.63 3131.46 3135.63 3123.21 3161.22H3405.55V2882.15Z" fill="#A64F5A"/>
<path d="M3123.21 3161.22C3119.84 3171.67 3118 3182.71 3118 3194.02V3196.56H3405.55V3161.22H3123.21Z" fill="#DF8D6D"/>
<path d="M3437.84 2378.23L3442.29 2261.85C3471.29 2292.41 3477.49 2338.1 3457.68 2375.29L3456.11 2378.23H3437.84Z" fill="#457BA3"/>
<path d="M3405.55 2809.64C3404.54 2809.64 3403.72 2808.82 3403.72 2807.81V2359.95C3403.72 2358.94 3404.54 2358.12 3405.55 2358.12C3406.56 2358.12 3407.38 2358.94 3407.38 2359.95V2807.81C3407.38 2808.82 3406.56 2809.64 3405.55 2809.64Z" fill="#422C4F"/>
<path d="M3085.66 2692.77C3084.79 2692.77 3084.02 2692.15 3083.86 2691.27L3004.74 2254.53C3004.56 2253.54 3005.21 2252.58 3006.21 2252.4C3007.24 2252.21 3008.15 2252.89 3008.33 2253.87L3087.46 2690.62C3087.63 2691.61 3086.98 2692.57 3085.99 2692.75C3085.87 2692.76 3085.77 2692.77 3085.66 2692.77Z" fill="#422C4F"/>
<path d="M3046.1 2782.91C3045.27 2782.91 3044.53 2782.35 3044.32 2781.51L2931.02 2314.68C2930.79 2313.7 2931.39 2312.71 2932.37 2312.47C2933.35 2312.24 2934.34 2312.84 2934.58 2313.82L3047.88 2780.66C3048.12 2781.64 3047.52 2782.63 3046.53 2782.87C3046.38 2782.9 3046.24 2782.91 3046.1 2782.91Z" fill="#422C4F"/>
<path d="M2918.72 2157.63C2917.91 2157.63 2917.18 2157.1 2916.96 2156.28C2916.69 2155.31 2917.26 2154.3 2918.24 2154.04L3266.17 2058.99C3267.15 2058.74 3268.15 2059.31 3268.42 2060.28C3268.68 2061.25 3268.11 2062.25 3267.13 2062.53L2919.2 2157.57C2919.04 2157.61 2918.88 2157.63 2918.72 2157.63Z" fill="#422C4F"/>
<path d="M3191.24 2623.18C3190.33 2623.18 3189.54 2622.49 3189.43 2621.56L3160.71 2375.84C3148.89 2274.77 3214.08 2178.68 3312.35 2152.34L3601.57 2074.77C3602.55 2074.52 3603.55 2075.09 3603.81 2076.07C3604.07 2077.04 3603.49 2078.05 3602.51 2078.31L3313.28 2155.87C3216.77 2181.76 3152.72 2276.14 3164.33 2375.41L3193.05 2621.14C3193.17 2622.15 3192.45 2623.06 3191.45 2623.17C3191.38 2623.17 3191.31 2623.18 3191.24 2623.18Z" fill="#422C4F"/>
<path d="M3618.24 1325.91H3575.17C3564.03 1353.91 3542.83 1377.96 3516 1391.78C3481.36 1409.62 3438.27 1410.02 3403.32 1392.81C3377.54 1380.12 3356.68 1358.07 3344.68 1332H3254.45C3168.21 1332 3091.21 1386.06 3061.92 1467.2L2976.05 1705.06L3191.1 1762.19L3219.13 1662.17L3266.65 2060.76H3533.46L3801.55 1853.59L3618.24 1325.91Z" fill="#FF8A00" fill-opacity="0.75"/>
<path d="M3618.24 1325.91H3691.45C3774.31 1325.91 3848.99 1375.87 3880.63 1452.46L3967.26 1662.17L3762.2 1740.33L3618.24 1325.91Z" fill="#FF8A00" fill-opacity="0.75"/>
<path d="M3533.46 2060.76L3801.55 1853.59L3762.2 1740.33L3935.59 1674.24L3989.12 1830.14C4008.71 1887.17 3978.59 1949.31 3921.7 1969.27L3660.82 2060.76L3446.98 2118.12L3533.46 2060.76Z" fill="#EBA58E"/>
<path d="M3935.59 1674.24L3762.2 1740.33L3780.48 1792.97L3939.53 1685.73L3935.59 1674.24Z" fill="#422C4F"/>
<path d="M3165.49 2088.4L3139.93 1840.95L3175.69 1758.1L2995.73 1710.3L2975.83 1779.33C2964.29 1819.38 2965.72 1862.06 2979.91 1901.25L3058.29 2117.68L3165.49 2088.4Z" fill="#EBA58E"/>
<path d="M2995.73 1710.29L3175.69 1758.1L3157.7 1799.77L2992.34 1722.05L2995.73 1710.29Z" fill="#422C4F"/>
<path d="M3688.03 1526.81L3717.1 1803.48C3719.62 1827.4 3712.2 1851.31 3696.58 1869.61L3533.46 2060.76L3801.55 1853.59L3688.03 1526.81Z" fill="#894B03"/>
<path d="M3219.13 1662.17L3199.08 1494L3182.46 1579.03C3173.95 1622.62 3182.8 1667.82 3207.14 1704.96L3219.13 1662.17Z" fill="#894B03"/>
<path d="M3762.2 1742.16C3761.44 1742.16 3760.74 1741.69 3760.47 1740.93L3674.9 1494.6C3674.57 1493.65 3675.07 1492.61 3676.03 1492.28C3676.99 1491.96 3678.02 1492.45 3678.35 1493.4L3763.92 1739.73C3764.25 1740.68 3763.76 1741.73 3762.8 1742.06C3762.6 1742.12 3762.4 1742.16 3762.2 1742.16Z" fill="#422C4F"/>
<path d="M3742.34 1686.34C3741.61 1686.34 3740.91 1685.88 3740.63 1685.15C3740.28 1684.21 3740.76 1683.16 3741.7 1682.8L3916.53 1616.85C3917.43 1616.49 3918.52 1616.97 3918.88 1617.92C3919.23 1618.86 3918.76 1619.92 3917.81 1620.27L3742.99 1686.22C3742.78 1686.3 3742.56 1686.34 3742.34 1686.34Z" fill="#422C4F"/>
<path d="M3650.51 1972.14C3649.97 1972.14 3649.42 1971.9 3649.06 1971.43C3648.45 1970.64 3648.59 1969.48 3649.39 1968.86L3849.74 1814.03C3850.54 1813.41 3851.69 1813.54 3852.32 1814.36C3852.93 1815.15 3852.79 1816.3 3851.99 1816.92L3651.63 1971.76C3651.29 1972.02 3650.9 1972.14 3650.51 1972.14Z" fill="#422C4F"/>
<path d="M3251.44 1935.03C3250.53 1935.03 3249.74 1934.35 3249.63 1933.42L3197.27 1494.22C3197.14 1493.22 3197.86 1492.31 3198.87 1492.19C3199.84 1492.04 3200.78 1492.78 3200.89 1493.78L3253.25 1932.99C3253.38 1933.99 3252.66 1934.89 3251.65 1935.01C3251.58 1935.03 3251.51 1935.03 3251.44 1935.03Z" fill="#422C4F"/>
<path d="M3199.21 1735.08C3199.04 1735.08 3198.88 1735.06 3198.72 1735.01C3197.75 1734.74 3197.18 1733.73 3197.45 1732.76L3217.36 1661.69C3217.63 1660.72 3218.64 1660.15 3219.62 1660.42C3220.6 1660.69 3221.17 1661.7 3220.9 1662.68L3200.98 1733.75C3200.75 1734.55 3200.02 1735.08 3199.21 1735.08Z" fill="#422C4F"/>
<path d="M3204.72 1715.43C3204.56 1715.43 3204.42 1715.41 3204.26 1715.37L3021.59 1668.97C3020.61 1668.72 3020.02 1667.73 3020.27 1666.75C3020.52 1665.77 3021.53 1665.18 3022.49 1665.43L3205.16 1711.83C3206.14 1712.08 3206.74 1713.07 3206.49 1714.05C3206.28 1714.88 3205.54 1715.43 3204.72 1715.43Z" fill="#422C4F"/>
<path d="M1336.53 2595.76H1372.47L1382.09 2681.95L1343.83 2661.28L1336.53 2595.76Z" fill="#422C4F"/>
<path d="M1382.09 2681.95L1443.14 3229.47H1407.19L1343.83 2661.28L1382.09 2681.95Z" fill="#99A3B0"/>
<path d="M1068.48 2672.38L1130.6 3229.47H1094.66L1030.23 2651.71L1068.48 2672.38Z" fill="#99A3B0"/>
<path d="M1023.98 2595.76H1059.93L1068.48 2672.38L1030.23 2651.71L1023.98 2595.76Z" fill="#422C4F"/>
<path d="M888.728 2595.76H924.674L915.901 2674.39L882.002 2656.08L888.728 2595.76Z" fill="#422C4F"/>
<path d="M818.055 3229.47L882.001 2656.08L915.901 2674.39L854.001 3229.47H818.055Z" fill="#99A3B0"/>
<path d="M576.183 2595.76H612.129L603.948 2669.11L570.049 2650.79L576.183 2595.76Z" fill="#422C4F"/>
<path d="M505.51 3229.47L570.048 2650.79L603.948 2669.11L541.464 3229.47H505.51Z" fill="#99A3B0"/>
<path d="M1398.35 2595.76L1398.34 2595.74C1365.69 2525.07 1294.94 2479.81 1217.09 2479.81H979.197L850.573 1642.42L669.839 1496.22H555.383C412.021 1496.22 302.383 1624.01 324.154 1765.73L432.601 2471.73C443.559 2543.08 504.94 2595.76 577.118 2595.76H1398.35Z" fill="#797C99"/>
<path d="M1512.81 2595.76L1512.8 2595.74C1480.15 2525.07 1409.41 2479.81 1331.56 2479.81H1093.66L983.985 1765.84C960.159 1610.73 826.732 1496.22 669.838 1496.22C526.476 1496.22 416.838 1624.01 438.609 1765.73L534.956 2392.99C542.625 2442.94 585.597 2479.81 636.121 2479.81H786.195C864.039 2479.81 934.784 2525.07 967.441 2595.74L967.448 2595.76H1512.81Z" fill="#495375"/>
<path d="M1138.64 2166.79L1017.82 2479.81H1622.98L1515.14 2945.38H1807.57L1890.42 2447.85C1909.88 2331.03 1826.47 2222.12 1708.63 2210.47L1266.53 2166.79H1138.64Z" fill="#537496"/>
<path d="M1622.98 2479.81L1657.45 2330.97L1613.68 2370.21C1604.08 2378.81 1598.6 2391.08 1598.6 2403.96C1598.6 2426.85 1581.54 2446.14 1558.82 2448.94L1540.78 2451.16L1536.01 2479.81H1622.98Z" fill="#495375"/>
<path d="M1774.74 3124.86C1774.25 3124.34 1773.72 3123.88 1773.25 3123.34L1766.69 3116C1750.93 3098.36 1743.97 3074.54 1747.77 3051.18L1765.53 2945.38H1630.7L1613.68 3048.23C1610.47 3068.48 1603.89 3088.14 1593.47 3105.79C1586.2 3118.12 1577.65 3136.27 1571.38 3160.01H1737.28C1745.71 3144.77 1759.12 3132.53 1774.74 3124.86Z" fill="#A64F5A"/>
<path d="M1844.6 3151.63L1822.28 3148.93C1804.08 3146.73 1787.3 3138.16 1774.74 3124.86C1759.12 3132.52 1745.71 3144.76 1737.28 3160H1571.38C1568.47 3171.05 1566 3183.21 1564.46 3196.77C1562.49 3214.17 1576.04 3229.46 1593.54 3229.46H1913.57C1913.57 3189.81 1883.97 3156.4 1844.6 3151.63Z" fill="#ECA85E"/>
<path d="M1630.7 2945.38H1765.53L1762.83 2961.96L1623.7 2989.44L1630.7 2945.38Z" fill="#422C4F"/>
<path d="M1406.81 3124.86C1406.32 3124.34 1405.79 3123.88 1405.32 3123.34L1398.76 3116C1383 3098.36 1376.04 3074.54 1379.84 3051.18L1396.94 2945.38H1262.12L1245.75 3048.23C1242.54 3068.48 1235.96 3088.14 1225.54 3105.79C1218.26 3118.12 1209.72 3136.27 1203.45 3160.01H1369.35C1377.78 3144.77 1391.19 3132.53 1406.81 3124.86Z" fill="#BD6C67"/>
<path d="M1476.67 3151.63L1454.35 3148.93C1436.14 3146.73 1419.37 3138.16 1406.81 3124.86C1391.18 3132.52 1377.78 3144.76 1369.35 3160H1203.45C1200.54 3171.05 1198.07 3183.21 1196.53 3196.77C1194.56 3214.17 1208.1 3229.46 1225.6 3229.46H1545.64C1545.64 3189.81 1516.03 3156.4 1476.67 3151.63Z" fill="#F4D071"/>
<path d="M1262.12 2945.38H1396.94L1394.25 2961.96L1255.12 2989.44L1262.12 2945.38Z" fill="#422C4F"/>
<path d="M789.552 2166.79L757.019 2251.07C714.486 2361.25 795.788 2479.81 913.884 2479.81H1273.88L1166.05 2945.38H1458.48L1542.82 2438.9C1561.71 2325.45 1483.49 2218.69 1369.62 2202.56L1117.31 2166.79H789.552V2166.79Z" fill="#6081A8"/>
<path d="M1273.88 2479.81L1308.36 2330.97L1266.27 2372.77C1238.15 2400.69 1226.91 2441.42 1236.72 2479.81H1273.88Z" fill="#495375"/>
<path d="M1273.88 2481.64H1017.82C1016.81 2481.64 1015.99 2480.82 1015.99 2479.81C1015.99 2478.81 1016.81 2477.99 1017.82 2477.99H1273.88C1274.89 2477.99 1275.71 2478.81 1275.71 2479.81C1275.71 2480.82 1274.89 2481.64 1273.88 2481.64Z" fill="#422C4F"/>
<path d="M1181.57 2880.24C1181.43 2880.24 1181.29 2880.23 1181.15 2880.19C1180.17 2879.96 1179.55 2878.98 1179.78 2878L1306.58 2330.55C1306.8 2329.57 1307.78 2328.95 1308.77 2329.19C1309.75 2329.41 1310.36 2330.39 1310.14 2331.38L1183.34 2878.82C1183.14 2879.67 1182.39 2880.24 1181.57 2880.24Z" fill="#422C4F"/>
<path d="M1369.63 2204.39C1369.54 2204.39 1369.46 2204.38 1369.37 2204.36L1212.15 2182.08C1211.15 2181.95 1210.46 2181.01 1210.6 2180.01C1210.75 2179.01 1211.68 2178.32 1212.67 2178.46L1369.89 2200.75C1370.89 2200.89 1371.58 2201.81 1371.44 2202.81C1371.3 2203.73 1370.52 2204.39 1369.63 2204.39Z" fill="#422C4F"/>
<path d="M1468.14 2889.24C1468.03 2889.24 1467.93 2889.23 1467.83 2889.22C1466.83 2889.05 1466.15 2888.11 1466.32 2887.11L1522.18 2551.7C1522.34 2550.7 1523.32 2550.04 1524.29 2550.19C1525.28 2550.36 1525.96 2551.3 1525.79 2552.3L1469.93 2887.71C1469.78 2888.61 1469.01 2889.24 1468.14 2889.24Z" fill="#422C4F"/>
<path d="M1376.84 1670.79L1428.01 1840.95L1679.01 2139.97L1611.87 2200.91L1370.02 1987.28C1335.35 1956.66 1310.54 1916.45 1298.71 1871.73L1256.21 1711.01L1376.84 1670.79Z" fill="#A64F5A"/>
<path d="M1376.84 1670.79L1256.21 1711.01L1298.71 1871.73C1298.94 1872.6 1299.25 1873.43 1299.49 1874.3L1404.97 1764.33L1376.84 1670.79Z" fill="#422C4F"/>
<path d="M1234.62 1408.23C1276.36 1406.17 1314.19 1432.65 1326.55 1472.57L1399.09 1706.9L1325.07 1723.8L1281.2 1597.67L1234.62 1408.23Z" fill="#F4D071"/>
<path d="M1281.19 1597.67L1325.06 1723.8L1389.1 1709.18L1263.28 1524.81L1281.19 1597.67Z" fill="#ECA85E"/>
<path d="M1281.61 1199.75C1310.06 1159.19 1335.75 1115.43 1346.21 1067C1356.67 1018.58 1350.07 964.497 1319.18 925.758C1288.29 887.019 1230.4 868.731 1186.35 891.406C1132.11 855.848 1067.05 833.093 1006.59 856.586C946.132 880.08 898.401 933.976 882.376 996.838C850.077 1123.55 941.599 1260.38 900.016 1384.36C882.895 1435.41 845.318 1476.42 812.998 1519.48C780.677 1562.55 751.815 1613.34 756.954 1666.95C763.555 1735.74 828.394 1789.38 896.895 1798.42C950.906 1805.54 1007.63 1788.84 1049.17 1753.59C1097.67 1712.43 1123.39 1649.83 1134.72 1587.22C1146.05 1524.62 1144.7 1460.51 1148.78 1397.02C1151.33 1357.3 1156.22 1316.95 1172.8 1280.76C1189.39 1244.58 1243.14 1209.92 1281.61 1199.75Z" fill="#422C4F"/>
<path d="M1347.99 1696.36L1301.3 1590.36L1234.62 1408.23L1059.94 1416.87C959.553 1421.83 882.016 1506.93 886.366 1607.36L889.751 1685.43L880.057 1883.04C878.222 1920.45 870.414 1957.32 856.926 1992.25L789.551 2166.79H1266.53L1299.78 1945.55L1305.6 1880.89C1307.56 1859.15 1316.12 1838.53 1330.14 1821.8C1359.48 1786.8 1366.4 1738.16 1347.99 1696.36Z" fill="#F4D071"/>
<path d="M1347.99 1698.19C1347.29 1698.19 1346.62 1697.78 1346.32 1697.1L1299.62 1591.1L1262.92 1490.83C1262.57 1489.89 1263.06 1488.83 1264.01 1488.48C1264.95 1488.14 1266 1488.63 1266.35 1489.57L1303.02 1589.73L1349.67 1695.62C1350.08 1696.54 1349.66 1697.63 1348.74 1698.04C1348.49 1698.14 1348.23 1698.19 1347.99 1698.19Z" fill="#422C4F"/>
<path d="M1158.7 1823.16C1157.75 1823.16 1156.95 1822.43 1156.88 1821.46C1156.8 1820.45 1157.56 1819.58 1158.56 1819.5C1194.57 1816.84 1229.24 1798.2 1251.32 1769.62C1251.95 1768.82 1253.1 1768.68 1253.89 1769.29C1254.69 1769.91 1254.83 1771.05 1254.22 1771.86C1231.53 1801.25 1195.87 1820.42 1158.84 1823.16C1158.78 1823.16 1158.74 1823.16 1158.7 1823.16Z" fill="#422C4F"/>
<path d="M1057.31 1277.77L1052.74 1421.27L1075.44 1444.6C1112.33 1482.49 1176.02 1469.6 1195.29 1420.36L1182.5 1312.5L1057.31 1277.77Z" fill="#BD6C67"/>
<path d="M1146.16 1387.14C1161.21 1389.46 1176.84 1386.79 1190.53 1380.14L1182.5 1312.5L1057.31 1277.76L1056.7 1296.72C1063.89 1313.72 1071.96 1330.31 1082.92 1345.09C1098.38 1365.96 1120.49 1383.19 1146.16 1387.14Z" fill="#422C4F"/>
<path d="M1294.9 1082.18V1161.28C1294.9 1196.04 1289.05 1230.55 1277.59 1263.37C1260.04 1313.59 1212.66 1347.24 1159.47 1347.24C1128.42 1347.24 1098.48 1335.7 1075.46 1314.84L1031.57 1275.07C1013.78 1258.95 1001.13 1237.97 995.164 1214.71C1129.5 1156.22 1177.02 1056.59 1178.84 977.073C1270.23 1014.54 1294.9 1082.18 1294.9 1082.18Z" fill="#BD6C67"/>
<path d="M1157.79 1086.56C1138.97 1090.13 1124 1102.31 1116.05 1118.22L1208.23 1100.74C1194.99 1088.84 1176.61 1083 1157.79 1086.56Z" fill="#422C4F"/>
<path d="M1180.73 1142.98C1180.73 1150.76 1174.42 1157.07 1166.64 1157.07C1158.87 1157.07 1152.56 1150.76 1152.56 1142.98C1152.56 1135.2 1158.87 1128.89 1166.64 1128.89C1174.42 1128.89 1180.73 1135.2 1180.73 1142.98Z" fill="#422C4F"/>
<path d="M1273.46 1086.56C1284.83 1090.13 1293.86 1102.31 1298.67 1118.22L1243 1100.74C1250.99 1088.84 1262.09 1083 1273.46 1086.56Z" fill="#422C4F"/>
<path d="M1259.6 1142.98C1259.6 1150.76 1263.41 1157.07 1268.11 1157.07C1272.81 1157.07 1276.62 1150.76 1276.62 1142.98C1276.62 1135.2 1272.81 1128.89 1268.11 1128.89C1263.41 1128.89 1259.6 1135.2 1259.6 1142.98Z" fill="#422C4F"/>
<path d="M1227.54 1223.84C1223.7 1223.84 1219.92 1223.46 1216.36 1223.1C1215.36 1223 1214.62 1222.11 1214.73 1221.1C1214.82 1220.1 1215.74 1219.38 1216.72 1219.47C1223.67 1220.16 1230.85 1220.88 1237.53 1218.93C1243.36 1217.23 1249.68 1212.53 1250.61 1205.85C1251.32 1200.83 1248.93 1195.75 1246.62 1190.84L1246 1189.54C1236.78 1169.74 1232.59 1147.76 1233.87 1125.96C1233.93 1124.95 1234.78 1124.17 1235.8 1124.24C1236.81 1124.3 1237.58 1125.16 1237.52 1126.17C1236.27 1147.36 1240.35 1168.74 1249.31 1188L1249.92 1189.28C1252.46 1194.68 1255.09 1200.26 1254.23 1206.36C1253.07 1214.65 1245.52 1220.4 1238.55 1222.43C1234.95 1223.49 1231.22 1223.84 1227.54 1223.84Z" fill="#422C4F"/>
<path d="M1245.69 1246.35C1214.46 1250.46 1183.24 1254.57 1152.02 1258.67C1160.36 1276.61 1181.19 1287.12 1200.9 1285.49C1220.62 1283.86 1240.42 1265.42 1245.69 1246.35Z" fill="white"/>
<path d="M912.006 1840.95L1076.5 1815.2L1099.03 2007.14L1496.25 1885.28L1519.4 1990.08L1131.46 2166.95C1038.28 2209.44 931.416 2145.41 924.902 2043.18L912.006 1840.95Z" fill="#BD6C67"/>
<path d="M1076.5 1815.2L912.006 1840.95L916.312 1908.51L1078.59 1832.99L1076.5 1815.2Z" fill="#422C4F"/>
<path d="M1099.66 1811.58L899.541 1842.9L896.777 1819.47L1011.01 1802.17C1046.07 1796.87 1070.62 1764.72 1066.52 1729.5L1049.09 1579.79C1045.05 1545.11 1025.19 1514.26 995.296 1496.22L997.73 1497.13C1036.67 1511.76 1064.39 1546.63 1069.88 1587.87L1099.66 1811.58Z" fill="#ECA85E"/>
<path d="M899.534 1844.73C898.65 1844.73 897.875 1844.09 897.729 1843.19C897.575 1842.19 898.255 1841.25 899.249 1841.1L1097.6 1810.05L1068.05 1588.11C1062.64 1547.46 1035.45 1513.26 997.073 1498.84L994.646 1497.93C993.703 1497.58 993.221 1496.53 993.579 1495.57C993.937 1494.63 994.982 1494.13 995.933 1494.51L998.367 1495.42C1038.01 1510.32 1066.1 1545.65 1071.69 1587.63L1101.47 1811.34C1101.6 1812.32 1100.92 1813.23 1099.93 1813.38L899.82 1844.71C899.725 1844.72 899.637 1844.73 899.534 1844.73Z" fill="#422C4F"/>
<path d="M1017.82 2033.89C1017.04 2033.89 1016.31 2033.39 1016.07 2032.6C1015.77 2031.63 1016.32 2030.62 1017.28 2030.31L1437.02 1901.53C1437.99 1901.27 1439.01 1901.78 1439.3 1902.74C1439.6 1903.71 1439.05 1904.73 1438.1 1905.03L1018.35 2033.81C1018.18 2033.86 1018 2033.89 1017.82 2033.89Z" fill="#422C4F"/>
<path d="M2629.59 1168.7V1341.75C2629.59 1394.25 2587.04 1436.81 2534.55 1436.81H2518.53L2503.9 1459.97H2317.48L2380.84 1361.25L2629.59 1168.7Z" fill="#F2C9AD"/>
<path d="M2630.01 1201.91L2587.06 1261.32V1325.3C2587.06 1361.65 2557.61 1391.11 2521.27 1391.11H2406.72C2384.08 1391.11 2362.99 1379.45 2350.94 1360.28C2232.77 1172.37 2263.33 1030.2 2394.24 1049.27C2506.65 886.581 2793.59 1080.35 2630.01 1201.91Z" fill="#6A3649"/>
<path d="M2612.66 1225.92L2587.06 1261.32V1323.47C2590.43 1333.64 2600.22 1338.42 2607.58 1336.26C2614.93 1334.1 2621.17 1326.67 2626.2 1318.24C2632.55 1307.61 2637.53 1294.8 2639.35 1280.73C2641.17 1266.66 2639.57 1251.28 2633.97 1239.74C2628.38 1228.19 2622.1 1225.92 2612.66 1225.92Z" fill="#F2C9AD"/>
<path d="M2603.94 1338.59C2601.87 1338.59 2599.72 1338.18 2597.65 1337.38C2596.71 1337.01 2596.24 1335.96 2596.61 1335.02C2596.98 1334.08 2598.04 1333.61 2598.97 1333.97C2601.72 1335.04 2604.6 1335.22 2607.06 1334.5C2612.94 1332.77 2618.85 1326.98 2624.63 1317.29C2631.43 1305.9 2635.89 1293.18 2637.53 1280.49C2639.4 1266.04 2637.46 1251.11 2632.33 1240.53C2629.28 1234.24 2626.01 1230.71 2621.73 1229.06C2620.79 1228.69 2620.32 1227.64 2620.68 1226.7C2621.04 1225.76 2622.09 1225.29 2623.04 1225.65C2628.25 1227.66 2632.13 1231.75 2635.61 1238.94C2641.12 1250.29 2643.14 1265.61 2641.15 1280.96C2639.44 1294.14 2634.82 1307.36 2627.76 1319.17C2621.39 1329.83 2614.96 1335.99 2608.08 1338.01C2606.77 1338.4 2605.38 1338.59 2603.94 1338.59Z" fill="#422C4F"/>
<path d="M2374.64 3138.13C2362.62 3123.57 2353.17 3107.06 2346.72 3089.31L2341.85 3075.92H2189.98L2178.18 3196.56H2405.68C2399.37 3175.27 2388.88 3155.36 2374.64 3138.13Z" fill="#454F6B"/>
<path d="M2405.68 3196.57H2178.18L2174.97 3229.47H2412.52L2410.18 3215.74C2409.08 3209.24 2407.54 3202.85 2405.68 3196.57Z" fill="white"/>
<path d="M2341.85 3075.92H2189.99L2185.44 3122.44L2341.85 3075.92Z" fill="#422C4F"/>
<path d="M2471.22 2339.84L2412.74 3075.92H2144.71L2202.04 2483.64L2471.22 2339.84Z" fill="#984058"/>
<path d="M2441.98 2707.87L2187.47 2634.07L2202.04 2483.64L2471.22 2339.84L2441.98 2707.87Z" fill="#472948"/>
<path d="M2851.57 3146.28C2825.9 3133.78 2804.59 3113.84 2790.43 3089.04L2782.93 3075.91H2646.46L2620.61 3196.56H2908.25C2894.33 3175.18 2874.9 3157.64 2851.57 3146.28Z" fill="#454F6B"/>
<path d="M2908.26 3196.57H2620.61L2613.56 3229.47H2924.27L2923.84 3228.22C2920 3216.94 2914.65 3206.38 2908.26 3196.57Z" fill="white"/>
<path d="M2782.93 3075.92H2646.46L2636.5 3122.44L2782.93 3075.92Z" fill="#422C4F"/>
<path d="M2486.92 2166.79L2778.42 2295.79C2838.05 2322.17 2874.51 2383.36 2869.34 2448.37L2819.48 3075.92H2551.46L2608.78 2483.65L2436.83 2464.41H2009.63V2166.79H2486.92V2166.79Z" fill="#984058"/>
<path d="M2608.78 2483.65H2796.33L2784.64 2492.3C2733.04 2530.53 2666.32 2541.88 2604.98 2522.87L2608.78 2483.65Z" fill="#472948"/>
<path d="M2796.33 3004.62H2583.1C2582.09 3004.62 2581.27 3003.81 2581.27 3002.8C2581.27 3001.79 2582.09 3000.97 2583.1 3000.97H2796.33C2797.34 3000.97 2798.16 3001.79 2798.16 3002.8C2798.16 3003.81 2797.34 3004.62 2796.33 3004.62Z" fill="#422C4F"/>
<path d="M2391.41 3004.62H2178.18C2177.17 3004.62 2176.36 3003.81 2176.36 3002.8C2176.36 3001.79 2177.17 3000.97 2178.18 3000.97H2391.41C2392.42 3000.97 2393.24 3001.79 2393.24 3002.8C2393.24 3003.81 2392.42 3004.62 2391.41 3004.62Z" fill="#422C4F"/>
<path d="M2782.93 3047.28C2782.88 3047.28 2782.82 3047.28 2782.78 3047.27C2781.77 3047.18 2781.03 3046.29 2781.11 3045.29L2826.19 2531.75C2826.27 2530.74 2827.14 2529.96 2828.16 2530.08C2829.17 2530.17 2829.91 2531.06 2829.83 2532.06L2784.75 3045.6C2784.66 3046.56 2783.87 3047.28 2782.93 3047.28Z" fill="#422C4F"/>
<path d="M2987.32 1647.03L2921.83 1530.64C2935.91 1524.14 2952.6 1527.71 2962.79 1539.41L2982.76 1562.33L2987.32 1647.03Z" fill="#EBA58E"/>
<path d="M2958.08 1686.33L2987.32 1647.03L2972.7 1561.11C2971.34 1493.07 3000.87 1457.44 3016.06 1443.68C3020.77 1439.4 3027.75 1438.83 3033.01 1442.42L3033.17 1442.53C3039.45 1446.82 3040.86 1455.31 3036.64 1461.63C3014.21 1495.25 3011.99 1530.04 3011.99 1530.04C3029.12 1495.11 3055.27 1474.44 3068.54 1465.62C3073.35 1462.42 3079.63 1462.66 3084.25 1466.16L3124.91 1496.97C3131.11 1501.67 3132.15 1510.61 3127.11 1516.55C3106.2 1541.19 3095.15 1575.74 3095.15 1575.74C3109.77 1633.32 3082.35 1671.71 3070.47 1678.1L3022.95 1753.97L2958.08 1686.33Z" fill="#F2C9AD"/>
<path d="M1988.49 1634.23C2014.51 1518.81 2117.02 1436.81 2235.32 1436.81H2482.12C2583.61 1436.81 2674.91 1498.52 2712.75 1592.72L2807.3 1828L2943.76 1669.57C3041.24 1674.45 3058.29 1774.38 3058.29 1774.38L2870.86 2013.92C2816.57 2083.31 2707.96 2070.03 2671.98 1989.59L2587.98 1801.8L2511.21 2198.48C2395.46 2266.72 2056.72 2249.66 1988.49 2213.1V1634.23Z" fill="#6CA8BC"/>
<path d="M2587.98 1801.8L2622.4 1623.92L2629.59 1894.82L2587.98 1801.8Z" fill="#468097"/>
<path d="M2807.3 1828L2849.57 1933.21L2853.6 1877.43C2855.53 1850.74 2845.5 1824.58 2826.22 1806.02L2807.3 1828Z" fill="#468097"/>
<path d="M3044.3 1542.31C3044.01 1542.31 3043.72 1542.24 3043.45 1542.09C3042.55 1541.63 3042.22 1540.51 3042.69 1539.62C3054.33 1517.63 3070.79 1497.83 3090.29 1482.36C3091.08 1481.74 3092.23 1481.86 3092.87 1482.66C3093.49 1483.44 3093.36 1484.6 3092.57 1485.22C3073.46 1500.37 3057.34 1519.77 3045.92 1541.33C3045.59 1541.95 3044.96 1542.31 3044.3 1542.31Z" fill="#422C4F"/>
<path d="M3074.88 1550.5C3074.56 1550.5 3074.23 1550.41 3073.93 1550.23C3073.08 1549.71 3072.8 1548.59 3073.32 1547.72C3083.22 1531.36 3095.39 1516.52 3109.5 1503.6C3110.25 1502.93 3111.4 1502.97 3112.09 1503.72C3112.77 1504.47 3112.72 1505.62 3111.98 1506.3C3098.12 1518.97 3086.17 1533.55 3076.45 1549.61C3076.1 1550.18 3075.49 1550.5 3074.88 1550.5Z" fill="#422C4F"/>
<path d="M2976.06 1664C2975.68 1664 2975.29 1663.88 2974.97 1663.64C2974.16 1663.03 2973.99 1661.89 2974.59 1661.08L2985.39 1646.57L2974.26 1581.13C2974.1 1580.13 2974.76 1579.19 2975.76 1579.02C2976.82 1578.84 2977.7 1579.52 2977.86 1580.51L2989.13 1646.73C2989.21 1647.22 2989.09 1647.72 2988.79 1648.13L2977.52 1663.27C2977.16 1663.75 2976.61 1664 2976.06 1664Z" fill="#422C4F"/>
<path d="M2528.52 2110.91C2528.4 2110.91 2528.29 2110.9 2528.17 2110.87C2527.17 2110.68 2526.53 2109.72 2526.72 2108.73L2620.6 1623.56C2620.79 1622.57 2621.76 1621.93 2622.75 1622.12C2623.74 1622.31 2624.38 1623.27 2624.19 1624.26L2530.31 2109.43C2530.13 2110.3 2529.37 2110.91 2528.52 2110.91Z" fill="#422C4F"/>
<path d="M2849.57 1935.03C2848.84 1935.03 2848.16 1934.59 2847.87 1933.89L2732.89 1647.72C2732.51 1646.78 2732.97 1645.71 2733.9 1645.34C2734.85 1644.96 2735.91 1645.41 2736.28 1646.36L2851.27 1932.53C2851.64 1933.47 2851.19 1934.53 2850.25 1934.91C2850.03 1934.99 2849.8 1935.03 2849.57 1935.03Z" fill="#422C4F"/>
<path d="M2807.3 1829.83C2806.87 1829.83 2806.45 1829.68 2806.1 1829.38C2805.34 1828.72 2805.26 1827.57 2805.91 1826.8L2886 1733.82C2886.67 1733.06 2887.82 1732.97 2888.58 1733.63C2889.34 1734.29 2889.43 1735.45 2888.77 1736.21L2808.69 1829.19C2808.32 1829.62 2807.81 1829.83 2807.3 1829.83Z" fill="#422C4F"/>
<path d="M2383.02 2161.53C2382.85 2161.53 2382.67 2161.51 2382.5 2161.45C2329.11 2145.41 2279.68 2116.5 2239.53 2077.84C2238.8 2077.13 2238.78 2075.98 2239.48 2075.25C2240.19 2074.52 2241.34 2074.51 2242.06 2075.2C2281.79 2113.45 2330.71 2142.07 2383.54 2157.94C2384.51 2158.22 2385.05 2159.25 2384.76 2160.21C2384.54 2161.02 2383.81 2161.53 2383.02 2161.53Z" fill="#422C4F"/>
<path d="M2338.66 1639.83C2337.9 1639.83 2337.2 1639.37 2336.94 1638.61C2336.6 1637.65 2337.1 1636.62 2338.06 1636.28L2408.65 1611.67C2409.6 1611.32 2410.64 1611.84 2410.97 1612.79C2411.31 1613.74 2410.8 1614.78 2409.85 1615.11L2339.26 1639.72C2339.06 1639.8 2338.86 1639.83 2338.66 1639.83Z" fill="#422C4F"/>
<path d="M2506.53 2562.73C2497.34 2497.97 2441.99 2449.78 2376.59 2449.62L2339.32 2449.52C2311.43 2449.45 2287.47 2429.68 2282.08 2402.31L2161.59 1789.69C2126.28 1610.15 1968.89 1480.69 1785.94 1480.69H1664.66L1683.99 1500.02C1563.7 1547.47 1486.58 1676.04 1513.36 1812.18L1640.78 2460.06C1656.29 2538.91 1725.41 2595.77 1805.76 2595.77H2511.21L2506.53 2562.73Z" fill="#495375"/>
<path d="M1519.51 2460.05L1392.09 1812.17C1358.32 1640.48 1489.72 1480.68 1664.67 1480.68C1847.62 1480.68 2005 1610.15 2040.32 1789.69L2172.17 2460.04C2187.67 2538.9 2256.8 2595.75 2337.15 2595.75H2343.07H1684.49C1604.14 2595.76 1535.02 2538.9 1519.51 2460.05Z" fill="#797C99"/>
<path d="M1720.44 2595.76H1684.49L1674.88 2681.95L1713.14 2661.28L1720.44 2595.76Z" fill="#422C4F"/>
<path d="M1674.88 2681.95L1613.83 3229.47H1649.77L1713.14 2661.28L1674.88 2681.95Z" fill="#99A3B0"/>
<path d="M1988.49 2672.38L1926.37 3229.47H1962.31L2026.74 2651.71L1988.49 2672.38Z" fill="#99A3B0"/>
<path d="M2032.98 2595.76H1997.04L1988.49 2672.38L2026.74 2651.71L2032.98 2595.76Z" fill="#422C4F"/>
<path d="M2168.24 2595.76H2132.29L2141.07 2674.39L2174.97 2656.08L2168.24 2595.76Z" fill="#422C4F"/>
<path d="M2238.91 3229.47L2174.97 2656.08L2141.07 2674.39L2202.97 3229.47H2238.91Z" fill="#99A3B0"/>
<path d="M2480.79 2595.76H2444.84L2453.02 2669.11L2486.92 2650.79L2480.79 2595.76Z" fill="#422C4F"/>
<path d="M2551.45 3229.47L2486.92 2650.79L2453.02 2669.11L2515.51 3229.47H2551.45Z" fill="#99A3B0"/>
<path d="M4359.62 1532.95L4424.5 1449.84C4440.83 1428.93 4465.88 1416.7 4492.41 1416.7L4478.22 1414.19C4467.8 1412.36 4459.18 1405.03 4455.69 1395.04L4418.39 1288.29L4308.43 1346.63L4324.52 1431.43C4325.92 1438.8 4324.44 1446.42 4320.37 1452.73L4253.17 1557L4254.44 1557.61C4290.94 1575.13 4334.71 1564.87 4359.62 1532.95Z" fill="#F2C9AD"/>
<path d="M4574.04 2224.79L4492.41 1416.7C4465.87 1416.7 4440.83 1428.93 4424.5 1449.84L4359.61 1532.95C4334.7 1564.87 4290.93 1575.13 4254.44 1557.6L4253.17 1557L4143.9 1726.57C4129.62 1748.73 4127.79 1777.18 4140.64 1800.21C4147.01 1811.63 4154.68 1821.21 4162.61 1829.17C4192.52 1859.2 4204.45 1902.79 4196.54 1944.43L4165.86 2105.86L4574.04 2224.79Z" fill="#E68799"/>
<path d="M4318.76 1401.08C4407.47 1373.02 4421.38 1317.41 4418.38 1288.29L4308.42 1346.63L4318.76 1401.08Z" fill="#422C4F"/>
<path d="M4445.7 1580.13L4432.9 1944.83C4431.41 1986.99 4397.63 2020.83 4355.48 2022.38L4180.5 2028.82L4165.86 2105.86L4574.04 2224.79L4508.91 1580.13H4445.7Z" fill="#E36B85"/>
<path d="M4330.56 1854.88C4330.41 1854.88 4330.26 1854.86 4330.11 1854.82C4293.67 1845.55 4260.14 1822.75 4238.12 1792.27C4237.53 1791.45 4237.71 1790.31 4238.53 1789.72C4239.34 1789.12 4240.49 1789.31 4241.09 1790.13C4262.62 1819.93 4295.39 1842.22 4331.01 1851.28C4331.99 1851.53 4332.59 1852.52 4332.34 1853.5C4332.13 1854.33 4331.38 1854.88 4330.56 1854.88Z" fill="#422C4F"/>
<path d="M4527.01 1030.12C4545.28 959.255 4612.91 904.159 4685.99 900.612C4713.06 899.296 4742.14 905.365 4761.04 924.779C4777.04 941.194 4783.49 964.753 4785.51 987.589C4789.11 1028.05 4780.72 1068.55 4771.56 1108.12C4762.39 1147.69 4752.32 1187.56 4752.47 1228.18C4752.63 1268.8 4764.26 1311.08 4792.92 1339.87C4718.28 1352.31 4639.82 1315.17 4595.22 1254.04C4550.61 1192.9 4508.12 1103.4 4527.01 1030.12Z" fill="#EBA25D"/>
<path d="M4227.7 1193.37C4201.97 1165.25 4185.5 1128.78 4181.41 1090.88C4178.7 1065.8 4181.43 1039.79 4191.99 1016.89C4202.56 993.986 4221.41 974.456 4245.03 965.645C4268.66 956.827 4296.95 959.737 4316.78 975.326C4353.45 953.061 4398.67 947.211 4440.47 956.856C4482.27 966.501 4519.93 992.999 4543.13 1029.08C4571.89 1073.81 4577.57 1131.36 4563.41 1182.61C4549.87 1231.64 4516.1 1277.56 4467.89 1293.76C4426.43 1307.71 4379.94 1298.02 4341.32 1277.48C4302.71 1256.93 4257.23 1225.65 4227.7 1193.37Z" fill="#EBA25D"/>
<path d="M4467.89 1295.58C4467.13 1295.58 4466.42 1295.1 4466.16 1294.34C4465.84 1293.38 4466.35 1292.35 4467.31 1292.03C4510.82 1277.4 4546.96 1235.29 4561.65 1182.12C4576.27 1129.19 4568.78 1072.34 4541.6 1030.07C4518.56 994.25 4481.55 968.212 4440.05 958.633C4439.07 958.406 4438.46 957.426 4438.69 956.439C4438.91 955.46 4439.87 954.853 4440.88 955.065C4483.29 964.855 4521.12 991.471 4544.66 1028.09C4572.4 1071.22 4580.07 1129.17 4565.17 1183.1C4550.17 1237.42 4513.12 1280.49 4468.47 1295.49C4468.29 1295.56 4468.09 1295.58 4467.89 1295.58Z" fill="#422C4F"/>
<path d="M4279.17 1059.02C4242.23 1088.7 4217.14 1130.65 4208.47 1177.25L4204.85 1196.73L4164.64 1261.31H4207.28L4213.3 1324.54C4215.57 1348.44 4231.42 1368.89 4254 1377.06C4269.17 1382.55 4285.87 1381.92 4300.59 1375.31L4383 1338.26C4401.38 1329.99 4413.19 1311.72 4413.19 1291.57V1252.78C4398.84 1246.57 4379.65 1236.04 4373.19 1221.79C4366.73 1207.55 4365.76 1190.89 4370.54 1176C4330.5 1150.94 4295.37 1103.42 4279.17 1059.02Z" fill="#F2C9AD"/>
<path d="M4432.82 1207.41C4440.3 1203.45 4448.87 1201.1 4457.27 1202.16C4465.67 1203.22 4473.82 1208.03 4477.65 1215.58C4481.37 1222.91 4480.69 1231.68 4478.92 1239.71C4475.89 1253.37 4469.91 1266.37 4461.5 1277.56C4455.38 1285.7 4447.74 1293.04 4438.28 1296.81C4428.83 1300.59 4417.35 1300.29 4409.17 1294.23C4395.22 1283.93 4399.53 1263.12 4402.56 1248.71C4406.2 1231.43 4417.07 1215.75 4432.82 1207.41Z" fill="#F2C9AD"/>
<path d="M4425.52 1284.67C4423.38 1284.67 4420.31 1284.29 4417.85 1282.47C4411.4 1277.71 4414.69 1262.07 4416.86 1251.73C4419.74 1238.11 4428.26 1226.38 4439.67 1220.32C4444.36 1217.84 4449.02 1216.52 4453.16 1216.52C4453.92 1216.52 4454.68 1216.56 4455.43 1216.66C4459.51 1217.17 4463.2 1219.39 4464.62 1222.19C4466.09 1225.11 4466.1 1229.94 4464.65 1236.53C4462.08 1248.13 4456.96 1259.27 4449.82 1268.76C4444.34 1276.05 4438.64 1280.92 4432.87 1283.22C4430.51 1284.17 4427.97 1284.67 4425.52 1284.67Z" fill="#EBA58E"/>
<path d="M4271.1 1153.27C4287.76 1156.43 4301.02 1167.21 4308.06 1181.29L4226.46 1165.82C4238.17 1155.29 4254.44 1150.11 4271.1 1153.27Z" fill="#422C4F"/>
<path d="M4263.27 1215.69C4270.15 1215.69 4275.74 1210.1 4275.74 1203.21C4275.74 1196.32 4270.15 1190.74 4263.27 1190.74C4256.38 1190.74 4250.79 1196.32 4250.79 1203.21C4250.79 1210.1 4256.38 1215.69 4263.27 1215.69Z" fill="#422C4F"/>
<path d="M4296.21 1296.77C4272.21 1291.39 4247.01 1291.39 4223.01 1296.76C4224.76 1304.86 4232.4 1312.92 4239.29 1317.53C4246.17 1322.13 4254.86 1323.95 4263.01 1322.48C4275.48 1320.23 4287.31 1305.8 4296.21 1296.77Z" fill="white"/>
<path d="M4025.57 2064.98L4504.73 2204.6C4587.16 2228.62 4668.53 2163.79 4663.56 2078.06L4649.16 1829.63L4481.44 1853.59L4494.23 2068.38L4141.62 2023.93C4111.88 2020.17 4081.79 2027.3 4056.88 2044L4025.57 2064.98Z" fill="#F2C9AD"/>
<path d="M4481.44 1853.59L4649.17 1829.63L4652.92 1894.47C4580.75 1912.09 4483.58 1889.52 4483.58 1889.52L4481.44 1853.59Z" fill="#422C4F"/>
<path d="M4492.4 1416.7C4565.71 1416.7 4627.77 1470.82 4637.75 1543.47L4678.83 1842.62C4594.75 1881.01 4465.73 1879.18 4465.73 1879.18L4445.7 1580.13C4441.95 1524 4457.17 1468.23 4488.92 1421.79L4492.4 1416.7Z" fill="#E68799"/>
<path d="M4462.67 1835.35C4461.72 1835.35 4460.92 1834.6 4460.85 1833.64L4443.88 1580.26C4441.83 1549.65 4445.32 1519.24 4454.24 1489.89C4454.54 1488.92 4455.6 1488.38 4456.52 1488.66C4457.49 1488.96 4458.03 1489.98 4457.74 1490.95C4448.94 1519.88 4445.51 1549.84 4447.53 1580.01L4464.49 1833.39C4464.57 1834.4 4463.8 1835.27 4462.8 1835.33C4462.75 1835.34 4462.71 1835.35 4462.67 1835.35Z" fill="#422C4F"/>
<path d="M4670.65 1784.91C4669.75 1784.91 4668.97 1784.25 4668.84 1783.33L4635.94 1543.72C4635.8 1542.72 4636.5 1541.79 4637.5 1541.66C4638.57 1541.52 4639.43 1542.23 4639.56 1543.21L4672.47 1782.83C4672.6 1783.83 4671.9 1784.75 4670.9 1784.89C4670.81 1784.9 4670.73 1784.91 4670.65 1784.91Z" fill="#422C4F"/>
<path d="M4559.06 2078.38C4558.99 2078.38 4558.92 2078.38 4558.84 2078.37L4210.05 2034.4C4209.05 2034.26 4208.34 2033.35 4208.47 2032.36C4208.59 2031.36 4209.41 2030.64 4210.5 2030.77L4559.29 2074.74C4560.29 2074.87 4561 2075.79 4560.88 2076.78C4560.77 2077.7 4559.97 2078.38 4559.06 2078.38Z" fill="#422C4F"/>
<path d="M4539.02 1836.31C4538.15 1836.31 4537.37 1835.68 4537.23 1834.79C4537.06 1833.8 4537.72 1832.86 4538.71 1832.68C4561.67 1828.7 4583.49 1818.98 4601.8 1804.57C4602.59 1803.95 4603.75 1804.08 4604.37 1804.88C4605 1805.68 4604.85 1806.82 4604.06 1807.45C4585.28 1822.23 4562.89 1832.2 4539.34 1836.28C4539.23 1836.3 4539.13 1836.31 4539.02 1836.31Z" fill="#422C4F"/>
<path d="M3481.35 2891.57L3497.11 2825.06L3542.1 2714.31L3420.18 2664.77L3395.69 2725.07C3384.7 2752.11 3362.9 2772.97 3335.98 2783.06C3341.41 2799.79 3343.66 2817.55 3342.35 2835.09L3481.35 2891.57Z" fill="#F2C9AD"/>
<path d="M3342.35 2835.1C3343.66 2817.56 3341.41 2799.79 3335.98 2783.07C3331.46 2784.77 3326.84 2786.24 3322.05 2787.31L3310.61 2789.84C3296.03 2793.07 3280.92 2793.13 3266.31 2789.97L3247.83 2785.99C3209.38 2777.7 3169.55 2791.88 3144.99 2822.6L3466.71 2953.33L3481.35 2891.57L3342.35 2835.1Z" fill="#E68799"/>
<path d="M3420.19 2664.78L3542.1 2714.32L3524.9 2756.65L3414.68 2678.33L3420.19 2664.78Z" fill="#422C4F"/>
<path d="M3379.03 2652.25L3616.95 2173.49L3805.75 2270.53L3656.55 2774.9L3379.03 2652.25Z" fill="#4893D8"/>
<path d="M4574.04 2224.79L3856.62 2015.75C3775.08 1991.99 3688.24 2030.06 3650.43 2106.13L3616.96 2173.49L4143.33 2444.04H4375.16C4479.97 2444.04 4566.5 2362.12 4572.25 2257.46L4574.04 2224.79Z" fill="#4893D8"/>
<path d="M4353.03 2162.22C4352.86 2162.22 4352.68 2162.2 4352.51 2162.14L3886.42 2026.34C3885.45 2026.05 3884.9 2025.04 3885.17 2024.07C3885.46 2023.11 3886.47 2022.55 3887.45 2022.83L4353.55 2158.63C4354.51 2158.92 4355.07 2159.94 4354.79 2160.9C4354.55 2161.7 4353.82 2162.22 4353.03 2162.22Z" fill="#422C4F"/>
<path d="M4574.04 2226.62C4573.87 2226.62 4573.7 2226.6 4573.53 2226.55L4428 2184.14C4427.03 2183.85 4426.48 2182.84 4426.76 2181.86C4427.04 2180.9 4428.07 2180.34 4429.03 2180.62L4574.56 2223.03C4575.53 2223.32 4576.08 2224.33 4575.81 2225.31C4575.56 2226.1 4574.83 2226.62 4574.04 2226.62Z" fill="#422C4F"/>
<path d="M3773.28 2253.84L3690.75 2268.81C3620.72 2281.51 3568.6 2340.68 3564.83 2411.77L3534.71 2979.64H3861.86L3814.34 2467.8L4143.32 2444.04L3773.28 2253.84Z" fill="#4893D8"/>
<path d="M3749.16 2258.22C3749.16 2258.22 3985.96 2455.4 3985.7 2455.42C3985.43 2455.44 4143.32 2444.04 4143.32 2444.04L3773.28 2253.84L3749.16 2258.22Z" fill="#377FB5"/>
<path d="M3574.5 2367.45C3574.29 2367.45 3574.06 2367.41 3573.85 2367.33C3572.91 2366.97 3572.44 2365.92 3572.79 2364.97C3591.96 2314.23 3637.03 2276.69 3690.41 2267.01L3772.95 2252.05C3773.99 2251.85 3774.89 2252.53 3775.07 2253.52C3775.25 2254.51 3774.6 2255.47 3773.6 2255.64L3691.07 2270.61C3638.94 2280.07 3594.94 2316.72 3576.2 2366.27C3575.94 2367.01 3575.24 2367.45 3574.5 2367.45Z" fill="#422C4F"/>
<path d="M3814.34 2469.63C3813.39 2469.63 3812.59 2468.89 3812.52 2467.93C3812.44 2466.92 3813.21 2466.05 3814.21 2465.98L4082.8 2446.58C4083.75 2446.36 4084.67 2447.27 4084.75 2448.27C4084.83 2449.28 4084.06 2450.15 4083.05 2450.22L3814.46 2469.62C3814.43 2469.63 3814.38 2469.63 3814.34 2469.63Z" fill="#422C4F"/>
<path d="M3545.13 2784.9C3545.1 2784.9 3545.07 2784.9 3545.03 2784.9C3544.02 2784.84 3543.25 2783.99 3543.31 2782.97L3561.29 2443.93C3561.35 2442.96 3562.15 2442.21 3563.12 2442.21C3563.15 2442.21 3563.18 2442.21 3563.22 2442.21C3564.23 2442.27 3565 2443.12 3564.94 2444.14L3546.96 2783.17C3546.9 2784.15 3546.1 2784.9 3545.13 2784.9Z" fill="#422C4F"/>
<path d="M3836.89 2712.55C3835.96 2712.55 3835.16 2711.83 3835.07 2710.89L3805.55 2392.91C3805.46 2391.9 3806.2 2391.01 3807.2 2390.92C3808.21 2390.75 3809.1 2391.57 3809.19 2392.57L3838.71 2710.54C3838.81 2711.55 3838.06 2712.45 3837.06 2712.53C3837.01 2712.55 3836.95 2712.55 3836.89 2712.55Z" fill="#422C4F"/>
<path d="M3749.83 3166.73L3739.41 3099.18V2979.64H3607.81V3044.73C3607.81 3073.92 3595.47 3101.45 3574.32 3120.94C3585.65 3134.38 3594.42 3150 3599.8 3166.73H3749.83Z" fill="#F2C9AD"/>
<path d="M3599.8 3166.73C3594.42 3149.99 3585.65 3134.38 3574.32 3120.94C3570.77 3124.21 3567.05 3127.32 3563.01 3130.11L3553.37 3136.77C3541.08 3145.26 3527.1 3150.98 3512.38 3153.57L3493.76 3156.84C3455.02 3163.64 3423.46 3191.77 3412.26 3229.48H3759.52L3749.84 3166.75H3599.8V3166.73Z" fill="#E68799"/>
<path d="M3607.81 2979.64H3739.41V3025.34L3607.81 2994.26V2979.64Z" fill="#422C4F"/>
<path d="M4813.79 2577.17H4849.74L4859.35 2663.38L4821.1 2642.7L4813.79 2577.17Z" fill="#422C4F"/>
<path d="M4859.35 2663.38L4920.41 3210.88H4884.46L4821.1 2642.7L4859.35 2663.38Z" fill="#99A3B0"/>
<path d="M4582.7 2653.8L4644.82 3210.88H4608.88L4544.45 2633.13L4582.7 2653.8Z" fill="#99A3B0"/>
<path d="M4538.21 2577.17H4574.15L4582.7 2653.8L4544.45 2633.13L4538.21 2577.17Z" fill="#422C4F"/>
<path d="M4465.58 2577.17H4501.53L4492.76 2655.81L4458.86 2637.49L4465.58 2577.17Z" fill="#422C4F"/>
<path d="M4394.91 3210.88L4458.85 2637.49L4492.76 2655.81L4430.85 3210.88H4394.91Z" fill="#99A3B0"/>
<path d="M4169.04 2577.17H4204.99L4196.81 2650.53L4162.9 2632.2L4169.04 2577.17Z" fill="#422C4F"/>
<path d="M4098.37 3210.88L4162.9 2632.2L4196.81 2650.53L4134.31 3210.88H4098.37Z" fill="#99A3B0"/>
<path d="M5055.93 1519.15V1462.09H4933.13C4788.08 1462.09 4663.29 1564.74 4635.29 1707.09L4512.57 2331.04C4501.78 2385.9 4453.69 2425.46 4397.8 2425.46H4240.72C4156.94 2425.46 4089.02 2493.39 4089.02 2577.18H4771.07C4851.42 2577.18 4920.55 2520.32 4936.05 2441.47L5090.94 1654.02C5100.86 1603.54 5086.1 1554.86 5055.93 1519.15Z" fill="#797C99"/>
<path d="M5058.86 2441.46L5213.74 1654.01C5233.29 1554.61 5157.21 1462.09 5055.93 1462.09H5055.92C4910.87 1462.09 4786.09 1564.74 4758.1 1707.09L4613.65 2441.46C4598.14 2520.32 4529.02 2577.17 4448.66 2577.17H4442.74H4893.87C4974.23 2577.17 5043.36 2520.32 5058.86 2441.46Z" fill="#495375"/>
</g>
<defs>
<clipPath id="clip0_377_336">
<rect width="5483" height="3656" fill="white"/>
</clipPath>
</defs>
</svg>
