<svg xmlns="http://www.w3.org/2000/svg" xmlns:xlink="http://www.w3.org/1999/xlink" width="1000" zoomAndPan="magnify" viewBox="0 0 750 749.999995" height="1000" preserveAspectRatio="xMidYMid meet" version="1.0"><path fill="#ffa000" d="M 709.226562 254.347656 L 441.839844 79.378906 C 439.398438 77.699219 436.898438 76.117188 434.335938 74.628906 C 431.777344 73.136719 429.164062 71.746094 426.5 70.453125 C 423.835938 69.160156 421.125 67.96875 418.371094 66.878906 C 415.617188 65.789062 412.824219 64.804688 409.996094 63.929688 C 407.164062 63.050781 404.308594 62.277344 401.421875 61.613281 C 398.535156 60.953125 395.625 60.398438 392.699219 59.953125 C 389.769531 59.507812 386.828125 59.175781 383.875 58.953125 C 380.921875 58.730469 377.960938 58.617188 375 58.617188 C 372.039062 58.617188 369.078125 58.730469 366.125 58.953125 C 363.171875 59.175781 360.230469 59.507812 357.300781 59.953125 C 354.375 60.398438 351.464844 60.953125 348.578125 61.613281 C 345.691406 62.277344 342.835938 63.050781 340.003906 63.929688 C 337.175781 64.804688 334.382812 65.789062 331.628906 66.878906 C 328.875 67.96875 326.164062 69.160156 323.5 70.453125 C 320.835938 71.746094 318.222656 73.136719 315.664062 74.628906 C 313.101562 76.117188 310.601562 77.699219 308.160156 79.378906 L 40.773438 254.347656 C 37.617188 256.761719 34.609375 259.347656 31.753906 262.105469 C 28.894531 264.863281 26.203125 267.777344 23.683594 270.84375 C 21.160156 273.914062 18.820312 277.117188 16.664062 280.453125 C 14.511719 283.789062 12.554688 287.238281 10.792969 290.800781 C 9.035156 294.363281 7.488281 298.011719 6.148438 301.753906 C 4.808594 305.492188 3.691406 309.296875 2.789062 313.164062 C 1.886719 317.035156 1.207031 320.941406 0.757812 324.886719 C 0.304688 328.832031 0.078125 332.792969 0.0820312 336.765625 L 0.0820312 645.8125 C 0.0820312 647.515625 0.121094 649.21875 0.207031 650.917969 C 0.289062 652.617188 0.414062 654.316406 0.582031 656.011719 C 0.75 657.703125 0.957031 659.394531 1.207031 661.078125 C 1.457031 662.761719 1.746094 664.4375 2.078125 666.109375 C 2.410156 667.777344 2.785156 669.4375 3.199219 671.089844 C 3.613281 672.742188 4.066406 674.382812 4.558594 676.011719 C 5.054688 677.640625 5.589844 679.257812 6.160156 680.859375 C 6.734375 682.460938 7.347656 684.050781 8 685.621094 C 8.652344 687.195312 9.339844 688.75 10.066406 690.289062 C 10.796875 691.828125 11.5625 693.347656 12.363281 694.851562 C 13.167969 696.351562 14.003906 697.832031 14.878906 699.292969 C 15.753906 700.753906 16.667969 702.191406 17.613281 703.605469 C 18.558594 705.023438 19.539062 706.414062 20.550781 707.78125 C 21.566406 709.148438 22.613281 710.492188 23.691406 711.804688 C 24.773438 713.121094 25.886719 714.410156 27.027344 715.671875 C 28.171875 716.933594 29.34375 718.167969 30.546875 719.371094 C 31.753906 720.574219 32.984375 721.746094 34.246094 722.890625 C 35.507812 724.035156 36.796875 725.144531 38.113281 726.226562 C 39.429688 727.304688 40.769531 728.351562 42.136719 729.367188 C 43.503906 730.382812 44.898438 731.363281 46.3125 732.308594 C 47.726562 733.253906 49.164062 734.164062 50.625 735.039062 C 52.085938 735.914062 53.566406 736.753906 55.066406 737.554688 C 56.570312 738.359375 58.089844 739.125 59.628906 739.851562 C 61.167969 740.578125 62.722656 741.269531 64.296875 741.921875 C 65.871094 742.570312 67.457031 743.183594 69.058594 743.757812 C 70.664062 744.332031 72.277344 744.863281 73.90625 745.359375 C 75.539062 745.851562 77.175781 746.308594 78.828125 746.722656 C 80.480469 747.132812 82.140625 747.507812 83.8125 747.839844 C 85.480469 748.171875 87.15625 748.460938 88.839844 748.710938 C 90.523438 748.960938 92.214844 749.171875 93.910156 749.335938 C 95.601562 749.503906 97.300781 749.628906 99 749.714844 C 100.699219 749.796875 102.402344 749.839844 104.105469 749.839844 L 645.894531 749.839844 C 647.597656 749.839844 649.300781 749.796875 651 749.714844 C 652.699219 749.628906 654.398438 749.503906 656.089844 749.335938 C 657.785156 749.171875 659.476562 748.960938 661.160156 748.710938 C 662.84375 748.460938 664.519531 748.171875 666.1875 747.839844 C 667.859375 747.507812 669.519531 747.132812 671.171875 746.722656 C 672.824219 746.308594 674.460938 745.851562 676.09375 745.359375 C 677.722656 744.863281 679.335938 744.332031 680.941406 743.757812 C 682.542969 743.183594 684.128906 742.570312 685.703125 741.921875 C 687.277344 741.269531 688.832031 740.578125 690.371094 739.851562 C 691.910156 739.125 693.429688 738.359375 694.933594 737.554688 C 696.433594 736.753906 697.914062 735.914062 699.375 735.039062 C 700.835938 734.164062 702.273438 733.253906 703.6875 732.308594 C 705.101562 731.363281 706.496094 730.382812 707.863281 729.367188 C 709.230469 728.351562 710.570312 727.304688 711.886719 726.226562 C 713.203125 725.144531 714.492188 724.035156 715.753906 722.890625 C 717.015625 721.746094 718.246094 720.574219 719.453125 719.371094 C 720.65625 718.167969 721.828125 716.933594 722.972656 715.671875 C 724.113281 714.410156 725.226562 713.121094 726.308594 711.804688 C 727.386719 710.492188 728.433594 709.148438 729.449219 707.78125 C 730.460938 706.414062 731.441406 705.023438 732.386719 703.605469 C 733.332031 702.191406 734.246094 700.753906 735.121094 699.292969 C 735.996094 697.832031 736.832031 696.351562 737.636719 694.851562 C 738.4375 693.347656 739.203125 691.828125 739.933594 690.289062 C 740.660156 688.75 741.347656 687.195312 742 685.621094 C 742.652344 684.050781 743.265625 682.460938 743.839844 680.859375 C 744.410156 679.257812 744.945312 677.640625 745.441406 676.011719 C 745.933594 674.382812 746.386719 672.742188 746.800781 671.089844 C 747.214844 669.4375 747.589844 667.777344 747.921875 666.109375 C 748.253906 664.4375 748.542969 662.761719 748.792969 661.078125 C 749.042969 659.394531 749.25 657.703125 749.417969 656.011719 C 749.585938 654.316406 749.710938 652.617188 749.792969 650.917969 C 749.878906 649.21875 749.917969 647.515625 749.917969 645.8125 L 749.917969 336.730469 C 749.921875 332.761719 749.695312 328.804688 749.242188 324.859375 C 748.785156 320.914062 748.109375 317.007812 747.207031 313.140625 C 746.304688 309.273438 745.183594 305.472656 743.84375 301.734375 C 742.503906 297.996094 740.957031 294.347656 739.199219 290.785156 C 737.4375 287.226562 735.484375 283.777344 733.328125 280.441406 C 731.171875 277.105469 728.835938 273.90625 726.3125 270.839844 C 723.789062 267.773438 721.101562 264.859375 718.242188 262.101562 C 715.386719 259.34375 712.382812 256.757812 709.226562 254.347656 Z M 709.226562 254.347656 " fill-opacity="1" fill-rule="nonzero"/><path fill="#f3f5f9" d="M 633.566406 749.839844 L 633.566406 25.855469 C 633.566406 25.007812 633.523438 24.164062 633.441406 23.320312 C 633.355469 22.480469 633.234375 21.644531 633.066406 20.8125 C 632.902344 19.980469 632.699219 19.160156 632.453125 18.351562 C 632.207031 17.539062 631.921875 16.742188 631.597656 15.960938 C 631.273438 15.179688 630.910156 14.414062 630.511719 13.667969 C 630.113281 12.921875 629.675781 12.195312 629.207031 11.492188 C 628.738281 10.789062 628.234375 10.109375 627.695312 9.453125 C 627.160156 8.796875 626.589844 8.171875 625.992188 7.574219 C 625.394531 6.972656 624.765625 6.40625 624.113281 5.871094 C 623.457031 5.332031 622.777344 4.828125 622.074219 4.359375 C 621.371094 3.886719 620.644531 3.453125 619.898438 3.054688 C 619.148438 2.652344 618.386719 2.292969 617.601562 1.96875 C 616.820312 1.644531 616.023438 1.359375 615.214844 1.113281 C 614.402344 0.867188 613.582031 0.660156 612.753906 0.496094 C 611.921875 0.332031 611.085938 0.207031 610.242188 0.125 C 609.398438 0.0429688 608.554688 0 607.707031 0 L 142.292969 0 C 141.445312 0 140.601562 0.0429688 139.757812 0.125 C 138.914062 0.207031 138.078125 0.332031 137.246094 0.496094 C 136.417969 0.660156 135.597656 0.867188 134.785156 1.113281 C 133.976562 1.359375 133.179688 1.644531 132.398438 1.96875 C 131.613281 2.292969 130.851562 2.652344 130.101562 3.054688 C 129.355469 3.453125 128.628906 3.886719 127.925781 4.359375 C 127.222656 4.828125 126.542969 5.332031 125.886719 5.871094 C 125.234375 6.40625 124.605469 6.972656 124.007812 7.574219 C 123.410156 8.171875 122.839844 8.796875 122.304688 9.453125 C 121.765625 10.109375 121.261719 10.789062 120.792969 11.492188 C 120.320312 12.195312 119.886719 12.921875 119.488281 13.667969 C 119.089844 14.414062 118.726562 15.179688 118.402344 15.960938 C 118.078125 16.742188 117.792969 17.539062 117.546875 18.351562 C 117.300781 19.160156 117.097656 19.980469 116.933594 20.8125 C 116.765625 21.644531 116.640625 22.480469 116.558594 23.320312 C 116.476562 24.164062 116.433594 25.007812 116.433594 25.855469 L 116.433594 749.839844 Z M 633.566406 749.839844 " fill-opacity="1" fill-rule="nonzero"/><path fill="#ffc107" d="M 749.917969 336.78125 L 749.917969 645.765625 C 749.921875 647.46875 749.878906 649.171875 749.796875 650.875 C 749.714844 652.574219 749.589844 654.273438 749.425781 655.96875 C 749.257812 657.664062 749.050781 659.355469 748.800781 661.039062 C 748.550781 662.726562 748.261719 664.402344 747.929688 666.074219 C 747.597656 667.746094 747.226562 669.40625 746.8125 671.058594 C 746.398438 672.710938 745.945312 674.351562 745.453125 675.984375 C 744.957031 677.613281 744.425781 679.230469 743.851562 680.835938 C 743.277344 682.441406 742.664062 684.027344 742.015625 685.601562 C 741.363281 687.175781 740.671875 688.734375 739.945312 690.273438 C 739.21875 691.8125 738.453125 693.335938 737.648438 694.839844 C 736.847656 696.339844 736.007812 697.824219 735.132812 699.285156 C 734.257812 700.746094 733.347656 702.183594 732.398438 703.601562 C 731.453125 705.015625 730.472656 706.410156 729.457031 707.777344 C 728.445312 709.148438 727.394531 710.488281 726.316406 711.804688 C 725.234375 713.125 724.121094 714.414062 722.980469 715.675781 C 721.835938 716.9375 720.660156 718.171875 719.457031 719.375 C 718.25 720.578125 717.019531 721.753906 715.753906 722.898438 C 714.492188 724.042969 713.203125 725.152344 711.886719 726.234375 C 710.570312 727.316406 709.226562 728.363281 707.859375 729.378906 C 706.492188 730.390625 705.097656 731.371094 703.679688 732.320312 C 702.265625 733.265625 700.824219 734.175781 699.363281 735.050781 C 697.902344 735.925781 696.421875 736.765625 694.917969 737.570312 C 693.417969 738.371094 691.894531 739.136719 690.355469 739.863281 C 688.816406 740.59375 687.257812 741.28125 685.683594 741.933594 C 684.109375 742.585938 682.519531 743.199219 680.917969 743.769531 C 679.3125 744.34375 677.695312 744.878906 676.066406 745.371094 C 674.433594 745.867188 672.792969 746.320312 671.140625 746.730469 C 669.488281 747.144531 667.824219 747.519531 666.15625 747.847656 C 664.484375 748.179688 662.804688 748.472656 661.121094 748.71875 C 659.433594 748.96875 657.746094 749.175781 656.050781 749.34375 C 654.355469 749.507812 652.65625 749.632812 650.953125 749.714844 C 649.253906 749.796875 647.550781 749.839844 645.847656 749.839844 L 104.152344 749.839844 C 102.449219 749.839844 100.746094 749.796875 99.046875 749.714844 C 97.34375 749.632812 95.644531 749.507812 93.949219 749.34375 C 92.253906 749.175781 90.566406 748.96875 88.878906 748.71875 C 87.195312 748.472656 85.515625 748.179688 83.84375 747.847656 C 82.175781 747.519531 80.511719 747.144531 78.859375 746.730469 C 77.207031 746.320312 75.566406 745.867188 73.933594 745.371094 C 72.304688 744.878906 70.6875 744.34375 69.082031 743.769531 C 67.480469 743.199219 65.890625 742.585938 64.316406 741.933594 C 62.742188 741.28125 61.183594 740.59375 59.644531 739.863281 C 58.105469 739.136719 56.582031 738.371094 55.082031 737.570312 C 53.578125 736.765625 52.097656 735.925781 50.636719 735.050781 C 49.175781 734.175781 47.734375 733.265625 46.316406 732.320312 C 44.902344 731.371094 43.507812 730.390625 42.140625 729.378906 C 40.773438 728.363281 39.429688 727.316406 38.113281 726.234375 C 36.796875 725.152344 35.507812 724.042969 34.246094 722.898438 C 32.980469 721.753906 31.75 720.578125 30.542969 719.375 C 29.339844 718.171875 28.164062 716.9375 27.019531 715.675781 C 25.878906 714.414062 24.765625 713.125 23.683594 711.804688 C 22.605469 710.488281 21.554688 709.148438 20.542969 707.777344 C 19.527344 706.410156 18.546875 705.015625 17.601562 703.601562 C 16.652344 702.183594 15.742188 700.746094 14.867188 699.285156 C 13.992188 697.824219 13.152344 696.339844 12.351562 694.839844 C 11.546875 693.335938 10.78125 691.8125 10.054688 690.273438 C 9.328125 688.734375 8.636719 687.175781 7.984375 685.601562 C 7.335938 684.027344 6.722656 682.441406 6.148438 680.835938 C 5.574219 679.230469 5.042969 677.613281 4.546875 675.984375 C 4.054688 674.351562 3.601562 672.710938 3.1875 671.058594 C 2.773438 669.40625 2.402344 667.746094 2.070312 666.074219 C 1.738281 664.402344 1.449219 662.726562 1.199219 661.039062 C 0.949219 659.355469 0.742188 657.664062 0.574219 655.96875 C 0.410156 654.273438 0.285156 652.574219 0.203125 650.875 C 0.121094 649.171875 0.078125 647.46875 0.0820312 645.765625 L 0.0820312 336.78125 C 0.0703125 328.628906 1.023438 320.59375 2.933594 312.671875 C 4.847656 304.75 7.664062 297.164062 11.394531 289.914062 L 308.160156 554.105469 C 310.472656 556.066406 312.863281 557.925781 315.335938 559.675781 C 317.808594 561.429688 320.355469 563.070312 322.972656 564.597656 C 325.589844 566.125 328.273438 567.535156 331.015625 568.828125 C 333.757812 570.117188 336.550781 571.289062 339.394531 572.332031 C 342.238281 573.378906 345.125 574.296875 348.050781 575.089844 C 350.976562 575.878906 353.933594 576.542969 356.917969 577.074219 C 359.902344 577.605469 362.902344 578.003906 365.921875 578.269531 C 368.941406 578.535156 371.96875 578.667969 375 578.667969 C 378.03125 578.667969 381.054688 578.535156 384.078125 578.269531 C 387.097656 578.003906 390.097656 577.605469 393.082031 577.074219 C 396.066406 576.542969 399.023438 575.878906 401.949219 575.089844 C 404.875 574.296875 407.757812 573.378906 410.605469 572.332031 C 413.449219 571.289062 416.242188 570.117188 418.984375 568.828125 C 421.726562 567.535156 424.410156 566.125 427.027344 564.597656 C 429.644531 563.070312 432.191406 561.429688 434.664062 559.675781 C 437.136719 557.925781 439.527344 556.066406 441.839844 554.105469 L 738.605469 289.851562 C 742.339844 297.109375 745.160156 304.703125 747.074219 312.636719 C 748.984375 320.574219 749.933594 328.621094 749.917969 336.78125 Z M 749.917969 336.78125 " fill-opacity="1" fill-rule="nonzero"/><path fill="#ffd54f" d="M 723.804688 714.671875 C 721.375 717.433594 718.808594 720.058594 716.097656 722.542969 C 713.390625 725.03125 710.558594 727.367188 707.601562 729.554688 C 704.644531 731.738281 701.582031 733.761719 698.410156 735.621094 C 695.238281 737.480469 691.976562 739.164062 688.625 740.675781 C 685.273438 742.1875 681.851562 743.519531 678.355469 744.664062 C 674.863281 745.8125 671.320312 746.769531 667.722656 747.542969 C 664.128906 748.3125 660.503906 748.886719 656.847656 749.273438 C 653.191406 749.65625 649.523438 749.84375 645.847656 749.839844 L 104.152344 749.839844 C 100.734375 749.847656 97.324219 749.691406 93.921875 749.363281 C 90.519531 749.03125 87.140625 748.535156 83.785156 747.871094 C 80.433594 747.207031 77.121094 746.375 73.851562 745.382812 C 70.582031 744.386719 67.367188 743.230469 64.210938 741.917969 C 61.054688 740.601562 57.972656 739.132812 54.964844 737.511719 C 51.953125 735.890625 49.03125 734.121094 46.199219 732.210938 C 43.367188 730.296875 40.636719 728.25 38.003906 726.0625 C 35.375 723.878906 32.863281 721.570312 30.460938 719.132812 L 308.742188 473.042969 C 309.871094 472.046875 311.023438 471.078125 312.199219 470.132812 C 313.375 469.1875 314.570312 468.269531 315.785156 467.378906 C 317 466.488281 318.234375 465.625 319.488281 464.789062 C 320.746094 463.957031 322.015625 463.148438 323.308594 462.371094 C 324.597656 461.59375 325.90625 460.847656 327.230469 460.128906 C 328.558594 459.410156 329.898438 458.722656 331.253906 458.066406 C 332.609375 457.40625 333.980469 456.78125 335.363281 456.183594 C 336.746094 455.589844 338.144531 455.023438 339.554688 454.492188 C 340.964844 453.957031 342.386719 453.457031 343.816406 452.988281 C 345.25 452.519531 346.691406 452.085938 348.144531 451.679688 C 349.597656 451.277344 351.054688 450.90625 352.523438 450.570312 C 353.992188 450.230469 355.46875 449.929688 356.953125 449.65625 C 358.433594 449.386719 359.921875 449.148438 361.414062 448.945312 C 362.910156 448.742188 364.40625 448.574219 365.90625 448.4375 C 367.40625 448.300781 368.910156 448.199219 370.417969 448.128906 C 371.921875 448.0625 373.429688 448.027344 374.933594 448.027344 C 376.441406 448.027344 377.949219 448.0625 379.453125 448.128906 C 380.960938 448.199219 382.460938 448.300781 383.964844 448.4375 C 385.464844 448.574219 386.960938 448.742188 388.453125 448.945312 C 389.949219 449.148438 391.4375 449.386719 392.917969 449.65625 C 394.402344 449.929688 395.875 450.230469 397.34375 450.570312 C 398.8125 450.90625 400.273438 451.277344 401.726562 451.679688 C 403.179688 452.085938 404.621094 452.519531 406.054688 452.988281 C 407.484375 453.457031 408.90625 453.957031 410.316406 454.492188 C 411.726562 455.023438 413.125 455.589844 414.507812 456.183594 C 415.890625 456.78125 417.261719 457.40625 418.617188 458.066406 C 419.972656 458.722656 421.3125 459.410156 422.636719 460.128906 C 423.964844 460.847656 425.269531 461.59375 426.5625 462.371094 C 427.851562 463.148438 429.125 463.957031 430.382812 464.789062 C 431.636719 465.625 432.871094 466.488281 434.085938 467.378906 C 435.300781 468.269531 436.496094 469.1875 437.671875 470.132812 C 438.84375 471.078125 439.996094 472.046875 441.128906 473.042969 Z M 723.804688 714.671875 " fill-opacity="1" fill-rule="nonzero"/><path fill="#ffffff" d="M 129.363281 698.125 C 129.363281 697.277344 129.445312 696.4375 129.613281 695.601562 C 129.777344 694.769531 130.023438 693.960938 130.347656 693.179688 C 130.671875 692.394531 131.070312 691.648438 131.542969 690.941406 C 132.011719 690.238281 132.550781 689.585938 133.148438 688.984375 C 133.75 688.382812 134.402344 687.847656 135.109375 687.375 C 135.816406 686.90625 136.558594 686.507812 137.34375 686.179688 C 138.128906 685.855469 138.9375 685.609375 139.769531 685.445312 C 140.601562 685.28125 141.441406 685.195312 142.292969 685.195312 L 194.003906 685.195312 C 194.851562 685.195312 195.695312 685.28125 196.527344 685.445312 C 197.359375 685.609375 198.167969 685.855469 198.953125 686.179688 C 199.734375 686.507812 200.480469 686.90625 201.1875 687.375 C 201.894531 687.847656 202.546875 688.382812 203.144531 688.984375 C 203.746094 689.585938 204.28125 690.238281 204.753906 690.941406 C 205.226562 691.648438 205.625 692.394531 205.949219 693.179688 C 206.273438 693.960938 206.519531 694.769531 206.683594 695.601562 C 206.851562 696.4375 206.933594 697.277344 206.933594 698.125 C 206.933594 698.972656 206.851562 699.816406 206.683594 700.648438 C 206.519531 701.480469 206.273438 702.289062 205.949219 703.074219 C 205.625 703.855469 205.226562 704.601562 204.753906 705.308594 C 204.28125 706.015625 203.746094 706.667969 203.144531 707.265625 C 202.546875 707.867188 201.894531 708.402344 201.1875 708.875 C 200.480469 709.347656 199.734375 709.746094 198.953125 710.070312 C 198.167969 710.394531 197.359375 710.640625 196.527344 710.804688 C 195.695312 710.972656 194.851562 711.054688 194.003906 711.054688 L 142.292969 711.054688 C 141.441406 711.054688 140.601562 710.972656 139.769531 710.804688 C 138.9375 710.640625 138.128906 710.394531 137.34375 710.070312 C 136.558594 709.746094 135.816406 709.347656 135.109375 708.875 C 134.402344 708.402344 133.75 707.867188 133.148438 707.265625 C 132.550781 706.667969 132.011719 706.015625 131.542969 705.308594 C 131.070312 704.601562 130.671875 703.855469 130.347656 703.074219 C 130.023438 702.289062 129.777344 701.480469 129.613281 700.648438 C 129.445312 699.816406 129.363281 698.972656 129.363281 698.125 Z M 129.363281 698.125 " fill-opacity="1" fill-rule="nonzero"/><path fill="#ffffff" d="M 258.644531 698.125 C 258.644531 698.972656 258.5625 699.816406 258.398438 700.648438 C 258.230469 701.480469 257.988281 702.289062 257.660156 703.074219 C 257.335938 703.855469 256.9375 704.601562 256.46875 705.308594 C 255.996094 706.011719 255.460938 706.667969 254.859375 707.265625 C 254.257812 707.867188 253.605469 708.402344 252.898438 708.875 C 252.195312 709.347656 251.449219 709.746094 250.664062 710.070312 C 249.878906 710.394531 249.070312 710.640625 248.238281 710.804688 C 247.40625 710.972656 246.566406 711.054688 245.71875 711.054688 C 244.867188 711.054688 244.027344 710.972656 243.195312 710.804688 C 242.363281 710.640625 241.554688 710.394531 240.769531 710.070312 C 239.984375 709.746094 239.242188 709.347656 238.535156 708.875 C 237.828125 708.402344 237.175781 707.867188 236.574219 707.265625 C 235.976562 706.667969 235.441406 706.011719 234.96875 705.308594 C 234.496094 704.601562 234.097656 703.855469 233.773438 703.074219 C 233.449219 702.289062 233.203125 701.480469 233.039062 700.648438 C 232.871094 699.816406 232.789062 698.972656 232.789062 698.125 C 232.789062 697.277344 232.871094 696.4375 233.039062 695.601562 C 233.203125 694.769531 233.449219 693.960938 233.773438 693.179688 C 234.097656 692.394531 234.496094 691.648438 234.96875 690.941406 C 235.441406 690.238281 235.976562 689.582031 236.574219 688.984375 C 237.175781 688.382812 237.828125 687.847656 238.535156 687.375 C 239.242188 686.902344 239.984375 686.507812 240.769531 686.179688 C 241.554688 685.855469 242.363281 685.609375 243.195312 685.445312 C 244.027344 685.28125 244.867188 685.195312 245.71875 685.195312 C 246.566406 685.195312 247.40625 685.28125 248.238281 685.445312 C 249.070312 685.609375 249.878906 685.855469 250.664062 686.179688 C 251.449219 686.507812 252.195312 686.902344 252.898438 687.375 C 253.605469 687.847656 254.257812 688.382812 254.859375 688.984375 C 255.460938 689.582031 255.996094 690.238281 256.46875 690.941406 C 256.9375 691.648438 257.335938 692.394531 257.660156 693.179688 C 257.988281 693.960938 258.230469 694.769531 258.398438 695.601562 C 258.5625 696.4375 258.644531 697.277344 258.644531 698.125 Z M 258.644531 698.125 " fill-opacity="1" fill-rule="nonzero"/><path fill="#c02027" d="M 375 51.714844 C 372.25 51.714844 369.5 51.78125 366.753906 51.914062 C 364.007812 52.050781 361.265625 52.253906 358.527344 52.523438 C 355.789062 52.792969 353.058594 53.128906 350.339844 53.53125 C 347.617188 53.9375 344.910156 54.40625 342.210938 54.941406 C 339.515625 55.480469 336.832031 56.082031 334.164062 56.75 C 331.496094 57.417969 328.84375 58.152344 326.210938 58.949219 C 323.582031 59.75 320.96875 60.609375 318.378906 61.539062 C 315.789062 62.464844 313.222656 63.453125 310.683594 64.507812 C 308.140625 65.558594 305.628906 66.671875 303.140625 67.847656 C 300.65625 69.023438 298.199219 70.261719 295.773438 71.558594 C 293.347656 72.855469 290.957031 74.210938 288.597656 75.625 C 286.238281 77.039062 283.914062 78.507812 281.625 80.039062 C 279.339844 81.566406 277.089844 83.148438 274.882812 84.789062 C 272.671875 86.425781 270.503906 88.117188 268.378906 89.863281 C 266.253906 91.609375 264.171875 93.402344 262.132812 95.25 C 260.09375 97.097656 258.101562 98.992188 256.160156 100.9375 C 254.214844 102.882812 252.316406 104.875 250.46875 106.914062 C 248.625 108.953125 246.828125 111.035156 245.082031 113.160156 C 243.335938 115.285156 241.644531 117.453125 240.007812 119.664062 C 238.367188 121.871094 236.785156 124.121094 235.257812 126.40625 C 233.730469 128.695312 232.257812 131.015625 230.84375 133.375 C 229.429688 135.734375 228.074219 138.128906 226.777344 140.554688 C 225.480469 142.980469 224.246094 145.4375 223.070312 147.921875 C 221.894531 150.410156 220.777344 152.921875 219.726562 155.464844 C 218.671875 158.003906 217.683594 160.570312 216.757812 163.160156 C 215.832031 165.75 214.96875 168.359375 214.167969 170.992188 C 213.371094 173.625 212.636719 176.273438 211.96875 178.941406 C 211.300781 181.609375 210.699219 184.292969 210.160156 186.992188 C 209.625 189.691406 209.15625 192.398438 208.75 195.121094 C 208.347656 197.839844 208.011719 200.570312 207.742188 203.308594 C 207.472656 206.042969 207.269531 208.785156 207.136719 211.535156 C 207 214.28125 206.933594 217.03125 206.933594 219.78125 C 206.933594 222.53125 207 225.28125 207.136719 228.027344 C 207.269531 230.773438 207.472656 233.515625 207.742188 236.253906 C 208.011719 238.992188 208.347656 241.71875 208.75 244.441406 C 209.15625 247.160156 209.625 249.871094 210.160156 252.570312 C 210.699219 255.265625 211.300781 257.949219 211.96875 260.617188 C 212.636719 263.285156 213.371094 265.933594 214.167969 268.566406 C 214.96875 271.199219 215.832031 273.8125 216.757812 276.398438 C 217.683594 278.988281 218.671875 281.554688 219.726562 284.097656 C 220.777344 286.636719 221.894531 289.152344 223.070312 291.636719 C 224.246094 294.125 225.480469 296.582031 226.777344 299.007812 C 228.074219 301.433594 229.429688 303.824219 230.84375 306.183594 C 232.257812 308.542969 233.730469 310.867188 235.257812 313.152344 C 236.785156 315.441406 238.367188 317.6875 240.007812 319.898438 C 241.644531 322.105469 243.335938 324.273438 245.082031 326.402344 C 246.828125 328.527344 248.625 330.609375 250.46875 332.648438 C 252.316406 334.683594 254.214844 336.675781 256.160156 338.621094 C 258.101562 340.566406 260.09375 342.460938 262.132812 344.308594 C 264.171875 346.15625 266.253906 347.953125 268.378906 349.699219 C 270.503906 351.441406 272.671875 353.132812 274.882812 354.773438 C 277.089844 356.410156 279.339844 357.996094 281.625 359.523438 C 283.914062 361.050781 286.238281 362.523438 288.597656 363.9375 C 290.957031 365.351562 293.347656 366.707031 295.773438 368.003906 C 298.199219 369.300781 300.65625 370.535156 303.140625 371.710938 C 305.628906 372.886719 308.140625 374 310.683594 375.054688 C 313.222656 376.105469 315.789062 377.097656 318.378906 378.023438 C 320.96875 378.949219 323.582031 379.8125 326.210938 380.609375 C 328.84375 381.410156 331.496094 382.140625 334.164062 382.8125 C 336.832031 383.480469 339.515625 384.082031 342.210938 384.617188 C 344.910156 385.15625 347.617188 385.625 350.339844 386.027344 C 353.058594 386.433594 355.789062 386.769531 358.527344 387.039062 C 361.265625 387.308594 364.007812 387.511719 366.753906 387.644531 C 369.5 387.78125 372.25 387.847656 375 387.847656 C 375.847656 387.847656 376.691406 387.765625 377.523438 387.597656 C 378.355469 387.433594 379.164062 387.1875 379.949219 386.863281 C 380.730469 386.539062 381.476562 386.140625 382.183594 385.667969 C 382.886719 385.195312 383.542969 384.660156 384.140625 384.0625 C 384.742188 383.460938 385.277344 382.808594 385.75 382.101562 C 386.222656 381.394531 386.621094 380.652344 386.945312 379.867188 C 387.269531 379.082031 387.515625 378.273438 387.679688 377.441406 C 387.84375 376.609375 387.929688 375.769531 387.929688 374.917969 C 387.929688 374.070312 387.84375 373.230469 387.679688 372.398438 C 387.515625 371.5625 387.269531 370.757812 386.945312 369.972656 C 386.621094 369.1875 386.222656 368.441406 385.75 367.738281 C 385.277344 367.03125 384.742188 366.378906 384.140625 365.777344 C 383.542969 365.175781 382.886719 364.640625 382.183594 364.167969 C 381.476562 363.699219 380.730469 363.300781 379.949219 362.976562 C 379.164062 362.648438 378.355469 362.40625 377.523438 362.238281 C 376.691406 362.074219 375.847656 361.992188 375 361.992188 C 372.671875 361.992188 370.347656 361.933594 368.023438 361.820312 C 365.699219 361.707031 363.378906 361.535156 361.0625 361.304688 C 358.746094 361.078125 356.433594 360.792969 354.132812 360.453125 C 351.832031 360.109375 349.539062 359.710938 347.257812 359.257812 C 344.972656 358.804688 342.703125 358.292969 340.445312 357.730469 C 338.1875 357.164062 335.945312 356.542969 333.71875 355.867188 C 331.492188 355.191406 329.28125 354.460938 327.089844 353.679688 C 324.898438 352.894531 322.726562 352.054688 320.578125 351.164062 C 318.429688 350.273438 316.300781 349.332031 314.195312 348.335938 C 312.09375 347.34375 310.015625 346.296875 307.960938 345.199219 C 305.910156 344.101562 303.886719 342.953125 301.890625 341.757812 C 299.894531 340.5625 297.925781 339.316406 295.992188 338.023438 C 294.058594 336.730469 292.15625 335.390625 290.285156 334.003906 C 288.414062 332.617188 286.582031 331.1875 284.78125 329.710938 C 282.984375 328.234375 281.222656 326.714844 279.496094 325.152344 C 277.773438 323.589844 276.085938 321.984375 274.441406 320.339844 C 272.796875 318.691406 271.191406 317.007812 269.628906 315.28125 C 268.066406 313.558594 266.546875 311.796875 265.070312 309.996094 C 263.59375 308.199219 262.160156 306.363281 260.773438 304.496094 C 259.390625 302.625 258.050781 300.722656 256.757812 298.789062 C 255.464844 296.851562 254.21875 294.886719 253.023438 292.890625 C 251.824219 290.894531 250.679688 288.871094 249.582031 286.816406 C 248.484375 284.765625 247.4375 282.6875 246.441406 280.582031 C 245.449219 278.480469 244.503906 276.351562 243.613281 274.203125 C 242.722656 272.050781 241.886719 269.882812 241.101562 267.691406 C 240.316406 265.5 239.589844 263.289062 238.914062 261.0625 C 238.238281 258.835938 237.617188 256.59375 237.050781 254.335938 C 236.484375 252.078125 235.976562 249.808594 235.523438 247.523438 C 235.066406 245.242188 234.671875 242.949219 234.328125 240.648438 C 233.988281 238.34375 233.703125 236.035156 233.472656 233.71875 C 233.246094 231.402344 233.074219 229.082031 232.960938 226.757812 C 232.847656 224.433594 232.789062 222.109375 232.789062 219.78125 C 232.789062 217.453125 232.847656 215.125 232.960938 212.800781 C 233.074219 210.476562 233.246094 208.15625 233.472656 205.839844 C 233.703125 203.523438 233.988281 201.214844 234.328125 198.914062 C 234.671875 196.613281 235.066406 194.320312 235.523438 192.035156 C 235.976562 189.753906 236.484375 187.484375 237.050781 185.226562 C 237.617188 182.96875 238.238281 180.726562 238.914062 178.5 C 239.589844 176.269531 240.316406 174.0625 241.101562 171.871094 C 241.886719 169.679688 242.722656 167.507812 243.613281 165.359375 C 244.503906 163.207031 245.449219 161.082031 246.441406 158.976562 C 247.4375 156.875 248.484375 154.796875 249.582031 152.742188 C 250.679688 150.691406 251.824219 148.664062 253.023438 146.667969 C 254.21875 144.671875 255.464844 142.707031 256.757812 140.773438 C 258.050781 138.835938 259.390625 136.933594 260.773438 135.066406 C 262.160156 133.195312 263.59375 131.363281 265.070312 129.5625 C 266.546875 127.761719 268.066406 126 269.628906 124.277344 C 271.191406 122.554688 272.796875 120.867188 274.441406 119.222656 C 276.085938 117.578125 277.773438 115.972656 279.496094 114.410156 C 281.222656 112.847656 282.984375 111.328125 284.78125 109.851562 C 286.582031 108.375 288.414062 106.941406 290.285156 105.554688 C 292.15625 104.167969 294.058594 102.828125 295.992188 101.535156 C 297.925781 100.242188 299.894531 99 301.890625 97.800781 C 303.886719 96.605469 305.910156 95.457031 307.960938 94.363281 C 310.015625 93.265625 312.09375 92.21875 314.195312 91.222656 C 316.300781 90.226562 318.429688 89.285156 320.578125 88.394531 C 322.726562 87.503906 324.898438 86.667969 327.089844 85.882812 C 329.28125 85.097656 331.492188 84.367188 333.71875 83.691406 C 335.945312 83.015625 338.1875 82.398438 340.445312 81.832031 C 342.703125 81.265625 344.972656 80.757812 347.257812 80.300781 C 349.539062 79.847656 351.832031 79.449219 354.132812 79.109375 C 356.433594 78.765625 358.746094 78.480469 361.0625 78.253906 C 363.378906 78.027344 365.699219 77.855469 368.023438 77.742188 C 370.347656 77.625 372.671875 77.570312 375 77.570312 C 377.328125 77.570312 379.652344 77.625 381.976562 77.742188 C 384.300781 77.855469 386.621094 78.027344 388.9375 78.253906 C 391.253906 78.480469 393.5625 78.765625 395.867188 79.109375 C 398.167969 79.449219 400.460938 79.847656 402.742188 80.300781 C 405.027344 80.757812 407.296875 81.265625 409.554688 81.832031 C 411.8125 82.398438 414.054688 83.015625 416.28125 83.691406 C 418.507812 84.367188 420.71875 85.097656 422.910156 85.882812 C 425.101562 86.667969 427.269531 87.503906 429.421875 88.394531 C 431.570312 89.285156 433.699219 90.226562 435.804688 91.222656 C 437.90625 92.21875 439.984375 93.265625 442.039062 94.363281 C 444.089844 95.457031 446.113281 96.605469 448.109375 97.800781 C 450.105469 99 452.074219 100.242188 454.007812 101.535156 C 455.941406 102.828125 457.84375 104.167969 459.714844 105.554688 C 461.585938 106.941406 463.417969 108.375 465.21875 109.851562 C 467.015625 111.328125 468.777344 112.847656 470.503906 114.410156 C 472.226562 115.972656 473.914062 117.578125 475.558594 119.222656 C 477.203125 120.867188 478.808594 122.554688 480.371094 124.277344 C 481.933594 126 483.453125 127.761719 484.929688 129.5625 C 486.40625 131.363281 487.839844 133.195312 489.226562 135.066406 C 490.609375 136.933594 491.949219 138.835938 493.242188 140.773438 C 494.535156 142.707031 495.78125 144.671875 496.976562 146.667969 C 498.175781 148.664062 499.320312 150.691406 500.417969 152.742188 C 501.515625 154.796875 502.5625 156.875 503.558594 158.976562 C 504.550781 161.082031 505.496094 163.207031 506.386719 165.359375 C 507.277344 167.507812 508.113281 169.679688 508.898438 171.871094 C 509.679688 174.0625 510.410156 176.269531 511.085938 178.5 C 511.761719 180.726562 512.382812 182.96875 512.949219 185.226562 C 513.515625 187.484375 514.023438 189.753906 514.476562 192.035156 C 514.933594 194.320312 515.328125 196.613281 515.671875 198.914062 C 516.011719 201.214844 516.296875 203.523438 516.527344 205.839844 C 516.753906 208.15625 516.925781 210.476562 517.039062 212.800781 C 517.152344 215.125 517.210938 217.453125 517.210938 219.78125 L 517.210938 258.566406 C 517.210938 259.410156 517.167969 260.257812 517.085938 261.097656 C 517.003906 261.941406 516.878906 262.777344 516.714844 263.609375 C 516.546875 264.441406 516.34375 265.261719 516.097656 266.070312 C 515.851562 266.882812 515.566406 267.675781 515.242188 268.460938 C 514.917969 269.242188 514.558594 270.007812 514.15625 270.753906 C 513.757812 271.5 513.324219 272.226562 512.851562 272.929688 C 512.382812 273.632812 511.878906 274.3125 511.339844 274.96875 C 510.804688 275.621094 510.234375 276.25 509.636719 276.847656 C 509.039062 277.445312 508.410156 278.015625 507.757812 278.550781 C 507.101562 279.089844 506.421875 279.59375 505.71875 280.0625 C 505.015625 280.535156 504.289062 280.96875 503.542969 281.367188 C 502.796875 281.765625 502.03125 282.128906 501.25 282.453125 C 500.464844 282.777344 499.671875 283.0625 498.859375 283.308594 C 498.050781 283.554688 497.230469 283.757812 496.398438 283.925781 C 495.566406 284.089844 494.730469 284.214844 493.886719 284.296875 C 493.046875 284.378906 492.199219 284.421875 491.355469 284.421875 C 490.507812 284.421875 489.664062 284.378906 488.820312 284.296875 C 487.976562 284.214844 487.140625 284.089844 486.308594 283.925781 C 485.480469 283.757812 484.660156 283.554688 483.847656 283.308594 C 483.039062 283.0625 482.242188 282.777344 481.460938 282.453125 C 480.675781 282.128906 479.914062 281.765625 479.164062 281.367188 C 478.417969 280.96875 477.691406 280.535156 476.988281 280.0625 C 476.285156 279.59375 475.605469 279.089844 474.949219 278.550781 C 474.296875 278.015625 473.667969 277.445312 473.070312 276.847656 C 472.472656 276.25 471.902344 275.621094 471.367188 274.96875 C 470.828125 274.3125 470.324219 273.632812 469.855469 272.929688 C 469.386719 272.226562 468.949219 271.5 468.550781 270.753906 C 468.152344 270.007812 467.789062 269.242188 467.464844 268.460938 C 467.140625 267.675781 466.855469 266.882812 466.609375 266.070312 C 466.363281 265.261719 466.160156 264.441406 465.996094 263.609375 C 465.828125 262.777344 465.707031 261.941406 465.621094 261.097656 C 465.539062 260.257812 465.496094 259.410156 465.496094 258.566406 L 465.496094 219.78125 C 465.503906 218.023438 465.457031 216.265625 465.359375 214.507812 C 465.265625 212.753906 465.117188 211 464.917969 209.253906 C 464.71875 207.507812 464.46875 205.765625 464.171875 204.035156 C 463.871094 202.300781 463.519531 200.578125 463.121094 198.867188 C 462.722656 197.152344 462.273438 195.453125 461.773438 193.765625 C 461.273438 192.082031 460.726562 190.410156 460.132812 188.753906 C 459.535156 187.101562 458.890625 185.464844 458.203125 183.847656 C 457.511719 182.230469 456.773438 180.636719 455.992188 179.0625 C 455.207031 177.484375 454.378906 175.9375 453.503906 174.410156 C 452.632812 172.882812 451.714844 171.382812 450.753906 169.910156 C 449.792969 168.4375 448.789062 166.996094 447.746094 165.578125 C 446.699219 164.164062 445.613281 162.78125 444.488281 161.429688 C 443.363281 160.078125 442.203125 158.761719 441 157.476562 C 439.796875 156.195312 438.558594 154.945312 437.285156 153.734375 C 436.011719 152.519531 434.703125 151.347656 433.359375 150.210938 C 432.019531 149.074219 430.644531 147.980469 429.238281 146.921875 C 427.832031 145.867188 426.398438 144.851562 424.929688 143.878906 C 423.464844 142.90625 421.972656 141.976562 420.457031 141.09375 C 418.9375 140.207031 417.390625 139.367188 415.824219 138.570312 C 414.257812 137.773438 412.667969 137.023438 411.054688 136.320312 C 409.445312 135.617188 407.8125 134.957031 406.164062 134.351562 C 404.511719 133.742188 402.847656 133.179688 401.164062 132.667969 C 399.484375 132.15625 397.789062 131.691406 396.078125 131.277344 C 394.367188 130.867188 392.648438 130.5 390.917969 130.1875 C 389.1875 129.875 387.449219 129.609375 385.703125 129.398438 C 383.957031 129.1875 382.207031 129.023438 380.453125 128.914062 C 378.699219 128.800781 376.941406 128.742188 375.183594 128.734375 C 373.425781 128.722656 371.667969 128.765625 369.910156 128.859375 C 368.15625 128.953125 366.402344 129.097656 364.65625 129.292969 C 362.90625 129.488281 361.167969 129.734375 359.433594 130.03125 C 357.699219 130.324219 355.976562 130.671875 354.265625 131.070312 C 352.550781 131.464844 350.851562 131.910156 349.164062 132.40625 C 347.476562 132.902344 345.804688 133.445312 344.148438 134.039062 C 342.492188 134.628906 340.855469 135.269531 339.238281 135.957031 C 337.617188 136.644531 336.019531 137.378906 334.445312 138.160156 C 332.867188 138.9375 331.316406 139.765625 329.789062 140.636719 C 328.261719 141.507812 326.757812 142.421875 325.285156 143.378906 C 323.808594 144.335938 322.363281 145.335938 320.949219 146.378906 C 319.53125 147.417969 318.144531 148.5 316.792969 149.625 C 315.4375 150.746094 314.117188 151.90625 312.832031 153.105469 C 311.546875 154.304688 310.292969 155.539062 309.078125 156.8125 C 307.867188 158.085938 306.6875 159.390625 305.550781 160.730469 C 304.410156 162.070312 303.3125 163.441406 302.253906 164.847656 C 301.195312 166.25 300.179688 167.683594 299.203125 169.148438 C 298.226562 170.609375 297.292969 172.101562 296.40625 173.617188 C 295.515625 175.136719 294.671875 176.675781 293.871094 178.242188 C 293.074219 179.808594 292.320312 181.398438 291.613281 183.007812 C 290.90625 184.617188 290.246094 186.246094 289.632812 187.894531 C 289.023438 189.542969 288.457031 191.210938 287.941406 192.890625 C 287.425781 194.574219 286.960938 196.265625 286.542969 197.976562 C 286.125 199.683594 285.757812 201.402344 285.441406 203.132812 C 285.125 204.863281 284.859375 206.601562 284.640625 208.34375 C 284.425781 210.089844 284.261719 211.839844 284.144531 213.59375 C 284.03125 215.351562 283.96875 217.105469 283.957031 218.863281 C 283.941406 220.625 283.980469 222.382812 284.070312 224.136719 C 284.160156 225.894531 284.300781 227.644531 284.492188 229.394531 C 284.683594 231.140625 284.925781 232.882812 285.21875 234.617188 C 285.511719 236.351562 285.855469 238.074219 286.25 239.789062 C 286.640625 241.503906 287.085938 243.203125 287.574219 244.894531 C 288.066406 246.582031 288.609375 248.253906 289.199219 249.910156 C 289.785156 251.566406 290.421875 253.207031 291.109375 254.828125 C 291.792969 256.445312 292.523438 258.046875 293.300781 259.621094 C 294.078125 261.199219 294.898438 262.753906 295.765625 264.285156 C 296.632812 265.8125 297.546875 267.316406 298.5 268.792969 C 299.457031 270.269531 300.453125 271.71875 301.492188 273.136719 C 302.53125 274.554688 303.609375 275.941406 304.730469 277.296875 C 305.847656 278.65625 307.007812 279.976562 308.203125 281.265625 C 309.398438 282.554688 310.632812 283.808594 311.902344 285.023438 C 313.171875 286.242188 314.476562 287.421875 315.8125 288.5625 C 317.152344 289.703125 318.519531 290.804688 319.921875 291.867188 C 321.324219 292.929688 322.757812 293.949219 324.21875 294.925781 C 325.679688 295.90625 327.167969 296.839844 328.683594 297.734375 C 330.199219 298.625 331.738281 299.472656 333.304688 300.273438 C 334.867188 301.078125 336.453125 301.832031 338.0625 302.542969 C 339.671875 303.253906 341.300781 303.917969 342.945312 304.53125 C 344.59375 305.148438 346.257812 305.714844 347.9375 306.234375 C 349.617188 306.753906 351.3125 307.222656 353.019531 307.644531 C 354.726562 308.0625 356.445312 308.433594 358.175781 308.753906 C 359.902344 309.074219 361.640625 309.347656 363.386719 309.566406 C 365.128906 309.785156 366.878906 309.953125 368.636719 310.074219 C 370.390625 310.191406 372.144531 310.257812 373.90625 310.273438 C 375.664062 310.289062 377.421875 310.253906 379.175781 310.167969 C 380.933594 310.082031 382.6875 309.945312 384.433594 309.757812 C 386.183594 309.566406 387.925781 309.328125 389.660156 309.039062 C 391.394531 308.75 393.117188 308.410156 394.832031 308.023438 C 396.546875 307.632812 398.25 307.191406 399.941406 306.703125 C 401.628906 306.214844 403.300781 305.679688 404.960938 305.09375 C 406.617188 304.507812 408.257812 303.875 409.878906 303.191406 C 411.5 302.511719 413.101562 301.785156 414.679688 301.011719 C 416.257812 300.238281 417.816406 299.417969 419.347656 298.554688 C 420.878906 297.6875 422.382812 296.78125 423.859375 295.828125 C 425.339844 294.875 426.789062 293.882812 428.210938 292.847656 C 429.632812 291.808594 431.019531 290.734375 432.378906 289.617188 C 433.738281 288.5 435.0625 287.34375 436.355469 286.148438 C 437.644531 284.957031 438.898438 283.726562 440.121094 282.457031 C 441.339844 281.191406 442.519531 279.890625 443.664062 278.554688 C 444.238281 279.917969 444.867188 281.257812 445.554688 282.566406 C 446.242188 283.875 446.980469 285.15625 447.777344 286.402344 C 448.574219 287.648438 449.421875 288.859375 450.324219 290.03125 C 451.222656 291.207031 452.171875 292.339844 453.171875 293.429688 C 454.167969 294.523438 455.210938 295.570312 456.296875 296.574219 C 457.386719 297.574219 458.515625 298.53125 459.683594 299.4375 C 460.851562 300.339844 462.058594 301.195312 463.300781 302 C 464.542969 302.800781 465.820312 303.546875 467.125 304.242188 C 468.433594 304.933594 469.765625 305.570312 471.128906 306.148438 C 472.488281 306.726562 473.871094 307.246094 475.277344 307.707031 C 476.683594 308.167969 478.109375 308.566406 479.546875 308.902344 C 480.988281 309.242188 482.441406 309.515625 483.902344 309.730469 C 485.367188 309.941406 486.835938 310.09375 488.3125 310.179688 C 489.789062 310.265625 491.269531 310.289062 492.746094 310.25 C 494.226562 310.210938 495.699219 310.105469 497.167969 309.941406 C 498.640625 309.773438 500.101562 309.546875 501.550781 309.253906 C 503 308.960938 504.433594 308.609375 505.855469 308.195312 C 507.273438 307.777344 508.675781 307.304688 510.054688 306.769531 C 511.433594 306.234375 512.785156 305.640625 514.113281 304.992188 C 515.441406 304.339844 516.742188 303.632812 518.007812 302.871094 C 519.277344 302.109375 520.507812 301.292969 521.707031 300.425781 C 522.902344 299.554688 524.0625 298.636719 525.179688 297.671875 C 526.300781 296.703125 527.375 295.691406 528.40625 294.628906 C 529.4375 293.570312 530.421875 292.46875 531.359375 291.324219 C 532.296875 290.179688 533.183594 288.996094 534.019531 287.777344 C 534.855469 286.554688 535.636719 285.300781 536.367188 284.015625 C 537.09375 282.726562 537.765625 281.410156 538.382812 280.066406 C 538.996094 278.71875 539.554688 277.351562 540.050781 275.957031 C 540.546875 274.566406 540.984375 273.152344 541.363281 271.722656 C 541.738281 270.292969 542.054688 268.847656 542.308594 267.390625 C 542.558594 265.933594 542.75 264.46875 542.875 262.996094 C 543.003906 261.519531 543.066406 260.042969 543.066406 258.566406 L 543.066406 219.78125 C 543.0625 217.03125 542.992188 214.28125 542.855469 211.535156 C 542.714844 208.789062 542.511719 206.050781 542.238281 203.3125 C 541.964844 200.578125 541.628906 197.847656 541.222656 195.128906 C 540.816406 192.410156 540.34375 189.703125 539.804688 187.007812 C 539.265625 184.308594 538.660156 181.628906 537.988281 178.960938 C 537.320312 176.296875 536.582031 173.648438 535.78125 171.015625 C 534.984375 168.386719 534.117188 165.777344 533.191406 163.1875 C 532.261719 160.601562 531.273438 158.035156 530.21875 155.496094 C 529.164062 152.957031 528.046875 150.445312 526.871094 147.960938 C 525.695312 145.472656 524.457031 143.019531 523.160156 140.59375 C 521.863281 138.171875 520.507812 135.78125 519.09375 133.421875 C 517.679688 131.0625 516.207031 128.742188 514.679688 126.457031 C 513.148438 124.171875 511.566406 121.925781 509.929688 119.714844 C 508.289062 117.507812 506.597656 115.339844 504.851562 113.214844 C 503.109375 111.089844 501.3125 109.007812 499.464844 106.972656 C 497.621094 104.933594 495.722656 102.945312 493.78125 101 C 491.835938 99.054688 489.84375 97.160156 487.808594 95.3125 C 485.769531 93.46875 483.6875 91.671875 481.5625 89.925781 C 479.4375 88.183594 477.273438 86.492188 475.0625 84.851562 C 472.855469 83.214844 470.609375 81.628906 468.324219 80.101562 C 466.039062 78.574219 463.714844 77.101562 461.359375 75.6875 C 459 74.273438 456.609375 72.917969 454.183594 71.621094 C 451.761719 70.324219 449.304688 69.085938 446.820312 67.910156 C 444.335938 66.730469 441.824219 65.617188 439.285156 64.5625 C 436.746094 63.507812 434.179688 62.519531 431.59375 61.589844 C 429.003906 60.660156 426.394531 59.796875 423.765625 58.996094 C 421.132812 58.195312 418.484375 57.460938 415.816406 56.792969 C 413.152344 56.121094 410.46875 55.515625 407.773438 54.976562 C 405.078125 54.4375 402.371094 53.964844 399.648438 53.558594 C 396.929688 53.152344 394.203125 52.8125 391.46875 52.542969 C 388.730469 52.269531 385.988281 52.0625 383.242188 51.925781 C 380.496094 51.789062 377.75 51.714844 375 51.714844 Z M 375 284.421875 C 373.941406 284.421875 372.886719 284.394531 371.828125 284.34375 C 370.773438 284.292969 369.71875 284.214844 368.664062 284.109375 C 367.609375 284.007812 366.5625 283.878906 365.515625 283.722656 C 364.46875 283.566406 363.425781 283.386719 362.390625 283.179688 C 361.351562 282.972656 360.320312 282.742188 359.292969 282.484375 C 358.265625 282.226562 357.246094 281.945312 356.234375 281.636719 C 355.222656 281.332031 354.21875 281 353.222656 280.644531 C 352.226562 280.285156 351.238281 279.90625 350.261719 279.5 C 349.285156 279.097656 348.320312 278.667969 347.363281 278.214844 C 346.40625 277.761719 345.460938 277.289062 344.527344 276.789062 C 343.59375 276.289062 342.675781 275.769531 341.769531 275.226562 C 340.859375 274.679688 339.964844 274.113281 339.085938 273.527344 C 338.207031 272.941406 337.34375 272.332031 336.492188 271.699219 C 335.644531 271.070312 334.808594 270.417969 333.992188 269.75 C 333.175781 269.078125 332.375 268.386719 331.589844 267.675781 C 330.804688 266.964844 330.039062 266.238281 329.292969 265.488281 C 328.542969 264.742188 327.8125 263.972656 327.105469 263.191406 C 326.394531 262.40625 325.703125 261.605469 325.03125 260.789062 C 324.359375 259.96875 323.710938 259.136719 323.078125 258.285156 C 322.449219 257.4375 321.839844 256.574219 321.253906 255.691406 C 320.664062 254.8125 320.097656 253.917969 319.554688 253.011719 C 319.011719 252.105469 318.488281 251.183594 317.992188 250.25 C 317.492188 249.320312 317.015625 248.375 316.566406 247.417969 C 316.113281 246.460938 315.683594 245.496094 315.277344 244.515625 C 314.875 243.539062 314.492188 242.554688 314.136719 241.558594 C 313.78125 240.5625 313.449219 239.558594 313.140625 238.542969 C 312.835938 237.53125 312.554688 236.511719 312.296875 235.488281 C 312.039062 234.460938 311.808594 233.429688 311.601562 232.390625 C 311.394531 231.355469 311.214844 230.3125 311.058594 229.265625 C 310.902344 228.21875 310.773438 227.167969 310.671875 226.117188 C 310.566406 225.0625 310.488281 224.007812 310.4375 222.953125 C 310.382812 221.894531 310.359375 220.839844 310.359375 219.78125 C 310.359375 218.722656 310.382812 217.664062 310.4375 216.609375 C 310.488281 215.550781 310.566406 214.496094 310.671875 213.445312 C 310.773438 212.390625 310.902344 211.34375 311.058594 210.296875 C 311.214844 209.25 311.394531 208.207031 311.601562 207.167969 C 311.808594 206.132812 312.039062 205.101562 312.296875 204.074219 C 312.554688 203.046875 312.835938 202.027344 313.140625 201.015625 C 313.449219 200.003906 313.78125 199 314.136719 198.003906 C 314.492188 197.007812 314.875 196.019531 315.277344 195.042969 C 315.683594 194.066406 316.113281 193.097656 316.566406 192.140625 C 317.015625 191.1875 317.492188 190.242188 317.992188 189.308594 C 318.488281 188.375 319.011719 187.457031 319.554688 186.546875 C 320.097656 185.640625 320.664062 184.746094 321.253906 183.867188 C 321.839844 182.988281 322.449219 182.125 323.078125 181.273438 C 323.710938 180.421875 324.359375 179.589844 325.03125 178.773438 C 325.703125 177.953125 326.394531 177.152344 327.105469 176.371094 C 327.8125 175.585938 328.542969 174.820312 329.292969 174.070312 C 330.039062 173.324219 330.804688 172.59375 331.589844 171.882812 C 332.375 171.171875 333.175781 170.484375 333.992188 169.8125 C 334.808594 169.140625 335.644531 168.488281 336.492188 167.859375 C 337.34375 167.230469 338.207031 166.621094 339.085938 166.03125 C 339.964844 165.445312 340.859375 164.878906 341.769531 164.335938 C 342.675781 163.792969 343.59375 163.269531 344.527344 162.773438 C 345.460938 162.273438 346.40625 161.796875 347.363281 161.34375 C 348.320312 160.894531 349.285156 160.464844 350.261719 160.058594 C 351.238281 159.65625 352.226562 159.273438 353.222656 158.917969 C 354.21875 158.5625 355.222656 158.230469 356.234375 157.921875 C 357.246094 157.617188 358.265625 157.332031 359.292969 157.078125 C 360.320312 156.820312 361.351562 156.585938 362.390625 156.382812 C 363.425781 156.175781 364.46875 155.992188 365.515625 155.839844 C 366.5625 155.683594 367.609375 155.554688 368.664062 155.449219 C 369.71875 155.347656 370.773438 155.269531 371.828125 155.21875 C 372.886719 155.164062 373.941406 155.140625 375 155.140625 C 376.058594 155.140625 377.113281 155.164062 378.171875 155.21875 C 379.226562 155.269531 380.28125 155.347656 381.335938 155.449219 C 382.390625 155.554688 383.4375 155.683594 384.484375 155.839844 C 385.53125 155.992188 386.574219 156.175781 387.609375 156.382812 C 388.648438 156.585938 389.679688 156.820312 390.707031 157.078125 C 391.734375 157.332031 392.75 157.617188 393.765625 157.921875 C 394.777344 158.230469 395.78125 158.5625 396.777344 158.917969 C 397.773438 159.273438 398.757812 159.65625 399.738281 160.058594 C 400.714844 160.464844 401.679688 160.894531 402.636719 161.34375 C 403.59375 161.796875 404.539062 162.273438 405.472656 162.773438 C 406.40625 163.269531 407.324219 163.792969 408.230469 164.335938 C 409.140625 164.878906 410.03125 165.445312 410.914062 166.03125 C 411.792969 166.621094 412.65625 167.230469 413.507812 167.859375 C 414.355469 168.488281 415.191406 169.140625 416.007812 169.8125 C 416.824219 170.484375 417.625 171.171875 418.410156 171.882812 C 419.195312 172.59375 419.960938 173.324219 420.707031 174.070312 C 421.457031 174.820312 422.183594 175.585938 422.894531 176.371094 C 423.605469 177.152344 424.296875 177.953125 424.96875 178.773438 C 425.640625 179.589844 426.289062 180.421875 426.921875 181.273438 C 427.550781 182.125 428.160156 182.988281 428.746094 183.867188 C 429.335938 184.746094 429.902344 185.640625 430.445312 186.546875 C 430.988281 187.457031 431.507812 188.375 432.007812 189.308594 C 432.507812 190.242188 432.984375 191.1875 433.433594 192.140625 C 433.886719 193.097656 434.316406 194.066406 434.71875 195.042969 C 435.125 196.019531 435.507812 197.007812 435.863281 198.003906 C 436.21875 199 436.550781 200.003906 436.859375 201.015625 C 437.164062 202.027344 437.445312 203.046875 437.703125 204.074219 C 437.960938 205.101562 438.191406 206.132812 438.398438 207.167969 C 438.605469 208.207031 438.785156 209.25 438.941406 210.296875 C 439.097656 211.34375 439.226562 212.390625 439.328125 213.445312 C 439.433594 214.496094 439.511719 215.550781 439.5625 216.609375 C 439.613281 217.664062 439.640625 218.722656 439.640625 219.78125 C 439.640625 220.835938 439.613281 221.894531 439.558594 222.949219 C 439.507812 224.007812 439.425781 225.0625 439.324219 226.113281 C 439.21875 227.164062 439.085938 228.214844 438.929688 229.261719 C 438.773438 230.308594 438.59375 231.347656 438.386719 232.386719 C 438.179688 233.421875 437.945312 234.453125 437.6875 235.480469 C 437.429688 236.503906 437.148438 237.523438 436.839844 238.535156 C 436.53125 239.546875 436.199219 240.550781 435.84375 241.546875 C 435.484375 242.542969 435.105469 243.527344 434.699219 244.503906 C 434.292969 245.480469 433.863281 246.449219 433.410156 247.402344 C 432.960938 248.359375 432.484375 249.304688 431.984375 250.234375 C 431.484375 251.167969 430.964844 252.089844 430.421875 252.996094 C 429.875 253.902344 429.308594 254.792969 428.722656 255.675781 C 428.132812 256.554688 427.527344 257.417969 426.894531 258.265625 C 426.265625 259.117188 425.613281 259.949219 424.945312 260.765625 C 424.273438 261.582031 423.582031 262.382812 422.871094 263.167969 C 422.160156 263.953125 421.433594 264.71875 420.683594 265.464844 C 419.9375 266.210938 419.171875 266.941406 418.386719 267.652344 C 417.605469 268.363281 416.804688 269.054688 415.984375 269.722656 C 415.167969 270.394531 414.335938 271.046875 413.484375 271.675781 C 412.636719 272.304688 411.773438 272.914062 410.894531 273.503906 C 410.015625 274.089844 409.121094 274.65625 408.214844 275.199219 C 407.308594 275.746094 406.386719 276.265625 405.457031 276.765625 C 404.523438 277.265625 403.578125 277.738281 402.625 278.191406 C 401.667969 278.644531 400.703125 279.074219 399.722656 279.480469 C 398.746094 279.882812 397.761719 280.265625 396.765625 280.621094 C 395.769531 280.980469 394.765625 281.3125 393.753906 281.621094 C 392.742188 281.925781 391.726562 282.210938 390.699219 282.46875 C 389.671875 282.726562 388.640625 282.957031 387.605469 283.167969 C 386.566406 283.375 385.527344 283.554688 384.480469 283.710938 C 383.433594 283.867188 382.386719 284 381.332031 284.101562 C 380.28125 284.207031 379.226562 284.285156 378.171875 284.339844 C 377.113281 284.394531 376.058594 284.421875 375 284.421875 Z M 375 284.421875 " fill-opacity="1" fill-rule="nonzero"/></svg>