<svg xmlns="http://www.w3.org/2000/svg" xmlns:xlink="http://www.w3.org/1999/xlink" width="1080" zoomAndPan="magnify" viewBox="0 0 810 809.999993" height="1080" preserveAspectRatio="xMidYMid meet" version="1.0"><defs><clipPath id="2cd87448f7"><path d="M 16 10.308594 L 805 10.308594 L 805 797 L 16 797 Z M 16 10.308594 " clip-rule="nonzero"/></clipPath></defs><g clip-path="url(#2cd87448f7)"><path fill="#d65302" d="M 590.210938 387.1875 C 586.964844 380.242188 583.921875 373.207031 580.910156 366.488281 C 609.796875 344.449219 617.875 321.046875 606.296875 295.003906 C 594.714844 268.964844 571.574219 259.785156 533.648438 266.789062 C 524.589844 247.640625 515.410156 228.3125 506.292969 208.949219 C 488.390625 170.941406 470.824219 132.78125 452.527344 94.964844 C 452.023438 93.90625 451.476562 92.871094 450.882812 91.859375 C 450.292969 90.847656 449.660156 89.863281 448.980469 88.90625 C 448.304688 87.949219 447.589844 87.023438 446.832031 86.128906 C 446.074219 85.234375 445.28125 84.375 444.449219 83.546875 C 443.617188 82.722656 442.753906 81.933594 441.851562 81.183594 C 440.953125 80.429688 440.023438 79.71875 439.0625 79.046875 C 438.101562 78.378906 437.113281 77.75 436.097656 77.164062 C 435.082031 76.578125 434.042969 76.039062 432.980469 75.542969 C 431.921875 75.046875 430.839844 74.597656 429.738281 74.195312 C 428.636719 73.792969 427.519531 73.4375 426.390625 73.132812 C 425.257812 72.828125 424.117188 72.570312 422.960938 72.363281 C 421.808594 72.15625 420.648438 72 419.480469 71.894531 C 418.3125 71.785156 417.144531 71.730469 415.972656 71.726562 C 414.800781 71.71875 413.628906 71.765625 412.460938 71.859375 C 411.292969 71.953125 410.132812 72.101562 408.976562 72.296875 C 407.820312 72.492188 406.675781 72.738281 405.542969 73.03125 C 404.40625 73.328125 403.289062 73.671875 402.183594 74.0625 C 401.078125 74.453125 399.992188 74.894531 398.925781 75.378906 C 397.859375 75.863281 396.816406 76.394531 395.796875 76.96875 C 394.773438 77.546875 393.78125 78.164062 392.8125 78.828125 C 391.847656 79.488281 390.910156 80.191406 390.003906 80.933594 C 389.097656 81.675781 388.222656 82.457031 387.382812 83.273438 C 386.542969 84.09375 385.742188 84.945312 384.976562 85.832031 C 384.210938 86.71875 383.484375 87.640625 382.800781 88.589844 C 382.113281 89.539062 381.46875 90.519531 380.867188 91.523438 C 380.265625 92.53125 379.710938 93.558594 379.199219 94.613281 C 378.683594 95.667969 378.21875 96.742188 377.800781 97.835938 C 377.378906 98.929688 377.007812 100.039062 376.683594 101.167969 C 376.363281 102.292969 376.085938 103.433594 375.863281 104.582031 C 375.636719 105.730469 375.460938 106.890625 375.335938 108.054688 C 375.210938 109.21875 375.136719 110.390625 375.113281 111.558594 C 375.089844 112.730469 375.113281 113.902344 375.191406 115.074219 C 381.269531 154.222656 368.746094 188.597656 349.050781 220.898438 C 341.648438 232.90625 333.507812 244.394531 324.628906 255.359375 C 315.75 266.320312 306.203125 276.671875 295.996094 286.40625 C 285.785156 296.144531 274.992188 305.1875 263.621094 313.535156 C 252.246094 321.882812 240.386719 329.46875 228.039062 336.292969 C 183.105469 361.757812 135.773438 383.203125 89.15625 405.730469 C 30.125 434.152344 3.316406 495.199219 23.71875 554.601562 C 24.339844 556.355469 25.003906 558.09375 25.703125 559.816406 C 26.40625 561.542969 27.148438 563.246094 27.929688 564.9375 C 28.714844 566.625 29.535156 568.296875 30.394531 569.945312 C 31.257812 571.59375 32.15625 573.222656 33.09375 574.832031 C 34.03125 576.441406 35.007812 578.023438 36.019531 579.585938 C 37.03125 581.148438 38.082031 582.683594 39.167969 584.195312 C 40.25 585.710938 41.371094 587.195312 42.527344 588.65625 C 43.679688 590.113281 44.871094 591.546875 46.09375 592.949219 C 47.316406 594.355469 48.570312 595.726562 49.855469 597.070312 C 51.144531 598.417969 52.460938 599.730469 53.8125 601.011719 C 55.160156 602.296875 56.539062 603.546875 57.945312 604.761719 C 59.355469 605.980469 60.789062 607.164062 62.253906 608.3125 C 63.71875 609.464844 65.207031 610.578125 66.722656 611.65625 C 68.238281 612.738281 69.78125 613.78125 71.34375 614.789062 C 72.910156 615.792969 74.5 616.765625 76.109375 617.695312 C 77.71875 618.628906 79.351562 619.523438 81.003906 620.378906 C 82.660156 621.234375 84.332031 622.050781 86.023438 622.824219 C 87.714844 623.601562 89.421875 624.339844 91.148438 625.035156 C 92.875 625.730469 94.617188 626.386719 96.375 627 C 98.132812 627.613281 99.902344 628.1875 101.683594 628.71875 C 103.46875 629.246094 105.265625 629.734375 107.070312 630.183594 C 108.878906 630.628906 110.695312 631.03125 112.523438 631.390625 C 114.347656 631.753906 116.179688 632.070312 118.023438 632.34375 C 119.863281 632.617188 121.710938 632.847656 123.5625 633.035156 C 125.414062 633.222656 127.269531 633.367188 129.128906 633.464844 C 130.984375 633.566406 132.84375 633.621094 134.707031 633.632812 C 136.566406 633.644531 138.429688 633.613281 140.289062 633.539062 C 142.148438 633.460938 144.003906 633.34375 145.859375 633.179688 C 147.714844 633.015625 149.5625 632.8125 151.40625 632.558594 C 153.25 632.308594 155.089844 632.015625 156.917969 631.679688 C 158.75 631.34375 160.570312 630.964844 162.382812 630.542969 C 164.195312 630.117188 166 629.652344 167.789062 629.144531 C 175.386719 626.808594 179.125 629.453125 182.984375 635.703125 C 194.277344 654.011719 206.207031 671.933594 217.867188 690.019531 C 236.15625 718.378906 254.285156 746.847656 272.777344 775.0625 C 273.375 776.066406 274.011719 777.046875 274.6875 778 C 275.363281 778.957031 276.074219 779.882812 276.820312 780.78125 C 277.566406 781.679688 278.347656 782.546875 279.164062 783.386719 C 279.980469 784.222656 280.824219 785.027344 281.703125 785.800781 C 282.582031 786.570312 283.488281 787.304688 284.425781 788.007812 C 285.359375 788.707031 286.320312 789.371094 287.308594 789.996094 C 288.296875 790.621094 289.308594 791.207031 290.339844 791.753906 C 291.375 792.300781 292.425781 792.804688 293.5 793.269531 C 294.570312 793.734375 295.660156 794.15625 296.765625 794.535156 C 297.871094 794.914062 298.992188 795.246094 300.125 795.539062 C 301.253906 795.832031 302.398438 796.078125 303.546875 796.28125 C 304.699219 796.480469 305.855469 796.640625 307.019531 796.75 C 308.183594 796.863281 309.351562 796.929688 310.519531 796.949219 C 311.6875 796.96875 312.855469 796.945312 314.019531 796.875 C 315.1875 796.804688 316.351562 796.6875 317.507812 796.523438 C 318.664062 796.363281 319.816406 796.15625 320.957031 795.90625 C 322.0625 795.792969 323.160156 795.636719 324.25 795.433594 C 325.34375 795.230469 326.425781 794.980469 327.496094 794.691406 C 328.570312 794.398438 329.625 794.066406 330.671875 793.6875 C 331.714844 793.308594 332.742188 792.890625 333.753906 792.425781 C 334.761719 791.964844 335.75 791.460938 336.722656 790.917969 C 337.691406 790.375 338.632812 789.796875 339.554688 789.175781 C 340.476562 788.554688 341.371094 787.898438 342.238281 787.203125 C 343.105469 786.511719 343.945312 785.78125 344.75 785.019531 C 345.558594 784.257812 346.335938 783.464844 347.078125 782.640625 C 347.820312 781.8125 348.527344 780.960938 349.203125 780.074219 C 349.875 779.191406 350.511719 778.28125 351.109375 777.347656 C 351.707031 776.410156 352.265625 775.453125 352.785156 774.472656 C 353.304688 773.492188 353.785156 772.488281 354.222656 771.46875 C 354.660156 770.449219 355.058594 769.410156 355.410156 768.359375 C 355.765625 767.304688 356.074219 766.242188 356.339844 765.160156 C 356.605469 764.082031 356.828125 762.996094 357.003906 761.898438 C 357.796875 755.460938 357.734375 749.03125 356.816406 742.609375 C 355.898438 736.183594 354.15625 729.992188 351.59375 724.035156 C 336.507812 688.703125 319.324219 654.277344 303.003906 619.597656 C 345.585938 595.765625 349.671875 588.828125 340.789062 556.019531 C 342.277344 554.882812 343.882812 553.949219 345.609375 553.222656 C 357.832031 549.246094 370.234375 545.9375 382.8125 543.296875 C 395.390625 540.65625 408.078125 538.703125 420.867188 537.429688 C 433.660156 536.160156 446.480469 535.578125 459.335938 535.691406 C 472.1875 535.800781 484.996094 536.605469 497.765625 538.097656 C 502.148438 538.511719 506.511719 539.109375 510.847656 539.886719 C 515.183594 540.667969 519.480469 541.621094 523.734375 542.757812 C 527.992188 543.890625 532.195312 545.199219 536.34375 546.683594 C 540.492188 548.164062 544.570312 549.816406 548.582031 551.636719 C 552.59375 553.460938 556.523438 555.445312 560.371094 557.589844 C 564.214844 559.738281 567.96875 562.039062 571.621094 564.5 C 575.277344 566.957031 578.824219 569.5625 582.265625 572.316406 C 585.703125 575.070312 589.023438 577.960938 592.222656 580.988281 C 609.953125 598.878906 631.140625 601.984375 648.746094 589.484375 C 665.992188 577.230469 670.015625 556.929688 659.46875 534.410156 C 636.390625 485.320312 613.304688 436.246094 590.210938 387.1875 Z M 579.621094 305.675781 C 585.820312 317.929688 582.480469 328.347656 567.664062 339.046875 L 546.832031 294.882812 C 563.46875 290.328125 573.710938 294.085938 579.621094 305.675781 Z M 154.035156 602.269531 C 151.511719 602.910156 148.964844 603.4375 146.390625 603.847656 C 143.820312 604.253906 141.238281 604.546875 138.640625 604.722656 C 136.039062 604.898438 133.441406 604.953125 130.835938 604.890625 C 128.234375 604.828125 125.640625 604.648438 123.054688 604.351562 C 120.46875 604.054688 117.898438 603.640625 115.351562 603.105469 C 112.800781 602.574219 110.28125 601.929688 107.792969 601.167969 C 105.300781 600.40625 102.851562 599.535156 100.441406 598.550781 C 98.03125 597.566406 95.671875 596.476562 93.359375 595.277344 C 91.046875 594.078125 88.796875 592.777344 86.601562 591.375 C 84.410156 589.96875 82.285156 588.46875 80.230469 586.871094 C 78.171875 585.277344 76.191406 583.589844 74.289062 581.8125 C 72.386719 580.035156 70.570312 578.175781 68.835938 576.230469 C 67.101562 574.289062 65.460938 572.273438 63.910156 570.179688 C 62.359375 568.089844 60.90625 565.929688 59.554688 563.707031 C 58.199219 561.480469 56.949219 559.203125 55.804688 556.863281 C 54.660156 554.527344 53.621094 552.140625 52.691406 549.707031 C 51.65625 547.324219 50.726562 544.898438 49.90625 542.433594 C 49.085938 539.964844 48.375 537.46875 47.777344 534.9375 C 47.179688 532.410156 46.691406 529.855469 46.320312 527.285156 C 45.949219 524.710938 45.691406 522.128906 45.546875 519.53125 C 45.40625 516.9375 45.378906 514.339844 45.464844 511.742188 C 45.554688 509.144531 45.757812 506.554688 46.074219 503.972656 C 46.390625 501.394531 46.824219 498.832031 47.367188 496.292969 C 47.914062 493.75 48.570312 491.238281 49.335938 488.753906 C 50.105469 486.269531 50.984375 483.824219 51.96875 481.421875 C 52.953125 479.015625 54.042969 476.65625 55.238281 474.347656 C 56.433594 472.039062 57.726562 469.789062 59.121094 467.59375 C 60.515625 465.402344 62.003906 463.273438 63.589844 461.210938 C 65.171875 459.148438 66.84375 457.164062 68.605469 455.25 C 70.363281 453.335938 72.203125 451.503906 74.128906 449.753906 C 76.050781 448.003906 78.046875 446.34375 80.117188 444.773438 C 82.1875 443.199219 84.320312 441.722656 86.523438 440.339844 C 111.910156 425.195312 139.625 413.890625 167.769531 400.117188 C 193.71875 455.257812 218.992188 508.871094 245.214844 564.527344 C 215.546875 578.863281 185.15625 591.445312 154.035156 602.269531 Z M 326.195312 736.566406 C 332.832031 750.707031 331.15625 761.226562 320.8125 765.820312 C 308.835938 771.140625 300.65625 765.710938 294.007812 755.304688 C 264.394531 708.871094 234.378906 662.652344 203.703125 615.09375 L 256.367188 590.179688 C 258.46875 593.863281 260.542969 597 262.125 600.390625 C 283.53125 645.75 304.886719 691.140625 326.195312 736.566406 Z M 290.238281 591.363281 C 288.195312 587.277344 286.03125 583.191406 283.089844 577.339844 L 310.480469 565.191406 C 318.628906 580.894531 316.707031 583.191406 290.238281 591.363281 Z M 636.246094 560.972656 C 635.792969 562.054688 635.167969 563.027344 634.371094 563.890625 C 633.574219 564.753906 632.652344 565.457031 631.609375 565.996094 C 625.597656 564.585938 617.652344 565.136719 613.871094 561.441406 C 606.78125 554.6875 599.207031 548.519531 591.152344 542.949219 C 583.097656 537.375 574.65625 532.460938 565.835938 528.207031 C 557.011719 523.953125 547.910156 520.410156 538.535156 517.574219 C 529.160156 514.742188 519.617188 512.65625 509.917969 511.3125 C 442.519531 500.078125 377.570312 511.425781 313.972656 533.605469 C 299.789062 538.558594 285.941406 544.488281 270.429688 550.566406 C 244.664062 495.789062 219.59375 442.496094 195.882812 392.148438 C 232.359375 366.742188 269.191406 344.289062 302.289062 317.265625 C 350.050781 278.269531 387.324219 230.621094 401.070312 168.59375 C 403.949219 153.222656 405.136719 137.71875 404.621094 122.085938 C 404.621094 113.550781 401.730469 104.453125 412.160156 101.113281 C 423.972656 97.324219 426.710938 107.578125 430.417969 115.410156 C 468.683594 196.75 506.9375 278.0625 545.179688 359.351562 C 573.660156 419.871094 602.160156 480.386719 630.671875 540.894531 C 631.691406 543.152344 632.4375 544.570312 633.613281 547.523438 C 637.472656 557.277344 636.59375 560.074219 636.246094 560.992188 Z M 534.128906 78.207031 C 533.488281 76.835938 533.039062 75.40625 532.777344 73.917969 C 532.515625 72.429688 532.453125 70.929688 532.585938 69.421875 C 532.722656 67.917969 533.050781 66.453125 533.570312 65.035156 C 534.089844 63.613281 534.789062 62.289062 535.660156 61.050781 C 545.21875 46.753906 554.917969 32.457031 564.753906 18.480469 C 565.597656 17.214844 566.585938 16.070312 567.714844 15.050781 C 568.84375 14.03125 570.078125 13.164062 571.421875 12.453125 C 572.765625 11.738281 574.179688 11.203125 575.65625 10.839844 C 577.132812 10.476562 578.632812 10.300781 580.152344 10.308594 C 581.734375 10.367188 583.285156 10.621094 584.804688 11.070312 C 586.324219 11.523438 587.761719 12.152344 589.121094 12.964844 C 590.480469 13.78125 591.71875 14.75 592.832031 15.875 C 593.949219 17 594.90625 18.246094 595.707031 19.613281 L 596.859375 21.328125 L 596.371094 23.371094 C 596.214844 24.460938 596.054688 25.566406 595.941406 26.75 C 595.742188 30.257812 594.789062 33.542969 593.082031 36.613281 C 583.378906 51.566406 573.066406 66.453125 563.285156 80.3125 C 561.535156 82.929688 559.246094 84.929688 556.421875 86.316406 C 555.078125 86.953125 553.675781 87.402344 552.210938 87.660156 C 550.75 87.917969 549.277344 87.980469 547.796875 87.84375 C 546.316406 87.707031 544.882812 87.375 543.492188 86.851562 C 542.101562 86.324219 540.804688 85.628906 539.601562 84.753906 C 537.207031 83.046875 535.371094 80.871094 534.085938 78.226562 Z M 800.117188 512.527344 L 798.890625 514.179688 L 796.847656 514.40625 C 795.765625 514.621094 794.683594 514.84375 793.53125 515.132812 C 790.171875 516.101562 786.765625 516.296875 783.316406 515.722656 C 765.957031 511.558594 748.503906 506.820312 732.175781 502.214844 C 729.128906 501.441406 726.480469 499.953125 724.230469 497.75 C 723.1875 496.699219 722.300781 495.527344 721.570312 494.238281 C 720.839844 492.949219 720.292969 491.585938 719.925781 490.148438 C 719.5625 488.710938 719.394531 487.25 719.425781 485.769531 C 719.453125 484.285156 719.675781 482.832031 720.097656 481.410156 C 720.246094 480.878906 720.421875 480.351562 720.625 479.835938 C 720.824219 479.320312 721.050781 478.816406 721.300781 478.320312 C 721.554688 477.828125 721.828125 477.347656 722.125 476.878906 C 722.425781 476.414062 722.746094 475.960938 723.089844 475.523438 C 723.429688 475.089844 723.792969 474.671875 724.179688 474.273438 C 724.5625 473.871094 724.964844 473.492188 725.386719 473.132812 C 725.808594 472.773438 726.246094 472.433594 726.699219 472.117188 C 727.15625 471.800781 727.625 471.503906 728.105469 471.234375 C 728.589844 470.960938 729.085938 470.714844 729.59375 470.492188 C 730.101562 470.269531 730.617188 470.074219 731.144531 469.902344 C 731.671875 469.730469 732.207031 469.585938 732.75 469.46875 C 733.289062 469.347656 733.835938 469.257812 734.386719 469.191406 C 734.9375 469.125 735.488281 469.085938 736.042969 469.078125 C 736.597656 469.066406 737.152344 469.082031 737.703125 469.125 C 738.257812 469.167969 738.804688 469.238281 739.351562 469.335938 C 739.894531 469.433594 740.4375 469.558594 740.96875 469.707031 C 757.65625 473.945312 774.339844 478.328125 790.8125 482.933594 C 792.292969 483.308594 793.703125 483.855469 795.042969 484.582031 C 796.386719 485.308594 797.617188 486.1875 798.742188 487.21875 C 799.867188 488.25 800.84375 489.40625 801.679688 490.679688 C 802.515625 491.957031 803.183594 493.316406 803.679688 494.757812 C 804.15625 496.269531 804.433594 497.816406 804.515625 499.398438 C 804.601562 500.980469 804.488281 502.546875 804.175781 504.101562 C 803.863281 505.652344 803.367188 507.144531 802.679688 508.570312 C 801.992188 509.996094 801.136719 511.316406 800.117188 512.527344 Z M 737.519531 237.371094 C 722.507812 246.988281 706.972656 256.3125 692.351562 264.941406 C 689.675781 266.601562 686.765625 267.480469 683.621094 267.574219 C 682.132812 267.601562 680.667969 267.433594 679.226562 267.066406 C 677.789062 266.699219 676.421875 266.148438 675.128906 265.410156 C 673.835938 264.675781 672.664062 263.78125 671.613281 262.730469 C 670.5625 261.675781 669.671875 260.503906 668.933594 259.210938 C 668.652344 258.730469 668.398438 258.238281 668.164062 257.734375 C 667.933594 257.230469 667.722656 256.714844 667.542969 256.1875 C 667.359375 255.660156 667.207031 255.128906 667.074219 254.585938 C 666.945312 254.046875 666.84375 253.5 666.769531 252.949219 C 666.695312 252.398438 666.644531 251.84375 666.625 251.289062 C 666.605469 250.730469 666.609375 250.175781 666.644531 249.621094 C 666.679688 249.066406 666.738281 248.511719 666.828125 247.964844 C 666.917969 247.414062 667.03125 246.871094 667.171875 246.332031 C 667.316406 245.796875 667.484375 245.265625 667.679688 244.742188 C 667.871094 244.222656 668.089844 243.710938 668.335938 243.210938 C 668.582031 242.710938 668.847656 242.226562 669.140625 241.753906 C 669.433594 241.28125 669.75 240.820312 670.085938 240.378906 C 670.425781 239.9375 670.78125 239.511719 671.164062 239.105469 C 671.542969 238.699219 671.941406 238.3125 672.359375 237.945312 C 672.777344 237.578125 673.210938 237.230469 673.664062 236.90625 C 674.113281 236.582031 674.582031 236.28125 675.0625 236 C 689.6875 226.902344 704.402344 217.894531 719.125 209.203125 C 720.421875 208.398438 721.792969 207.761719 723.246094 207.292969 C 724.699219 206.828125 726.1875 206.546875 727.710938 206.453125 C 729.230469 206.359375 730.742188 206.449219 732.242188 206.730469 C 733.742188 207.011719 735.183594 207.472656 736.566406 208.113281 C 737.984375 208.820312 739.292969 209.691406 740.492188 210.730469 C 741.691406 211.765625 742.738281 212.9375 743.644531 214.238281 C 744.546875 215.539062 745.273438 216.933594 745.824219 218.417969 C 746.378906 219.90625 746.738281 221.4375 746.902344 223.011719 L 747.25 225.054688 L 745.953125 226.71875 C 745.359375 227.648438 744.769531 228.578125 744.175781 229.609375 C 742.546875 232.703125 740.328125 235.289062 737.519531 237.371094 Z M 737.519531 237.371094 " fill-opacity="1" fill-rule="nonzero"/></g></svg>