<svg width="2000" height="2000" viewBox="0 0 2000 2000" fill="none" xmlns="http://www.w3.org/2000/svg">
<g clip-path="url(#clip0_378_2)">
<path d="M738.936 915.118C754.356 908.135 769.486 900.848 783.746 891.407C796.102 883.225 809.969 877.139 823.608 871.123C844.417 861.945 865.606 853.629 886.631 844.939C895.815 841.143 904.99 837.326 914.622 833.951C915.153 839.633 915.231 844.881 915.067 850.373C898.221 860.784 887.493 875.957 880.145 893.395C872.468 911.617 865.161 930.079 859.158 948.903C846.226 989.455 843.582 1031.57 843.564 1073.73C843.551 1103.99 845.174 1134.29 847.041 1164.51C849.115 1198.09 854.689 1231.24 861.609 1264.16C869.872 1303.47 882.419 1341.54 894.518 1379.75C906.078 1416.25 916.506 1453.02 922.204 1491.38C925.39 1527.7 929.114 1563.56 931.716 1599.5C933.552 1624.85 934.129 1650.31 934.797 1675.73C935.72 1710.81 936.791 1745.91 936.693 1781C936.606 1812.41 935.023 1843.82 934.101 1875.23C927.941 1875.37 921.781 1875.64 915.621 1875.64C818.297 1875.67 720.973 1875.66 623.649 1875.66C619.665 1875.66 615.68 1875.66 610.958 1875.66C611.318 1811.23 610.611 1747.44 604.814 1683.56C603.872 1686.77 602.924 1689.97 601.989 1693.18C595.705 1714.74 587.468 1735.4 573.238 1753.1C554.082 1776.92 528.424 1790.34 499.401 1797.87C477.525 1803.54 455.396 1804.55 433.173 1799.62C397.629 1791.72 374.413 1769.3 359.72 1737.01C349.411 1714.34 344.49 1690.3 341.982 1665.67C336.005 1606.96 345.534 1549.89 360.444 1493.44C374.026 1442.01 392.425 1392.31 414.095 1343.75C427.796 1313.05 436.98 1280.9 440.646 1247.43C442.781 1227.93 445.747 1208.65 454.959 1191.21C460.592 1180.55 467.369 1170.22 475.136 1161.01C490.131 1143.23 497.253 1122.8 500.197 1100.12C501.727 1088.34 504.531 1076.55 508.297 1065.27C512.614 1052.35 521.808 1042.92 534.165 1036.8C536.095 1035.85 537.874 1034.59 540.224 1033.47C544.886 1047.12 548.934 1060.82 553.285 1074.42C554.382 1077.85 555.981 1081.33 558.146 1084.18C572.347 1102.87 590.278 1116.48 613.225 1122.54C636.431 1128.67 656.408 1123.32 671.933 1104.37C680.192 1094.3 684.747 1082.28 689.345 1070.3C691.152 1074.25 692.839 1078 694.106 1081.89C698.488 1095.35 700.435 1109.11 697.017 1123.02C694.251 1134.29 690.927 1145.43 687.352 1156.47C681.057 1175.89 676.188 1195.55 678.15 1216.14C679.485 1230.16 681.818 1244.08 683.537 1258.06C685.142 1271.12 686.5 1284.25 682.177 1297.06C678.672 1307.44 674.764 1317.69 670.93 1327.96C662.472 1350.6 661.491 1374.71 657.153 1398.15C651.421 1429.13 646.31 1460.22 640.391 1491.15C634.655 1521.12 628.137 1550.94 622.14 1580.87C615.883 1612.09 609.799 1643.34 603.808 1674.62C603.5 1676.22 604.782 1678.13 605.323 1679.9C606.606 1678.56 608.695 1677.41 609.042 1675.86C611.729 1663.89 614.118 1651.86 616.525 1639.83C621.698 1613.98 626.881 1588.13 631.961 1562.25C640.141 1520.6 648.424 1478.96 656.294 1437.25C659.981 1417.71 662.986 1398.03 665.974 1378.36C669.043 1358.16 672.057 1338.04 680.633 1319.14C686.769 1305.62 691.587 1291.38 690.675 1276.35C689.753 1261.15 686.735 1246.09 685.593 1230.91C684.6 1217.71 683.182 1204.14 685.15 1191.23C687.555 1175.44 692.9 1160.04 697.698 1144.7C703.502 1126.14 706.71 1107.45 701.804 1088.33C699.679 1080.05 699.564 1070.58 691.726 1064.28C698.506 1049.48 704.819 1034.84 712.018 1020.65C720.742 1003.46 730.118 986.606 734.558 967.616C738.599 950.332 738.745 932.723 738.936 915.118ZM873.391 1734.3C872.076 1741.2 873.656 1747.11 879.232 1751.72C885.107 1756.57 893.757 1758.46 898.078 1755.19C904.026 1750.7 907.618 1744.58 907.958 1736.99C908.3 1729.34 904.524 1723.94 897.418 1721.26C887.139 1717.38 877.396 1722.42 873.391 1734.3ZM883.002 1484.44C879.288 1468.95 875.695 1453.43 871.837 1437.98C863.011 1402.63 844.862 1370.31 838.062 1334.29C837.829 1333.05 835.763 1332.16 834.552 1331.11C833.95 1332.6 832.548 1334.3 832.871 1335.55C836.102 1348.07 838.718 1360.86 843.226 1372.93C854.748 1403.77 866.229 1434.59 873.46 1466.79C875.494 1475.85 877.05 1485.02 879.085 1494.08C879.342 1495.23 881.182 1496.02 882.289 1496.97C883.015 1495.69 884.359 1494.4 884.338 1493.13C884.296 1490.51 883.525 1487.91 883.002 1484.44ZM862.346 1545.34C862.206 1547.15 861.95 1548.97 861.946 1550.79C861.925 1560.05 866.769 1565.7 877.032 1568.49C884.063 1570.4 889.287 1567.69 893.723 1559.29C897.036 1553.02 898.355 1546.34 894.205 1539.93C889.704 1532.98 882.58 1531.93 875.182 1533.11C868.752 1534.13 864.583 1538.29 862.346 1545.34ZM539.932 1177.59C537.793 1174.83 535.776 1171.97 533.433 1169.4C532.791 1168.7 530.643 1168.31 530.119 1168.8C529.277 1169.57 528.834 1171.22 528.938 1172.44C529.024 1173.44 530.11 1174.38 530.832 1175.28C544.933 1192.92 558.798 1210.75 573.256 1228.09C581.121 1237.52 589.95 1246.15 598.502 1254.99C599.311 1255.82 601.257 1255.56 602.675 1255.81C602.649 1254.33 602.739 1252.84 602.537 1251.39C602.461 1250.84 601.719 1250.38 601.264 1249.9C595.681 1243.97 589.776 1238.31 584.571 1232.07C569.689 1214.22 555.09 1196.13 539.932 1177.59ZM529.261 1311.29C524.605 1310.07 519.981 1308.71 515.273 1307.75C514.029 1307.5 512.527 1308.5 511.144 1308.93C511.969 1310.3 512.499 1312.45 513.672 1312.89C517.845 1314.47 522.204 1315.6 526.551 1316.65C543.062 1320.66 559.693 1321.54 576.375 1317.89C577.751 1317.59 578.743 1315.53 579.914 1314.29C578.452 1313.64 576.846 1312.21 575.55 1312.45C560.303 1315.28 545.161 1314.81 529.261 1311.29Z" fill="#FF8A00"/>
<path d="M1395.04 1875.78C1380.23 1875.74 1365.42 1875.67 1350.61 1875.66C1283.36 1875.65 1216.11 1875.67 1148.87 1875.64C1144.05 1875.64 1139.22 1875.41 1134.03 1874.73C1133.73 1856.85 1134.03 1839.51 1133.8 1822.19C1133.58 1805.89 1133.11 1789.57 1132.19 1773.29C1130.75 1747.55 1128.12 1721.85 1127.32 1696.08C1126.37 1665.78 1127.35 1635.43 1126.51 1605.13C1125.81 1579.59 1126.79 1554.25 1129.88 1528.92C1131.98 1511.75 1133.46 1494.51 1135.33 1477.31C1137.18 1460.3 1138.78 1443.24 1141.21 1426.3C1143.28 1411.83 1146.6 1397.55 1148.97 1383.12C1152.11 1364.1 1153.53 1344.7 1158.06 1326.04C1166.57 1290.99 1177.51 1256.51 1182.49 1220.66C1187.64 1183.62 1197.35 1147.29 1199.31 1109.75C1200.75 1082.25 1200.63 1054.82 1197.43 1027.47C1195.6 1011.78 1192.95 996.186 1191.05 980.505C1187.71 952.961 1180.44 926.647 1166.65 902.456C1156.48 884.622 1144.09 868.672 1125.62 858.436C1119.66 855.134 1113.93 851.422 1108.05 847.495C1107.08 842.45 1106.15 837.81 1105.22 833.169C1111.19 834.427 1117.42 834.963 1123.07 837.068C1147.53 846.18 1171.89 855.577 1196.14 865.222C1210.05 870.752 1224.84 875.175 1237.2 883.223C1263.73 900.501 1293.29 910.701 1321.93 923.106C1358.94 939.138 1393.61 959.095 1424.74 984.854C1446.45 1002.81 1462.61 1025.34 1477.2 1049.21C1502.7 1090.91 1520.85 1135.77 1537.29 1181.63C1545.74 1205.22 1548.8 1229.32 1551.96 1253.69C1555.47 1280.73 1559.31 1307.74 1562.58 1334.82C1565.07 1355.46 1567.44 1376.14 1568.87 1396.88C1571.74 1438.54 1574.54 1480.22 1576.24 1521.93C1578.12 1567.89 1588.33 1612.08 1601.29 1655.9C1607.29 1676.16 1612.33 1696.76 1612.46 1718.07C1612.53 1729.35 1611.82 1740.7 1610.61 1751.93C1608.38 1772.82 1606.12 1793.57 1610.85 1814.48C1613.99 1828.35 1611.55 1842.31 1609.66 1856.18C1608.83 1862.26 1608.15 1868.36 1607.25 1875.68C1538.97 1875.68 1470.43 1875.68 1401.39 1875.28C1399.63 1854 1398.32 1833.12 1397.12 1812.24C1396.04 1793.5 1394.94 1774.76 1394.12 1756.01C1392.97 1729.77 1392.08 1703.51 1391.06 1677.27C1390.35 1658.99 1389.62 1640.72 1388.87 1622.44C1388.58 1615.64 1388.29 1608.83 1387.82 1602.03C1386.26 1579.34 1384.63 1556.66 1383.01 1533.97C1381.96 1519.23 1381.1 1504.47 1379.77 1489.75C1378.06 1470.75 1375.83 1451.8 1374.08 1432.8C1372.49 1415.61 1371.05 1398.4 1369.9 1381.17C1368.44 1359.14 1366.82 1337.09 1366.24 1315.02C1365.76 1296.74 1366.25 1278.4 1367.13 1260.12C1367.87 1244.72 1369.1 1229.28 1371.35 1214.03C1376.04 1182.31 1383.03 1151.04 1392.66 1120.41C1394.55 1114.39 1396.58 1108.4 1398.17 1102.29C1398.56 1100.8 1397.46 1098.92 1397.04 1097.22C1395.64 1098.24 1394.15 1099.16 1392.9 1100.33C1392.36 1100.83 1392.26 1101.84 1392.04 1102.64C1386.82 1121.18 1381.29 1139.65 1376.45 1158.29C1365.04 1202.25 1360.35 1247.13 1360.31 1292.42C1360.29 1317.84 1361.87 1343.26 1363.08 1368.66C1363.75 1382.92 1364.91 1397.17 1366.24 1411.38C1368.3 1433.52 1370.84 1455.61 1372.9 1477.74C1374.77 1497.9 1376.47 1518.09 1377.88 1538.29C1379.75 1565.13 1381.37 1591.98 1382.9 1618.84C1384.06 1639.08 1385.03 1659.33 1385.89 1679.58C1387 1705.49 1387.9 1731.41 1388.94 1757.32C1389.64 1774.93 1390.28 1792.54 1391.2 1810.14C1392.34 1832.02 1393.75 1853.9 1395.04 1875.78ZM1504.52 1745.02C1501.66 1747.81 1498.88 1750.7 1495.92 1753.38C1491.6 1757.28 1487.03 1760.9 1482.85 1764.95C1481.94 1765.83 1482.25 1767.98 1482 1769.54C1483.43 1769.5 1484.94 1769.7 1486.27 1769.32C1487.31 1769.02 1488.23 1768.08 1489.05 1767.27C1500.38 1756.01 1512.58 1745.47 1522.73 1733.23C1532.31 1721.67 1539.83 1708.37 1547.99 1695.67C1548.79 1694.42 1547.76 1691.98 1547.58 1690.1C1546.09 1691.05 1543.87 1691.65 1543.2 1693.01C1533.54 1712.47 1520.08 1729.08 1504.52 1745.02ZM1439.2 1023.17C1437.99 1024.07 1436.4 1024.73 1435.62 1025.92C1433 1029.94 1430.63 1034.14 1428.22 1038.29C1421.32 1050.19 1414.36 1062.05 1407.7 1074.08C1406.91 1075.49 1407.79 1077.82 1407.9 1079.72C1409.49 1078.71 1411.67 1078.07 1412.54 1076.62C1415.36 1071.95 1417.48 1066.85 1420.27 1062.16C1426.54 1051.61 1433.12 1041.26 1439.4 1030.72C1440.67 1028.58 1443.52 1026.1 1439.2 1023.17Z" fill="#FF8A00"/>
<path d="M1108.1 847.898C1113.93 851.423 1119.66 855.135 1125.62 858.437C1144.09 868.672 1156.48 884.622 1166.65 902.457C1180.44 926.648 1187.71 952.961 1191.05 980.505C1192.95 996.187 1195.6 1011.78 1197.43 1027.47C1200.63 1054.82 1200.75 1082.25 1199.31 1109.75C1197.35 1147.29 1187.64 1183.62 1182.49 1220.66C1177.51 1256.51 1166.57 1290.99 1158.06 1326.04C1153.53 1344.7 1152.11 1364.1 1148.97 1383.12C1146.6 1397.55 1143.28 1411.83 1141.21 1426.3C1138.78 1443.24 1137.18 1460.3 1135.33 1477.31C1133.46 1494.51 1131.98 1511.75 1129.88 1528.92C1126.79 1554.25 1125.81 1579.6 1126.51 1605.13C1127.35 1635.43 1126.37 1665.79 1127.32 1696.08C1128.12 1721.85 1130.75 1747.55 1132.19 1773.3C1133.11 1789.57 1133.58 1805.89 1133.8 1822.19C1134.03 1839.51 1133.73 1856.85 1133.58 1874.65C1081.64 1875.08 1029.78 1875.04 977.454 1874.57C976.323 1868.56 975.661 1862.99 974.993 1857.41C973.756 1847.08 972.861 1836.69 971.189 1826.43C969.146 1813.9 965.963 1801.55 964.145 1789C961.043 1767.58 958.341 1746.1 956.005 1724.59C954.238 1708.31 953.31 1691.95 951.989 1675.63C951.655 1671.5 951.812 1667.24 950.775 1663.29C945.637 1643.73 946.554 1623.53 944.027 1603.7C942.167 1589.11 941.296 1574.35 938.628 1559.92C934.691 1538.63 929.585 1517.55 924.859 1496.41C924.431 1494.5 923.148 1492.78 922.262 1490.97C916.507 1453.02 906.079 1416.25 894.519 1379.75C882.42 1341.54 869.873 1303.47 861.61 1264.16C854.689 1231.24 849.116 1198.09 847.042 1164.51C845.174 1134.29 843.552 1103.99 843.565 1073.73C843.583 1031.57 846.227 989.455 859.159 948.903C865.162 930.079 872.468 911.617 880.146 893.395C887.494 875.957 898.222 860.784 915.274 850.668C915.654 851.863 915.722 853.035 915.495 854.146C912.099 870.735 914.33 886.468 922.221 901.495C940.845 936.964 972.392 951.691 1010.19 954.735C1037.27 956.917 1060.44 945.404 1079.69 927.393C1102.44 906.098 1113.36 879.659 1108.1 847.898Z" fill="#FFFBF2"/>
<path d="M1108.05 847.495C1113.36 879.659 1102.44 906.097 1079.69 927.393C1060.44 945.404 1037.27 956.917 1010.18 954.735C972.391 951.691 940.845 936.964 922.22 901.495C914.33 886.467 912.099 870.735 915.494 854.145C915.722 853.034 915.654 851.863 915.517 850.424C915.232 844.881 915.153 839.632 915.026 833.861C914.965 816.737 915.541 800.109 914.732 783.547C914.201 772.697 911.891 761.901 909.829 751.187C909.44 749.168 906.663 747.361 904.645 745.945C890.366 735.928 875.834 726.265 861.699 716.051C844.088 703.325 830.684 686.531 818.101 669.097C808.293 655.51 798.597 641.827 789.346 627.86C783.789 619.47 776.526 613.701 767.487 609.657C756.159 604.588 745.98 597.788 737.249 588.853C724.679 575.989 716.083 561.072 714.379 542.962C713.088 529.245 717.608 512.357 732.97 507.41C742.486 504.345 749.319 506.211 755.461 514.112C756.887 515.948 758.283 517.806 760.205 520.145C761.168 523.426 761.458 526.256 762.104 529.001C763.811 536.246 765.1 543.665 767.658 550.609C769.607 555.9 774.037 560.123 780.204 559.659C786.519 559.183 789.157 553.941 790.92 548.509C791.53 546.629 792.079 544.612 792.057 542.665C791.952 533.365 791.942 524.047 791.339 514.772C790.181 496.959 789.941 479.412 800.667 463.805C808.295 452.707 815.373 441.361 820.918 428.97C829.305 410.229 833.933 390.915 832.124 370.394C830.692 354.154 832.276 338.433 839.019 323.531C845.6 308.987 855.883 298.263 872.275 295.434C889.1 292.53 906.08 291.743 922.864 295.693C938.393 299.347 953.738 303.786 969.262 307.468C985.818 311.395 1002.77 313.547 1018.89 306.718C1053.82 291.924 1090.18 291.455 1126.84 295.199C1155.04 298.079 1172.03 314.538 1175.96 342.685C1177.99 357.249 1177.34 372.193 1177.83 386.968C1178.52 408.225 1182.33 428.837 1193.81 447.002C1204.25 463.525 1209.47 481.413 1210.96 500.553C1211.77 510.989 1211.32 521.524 1212.13 531.961C1212.63 538.345 1213.76 544.856 1215.84 550.887C1217.69 556.287 1223.06 556.843 1226.22 552.088C1228.61 548.5 1230.35 544.018 1230.87 539.751C1231.86 531.529 1231.78 523.177 1232.15 514.879C1243.74 498.859 1267.05 507.873 1272.82 523.777C1276.76 534.662 1276.56 545.518 1273.32 556.511C1266.05 581.134 1249.46 597.819 1227.73 610.039C1220.77 613.948 1213.41 617.118 1206.37 620.883C1204.63 621.816 1202.79 623.49 1202.06 625.263C1185.36 665.471 1160.04 699.449 1127.99 728.642C1120.52 735.445 1113.27 742.489 1105.46 749.745C1104.25 750.337 1103.35 750.432 1102.75 750.901C1084.82 764.733 1065.28 775.51 1043.52 781.958C1029.43 786.131 1015.08 788.489 1000.38 785.868C976.323 781.578 953.511 773.813 932.386 761.306C928.16 758.804 923.474 757.082 918.952 754.853C918.812 754.655 918.721 754.605 918.63 754.554C918.753 754.703 918.876 754.851 919.138 755.306C929.262 765.314 938.495 775.989 949.438 784.451C961.041 793.422 973.797 801.226 986.907 807.84C1003.11 816.015 1020.87 820.335 1038.85 822.604C1049.83 823.99 1061.07 824.091 1072.15 823.611C1082.69 823.154 1093.16 821.193 1103.66 819.893C1104.13 824.026 1104.61 828.159 1105.15 832.731C1106.15 837.81 1107.08 842.45 1108.05 847.495ZM1051.91 606.581C1042.22 607.74 1032.56 609.434 1022.83 609.919C1011.26 610.496 999.644 610.14 988.05 609.978C981.917 609.893 975.786 609.024 969.663 609.109C960.152 609.242 951.933 615.336 952.176 622.79C952.358 628.377 953.183 634.866 956.183 639.279C969.79 659.296 988.767 671.236 1013.29 672.853C1040.97 674.678 1064.78 653.459 1073.57 633.469C1078.66 621.879 1072.77 610.697 1060.55 607.447C1058.02 606.774 1055.33 606.689 1051.91 606.581ZM1084.18 402.674C1075.27 405.275 1066.7 408.588 1061.69 417.075C1060.61 418.907 1060.09 422.466 1061.14 423.816C1062.57 425.67 1065.76 427.077 1068.17 427.038C1071.36 426.986 1074.53 425.377 1077.69 424.387C1090.03 420.523 1102.25 419.08 1114.61 424.713C1117.97 426.243 1122.07 427.042 1125.72 426.752C1128.42 426.538 1132.16 424.592 1133.2 422.368C1134.25 420.149 1133.43 415.911 1131.8 413.83C1129.12 410.402 1125.45 407.437 1121.64 405.269C1109.96 398.635 1097.54 398.665 1084.18 402.674ZM929.245 404.199C911.669 396.126 895.145 400.224 879.235 408.927C876.165 410.606 873.455 413.602 871.606 416.62C870.367 418.642 869.869 422.475 871.004 424.217C872.172 426.01 875.716 426.946 878.237 426.978C880.927 427.013 883.667 425.641 886.333 424.729C899.125 420.353 911.8 419.126 924.655 424.849C928.02 426.347 932.072 426.932 935.791 426.87C942.741 426.753 946.272 420.021 941.936 414.669C938.7 410.675 933.959 407.901 929.245 404.199ZM904.837 520.08C910.794 520.506 916.77 520.332 920.884 515.302C925.819 509.268 927.998 502.11 926.802 494.316C925.112 483.302 915.04 475.367 905.427 477.141C894.963 479.072 886.223 488.878 885.994 498.944C885.749 509.721 892.142 517.217 904.837 520.08ZM1099.77 477.19C1089.49 476.269 1080.17 481.401 1075.64 490.483C1071.27 499.212 1073.59 509.63 1081.22 515.653C1088.58 521.457 1101.55 522.301 1107.2 516.443C1119.4 503.803 1116.33 484.052 1099.77 477.19ZM1010.75 564.974C1007.19 562.851 1003.71 560.571 1000.03 558.69C998.72 558.02 996.914 558.317 995.333 558.173C995.64 559.714 995.432 562.112 996.337 562.656C1001.83 565.958 1007.27 570.197 1013.31 571.58C1026.41 574.579 1041.57 565.827 1037.99 548.429C1036.3 540.184 1033.24 532.229 1031 524.086C1028.51 515.016 1025.3 505.999 1024.16 496.743C1023 487.296 1024.08 477.585 1023.9 467.994C1023.87 466.386 1022.44 464.805 1021.65 463.211C1020.5 464.628 1018.53 465.94 1018.33 467.478C1016.31 483.421 1016.53 499.269 1021.54 514.75C1025.02 525.484 1029.33 536.015 1031.92 546.956C1035.35 561.45 1025.82 569.555 1010.75 564.974ZM1254.21 538.289C1256.75 538.98 1259.27 539.727 1261.83 540.34C1263.09 540.643 1264.41 540.699 1265.7 540.866C1265.77 539.405 1266.43 537.596 1265.81 536.543C1263.39 532.452 1258.4 531.243 1252.98 532.586C1240.67 535.635 1232.16 551.221 1236.58 563.278C1239.44 571.084 1238.03 574.133 1231.24 578.879C1229.88 579.83 1228.28 580.536 1227.14 581.69C1225.05 583.787 1222.99 585.989 1221.41 588.461C1220.89 589.272 1221.88 591.054 1222.19 592.392C1223.47 592.021 1225.03 591.99 1226 591.216C1229.32 588.544 1232.31 585.44 1235.66 582.815C1243.21 576.915 1245.06 571.974 1242.7 562.918C1239.55 550.796 1242.54 544.06 1254.21 538.289ZM771.655 588.145C771.184 586.342 771.235 584.078 770.134 582.833C767.85 580.253 765.106 578.001 762.281 575.993C755.289 571.023 754.194 569.15 756.831 561.084C759.229 553.753 757.398 547.15 754.122 540.964C750.734 534.565 744.514 531.196 737.518 530.46C734.818 530.176 731.605 532.198 729.106 533.882C728.147 534.529 728.527 537.163 728.297 538.892C729.861 538.68 732.007 539.038 732.88 538.148C735.522 535.454 738.174 535.858 741.078 537.163C749.838 541.097 753.856 550.101 751.056 559.467C748.316 568.63 749.912 573.786 756.909 579.291C760.406 582.043 763.6 585.184 767.126 587.895C768.089 588.635 769.759 588.455 771.655 588.145Z" fill="#F6B49C"/>
<path d="M1232.09 514.424C1231.78 523.177 1231.86 531.529 1230.87 539.751C1230.35 544.018 1228.61 548.5 1226.22 552.088C1223.06 556.842 1217.69 556.286 1215.84 550.887C1213.76 544.856 1212.63 538.345 1212.13 531.961C1211.32 521.524 1211.77 510.989 1210.96 500.552C1209.47 481.413 1204.25 463.525 1193.81 447.001C1182.33 428.837 1178.52 408.225 1177.83 386.968C1177.34 372.193 1177.99 357.249 1175.96 342.684C1172.03 314.538 1155.04 298.079 1126.84 295.199C1090.18 291.455 1053.82 291.924 1018.89 306.718C1002.77 313.546 985.818 311.395 969.262 307.468C953.739 303.786 938.394 299.347 922.865 295.692C906.081 291.743 889.1 292.53 872.276 295.434C855.884 298.263 845.601 308.987 839.02 323.53C832.277 338.433 830.693 354.154 832.125 370.394C833.934 390.915 829.306 410.229 820.919 428.97C815.374 441.36 808.295 452.707 800.668 463.805C789.942 479.411 790.181 496.958 791.339 514.772C791.942 524.047 791.953 533.365 792.058 542.665C792.08 544.612 791.53 546.629 790.921 548.509C789.158 553.941 786.52 559.183 780.204 559.658C774.038 560.123 769.608 555.9 767.658 550.608C765.1 543.665 763.812 536.246 762.105 529.001C761.459 526.256 761.169 523.426 760.488 520.34C757.903 502.613 758.122 484.717 751.829 467.991C748.797 459.934 745.175 451.992 740.885 444.537C728.636 423.25 726.317 400.774 729.079 376.634C732.179 349.531 739.428 323.454 745.31 297.017C747.789 285.873 748.675 274.606 746.749 263.305C744.947 252.728 746.713 242.74 751.036 233.131C762.635 207.346 778.365 184.649 804.402 171.968C819.22 164.751 835.351 160.048 851.172 155.117C873.883 148.039 894.902 138.179 914.678 124.66C930.627 113.758 949.17 107.563 968.711 105.502C996.994 102.518 1024.56 105.163 1050.76 116.861C1068.99 124.999 1083.08 137.205 1088.03 157.644C1088.89 161.195 1091.49 162.991 1094.99 162.913C1098.96 162.824 1102.92 162.142 1106.89 161.91C1136.66 160.171 1160.58 170.576 1177.23 195.965C1178.68 198.188 1180.24 200.384 1181.38 202.772C1194.27 229.788 1212.77 252.849 1231.91 275.547C1244.22 290.151 1254.73 306.12 1258.1 325.325C1259.66 334.189 1259.45 343.503 1258.96 352.555C1258.13 367.985 1256.52 383.376 1255.07 398.768C1254.77 402.056 1253.98 405.334 1253.09 408.526C1247.83 427.386 1242.63 446.263 1237.11 465.047C1232.4 481.077 1231.25 497.405 1232.09 514.424ZM1072.8 212.276C1065.77 235.882 1056.72 258.424 1039.34 276.687C1038.33 277.748 1038.6 280.03 1038.28 281.743C1040.03 281.185 1042.26 281.131 1043.45 279.99C1056.11 267.895 1064.11 252.766 1070.43 236.748C1074.01 227.658 1076.66 218.189 1079.45 208.809C1079.83 207.524 1078.6 205.758 1078.11 204.215C1076.79 205.201 1075.15 205.963 1074.22 207.239C1073.4 208.362 1073.37 210.058 1072.8 212.276ZM937.022 207.507C930.221 200.1 922.683 193.659 913.329 189.656C911.365 188.816 908.968 186.47 907.385 189.738C905.919 192.762 908.753 193.32 910.776 194.566C916.264 197.946 921.979 201.187 926.766 205.428C940.791 217.853 948.513 234.023 953.123 251.925C953.522 253.475 955.634 254.583 956.95 255.896C957.56 254.223 959.014 252.334 958.65 250.909C954.624 235.155 948.412 220.417 937.022 207.507ZM863.976 253.365C862.44 251.495 861.281 248.907 859.308 247.869C844.905 240.301 829.581 236.529 813.233 238.122C811.76 238.265 810.449 240.071 809.063 241.105C810.681 242.037 812.248 243.629 813.926 243.757C817.014 243.992 820.21 242.898 823.287 243.179C835.464 244.291 846.997 247.714 857.897 253.355C859.531 254.201 861.77 253.878 863.976 253.365ZM1098 272.525C1094.96 273.871 1091.79 274.986 1088.93 276.635C1086.6 277.974 1082.57 280.799 1082.86 281.511C1084.79 286.254 1088.15 282.791 1090.71 281.867C1103.99 277.077 1115.79 269.664 1126.58 260.656C1127.69 259.722 1128.54 256.99 1127.99 255.823C1126.71 253.135 1124.97 254.907 1123.22 256.082C1115.1 261.538 1106.86 266.824 1098 272.525Z" fill="#1F244A"/>
<path d="M738.898 914.685C738.745 932.723 738.599 950.332 734.558 967.616C730.118 986.606 720.742 1003.46 712.018 1020.65C704.819 1034.84 698.506 1049.48 691.359 1064.34C686.948 1065.4 686.818 1067.38 689.032 1070.17C684.747 1082.28 680.192 1094.3 671.933 1104.37C656.408 1123.32 636.431 1128.66 613.225 1122.54C590.278 1116.48 572.347 1102.87 558.146 1084.18C555.981 1081.33 554.382 1077.85 553.285 1074.42C548.934 1060.82 544.886 1047.12 540.465 1033.21C536.683 1014.73 533.317 996.457 529.595 978.26C525.93 960.343 522.621 942.436 522.95 924.015C523.317 903.526 529.272 884.486 537.007 865.791C544.122 848.594 551.277 831.399 557.777 813.965C565.353 793.643 565.541 772.304 565.059 750.958C564.724 736.16 564.188 721.36 564.229 706.562C564.287 685.432 564.518 664.294 565.223 643.178C565.56 633.111 565.96 622.856 570.719 613.523C574.585 605.943 579.792 599.335 588.896 599.124C598.467 598.902 604.942 605.139 608.005 613.495C611.223 622.276 614.35 631.64 614.649 640.843C615.718 673.77 615.663 706.736 615.835 739.689C615.895 751.153 615.38 762.621 614.629 774.534C602.152 774.692 591.727 779.187 582.102 785.759C580.763 786.673 580.478 789.131 579.705 790.874C581.6 790.684 583.88 791.109 585.324 790.202C593.033 785.357 601.179 781.989 610.261 780.688C612.293 780.397 614.067 778.311 615.96 777.052C635.052 776.654 650.381 785.264 663.313 798.156C671.86 806.677 679.101 816.507 686.997 826.474C687.783 829.315 688.313 831.52 689.256 833.532C691.703 838.758 695.164 843.663 696.718 849.123C700.042 860.807 701.572 872.874 699.933 885.042C698.675 894.382 696.275 903.472 688.585 909.83C686.28 911.736 683.08 912.559 679.7 914.156C679.361 911.66 679.102 910.694 679.119 909.733C679.328 897.998 676.01 887.478 668.717 878.181C664.203 872.428 660.268 866.204 655.565 860.62C646.97 850.413 636.531 842.423 622.828 841.506C613.314 840.87 603.644 842.268 594.073 843.096C592.658 843.219 591.404 845.215 590.075 846.344C591.787 847.113 593.525 848.59 595.207 848.53C603.653 848.231 612.084 847.107 620.521 847.103C627.427 847.099 633.802 849.562 639.488 853.787C649.831 861.473 656.953 871.876 664.554 882.015C677.216 898.906 676.31 924.767 664.831 941.062C658.552 949.975 650.121 956.037 638.58 956.02C633.059 956.011 629.701 951.871 628.956 946.528C628.024 939.849 627.491 932.584 624.415 926.842C617.37 913.694 606.436 903.83 593.152 896.928C590.949 895.783 585.806 895.567 585.443 896.404C583.588 900.684 588.147 900.703 590.453 902.034C610.792 913.786 627.326 931.197 623.083 956.72C621.396 966.869 618.084 976.045 609.823 982.745C603.468 987.898 596.702 987.303 592.212 980.516C590.236 977.529 588.628 973.301 589.05 969.91C590.371 959.301 585.823 951.821 578.007 945.76C575.779 944.032 573.068 939.687 570.181 942.983C566.994 946.622 572.012 948.213 574.14 949.895C580.276 954.746 584.388 960.309 583.011 968.641C582.796 969.938 582.83 971.321 583.005 972.63C584.032 980.32 587.409 986.544 594.556 990.176C601.374 993.641 607.5 991.57 613.2 987.413C620.535 982.065 624.454 974.466 626.968 965.997C627.654 963.684 628.263 961.349 628.561 960.271C635.322 960.9 641.252 961.452 647.195 962.005C646.688 962.831 645.693 964.138 645.025 965.594C640.88 974.634 636.725 983.672 632.831 992.82C632.402 993.829 633.606 995.533 634.053 996.915C635.375 996.236 637.071 995.858 637.921 994.799C638.905 993.573 639.224 991.773 639.697 990.182C643.865 976.156 651.522 963.898 661.427 953.59C670.076 944.589 676.151 934.954 678.339 922.737C678.578 921.399 679.903 919.308 680.904 919.197C693.034 917.862 698.666 909.376 702.214 899.325C709.3 879.254 706.768 859.232 699.562 839.834C697.629 834.63 692.608 830.574 689.005 825.99C692.322 814.703 696.569 803.882 706.167 796.305C712.899 790.99 720.403 787.419 729.182 790.753C739.031 794.493 745.331 801.284 747.131 812.133C749.089 823.94 744.794 834.714 742.552 845.864C740.268 857.228 737.101 868.587 736.479 880.065C735.866 891.385 737.956 902.852 738.898 914.685Z" fill="#F6B49C"/>
<path d="M521.259 498.735C518.532 489.409 513.13 482.05 504.946 476.806C492.597 468.894 481.704 459.475 474.211 446.665C460.608 423.411 455.987 398.868 465.307 372.969C477.488 339.118 508.921 320.541 545.063 325.226C581.267 329.919 607.121 352.54 614.177 388.122C620.331 419.162 611.378 445.881 587.064 467.106C580.346 472.97 574.436 479.874 568.821 486.838C566.344 489.911 565.527 494.324 563.429 498.52C559.585 498.973 556.268 499.035 552.929 498.648C555.614 482.107 558.32 466.016 561.376 449.896C564.452 447.558 568.162 445.769 569.706 442.838C573.327 435.963 578.499 430.88 584.512 426.249C593.844 419.062 594.64 413.361 589.931 402.779C587.427 397.153 586.46 390.828 584.957 384.78C584.319 382.213 584.76 379.142 583.495 377.027C581.921 374.395 579.328 371.009 576.754 370.601C569.785 369.496 564.288 366.245 559.132 361.892C551.092 355.105 542.181 354.421 532.413 357.567C528.063 358.969 523.397 359.739 518.826 360.023C512.575 360.412 506.895 362.118 502.469 366.427C500.378 368.462 498.215 371.714 498.253 374.383C498.339 380.34 495.657 383.911 491.264 387.278C482.476 394.014 480.663 403.078 486.504 412.345C490.133 418.103 491.935 423.852 491.248 430.707C490.673 436.433 493.184 438.335 498.741 440.049C503.181 441.418 507.22 444.083 511.438 446.17C514.777 447.822 518.117 449.47 521.641 451.442C524.494 467.518 527.163 483.272 529.398 499.015C526.396 498.914 523.828 498.824 521.259 498.735Z" fill="#FF8E0A"/>
<path d="M922.205 1491.38C923.149 1492.78 924.431 1494.5 924.859 1496.41C929.585 1517.55 934.692 1538.63 938.628 1559.92C941.297 1574.35 942.168 1589.11 944.027 1603.7C946.555 1623.53 945.638 1643.73 950.776 1663.29C951.812 1667.24 951.656 1671.5 951.99 1675.63C953.311 1691.95 954.238 1708.31 956.005 1724.59C958.342 1746.1 961.044 1767.58 964.145 1789C965.964 1801.55 969.147 1813.9 971.189 1826.43C972.862 1836.69 973.757 1847.08 974.994 1857.41C975.661 1862.99 976.323 1868.56 976.984 1874.57C975.877 1875.32 974.773 1875.93 973.669 1875.93C960.69 1875.92 947.71 1875.81 934.416 1875.48C935.025 1843.82 936.608 1812.41 936.695 1781C936.792 1745.91 935.721 1710.81 934.799 1675.73C934.13 1650.31 933.553 1624.85 931.717 1599.5C929.115 1563.56 925.392 1527.7 922.205 1491.38Z" fill="#E9EBED"/>
<path d="M919.139 755.306C923.474 757.081 928.161 758.804 932.386 761.306C953.511 773.813 976.323 781.578 1000.38 785.868C1015.08 788.489 1029.44 786.13 1043.52 781.958C1065.28 775.509 1084.82 764.732 1102.75 750.9C1103.35 750.432 1104.25 750.337 1105.35 750.084C1105.05 773.085 1104.4 796.07 1103.71 819.474C1093.16 821.193 1082.69 823.154 1072.15 823.61C1061.07 824.09 1049.83 823.99 1038.85 822.604C1020.87 820.335 1003.11 816.014 986.908 807.84C973.798 801.225 961.042 793.422 949.439 784.451C938.495 775.988 929.263 765.313 919.139 755.306Z" fill="#E39476"/>
<path d="M1395.12 1876.14C1393.75 1853.9 1392.34 1832.02 1391.2 1810.14C1390.28 1792.54 1389.64 1774.93 1388.94 1757.32C1387.9 1731.41 1387 1705.49 1385.89 1679.58C1385.03 1659.33 1384.06 1639.08 1382.9 1618.84C1381.36 1591.98 1379.75 1565.13 1377.88 1538.29C1376.47 1518.09 1374.77 1497.9 1372.89 1477.74C1370.84 1455.61 1368.3 1433.52 1366.24 1411.38C1364.91 1397.17 1363.75 1382.92 1363.08 1368.66C1361.87 1343.26 1360.28 1317.84 1360.31 1292.42C1360.35 1247.13 1365.04 1202.25 1376.45 1158.29C1381.29 1139.65 1386.81 1121.18 1392.04 1102.64C1392.26 1101.84 1392.36 1100.83 1392.89 1100.33C1394.15 1099.16 1395.64 1098.24 1397.04 1097.22C1397.45 1098.92 1398.56 1100.8 1398.17 1102.29C1396.58 1108.4 1394.55 1114.39 1392.66 1120.41C1383.03 1151.04 1376.04 1182.31 1371.35 1214.03C1369.1 1229.28 1367.87 1244.72 1367.13 1260.12C1366.25 1278.4 1365.75 1296.74 1366.24 1315.02C1366.82 1337.09 1368.44 1359.14 1369.9 1381.17C1371.05 1398.4 1372.49 1415.61 1374.08 1432.8C1375.83 1451.8 1378.06 1470.75 1379.77 1489.75C1381.1 1504.47 1381.96 1519.23 1383.01 1533.97C1384.63 1556.66 1386.26 1579.34 1387.82 1602.03C1388.29 1608.83 1388.58 1615.64 1388.86 1622.44C1389.62 1640.72 1390.35 1658.99 1391.06 1677.27C1392.08 1703.51 1392.97 1729.77 1394.12 1756.01C1394.94 1774.76 1396.04 1793.5 1397.12 1812.24C1398.32 1833.12 1399.63 1854 1400.93 1875.33C1399.02 1880 1398.2 1880.1 1395.12 1876.14Z" fill="#2F557B"/>
<path d="M688.691 826.09C692.609 830.573 697.63 834.63 699.563 839.833C706.769 859.231 709.301 879.253 702.215 899.325C698.667 909.375 693.035 917.862 680.905 919.197C679.904 919.307 678.579 921.398 678.34 922.736C676.152 934.953 670.077 944.589 661.428 953.589C651.523 963.897 643.866 976.155 639.698 990.181C639.225 991.772 638.906 993.573 637.922 994.799C637.072 995.857 635.376 996.236 634.054 996.915C633.607 995.533 632.403 993.828 632.832 992.819C636.726 983.671 640.882 974.634 645.027 965.594C645.694 964.137 646.689 962.83 647.196 962.004C641.253 961.451 635.323 960.9 628.562 960.271C628.264 961.348 627.655 963.684 626.969 965.996C624.455 974.466 620.536 982.065 613.201 987.413C607.501 991.569 601.375 993.64 594.557 990.175C587.41 986.543 584.033 980.32 583.006 972.63C582.831 971.32 582.797 969.937 583.012 968.64C584.389 960.309 580.277 954.745 574.141 949.895C572.013 948.213 566.995 946.621 570.182 942.982C573.069 939.686 575.78 944.031 578.008 945.759C585.824 951.821 590.372 959.301 589.051 969.909C588.629 973.3 590.237 977.528 592.213 980.515C596.703 987.302 603.469 987.897 609.824 982.744C618.085 976.045 621.397 966.869 623.084 956.72C627.327 931.197 610.793 913.785 590.454 902.034C588.148 900.702 583.589 900.683 585.444 896.404C585.807 895.566 590.95 895.782 593.153 896.927C606.437 903.83 617.371 913.693 624.416 926.842C627.492 932.583 628.025 939.849 628.957 946.528C629.702 951.87 633.06 956.011 638.582 956.019C650.122 956.037 658.553 949.975 664.832 941.061C676.311 924.766 677.217 898.905 664.555 882.015C656.954 871.876 649.832 861.472 639.489 853.787C633.803 849.561 627.428 847.099 620.522 847.102C612.085 847.106 603.654 848.231 595.208 848.53C593.526 848.589 591.788 847.112 590.076 846.344C591.405 845.214 592.659 843.218 594.074 843.095C603.645 842.267 613.315 840.87 622.829 841.506C636.532 842.422 646.971 850.412 655.566 860.619C660.269 866.204 664.204 872.427 668.718 878.18C676.011 887.478 679.329 897.997 679.12 909.732C679.103 910.693 679.362 911.659 679.701 914.156C683.081 912.558 686.281 911.736 688.586 909.83C696.277 903.472 698.676 894.382 699.934 885.041C701.573 872.874 700.043 860.806 696.719 849.123C695.165 843.662 691.704 838.758 689.257 833.532C688.314 831.52 687.784 829.315 687.076 826.833C687.516 826.375 687.946 826.282 688.691 826.09Z" fill="#AE6C51"/>
<path d="M644.632 505.438C645.165 506.108 645.477 506.499 645.753 506.913C648.03 510.33 650.296 513.847 646.629 517.638C644.049 520.305 638.845 519.453 635.087 515.426C624.099 503.65 613.292 491.705 602.423 479.819C601.977 479.331 601.558 478.797 601.228 478.225C599.428 475.112 597.573 471.693 600.922 468.747C603.959 466.076 607.484 467.605 609.965 469.856C614.008 473.523 617.514 477.775 621.334 481.694C628.989 489.55 636.704 497.348 644.632 505.438Z" fill="#EBA450" fill-opacity="0.94"/>
<path d="M454.311 332.698C458.065 335.701 461.625 338.678 459.374 343.719C457.911 346.995 452.841 346.879 447.24 343.443C434.051 335.353 420.963 327.097 407.851 318.881C407.015 318.357 406.235 317.686 405.57 316.955C403.02 314.151 400.56 311.11 403.334 307.267C405.9 303.713 409.498 304.656 412.839 306.077C414.661 306.852 416.356 307.965 418.028 309.05C430.035 316.845 442.022 324.672 454.311 332.698Z" fill="#EBA450" fill-opacity="0.94"/>
<path d="M471.143 482.085C461.313 492.757 451.81 503.242 442.1 513.533C440.113 515.639 437.554 517.606 434.876 518.52C433.09 519.13 429.909 518.425 428.673 517.088C427.459 515.776 427.208 512.692 427.817 510.799C428.591 508.394 430.422 506.186 432.206 504.274C441.858 493.925 451.62 483.679 461.389 473.44C462.759 472.004 464.18 470.155 465.918 469.636C468.693 468.808 472.572 467.679 474.507 468.941C477.741 471.05 476.211 474.914 474.46 477.902C473.628 479.322 472.43 480.528 471.143 482.085Z" fill="#EBA450" fill-opacity="0.94"/>
<path d="M403.988 400.858C414.774 400.424 425.06 399.953 435.351 399.591C437.32 399.522 439.64 399.3 441.203 400.191C443.579 401.546 445.435 403.813 447.513 405.693C445.405 407.754 443.591 410.355 441.099 411.707C439.075 412.804 436.243 412.519 433.76 412.644C419.826 413.344 405.888 413.983 391.952 414.639C391.453 414.663 390.953 414.669 390.455 414.657C384.654 414.519 380.45 411.614 380.409 407.721C380.369 403.977 384.053 401.298 390.019 401.026C394.503 400.821 399 400.903 403.988 400.858Z" fill="#FF8A00"/>
<path d="M680.546 414.143C665.664 413.451 651.227 412.806 636.789 412.154C636.292 412.131 635.789 412.084 635.302 411.986C631.679 411.258 628.108 409.876 628.183 405.655C628.255 401.62 631.889 400.217 635.285 400.009C640.229 399.705 645.213 400.034 650.179 400.14C660.814 400.365 671.451 400.54 682.081 400.913C685.031 401.017 688.186 401.224 690.821 402.367C692.595 403.136 694.724 405.647 694.697 407.348C694.665 409.333 692.863 412.357 691.11 413.014C688.024 414.172 684.393 413.875 680.546 414.143Z" fill="#FF8A00"/>
<path d="M543.915 288.969C543.375 295.219 543.157 301.045 542.043 306.694C541.674 308.565 538.911 311.345 537.4 311.249C535.645 311.137 533.898 308.447 532.482 306.617C531.869 305.824 531.939 304.38 531.962 303.237C532.25 288.689 532.565 274.142 532.924 259.597C533.006 256.251 534.621 253.112 537.982 253.491C540.07 253.726 542.517 256.504 543.544 258.723C544.488 260.763 543.737 263.584 543.75 266.06C543.791 273.532 543.841 281.003 543.915 288.969Z" fill="#EBA450" fill-opacity="0.94"/>
<path d="M630.504 311.494C634.956 308.239 639.105 305.175 643.299 302.174C646.121 300.155 649.278 299.291 651.816 302.192C654.438 305.188 652.835 308.321 650.479 310.626C648.382 312.678 645.655 314.071 643.308 315.887C635.422 321.989 627.634 328.22 619.688 334.244C617.462 335.932 614.961 337.619 612.327 338.292C610.265 338.819 606.66 338.528 605.818 337.241C604.842 335.75 605.738 332.611 606.585 330.493C607.203 328.948 608.945 327.75 610.381 326.651C616.957 321.623 623.601 316.684 630.504 311.494Z" fill="#EBA450" fill-opacity="0.94"/>
<path d="M552.951 499.097C556.268 499.035 559.585 498.973 563.346 498.897C564.53 500.544 565.782 502.166 565.909 503.873C566.214 507.95 565.99 512.066 565.588 516.578C551.643 512.343 538.102 507.657 524.514 503.113C523.196 502.672 521.585 503.11 520.109 503.14C520.429 501.921 520.748 500.702 521.163 499.109C523.828 498.824 526.396 498.914 529.484 499.384C531.158 500.831 532.313 501.899 533.467 502.966C534.435 501.716 535.402 500.466 536.794 499.192C540.112 499.222 543.007 499.276 546.007 499.66C547.382 500.978 548.827 502.907 549.875 502.711C551.083 502.485 551.941 500.384 552.951 499.097Z" fill="#DCDCDB"/>
<path d="M556.993 550.742C552.662 556.675 538.823 558.352 532.161 553.37C526.901 549.436 522.7 544.54 522.547 537.178C534.313 541.482 545.653 546.112 556.993 550.742Z" fill="#DCDCDB"/>
<path d="M564.088 536.419C563.463 539.098 562.837 541.777 561.693 544.724C550.635 540.79 540.12 536.524 529.539 532.432C526.84 531.388 523.928 530.894 521.113 530.147C521.079 528.077 521.044 526.007 521.37 523.509C535.849 527.527 549.969 531.973 564.088 536.419Z" fill="#DCDCDB"/>
<path d="M519.992 503.435C521.584 503.11 523.196 502.672 524.513 503.112C538.101 507.656 551.642 512.342 565.557 517.051C568.873 519.031 570.468 521.099 565.975 523.887C550.577 518.948 535.858 513.885 521.139 508.821C520.718 507.124 520.297 505.427 519.992 503.435Z" fill="#A4938A"/>
<path d="M564.442 536.319C549.971 531.973 535.851 527.527 521.353 523.067C518.278 521.282 516.621 519.383 520.915 516.785C523.711 517.301 525.809 517.816 527.874 518.442C540.578 522.294 553.275 526.171 565.975 530.04C568.187 532.598 569 534.889 564.442 536.319Z" fill="#A4938A"/>
<path d="M565.976 529.614C553.275 526.171 540.578 522.294 527.874 518.442C525.809 517.816 523.711 517.301 521.22 516.617C520.889 514.233 520.967 511.969 521.092 509.263C535.859 513.885 550.578 518.948 565.674 524.053C566.026 525.792 566.001 527.49 565.976 529.614Z" fill="#DCDCDB"/>
<path d="M520.935 530.398C523.929 530.894 526.841 531.388 529.54 532.432C540.122 536.524 550.636 540.79 561.534 545.065C563.757 549.956 563.07 550.919 557.401 550.805C545.653 546.112 534.313 541.482 522.615 536.78C520.333 535.042 518.127 533.444 520.935 530.398Z" fill="#A4938A"/>
<path d="M615.839 776.8C614.067 778.311 612.293 780.397 610.261 780.688C601.179 781.989 593.033 785.357 585.324 790.202C583.88 791.11 581.6 790.685 579.705 790.874C580.478 789.131 580.763 786.673 582.102 785.759C591.727 779.187 602.152 774.692 614.585 774.999C615.267 775.528 615.492 776.038 615.839 776.8Z" fill="#AE6C51"/>
<path d="M689.346 1070.3C686.818 1067.38 686.948 1065.4 691.286 1064.71C699.565 1070.58 699.679 1080.05 701.805 1088.33C706.71 1107.45 703.502 1126.14 697.699 1144.7C692.9 1160.04 687.556 1175.44 685.15 1191.23C683.182 1204.14 684.601 1217.71 685.594 1230.9C686.736 1246.09 689.754 1261.15 690.676 1276.35C691.588 1291.38 686.769 1305.62 680.633 1319.14C672.058 1338.04 669.044 1358.16 665.975 1378.36C662.987 1398.03 659.982 1417.71 656.295 1437.25C648.424 1478.96 640.142 1520.6 631.962 1562.25C626.882 1588.12 621.699 1613.97 616.526 1639.83C614.119 1651.86 611.73 1663.89 609.043 1675.86C608.695 1677.41 606.606 1678.56 605.324 1679.9C604.782 1678.13 603.501 1676.22 603.809 1674.62C609.8 1643.34 615.883 1612.09 622.141 1580.87C628.138 1550.94 634.656 1521.12 640.391 1491.15C646.311 1460.22 651.422 1429.12 657.153 1398.15C661.491 1374.71 662.473 1350.6 670.93 1327.96C674.765 1317.69 678.673 1307.44 682.177 1297.06C686.501 1284.25 685.143 1271.12 683.538 1258.06C681.819 1244.08 679.486 1230.16 678.151 1216.14C676.189 1195.55 681.058 1175.89 687.352 1156.47C690.928 1145.43 694.252 1134.28 697.018 1123.02C700.435 1109.11 698.489 1095.35 694.106 1081.89C692.84 1078 691.153 1074.25 689.346 1070.3Z" fill="#30567C"/>
<path d="M873.542 1733.91C877.396 1722.42 887.139 1717.38 897.418 1721.26C904.524 1723.94 908.3 1729.34 907.957 1736.99C907.618 1744.58 904.026 1750.7 898.078 1755.19C893.757 1758.46 885.107 1756.58 879.232 1751.72C873.656 1747.11 872.076 1741.2 873.542 1733.91Z" fill="#376390"/>
<path d="M883.029 1484.87C883.526 1487.91 884.297 1490.51 884.339 1493.13C884.36 1494.4 883.016 1495.69 882.29 1496.97C881.183 1496.02 879.344 1495.23 879.086 1494.08C877.051 1485.02 875.495 1475.85 873.461 1466.79C866.23 1434.59 854.749 1403.77 843.228 1372.93C838.719 1360.86 836.103 1348.07 832.872 1335.55C832.549 1334.3 833.951 1332.6 834.553 1331.11C835.764 1332.16 837.83 1333.05 838.063 1334.29C844.864 1370.31 863.012 1402.63 871.838 1437.98C875.697 1453.43 879.29 1468.95 883.029 1484.87Z" fill="#2F557B"/>
<path d="M862.506 1544.95C864.585 1538.29 868.754 1534.13 875.183 1533.1C882.581 1531.93 889.706 1532.98 894.206 1539.93C898.357 1546.34 897.038 1553.02 893.724 1559.29C889.288 1567.69 884.065 1570.4 877.033 1568.49C866.771 1565.7 861.926 1560.05 861.947 1550.79C861.951 1548.97 862.208 1547.15 862.506 1544.95Z" fill="#376390"/>
<path d="M540.156 1177.86C555.091 1196.13 569.689 1214.22 584.571 1232.07C589.776 1238.31 595.681 1243.97 601.264 1249.9C601.72 1250.38 602.462 1250.84 602.537 1251.39C602.739 1252.84 602.649 1254.33 602.676 1255.81C601.258 1255.56 599.312 1255.82 598.503 1254.99C589.95 1246.15 581.121 1237.52 573.257 1228.09C558.798 1210.75 544.934 1192.92 530.832 1175.28C530.11 1174.38 529.024 1173.44 528.939 1172.44C528.834 1171.22 529.278 1169.57 530.119 1168.79C530.644 1168.31 532.792 1168.7 533.434 1169.4C535.777 1171.97 537.793 1174.83 540.156 1177.86Z" fill="#2F557B"/>
<path d="M529.657 1311.44C545.162 1314.81 560.303 1315.28 575.55 1312.45C576.846 1312.21 578.452 1313.64 579.914 1314.29C578.744 1315.53 577.752 1317.59 576.375 1317.89C559.693 1321.54 543.062 1320.66 526.552 1316.65C522.204 1315.6 517.845 1314.47 513.673 1312.89C512.499 1312.45 511.97 1310.3 511.145 1308.93C512.528 1308.5 514.029 1307.49 515.274 1307.75C519.981 1308.71 524.605 1310.07 529.657 1311.44Z" fill="#30567C"/>
<path d="M1504.77 1744.77C1520.08 1729.08 1533.54 1712.47 1543.2 1693.01C1543.87 1691.65 1546.08 1691.05 1547.58 1690.1C1547.76 1691.98 1548.79 1694.42 1547.99 1695.67C1539.82 1708.37 1532.31 1721.67 1522.73 1733.23C1512.58 1745.47 1500.38 1756.01 1489.05 1767.27C1488.23 1768.08 1487.31 1769.02 1486.27 1769.32C1484.94 1769.7 1483.43 1769.5 1482 1769.54C1482.25 1767.98 1481.94 1765.83 1482.85 1764.95C1487.03 1760.9 1491.6 1757.28 1495.92 1753.38C1498.88 1750.7 1501.66 1747.81 1504.77 1744.77Z" fill="#30567C"/>
<path d="M1439.53 1023.32C1443.52 1026.1 1440.67 1028.58 1439.4 1030.72C1433.12 1041.26 1426.54 1051.61 1420.27 1062.16C1417.48 1066.85 1415.36 1071.95 1412.54 1076.62C1411.67 1078.07 1409.49 1078.71 1407.9 1079.72C1407.79 1077.82 1406.91 1075.49 1407.7 1074.08C1414.36 1062.05 1421.32 1050.19 1428.22 1038.29C1430.63 1034.14 1433 1029.94 1435.62 1025.92C1436.4 1024.73 1437.99 1024.07 1439.53 1023.32Z" fill="#2F557B"/>
<path d="M1052.32 606.457C1055.33 606.689 1058.02 606.774 1060.55 607.447C1072.78 610.697 1078.66 621.878 1073.57 633.469C1064.78 653.459 1040.97 674.678 1013.29 672.853C988.768 671.236 969.791 659.296 956.184 639.279C953.184 634.865 952.359 628.377 952.177 622.79C951.934 615.336 960.153 609.242 969.664 609.109C975.787 609.023 981.918 609.892 988.051 609.978C999.645 610.139 1011.26 610.495 1022.83 609.919C1032.56 609.434 1042.22 607.74 1052.32 606.457Z" fill="#FFFEFE"/>
<path d="M1084.55 402.506C1097.54 398.665 1109.96 398.635 1121.64 405.269C1125.45 407.437 1129.12 410.402 1131.81 413.83C1133.43 415.911 1134.25 420.149 1133.21 422.368C1132.16 424.592 1128.42 426.538 1125.72 426.752C1122.07 427.042 1117.97 426.243 1114.61 424.713C1102.26 419.08 1090.03 420.523 1077.69 424.387C1074.53 425.377 1071.36 426.986 1068.17 427.038C1065.76 427.077 1062.57 425.67 1061.14 423.816C1060.09 422.466 1060.61 418.907 1061.7 417.075C1066.71 408.588 1075.27 405.275 1084.55 402.506Z" fill="#22264B"/>
<path d="M929.568 404.391C933.96 407.901 938.701 410.675 941.937 414.669C946.273 420.021 942.742 426.753 935.792 426.87C932.073 426.932 928.021 426.347 924.656 424.849C911.801 419.126 899.126 420.353 886.334 424.729C883.668 425.641 880.928 427.013 878.238 426.978C875.717 426.946 872.173 426.01 871.005 424.217C869.87 422.475 870.368 418.642 871.607 416.62C873.455 413.602 876.166 410.606 879.236 408.927C895.145 400.224 911.67 396.126 929.568 404.391Z" fill="#22264B"/>
<path d="M904.397 520.04C892.143 517.217 885.75 509.721 885.995 498.944C886.224 488.878 894.964 479.072 905.428 477.141C915.041 475.367 925.113 483.302 926.803 494.316C927.999 502.11 925.821 509.268 920.885 515.302C916.771 520.332 910.796 520.506 904.397 520.04Z" fill="#2D1C11"/>
<path d="M1100.17 477.318C1116.33 484.051 1119.4 503.803 1107.2 516.443C1101.55 522.301 1088.58 521.457 1081.22 515.653C1073.59 509.629 1071.27 499.212 1075.64 490.483C1080.18 481.401 1089.5 476.268 1100.17 477.318Z" fill="#2D1C11"/>
<path d="M1011.11 565.122C1025.82 569.555 1035.35 561.45 1031.92 546.956C1029.33 536.015 1025.02 525.485 1021.54 514.75C1016.53 499.27 1016.31 483.421 1018.34 467.478C1018.53 465.94 1020.51 464.628 1021.65 463.211C1022.44 464.805 1023.87 466.386 1023.9 467.994C1024.08 477.585 1023 487.296 1024.16 496.743C1025.3 506 1028.51 515.016 1031 524.087C1033.24 532.229 1036.3 540.185 1037.99 548.429C1041.57 565.828 1026.41 574.58 1013.31 571.581C1007.27 570.197 1001.83 565.959 996.338 562.656C995.433 562.112 995.641 559.714 995.334 558.173C996.915 558.318 998.721 558.02 1000.03 558.69C1003.71 560.571 1007.19 562.851 1011.11 565.122Z" fill="#AE6C51"/>
<path d="M1253.85 538.458C1242.54 544.061 1239.55 550.796 1242.7 562.918C1245.06 571.974 1243.21 576.915 1235.66 582.815C1232.3 585.44 1229.32 588.544 1226 591.216C1225.03 591.99 1223.47 592.021 1222.19 592.392C1221.88 591.054 1220.89 589.273 1221.41 588.461C1222.99 585.99 1225.05 583.787 1227.14 581.69C1228.28 580.536 1229.88 579.83 1231.24 578.879C1238.03 574.134 1239.44 571.084 1236.58 563.278C1232.16 551.221 1240.67 535.635 1252.98 532.586C1258.4 531.243 1263.39 532.452 1265.81 536.543C1266.43 537.596 1265.77 539.405 1265.7 540.866C1264.41 540.699 1263.09 540.643 1261.83 540.34C1259.27 539.727 1256.75 538.981 1253.85 538.458Z" fill="#AE6C51"/>
<path d="M771.379 588.421C769.759 588.455 768.089 588.635 767.126 587.895C763.6 585.184 760.406 582.043 756.908 579.291C749.912 573.786 748.315 568.631 751.055 559.467C753.856 550.101 749.838 541.097 741.078 537.163C738.174 535.858 735.522 535.454 732.88 538.148C732.007 539.038 729.861 538.68 728.297 538.892C728.527 537.163 728.146 534.529 729.106 533.882C731.604 532.198 734.818 530.176 737.518 530.46C744.514 531.196 750.733 534.565 754.122 540.964C757.398 547.15 759.229 553.753 756.831 561.084C754.193 569.15 755.289 571.023 762.281 575.993C765.105 578.001 767.85 580.253 770.134 582.834C771.235 584.078 771.184 586.342 771.379 588.421Z" fill="#AE6C51"/>
<path d="M918.953 754.853C918.878 754.851 918.754 754.702 918.631 754.554C918.722 754.604 918.814 754.655 918.953 754.853Z" fill="#E39476"/>
<path d="M1072.9 211.889C1073.37 210.058 1073.4 208.362 1074.22 207.239C1075.15 205.963 1076.78 205.201 1078.11 204.215C1078.6 205.758 1079.83 207.524 1079.45 208.809C1076.66 218.189 1074.01 227.658 1070.43 236.748C1064.11 252.766 1056.11 267.895 1043.45 279.99C1042.26 281.131 1040.03 281.185 1038.28 281.743C1038.6 280.03 1038.33 277.748 1039.34 276.687C1056.72 258.424 1065.77 235.882 1072.9 211.889Z" fill="#020204"/>
<path d="M937.267 207.766C948.411 220.418 954.623 235.155 958.649 250.909C959.013 252.334 957.559 254.223 956.949 255.897C955.633 254.583 953.521 253.475 953.122 251.926C948.512 234.023 940.79 217.854 926.765 205.429C921.978 201.187 916.263 197.946 910.775 194.566C908.752 193.32 905.918 192.762 907.383 189.738C908.967 186.47 911.364 188.816 913.327 189.656C922.682 193.659 930.22 200.101 937.267 207.766Z" fill="#020204"/>
<path d="M863.852 253.73C861.769 253.878 859.53 254.201 857.896 253.355C846.997 247.714 835.463 244.29 823.286 243.179C820.21 242.898 817.014 243.991 813.926 243.757C812.247 243.629 810.68 242.037 809.062 241.105C810.449 240.071 811.76 238.265 813.233 238.122C829.58 236.529 844.904 240.301 859.307 247.869C861.281 248.906 862.439 251.495 863.852 253.73Z" fill="#020204"/>
<path d="M1098.33 272.348C1106.86 266.824 1115.1 261.538 1123.22 256.082C1124.97 254.907 1126.71 253.135 1127.99 255.823C1128.54 256.99 1127.69 259.722 1126.58 260.657C1115.79 269.664 1103.99 277.077 1090.71 281.867C1088.15 282.791 1084.79 286.255 1082.86 281.512C1082.57 280.8 1086.6 277.974 1088.93 276.635C1091.79 274.986 1094.96 273.871 1098.33 272.348Z" fill="#020204"/>
<path d="M521.456 451.119C518.116 449.47 514.776 447.822 511.438 446.17C507.219 444.083 503.18 441.418 498.74 440.049C493.183 438.335 490.673 436.433 491.247 430.707C491.934 423.852 490.132 418.103 486.503 412.345C480.662 403.077 482.475 394.014 491.263 387.278C495.656 383.911 498.338 380.34 498.252 374.383C498.214 371.714 500.377 368.462 502.468 366.427C506.894 362.118 512.574 360.412 518.825 360.023C523.396 359.739 528.062 358.969 532.412 357.567C542.18 354.421 551.091 355.105 559.131 361.892C564.287 366.245 569.784 369.496 576.753 370.601C579.327 371.009 581.92 374.395 583.494 377.026C584.759 379.141 584.318 382.213 584.956 384.78C586.459 390.828 587.426 397.153 589.93 402.779C594.639 413.361 593.844 419.062 584.511 426.249C578.498 430.88 573.327 435.963 569.705 442.838C568.161 445.769 564.451 447.558 561.338 449.489C562.642 442.362 564.158 435.56 566.171 428.909C566.57 427.592 568.749 426.429 570.336 425.939C573.307 425.022 577.094 425.51 579.339 423.818C581.777 421.981 583.924 418.42 584.18 415.437C584.397 412.908 582.38 409.234 580.201 407.677C577.022 405.406 573.534 407.514 570.784 409.926C569.541 411.016 568.391 412.243 567.356 413.533C562.105 420.074 561.672 420.258 554.079 416.548C551.866 415.467 549.889 413.881 547.863 412.445C545.312 410.637 544.517 408.671 545.677 405.268C547.959 398.575 548.712 391.509 545.411 384.897C544.464 383 541.863 380.864 539.96 380.805C538.004 380.744 535.347 382.673 534.141 384.491C532.767 386.562 531.87 389.568 532.163 392C532.75 396.87 534.39 401.605 535.37 406.442C535.644 407.798 535.674 410.041 534.885 410.632C531.083 413.476 527.046 416.037 522.926 418.41C520.414 419.856 518.568 419.001 516.775 416.414C514.64 413.334 511.979 410.351 508.914 408.243C504.013 404.873 498.764 407.645 497.951 413.512C496.893 421.145 501.284 425.738 510.387 425.728C514.037 425.724 515.936 426.806 516.704 430.285C518.24 437.24 519.867 444.175 521.456 451.119Z" fill="#FEFDFC"/>
<path d="M521.641 451.442C519.867 444.176 518.24 437.24 516.704 430.285C515.936 426.806 514.038 425.724 510.388 425.728C501.284 425.738 496.894 421.145 497.952 413.512C498.764 407.645 504.014 404.873 508.915 408.243C511.979 410.351 514.64 413.334 516.776 416.414C518.569 419.001 520.415 419.856 522.926 418.41C527.046 416.038 531.084 413.476 534.885 410.632C535.675 410.041 535.645 407.798 535.37 406.442C534.391 401.606 532.751 396.87 532.164 392C531.871 389.568 532.767 386.563 534.142 384.491C535.347 382.673 538.005 380.744 539.96 380.805C541.864 380.864 544.465 383 545.412 384.898C548.712 391.509 547.96 398.575 545.678 405.268C544.517 408.671 545.312 410.637 547.863 412.445C549.89 413.882 551.866 415.467 554.079 416.548C561.672 420.258 562.106 420.074 567.356 413.533C568.392 412.243 569.542 411.016 570.785 409.926C573.534 407.515 577.023 405.406 580.202 407.677C582.381 409.234 584.398 412.908 584.181 415.437C583.925 418.42 581.777 421.981 579.34 423.818C577.094 425.51 573.307 425.022 570.336 425.94C568.749 426.43 566.57 427.592 566.172 428.909C564.159 435.56 562.643 442.362 560.989 449.518C558.32 466.016 555.614 482.107 552.929 498.648C551.94 500.384 551.083 502.485 549.874 502.711C548.827 502.907 547.382 500.978 546.097 499.218C546.943 493.426 547.837 488.41 548.659 483.381C550.462 472.352 552.229 461.318 554.135 449.887C556.115 441.475 557.97 433.461 559.615 426.353C552.877 422.591 546.449 419.002 540.393 415.621C534.659 419.066 528.612 422.7 522.547 426.344C524.267 433.808 526.164 442.038 528.042 450.671C530.804 467.122 533.587 483.169 536.37 499.216C535.402 500.466 534.435 501.716 533.467 502.966C532.312 501.899 531.158 500.831 529.917 499.395C527.163 483.272 524.494 467.518 521.641 451.442ZM538.14 391.75C538.589 394.532 539.039 397.314 539.488 400.095C540.056 400.013 540.624 399.931 541.192 399.849C540.955 395.956 540.717 392.062 540.48 388.169C540.029 388.166 539.579 388.163 539.128 388.16C538.842 389.087 538.557 390.013 538.14 391.75ZM572.857 419.484C576.248 418.905 579.393 418.143 576.877 411.83C574.917 415.061 573.557 417.305 572.857 419.484ZM508.061 415.404C506.953 414.688 505.845 413.971 504.343 413C503.293 419.267 507.02 419.068 511.262 419.569C510.05 417.931 509.3 416.917 508.061 415.404Z" fill="#AB471C"/>
<path d="M536.794 499.191C533.588 483.169 530.805 467.122 528.475 450.679C537.288 450.284 545.649 450.285 554.011 450.285C552.229 461.318 550.462 472.352 548.659 483.381C547.837 488.41 546.943 493.426 545.992 498.89C543.008 499.276 540.113 499.222 536.794 499.191Z" fill="#FF8A00"/>
<path d="M554.135 449.887C545.649 450.285 537.288 450.284 528.494 450.276C526.164 442.038 524.267 433.808 522.547 426.344C528.612 422.7 534.659 419.066 540.393 415.621C546.449 419.002 552.876 422.591 559.615 426.353C557.969 433.461 556.114 441.475 554.135 449.887Z" fill="#FEFDFC"/>
<path d="M538.205 391.345C538.557 390.013 538.842 389.087 539.128 388.16C539.579 388.163 540.029 388.166 540.48 388.169C540.717 392.062 540.955 395.956 541.192 399.849C540.624 399.931 540.056 400.013 539.488 400.095C539.039 397.314 538.589 394.532 538.205 391.345Z" fill="#E9EBED"/>
<path d="M572.527 419.517C573.558 417.305 574.919 415.061 576.878 411.83C579.394 418.143 576.249 418.905 572.527 419.517Z" fill="#E9EBED"/>
<path d="M508.306 415.654C509.3 416.917 510.05 417.931 511.262 419.569C507.021 419.068 503.293 419.267 504.343 413C505.845 413.971 506.953 414.688 508.306 415.654Z" fill="#E9EBED"/>
</g>
<defs>
<clipPath id="clip0_378_2">
<rect width="2000" height="2000" fill="white"/>
</clipPath>
</defs>
</svg>
