<svg xmlns="http://www.w3.org/2000/svg" xmlns:xlink="http://www.w3.org/1999/xlink" width="1080" zoomAndPan="magnify" viewBox="0 0 810 809.999993" height="1080" preserveAspectRatio="xMidYMid meet" version="1.0"><defs><clipPath id="fbe5622c3a"><path d="M 0 596 L 313 596 L 313 791.796875 L 0 791.796875 Z M 0 596 " clip-rule="nonzero"/></clipPath><clipPath id="de03315204"><path d="M 0 595.308594 L 314 595.308594 L 314 791.796875 L 0 791.796875 Z M 0 595.308594 " clip-rule="nonzero"/></clipPath><clipPath id="d8bdf1a023"><path d="M 62.113281 736 L 149 736 L 149 791.796875 L 62.113281 791.796875 Z M 62.113281 736 " clip-rule="nonzero"/></clipPath></defs><g clip-path="url(#fbe5622c3a)"><path fill="#f9aa78" d="M 138.839844 791.796875 L 182.359375 761.390625 L 204.386719 766.800781 L 296.933594 716.394531 L 312.757812 705.199219 L 302.195312 683.1875 L 311.949219 666.664062 L 260.835938 596.96875 L 203.265625 618.371094 L 154.03125 639.160156 L 134.242188 676.476562 L 0 760.800781 L 0 791.796875 L 138.839844 791.796875 " fill-opacity="1" fill-rule="nonzero"/></g><g clip-path="url(#de03315204)"><path fill="#e28f5d" d="M 135.039062 676.902344 L 154.675781 639.867188 L 203.613281 619.207031 L 260.511719 598.046875 L 310.871094 666.707031 L 301.171875 683.144531 L 311.613281 704.902344 L 296.417969 715.65625 L 204.257812 765.84375 L 182.15625 760.421875 L 181.804688 760.6875 L 137.269531 791.796875 L 140.421875 791.796875 L 182.558594 762.371094 L 204.507812 767.761719 L 297.367188 717.191406 L 313.898438 705.488281 L 303.222656 683.226562 L 313.023438 666.609375 L 261.164062 595.890625 L 202.953125 617.523438 L 153.386719 638.464844 L 133.574219 675.816406 L 0 759.730469 L 0 761.871094 L 134.917969 677.128906 L 135.039062 676.902344 " fill-opacity="1" fill-rule="nonzero"/></g><g clip-path="url(#d8bdf1a023)"><path fill="#e28f5d" d="M 62.832031 791.796875 L 148.703125 736.445312 L 62.515625 791.796875 Z M 62.832031 791.796875 " fill-opacity="1" fill-rule="nonzero"/></g><path fill="#181418" d="M 293.832031 692.3125 C 293.832031 692.3125 297.988281 702.210938 303.191406 714.582031 C 314.925781 742.5 252.929688 764 242.828125 739.972656 C 238.371094 729.363281 233.464844 717.707031 233.464844 717.707031 L 293.832031 692.3125 " fill-opacity="1" fill-rule="nonzero"/><path fill="#29242c" d="M 247.894531 570.171875 C 231.976562 611.691406 300.113281 684.25 305.3125 696.613281 C 317.050781 724.539062 237.90625 753.253906 227.800781 729.21875 C 223.347656 718.617188 152.992188 592.25 152.992188 592.25 C 152.992188 592.25 263.816406 528.640625 247.894531 570.171875 " fill-opacity="1" fill-rule="nonzero"/><path fill="#d5d19d" d="M 508.988281 532.425781 C 508.988281 532.425781 322.617188 532.460938 216.65625 577.035156 C 110.691406 621.601562 36.28125 466.460938 150.050781 418.605469 C 263.816406 370.753906 388.75 246.40625 388.75 246.40625 L 508.988281 532.425781 " fill-opacity="1" fill-rule="nonzero"/><path fill="#7bd3db" d="M 399.855469 272.824219 L 388.75 246.40625 L 399.855469 272.824219 " fill-opacity="1" fill-rule="nonzero"/><path fill="#e9e6c6" d="M 178.621094 486.570312 L 150.050781 418.605469 C 263.816406 370.753906 388.75 246.40625 388.75 246.40625 L 399.855469 272.824219 C 396.195312 273.011719 335.511719 308.386719 320.546875 318.34375 C 295.730469 334.847656 272.640625 353.941406 252.199219 375.640625 C 226.800781 402.59375 195.605469 462.207031 178.621094 486.570312 " fill-opacity="1" fill-rule="nonzero"/><path fill="#319ca2" d="M 508.988281 532.425781 L 420.152344 321.113281 C 420.152344 321.113281 420.152344 321.113281 420.152344 321.105469 L 508.988281 532.425781 " fill-opacity="1" fill-rule="nonzero"/><path fill="#b1ad81" d="M 216.648438 577.035156 C 216.65625 577.035156 216.65625 577.035156 216.65625 577.035156 M 216.65625 577.035156 L 192.375 519.289062 C 195.4375 521.222656 198.601562 522.996094 201.875 524.550781 C 213.773438 530.179688 227.976562 532.21875 241.105469 532.21875 C 241.652344 532.21875 242.207031 532.210938 242.746094 532.210938 C 270.972656 531.839844 297.570312 521.546875 320.972656 506.207031 C 358.296875 481.738281 388.65625 443.90625 403.125 401.625 C 411.261719 377.859375 413.269531 353.25 418.371094 328.859375 C 418.902344 326.339844 419.507812 323.746094 420.152344 321.113281 L 508.988281 532.425781 C 508.988281 532.425781 322.617188 532.460938 216.65625 577.035156 " fill-opacity="1" fill-rule="nonzero"/><path fill="#29242c" d="M 108.714844 558.75 C 108.714844 558.75 98.820312 562.90625 86.453125 568.109375 C 58.535156 579.859375 41.324219 528.035156 65.351562 517.921875 C 75.949219 513.472656 87.613281 508.554688 87.613281 508.554688 L 108.714844 558.75 " fill-opacity="1" fill-rule="nonzero"/><path fill="#9f9375" d="M 426.992188 322.457031 C 426.992188 322.457031 436.886719 318.292969 449.246094 313.089844 C 477.164062 301.347656 520.550781 415.433594 496.53125 425.535156 C 485.921875 429.996094 474.261719 434.902344 474.261719 434.902344 L 426.992188 322.457031 " fill-opacity="1" fill-rule="nonzero"/><path fill="#319ca2" d="M 496.558594 425.523438 C 496.566406 425.523438 496.566406 425.523438 496.574219 425.515625 C 496.566406 425.523438 496.566406 425.523438 496.558594 425.523438 M 496.597656 425.507812 C 496.605469 425.507812 496.613281 425.507812 496.613281 425.5 C 496.613281 425.507812 496.605469 425.507812 496.597656 425.507812 M 496.636719 425.492188 C 496.644531 425.492188 496.644531 425.484375 496.652344 425.484375 C 496.644531 425.484375 496.644531 425.492188 496.636719 425.492188 M 496.671875 425.476562 C 496.671875 425.476562 496.679688 425.46875 496.6875 425.46875 C 496.679688 425.46875 496.671875 425.476562 496.671875 425.476562 M 496.703125 425.460938 C 496.710938 425.460938 496.71875 425.453125 496.726562 425.453125 C 496.71875 425.453125 496.710938 425.460938 496.703125 425.460938 M 496.742188 425.445312 C 496.757812 425.4375 496.765625 425.4375 496.78125 425.429688 C 496.765625 425.429688 496.75 425.4375 496.742188 425.445312 M 496.796875 425.421875 C 496.800781 425.414062 496.800781 425.414062 496.808594 425.40625 C 496.808594 425.414062 496.800781 425.414062 496.796875 425.421875 M 496.832031 425.402344 C 496.832031 425.402344 496.839844 425.402344 496.847656 425.394531 C 496.839844 425.402344 496.832031 425.402344 496.832031 425.402344 M 496.863281 425.386719 C 496.871094 425.386719 496.878906 425.378906 496.886719 425.378906 C 496.878906 425.378906 496.871094 425.386719 496.863281 425.386719 M 496.902344 425.371094 C 496.902344 425.371094 496.917969 425.363281 496.917969 425.363281 C 496.917969 425.363281 496.910156 425.371094 496.902344 425.371094 M 496.929688 425.355469 C 496.945312 425.347656 496.960938 425.339844 496.976562 425.332031 C 496.960938 425.339844 496.945312 425.347656 496.929688 425.355469 M 496.984375 425.324219 C 496.992188 425.324219 497 425.324219 497.007812 425.316406 C 497 425.324219 496.992188 425.324219 496.984375 425.324219 M 497.023438 425.308594 C 497.03125 425.308594 497.039062 425.300781 497.039062 425.300781 C 497.03125 425.300781 497.03125 425.308594 497.023438 425.308594 M 497.058594 425.292969 C 497.058594 425.285156 497.066406 425.285156 497.074219 425.285156 C 497.066406 425.285156 497.058594 425.285156 497.058594 425.292969 M 497.089844 425.277344 C 497.097656 425.273438 497.105469 425.273438 497.113281 425.265625 C 497.105469 425.273438 497.097656 425.273438 497.089844 425.277344 M 497.128906 425.257812 C 497.136719 425.257812 497.136719 425.25 497.144531 425.25 C 497.136719 425.25 497.136719 425.257812 497.128906 425.257812 M 497.183594 425.234375 C 497.183594 425.226562 497.183594 425.226562 497.183594 425.226562 C 497.183594 425.226562 497.183594 425.226562 497.183594 425.234375 M 497.210938 425.210938 C 497.210938 425.210938 497.21875 425.210938 497.21875 425.203125 C 497.21875 425.210938 497.21875 425.210938 497.210938 425.210938 M 497.25 425.195312 C 497.25 425.1875 497.257812 425.1875 497.257812 425.1875 C 497.257812 425.1875 497.25 425.1875 497.25 425.195312 M 497.289062 425.171875 C 497.289062 425.171875 497.289062 425.164062 497.296875 425.164062 C 497.289062 425.171875 497.289062 425.171875 497.289062 425.171875 " fill-opacity="1" fill-rule="nonzero"/><path fill="#847a60" d="M 474.261719 434.902344 L 465.222656 413.394531 L 502.664062 397.640625 C 504.605469 411.148438 503.359375 421.804688 497.324219 425.148438 C 497.308594 425.15625 497.304688 425.164062 497.296875 425.164062 C 497.289062 425.164062 497.289062 425.171875 497.289062 425.171875 C 497.273438 425.179688 497.265625 425.179688 497.257812 425.1875 C 497.257812 425.1875 497.25 425.1875 497.25 425.195312 C 497.242188 425.195312 497.226562 425.203125 497.21875 425.203125 C 497.21875 425.210938 497.210938 425.210938 497.210938 425.210938 C 497.203125 425.21875 497.1875 425.226562 497.183594 425.226562 C 497.183594 425.226562 497.183594 425.226562 497.183594 425.234375 C 497.167969 425.234375 497.160156 425.242188 497.144531 425.25 C 497.136719 425.25 497.136719 425.257812 497.128906 425.257812 C 497.121094 425.265625 497.113281 425.265625 497.113281 425.265625 C 497.105469 425.273438 497.097656 425.273438 497.089844 425.277344 C 497.089844 425.277344 497.082031 425.277344 497.074219 425.285156 C 497.066406 425.285156 497.058594 425.285156 497.058594 425.292969 C 497.054688 425.292969 497.046875 425.300781 497.039062 425.300781 C 497.039062 425.300781 497.03125 425.308594 497.023438 425.308594 C 497.015625 425.308594 497.015625 425.316406 497.007812 425.316406 C 497 425.324219 496.992188 425.324219 496.984375 425.324219 C 496.984375 425.332031 496.976562 425.332031 496.976562 425.332031 C 496.960938 425.339844 496.945312 425.347656 496.929688 425.355469 C 496.929688 425.355469 496.925781 425.363281 496.917969 425.363281 C 496.917969 425.363281 496.902344 425.371094 496.902344 425.371094 C 496.894531 425.371094 496.886719 425.378906 496.886719 425.378906 C 496.878906 425.378906 496.871094 425.386719 496.863281 425.386719 C 496.855469 425.394531 496.855469 425.394531 496.847656 425.394531 C 496.839844 425.402344 496.832031 425.402344 496.832031 425.402344 C 496.824219 425.40625 496.816406 425.40625 496.808594 425.40625 C 496.800781 425.414062 496.800781 425.414062 496.796875 425.421875 C 496.789062 425.421875 496.78125 425.421875 496.78125 425.429688 C 496.765625 425.4375 496.757812 425.4375 496.742188 425.445312 C 496.734375 425.445312 496.726562 425.453125 496.726562 425.453125 C 496.71875 425.453125 496.710938 425.460938 496.703125 425.460938 C 496.703125 425.460938 496.695312 425.46875 496.6875 425.46875 C 496.679688 425.46875 496.671875 425.476562 496.671875 425.476562 C 496.667969 425.476562 496.660156 425.484375 496.652344 425.484375 C 496.644531 425.484375 496.644531 425.492188 496.636719 425.492188 C 496.628906 425.492188 496.621094 425.5 496.613281 425.5 C 496.613281 425.507812 496.605469 425.507812 496.597656 425.507812 C 496.589844 425.515625 496.582031 425.515625 496.574219 425.515625 C 496.566406 425.523438 496.566406 425.523438 496.558594 425.523438 C 496.550781 425.53125 496.539062 425.535156 496.53125 425.535156 C 485.921875 429.996094 474.261719 434.902344 474.261719 434.902344 " fill-opacity="1" fill-rule="nonzero"/><path fill="#c0253b" d="M 216.65625 577.035156 C 216.65625 577.035156 191.527344 587.601562 160.113281 600.8125 C 89.226562 630.636719 32.488281 468.054688 93.511719 442.390625 C 120.4375 431.058594 150.050781 418.605469 150.050781 418.605469 L 216.65625 577.035156 " fill-opacity="1" fill-rule="nonzero"/><path fill="#319ca2" d="M 148.953125 603.992188 C 151.992188 603.535156 155.070312 602.742188 158.179688 601.582031 C 155.070312 602.742188 151.992188 603.535156 148.953125 603.992188 " fill-opacity="1" fill-rule="nonzero"/><path fill="#231e24" d="M 158.179688 601.582031 C 158.484375 601.464844 158.78125 601.351562 159.074219 601.238281 C 158.78125 601.351562 158.484375 601.464844 158.179688 601.582031 " fill-opacity="1" fill-rule="nonzero"/><path fill="#9f1e30" d="M 142.726562 604.453125 C 118.320312 604.445312 96.878906 583.074219 83.207031 555.703125 L 188.980469 511.210938 L 216.65625 577.035156 C 216.65625 577.035156 191.527344 587.601562 160.113281 600.8125 C 159.773438 600.957031 159.425781 601.101562 159.074219 601.238281 C 158.78125 601.351562 158.484375 601.464844 158.179688 601.582031 C 155.070312 602.742188 151.992188 603.535156 148.953125 603.992188 C 146.851562 604.304688 144.78125 604.453125 142.726562 604.453125 " fill-opacity="1" fill-rule="nonzero"/><path fill="#e7e4b9" d="M 503.203125 534.261719 C 505.734375 540.28125 512.664062 543.117188 518.691406 540.578125 C 524.710938 538.050781 527.539062 531.113281 525.007812 525.082031 L 402.851562 234.507812 C 400.320312 228.484375 393.382812 225.648438 387.359375 228.1875 C 381.339844 230.722656 378.511719 237.65625 381.039062 243.675781 L 503.203125 534.261719 " fill-opacity="1" fill-rule="nonzero"/><path fill="#181418" d="M 264.535156 649.386719 C 268.660156 655.75 266.832031 664.25 260.472656 668.375 C 254.101562 672.503906 245.601562 670.675781 241.484375 664.304688 L 222.871094 635.550781 C 218.746094 629.1875 220.566406 620.679688 226.9375 616.558594 C 233.296875 612.441406 241.804688 614.261719 245.929688 620.625 L 264.535156 649.386719 " fill-opacity="1" fill-rule="nonzero"/><path fill="#c0253b" d="M 257.691406 647.109375 C 260.449219 651.378906 259.230469 657.082031 254.960938 659.851562 C 250.683594 662.621094 244.980469 661.398438 242.214844 657.128906 L 229.726562 637.828125 C 226.957031 633.546875 228.179688 627.84375 232.457031 625.078125 C 236.726562 622.308594 242.425781 623.539062 245.195312 627.808594 L 257.691406 647.109375 " fill-opacity="1" fill-rule="nonzero"/><path fill="#151114" d="M 249.957031 661.339844 C 249.957031 661.339844 249.949219 661.339844 249.949219 661.339844 C 249.949219 661.339844 249.957031 661.339844 249.957031 661.339844 M 249.964844 661.339844 C 251.644531 661.339844 253.34375 660.875 254.875 659.914062 C 253.34375 660.875 251.644531 661.339844 249.964844 661.339844 M 242.238281 657.167969 C 242.230469 657.152344 242.222656 657.144531 242.214844 657.128906 C 242.222656 657.144531 242.230469 657.152344 242.238281 657.167969 " fill-opacity="1" fill-rule="nonzero"/><path fill="#9f1e30" d="M 249.957031 661.339844 C 249.957031 661.339844 249.949219 661.339844 249.949219 661.339844 C 246.945312 661.332031 244.003906 659.867188 242.238281 657.167969 C 242.230469 657.152344 242.222656 657.144531 242.214844 657.128906 L 236.34375 648.066406 C 242.425781 645.007812 247.164062 640.867188 250.359375 635.785156 L 257.691406 647.109375 C 258.691406 648.65625 259.167969 650.402344 259.167969 652.121094 C 259.160156 655.140625 257.683594 658.09375 254.960938 659.851562 C 254.929688 659.875 254.898438 659.890625 254.875 659.914062 C 253.34375 660.875 251.644531 661.339844 249.964844 661.339844 C 249.957031 661.339844 249.957031 661.339844 249.957031 661.339844 " fill-opacity="1" fill-rule="nonzero"/><path fill="#f9aa78" d="M 223.730469 679.949219 C 208.441406 688.042969 194.066406 660.035156 205.675781 653.085938 C 225.578125 641.15625 255.363281 621.15625 278.410156 607.988281 C 295.335938 598.332031 316.503906 629.082031 296.898438 640.351562 C 271.839844 654.746094 237.613281 672.625 223.730469 679.949219 " fill-opacity="1" fill-rule="nonzero"/><path fill="#e28f5d" d="M 223.320312 679.160156 L 229.011719 676.152344 C 244.859375 667.816406 274.355469 652.265625 296.449219 639.570312 C 300.25 637.386719 302.628906 634.367188 303.507812 630.597656 C 304.546875 626.125 303.335938 620.867188 300.195312 616.195312 C 295.617188 609.363281 286.980469 604.136719 278.851562 608.777344 C 265.332031 616.5 249.734375 626.410156 234.65625 636.011719 C 224.214844 642.648438 214.355469 648.929688 206.128906 653.851562 C 204.3125 654.953125 203.128906 656.660156 202.621094 658.933594 C 201.71875 662.960938 203.058594 668.300781 206.113281 672.851562 C 209.808594 678.351562 216.261719 682.886719 223.320312 679.160156 Z M 305.253906 631.007812 C 304.273438 635.21875 301.539062 638.722656 297.34375 641.132812 C 275.21875 653.84375 245.710938 669.394531 229.855469 677.75 L 224.152344 680.746094 C 216.039062 685.039062 208.5625 679.722656 204.621094 673.859375 C 201.292969 668.898438 199.859375 663.035156 200.859375 658.539062 C 201.476562 655.792969 202.976562 653.640625 205.207031 652.304688 C 213.410156 647.398438 223.257812 641.132812 233.691406 634.496094 C 248.789062 624.878906 264.398438 614.953125 277.964844 607.207031 C 286.683594 602.230469 296.496094 607.457031 301.6875 615.1875 C 305.109375 620.277344 306.40625 626.046875 305.253906 631.007812 " fill-opacity="1" fill-rule="nonzero"/><path fill="#f9aa78" d="M 215.5625 677.097656 C 220.863281 677.089844 238.355469 666.738281 238.355469 666.738281 C 238.355469 666.738281 235.3125 664.433594 231.378906 658.386719 C 227.222656 651.992188 226.253906 646.417969 226.253906 646.417969 C 226.253906 646.417969 208.746094 656.027344 206.746094 658.28125 C 203.597656 661.832031 206.449219 666.914062 206.449219 666.914062 " fill-opacity="1" fill-rule="nonzero"/><path fill="#e28f5d" d="M 215.5625 677.097656 C 216.617188 677.074219 217.648438 676.808594 218.648438 676.5 C 219.65625 676.203125 220.644531 675.839844 221.613281 675.453125 C 223.570312 674.671875 225.480469 673.800781 227.367188 672.882812 C 231.144531 671.039062 234.835938 669.050781 238.492188 666.964844 L 238.816406 666.777344 L 238.515625 666.535156 C 237.769531 665.910156 237.082031 665.175781 236.414062 664.457031 C 235.746094 663.71875 235.132812 662.953125 234.511719 662.164062 C 234.207031 661.777344 233.917969 661.359375 233.632812 660.964844 C 233.335938 660.566406 233.039062 660.164062 232.773438 659.746094 L 231.949219 658.507812 C 231.660156 658.097656 231.441406 657.660156 231.191406 657.21875 C 230.679688 656.363281 230.234375 655.5 229.808594 654.601562 C 229.394531 653.707031 228.984375 652.804688 228.632812 651.894531 C 228.269531 650.96875 227.945312 650.042969 227.65625 649.113281 C 227.519531 648.640625 227.382812 648.164062 227.269531 647.695312 C 227.15625 647.222656 227.042969 646.730469 226.964844 646.289062 L 226.808594 645.320312 L 225.898438 645.773438 C 224.699219 646.375 223.523438 647.011719 222.339844 647.640625 C 221.152344 648.253906 219.992188 648.921875 218.824219 649.574219 C 217.65625 650.226562 216.503906 650.894531 215.351562 651.578125 C 214.207031 652.273438 213.054688 652.949219 211.921875 653.679688 C 210.792969 654.40625 209.671875 655.140625 208.570312 655.9375 C 208.019531 656.339844 207.480469 656.742188 206.941406 657.203125 L 206.539062 657.570312 L 206.335938 657.789062 L 206.28125 657.839844 L 206.230469 657.917969 L 206.152344 658.007812 C 205.964844 658.25 205.722656 658.628906 205.5625 658.933594 C 204.871094 660.253906 204.726562 661.761719 204.976562 663.128906 C 205.207031 664.5 205.707031 665.78125 206.449219 666.914062 C 206.191406 666.289062 206.023438 665.636719 205.871094 665 C 205.726562 664.363281 205.644531 663.710938 205.636719 663.066406 C 205.621094 661.777344 205.894531 660.527344 206.5625 659.527344 C 206.746094 659.253906 206.882812 659.078125 207.125 658.8125 L 207.207031 658.722656 L 207.269531 658.660156 L 207.410156 658.523438 L 207.777344 658.242188 C 208.285156 657.863281 208.84375 657.515625 209.398438 657.167969 C 210.519531 656.46875 211.648438 655.777344 212.800781 655.117188 L 219.703125 651.105469 C 220.847656 650.433594 222.015625 649.78125 223.160156 649.097656 L 226.59375 647.054688 L 225.527344 646.539062 C 225.640625 647.078125 225.777344 647.566406 225.914062 648.058594 C 226.0625 648.558594 226.214844 649.035156 226.382812 649.523438 C 226.714844 650.484375 227.09375 651.433594 227.503906 652.367188 C 227.914062 653.296875 228.382812 654.195312 228.855469 655.097656 C 229.347656 655.976562 229.871094 656.863281 230.417969 657.707031 C 230.96875 658.53125 231.5625 659.367188 232.144531 660.191406 C 232.425781 660.601562 232.738281 661.003906 233.046875 661.398438 C 233.351562 661.800781 233.652344 662.210938 233.972656 662.589844 C 234.625 663.371094 235.269531 664.136719 235.972656 664.863281 C 236.679688 665.59375 237.375 666.304688 238.203125 666.941406 L 238.226562 666.511719 C 234.625 668.648438 230.960938 670.703125 227.230469 672.609375 C 225.367188 673.570312 223.484375 674.488281 221.558594 675.308594 C 220.589844 675.71875 219.617188 676.105469 218.632812 676.4375 C 217.632812 676.757812 216.617188 677.046875 215.5625 677.097656 " fill-opacity="1" fill-rule="nonzero"/><path fill="#fddfbb" d="M 225.03125 650.605469 C 226.042969 654.003906 232.167969 663.789062 234.585938 665.652344 C 224.34375 672.402344 220.894531 674.382812 218.203125 675.011719 C 210.324219 676.402344 206.84375 665.144531 208.335938 661.511719 C 209.824219 657.886719 222.273438 652.121094 225.03125 650.605469 " fill-opacity="1" fill-rule="nonzero"/><path fill="#f9aa78" d="M 239.710938 706.84375 C 225.921875 713.703125 213.765625 688.46875 224.238281 682.542969 C 242.214844 672.375 269.152344 655.238281 289.960938 644.039062 C 305.222656 635.824219 323.375 663.652344 305.675781 673.238281 C 283.058594 685.488281 252.214844 700.625 239.710938 706.84375 " fill-opacity="1" fill-rule="nonzero"/><path fill="#e28f5d" d="M 239.316406 706.039062 L 244.9375 703.257812 C 259.121094 696.226562 285.53125 683.136719 305.253906 672.449219 C 308.710938 670.574219 310.878906 667.914062 311.710938 664.539062 C 312.714844 660.472656 311.644531 655.703125 308.777344 651.425781 C 304.859375 645.59375 297.429688 641.042969 290.382812 644.835938 C 278.160156 651.417969 264.035156 659.90625 250.378906 668.117188 C 240.976562 673.777344 232.085938 679.132812 224.683594 683.332031 C 223.023438 684.257812 221.945312 685.769531 221.460938 687.816406 C 220.605469 691.449219 221.816406 696.429688 224.554688 700.511719 C 227.6875 705.175781 233.214844 709.082031 239.316406 706.039062 Z M 313.457031 664.972656 C 312.515625 668.800781 309.96875 671.941406 306.109375 674.035156 C 286.359375 684.730469 259.933594 697.835938 245.738281 704.867188 L 240.121094 707.65625 C 232.972656 711.207031 226.625 706.820312 223.0625 701.511719 C 220.011719 696.960938 218.722656 691.5625 219.710938 687.40625 C 220.308594 684.894531 221.71875 682.9375 223.796875 681.761719 C 231.183594 677.578125 240.0625 672.238281 249.460938 666.578125 C 263.132812 658.359375 277.265625 649.847656 289.527344 643.25 C 297.558594 638.925781 305.914062 643.9375 310.273438 650.425781 C 313.417969 655.109375 314.578125 660.414062 313.457031 664.972656 " fill-opacity="1" fill-rule="nonzero"/><path fill="#f9aa78" d="M 232.507812 704.121094 C 237.21875 704.242188 253.011719 695.40625 253.011719 695.40625 C 253.011719 695.40625 250.359375 693.300781 246.992188 687.832031 C 243.433594 682.058594 242.691406 677.066406 242.691406 677.066406 C 242.691406 677.066406 226.914062 685.222656 225.085938 687.1875 C 222.195312 690.28125 224.625 694.855469 224.625 694.855469 " fill-opacity="1" fill-rule="nonzero"/><path fill="#e28f5d" d="M 232.507812 704.121094 C 233.441406 704.128906 234.367188 703.917969 235.261719 703.675781 C 236.171875 703.425781 237.050781 703.121094 237.929688 702.808594 C 239.6875 702.15625 241.402344 701.421875 243.109375 700.65625 C 246.503906 699.101562 249.84375 697.417969 253.140625 695.648438 L 253.472656 695.46875 L 253.179688 695.210938 C 252.535156 694.65625 251.933594 693.980469 251.359375 693.320312 C 250.789062 692.65625 250.25 691.941406 249.71875 691.234375 C 249.460938 690.886719 249.226562 690.515625 248.96875 690.152344 C 248.710938 689.796875 248.46875 689.429688 248.242188 689.042969 L 247.535156 687.929688 C 247.292969 687.566406 247.105469 687.164062 246.886719 686.761719 C 246.46875 685.996094 246.089844 685.214844 245.726562 684.410156 C 245.382812 683.605469 245.042969 682.792969 244.761719 681.96875 C 244.464844 681.148438 244.183594 680.308594 243.964844 679.472656 C 243.84375 679.054688 243.746094 678.628906 243.648438 678.207031 C 243.554688 677.796875 243.464844 677.347656 243.414062 676.96875 L 243.277344 676 L 242.359375 676.421875 C 241.273438 676.925781 240.21875 677.460938 239.144531 677.992188 C 238.074219 678.507812 237.027344 679.070312 235.972656 679.625 C 234.914062 680.179688 233.875 680.746094 232.835938 681.339844 C 231.804688 681.929688 230.757812 682.507812 229.742188 683.136719 C 228.726562 683.757812 227.703125 684.386719 226.707031 685.078125 C 226.214844 685.417969 225.722656 685.773438 225.230469 686.175781 L 224.867188 686.503906 L 224.675781 686.699219 L 224.632812 686.746094 L 224.578125 686.8125 L 224.503906 686.890625 C 224.335938 687.09375 224.101562 687.4375 223.964844 687.71875 C 223.3125 688.886719 223.160156 690.242188 223.355469 691.464844 C 223.546875 692.691406 223.972656 693.851562 224.625 694.855469 C 224.417969 694.292969 224.289062 693.714844 224.175781 693.15625 C 224.070312 692.570312 224.007812 691.988281 224.023438 691.417969 C 224.046875 690.28125 224.335938 689.179688 224.941406 688.324219 C 225.117188 688.089844 225.230469 687.953125 225.457031 687.71875 L 225.535156 687.632812 L 225.554688 687.609375 L 225.585938 687.589844 L 225.714844 687.472656 L 226.042969 687.238281 C 226.503906 686.929688 227.003906 686.617188 227.511719 686.328125 C 228.519531 685.738281 229.542969 685.152344 230.582031 684.59375 L 236.816406 681.1875 C 237.847656 680.609375 238.894531 680.050781 239.933594 679.464844 L 243.027344 677.71875 L 241.964844 677.175781 C 242.0625 677.667969 242.167969 678.101562 242.28125 678.539062 C 242.410156 678.988281 242.53125 679.417969 242.667969 679.851562 C 242.949219 680.722656 243.269531 681.582031 243.617188 682.414062 C 243.964844 683.25 244.367188 684.070312 244.769531 684.871094 C 245.1875 685.667969 245.632812 686.457031 246.113281 687.230469 C 246.589844 687.976562 247.105469 688.734375 247.597656 689.476562 C 247.839844 689.847656 248.105469 690.210938 248.378906 690.578125 C 248.644531 690.933594 248.902344 691.304688 249.175781 691.660156 C 249.734375 692.351562 250.304688 693.054688 250.910156 693.722656 C 251.523438 694.382812 252.132812 695.027344 252.851562 695.613281 L 252.882812 695.1875 C 249.644531 697.015625 246.339844 698.761719 242.980469 700.382812 C 241.296875 701.1875 239.605469 701.976562 237.878906 702.664062 C 237.011719 703.007812 236.132812 703.332031 235.246094 703.605469 C 234.351562 703.871094 233.441406 704.097656 232.507812 704.121094 " fill-opacity="1" fill-rule="nonzero"/><path fill="#fddfbb" d="M 241.523438 680.769531 C 242.34375 683.820312 247.574219 692.65625 249.691406 694.367188 C 240.417969 700.148438 237.308594 701.832031 234.90625 702.339844 C 227.867188 703.394531 225.023438 693.300781 226.421875 690.105469 C 227.824219 686.914062 239.03125 682.066406 241.523438 680.769531 " fill-opacity="1" fill-rule="nonzero"/><path fill="#f9aa78" d="M 253.171875 726.898438 C 241.410156 730.917969 234.367188 709.453125 243.375 705.828125 C 258.828125 699.609375 282.171875 688.761719 299.992188 682.019531 C 313.070312 677.066406 324.632812 701.246094 309.46875 707.027344 C 290.089844 714.429688 263.824219 723.257812 253.171875 726.898438 " fill-opacity="1" fill-rule="nonzero"/><path fill="#e28f5d" d="M 252.882812 726.046875 L 257.226562 724.5625 C 269.402344 720.421875 292.058594 712.714844 309.148438 706.183594 C 312.25 705 314.367188 702.886719 315.261719 700.058594 C 316.40625 696.453125 315.535156 691.867188 312.988281 688.066406 C 310.394531 684.210938 305.707031 680.816406 300.316406 682.863281 C 289.867188 686.8125 277.707031 692.101562 265.953125 697.203125 C 257.789062 700.738281 250.09375 704.085938 243.707031 706.671875 C 242.191406 707.269531 241.144531 708.492188 240.589844 710.289062 C 239.574219 713.601562 240.523438 718.382812 242.902344 721.914062 C 244.140625 723.757812 247.589844 727.863281 252.882812 726.046875 Z M 316.984375 700.59375 C 315.914062 703.96875 313.425781 706.488281 309.792969 707.867188 C 292.667969 714.40625 269.988281 722.128906 257.8125 726.269531 L 253.457031 727.753906 C 248.976562 729.289062 244.464844 727.480469 241.402344 722.925781 C 238.710938 718.902344 237.695312 713.601562 238.871094 709.75 C 239.582031 707.453125 241.023438 705.804688 243.03125 704.988281 C 249.402344 702.429688 257.082031 699.085938 265.234375 695.550781 C 277.007812 690.441406 289.1875 685.144531 299.671875 681.179688 C 304.925781 679.199219 310.734375 681.488281 314.480469 687.070312 C 317.324219 691.304688 318.277344 696.492188 316.984375 700.59375 " fill-opacity="1" fill-rule="nonzero"/><path fill="#f9aa78" d="M 247.695312 723.957031 C 251.457031 724.554688 265.015625 719.167969 265.015625 719.167969 C 265.015625 719.167969 263.117188 717.199219 261.003906 712.464844 C 258.773438 707.472656 258.707031 703.410156 258.707031 703.410156 C 258.707031 703.410156 245.222656 708.261719 243.554688 709.636719 C 240.917969 711.796875 242.382812 715.71875 242.382812 715.71875 " fill-opacity="1" fill-rule="nonzero"/><path fill="#e28f5d" d="M 247.695312 723.957031 C 248.445312 724.070312 249.203125 724 249.949219 723.902344 C 250.699219 723.804688 251.441406 723.660156 252.175781 723.492188 C 253.648438 723.167969 255.105469 722.773438 256.542969 722.332031 C 259.441406 721.46875 262.292969 720.480469 265.113281 719.425781 L 265.484375 719.292969 L 265.21875 718.980469 C 264.765625 718.472656 264.355469 717.863281 263.976562 717.28125 C 263.589844 716.691406 263.238281 716.066406 262.890625 715.453125 C 262.574219 714.824219 262.222656 714.195312 261.941406 713.542969 L 261.503906 712.570312 C 261.34375 712.253906 261.261719 711.917969 261.132812 711.578125 L 260.761719 710.570312 C 260.648438 710.226562 260.5625 709.894531 260.464844 709.558594 C 260.367188 709.210938 260.253906 708.894531 260.191406 708.542969 L 259.957031 707.511719 C 259.875 707.171875 259.828125 706.828125 259.757812 706.488281 C 259.691406 706.140625 259.636719 705.789062 259.59375 705.449219 C 259.554688 705.101562 259.515625 704.75 259.488281 704.410156 C 259.457031 704.070312 259.441406 703.710938 259.433594 703.402344 L 259.425781 702.4375 L 258.457031 702.726562 C 257.53125 703 256.628906 703.316406 255.71875 703.613281 C 254.800781 703.910156 253.90625 704.25 253.003906 704.585938 C 252.101562 704.910156 251.199219 705.253906 250.3125 705.617188 C 249.417969 705.980469 248.523438 706.335938 247.644531 706.738281 C 246.769531 707.140625 245.882812 707.527344 245.019531 707.984375 C 244.578125 708.21875 244.15625 708.453125 243.714844 708.734375 L 243.382812 708.953125 L 243.207031 709.097656 L 243.160156 709.136719 L 243.109375 709.179688 L 243.046875 709.25 C 242.890625 709.394531 242.652344 709.660156 242.511719 709.871094 C 241.867188 710.765625 241.613281 711.859375 241.652344 712.867188 C 241.675781 713.875 241.949219 714.855469 242.382812 715.71875 C 242.207031 714.769531 242.183594 713.800781 242.335938 712.90625 C 242.480469 712.011719 242.835938 711.191406 243.414062 710.589844 C 243.570312 710.433594 243.664062 710.355469 243.882812 710.183594 L 243.949219 710.136719 L 243.988281 710.097656 L 244.101562 710.039062 L 244.382812 709.894531 C 244.777344 709.6875 245.214844 709.507812 245.648438 709.332031 C 246.511719 708.976562 247.402344 708.628906 248.289062 708.292969 L 250.957031 707.269531 C 251.851562 706.9375 252.746094 706.585938 253.632812 706.230469 C 254.519531 705.882812 255.414062 705.546875 256.300781 705.175781 L 258.949219 704.097656 L 257.976562 703.425781 C 258 703.832031 258.039062 704.183594 258.089844 704.554688 C 258.136719 704.933594 258.207031 705.296875 258.273438 705.660156 C 258.332031 706.019531 258.410156 706.390625 258.5 706.738281 C 258.589844 707.09375 258.652344 707.460938 258.765625 707.800781 L 259.085938 708.863281 C 259.183594 709.210938 259.335938 709.558594 259.464844 709.902344 C 259.59375 710.242188 259.714844 710.597656 259.851562 710.941406 L 260.289062 711.917969 C 260.441406 712.230469 260.59375 712.585938 260.761719 712.90625 L 261.246094 713.875 C 261.554688 714.535156 261.929688 715.164062 262.277344 715.792969 C 262.648438 716.417969 263.035156 717.039062 263.453125 717.636719 C 263.875 718.238281 264.292969 718.8125 264.816406 719.367188 L 264.914062 718.917969 C 262.132812 720.050781 259.3125 721.105469 256.453125 722.050781 C 255.035156 722.523438 253.59375 722.96875 252.140625 723.347656 C 251.417969 723.53125 250.683594 723.707031 249.949219 723.835938 C 249.199219 723.949219 248.445312 724.039062 247.695312 723.957031 " fill-opacity="1" fill-rule="nonzero"/><path fill="#fddfbb" d="M 257.378906 706.246094 C 257.710938 708.769531 260.957031 716.386719 262.464844 717.980469 C 254.445312 721.621094 251.78125 722.644531 249.789062 722.789062 C 244.0625 722.886719 242.859375 714.511719 244.3125 712.109375 C 245.769531 709.695312 255.246094 707.011719 257.378906 706.246094 " fill-opacity="1" fill-rule="nonzero"/><path fill="#f9aa78" d="M 214.152344 655.519531 C 202.800781 664.949219 185.921875 644.113281 194.378906 636.269531 C 208.890625 622.847656 230.226562 600.933594 247.144531 585.925781 C 259.5625 574.898438 282.605469 596.832031 268.230469 609.671875 C 249.855469 626.078125 224.433594 646.980469 214.152344 655.519531 " fill-opacity="1" fill-rule="nonzero"/><path fill="#e28f5d" d="M 206.34375 656.925781 C 209.011719 657.3125 211.445312 656.605469 213.574219 654.824219 L 217.90625 651.242188 C 229.644531 641.519531 251.472656 623.414062 267.628906 608.996094 C 272.695312 604.484375 273.300781 598.183594 269.246094 592.136719 C 266.296875 587.746094 261.359375 584.523438 256.671875 583.929688 C 253.285156 583.5 250.199219 584.417969 247.742188 586.601562 C 237.800781 595.414062 226.527344 606.441406 215.617188 617.097656 C 208.085938 624.453125 200.972656 631.402344 194.992188 636.929688 C 191.480469 640.191406 193.15625 645.691406 195.660156 649.414062 C 198.398438 653.488281 202.492188 656.363281 206.34375 656.925781 Z M 268.820312 610.339844 C 252.648438 624.78125 230.796875 642.894531 219.058594 652.625 L 214.730469 656.210938 C 212.21875 658.296875 209.230469 659.152344 206.085938 658.699219 C 201.746094 658.078125 197.167969 654.898438 194.164062 650.425781 C 190.34375 644.734375 190.191406 638.933594 193.769531 635.621094 C 199.730469 630.089844 206.835938 623.15625 214.355469 615.808594 C 225.28125 605.136719 236.582031 594.101562 246.550781 585.25 C 249.402344 582.71875 252.988281 581.648438 256.902344 582.148438 C 262.164062 582.816406 267.46875 586.257812 270.738281 591.136719 C 274.292969 596.421875 275.652344 604.25 268.820312 610.339844 " fill-opacity="1" fill-rule="nonzero"/><path fill="#f9aa78" d="M 206.835938 654.574219 C 211.25 653.640625 224.03125 641.9375 224.03125 641.9375 C 224.03125 641.9375 221.089844 640.558594 216.746094 636.195312 C 212.160156 631.597656 210.375 627.117188 210.375 627.117188 C 210.375 627.117188 197.464844 638.199219 196.191406 640.421875 C 194.179688 643.9375 197.449219 647.679688 197.449219 647.679688 " fill-opacity="1" fill-rule="nonzero"/><path fill="#e28f5d" d="M 206.835938 654.574219 C 207.707031 654.367188 208.519531 653.964844 209.308594 653.542969 C 210.089844 653.117188 210.855469 652.640625 211.605469 652.144531 C 213.089844 651.160156 214.539062 650.097656 215.957031 649.003906 C 218.785156 646.804688 221.53125 644.507812 224.207031 642.125 L 224.488281 641.882812 L 224.136719 641.703125 C 223.417969 641.324219 222.710938 640.828125 222.039062 640.34375 C 221.355469 639.84375 220.695312 639.304688 220.058594 638.765625 C 219.734375 638.484375 219.421875 638.199219 219.109375 637.910156 C 218.792969 637.628906 218.480469 637.347656 218.195312 637.046875 L 217.285156 636.148438 C 216.972656 635.871094 216.722656 635.542969 216.425781 635.21875 C 215.875 634.585938 215.351562 633.933594 214.835938 633.277344 C 214.335938 632.601562 213.839844 631.917969 213.402344 631.210938 C 212.9375 630.507812 212.507812 629.792969 212.113281 629.058594 C 211.90625 628.695312 211.71875 628.324219 211.542969 627.953125 C 211.363281 627.578125 211.1875 627.199219 211.050781 626.84375 L 210.695312 625.933594 L 209.898438 626.5625 C 208.996094 627.261719 208.125 627.996094 207.246094 628.726562 C 206.367188 629.445312 205.515625 630.203125 204.644531 630.945312 C 203.789062 631.699219 202.929688 632.457031 202.105469 633.238281 C 201.269531 634.011719 200.429688 634.785156 199.609375 635.605469 C 198.804688 636.398438 197.996094 637.21875 197.214844 638.070312 C 196.828125 638.507812 196.449219 638.949219 196.082031 639.433594 L 195.820312 639.820312 L 195.675781 640.039062 L 195.644531 640.09375 L 195.5625 640.261719 C 195.445312 640.488281 195.308594 640.867188 195.234375 641.15625 C 194.894531 642.398438 195.046875 643.695312 195.507812 644.789062 C 195.96875 645.894531 196.621094 646.882812 197.449219 647.679688 C 197.136719 647.199219 196.894531 646.675781 196.660156 646.175781 C 196.433594 645.660156 196.257812 645.128906 196.144531 644.589844 C 195.917969 643.53125 195.949219 642.445312 196.335938 641.527344 C 196.441406 641.261719 196.515625 641.117188 196.675781 640.84375 L 196.734375 640.753906 L 196.742188 640.730469 L 196.773438 640.699219 L 196.863281 640.5625 L 197.113281 640.277344 C 197.472656 639.890625 197.875 639.488281 198.28125 639.109375 C 199.09375 638.335938 199.921875 637.574219 200.769531 636.824219 L 205.828125 632.265625 C 206.660156 631.507812 207.519531 630.765625 208.34375 629.984375 L 210.855469 627.671875 L 209.695312 627.382812 C 209.890625 627.828125 210.082031 628.203125 210.292969 628.589844 C 210.496094 628.976562 210.71875 629.363281 210.945312 629.726562 C 211.390625 630.476562 211.878906 631.199219 212.386719 631.902344 C 212.894531 632.609375 213.445312 633.28125 214.007812 633.933594 C 214.578125 634.59375 215.167969 635.230469 215.78125 635.847656 C 216.390625 636.429688 217.035156 637.03125 217.664062 637.605469 C 217.972656 637.902344 218.300781 638.183594 218.632812 638.464844 C 218.960938 638.738281 219.285156 639.023438 219.613281 639.289062 C 220.292969 639.820312 220.976562 640.351562 221.679688 640.828125 C 222.410156 641.316406 223.113281 641.785156 223.917969 642.179688 L 223.851562 641.738281 C 221.234375 644.160156 218.550781 646.527344 215.773438 648.769531 C 214.378906 649.894531 212.976562 650.992188 211.519531 652.023438 C 210.785156 652.53125 210.042969 653.03125 209.269531 653.480469 C 208.496094 653.921875 207.707031 654.34375 206.835938 654.574219 " fill-opacity="1" fill-rule="nonzero"/><path fill="#fddfbb" d="M 210.097656 630.824219 C 211.527344 633.472656 218.351562 640.570312 220.703125 641.703125 C 213.332031 649.121094 210.808594 651.378906 208.671875 652.375 C 202.355469 654.914062 197.480469 646.132812 198.078125 642.839844 C 198.683594 639.5625 208.054688 632.5625 210.097656 630.824219 " fill-opacity="1" fill-rule="nonzero"/><path fill="#f9aa78" d="M 187.972656 613.152344 C 187.972656 613.152344 204.804688 655.5 205.242188 657.886719 C 211.953125 693.707031 187.039062 712.410156 187.039062 712.410156 " fill-opacity="1" fill-rule="nonzero"/><path fill="#e28f5d" d="M 187.136719 613.503906 C 187.136719 613.503906 189.640625 619.78125 193.382812 629.210938 C 195.242188 633.929688 197.402344 639.441406 199.722656 645.34375 C 200.875 648.292969 202.058594 651.347656 203.21875 654.464844 C 203.5 655.238281 203.789062 656.019531 204.074219 656.800781 C 204.203125 657.183594 204.355469 657.613281 204.433594 657.917969 L 204.453125 658.023438 L 204.492188 658.175781 L 204.652344 659.109375 C 204.789062 659.933594 204.957031 660.769531 205.078125 661.597656 L 205.386719 664.074219 C 205.734375 667.398438 205.835938 670.75 205.652344 674.050781 C 205.472656 677.332031 205.007812 680.566406 204.28125 683.621094 C 202.855469 689.757812 200.429688 695.195312 197.8125 699.519531 C 195.210938 703.855469 192.46875 707.109375 190.425781 709.25 C 188.378906 711.371094 187.039062 712.410156 187.039062 712.410156 C 187.039062 712.410156 188.410156 711.410156 190.519531 709.332031 C 192.617188 707.238281 195.460938 704.070312 198.191406 699.761719 C 200.9375 695.476562 203.542969 690.03125 205.167969 683.847656 C 205.984375 680.746094 206.546875 677.476562 206.820312 674.125 C 207.085938 670.773438 207.078125 667.351562 206.820312 663.941406 L 206.5625 661.367188 C 206.464844 660.511719 206.320312 659.691406 206.199219 658.859375 L 206.109375 658.226562 L 206.0625 657.917969 L 206.039062 657.765625 L 205.984375 657.5625 C 205.855469 657.054688 205.722656 656.6875 205.585938 656.273438 C 205.304688 655.484375 205.015625 654.6875 204.734375 653.90625 C 203.574219 650.773438 202.40625 647.707031 201.269531 644.75 C 198.972656 638.828125 196.835938 633.304688 195 628.582031 C 191.285156 619.128906 188.804688 612.828125 188.804688 612.828125 L 187.136719 613.503906 " fill-opacity="1" fill-rule="nonzero"/><path fill="#f9aa78" d="M 198.359375 634.40625 C 198.359375 634.40625 203.574219 655.171875 209.359375 661.535156 C 218.214844 671.273438 241.0625 678.191406 238.832031 664.265625 C 236.597656 650.339844 229.582031 605.804688 227.695312 599.714844 C 225.796875 593.617188 204.371094 588.808594 200.640625 591.046875 C 196.910156 593.273438 159.316406 615.542969 153.046875 622.800781 C 146.777344 630.050781 131.164062 666.890625 129.832031 673.039062 C 128.480469 679.183594 139.542969 700.011719 143.113281 705.714844 C 146.6875 711.441406 158.671875 715.25 158.671875 715.25 " fill-opacity="1" fill-rule="nonzero"/><path fill="#e28f5d" d="M 197.78125 634.558594 C 197.78125 634.558594 198.09375 635.816406 198.746094 638.144531 C 199.414062 640.480469 200.40625 643.894531 201.90625 648.164062 C 202.679688 650.289062 203.574219 652.640625 204.71875 655.140625 C 205.015625 655.757812 205.320312 656.394531 205.636719 657.039062 C 205.980469 657.667969 206.328125 658.304688 206.691406 658.957031 C 207.117188 659.585938 207.480469 660.261719 207.972656 660.890625 C 208.214844 661.195312 208.464844 661.511719 208.714844 661.832031 C 208.996094 662.171875 209.253906 662.40625 209.527344 662.710938 C 211.824219 665.015625 214.605469 666.996094 217.753906 668.710938 C 220.90625 670.386719 224.425781 671.84375 228.355469 672.554688 C 230.308594 672.875 232.386719 673.09375 234.519531 672.617188 C 235.578125 672.375 236.664062 671.972656 237.589844 671.21875 C 238.515625 670.476562 239.179688 669.378906 239.484375 668.246094 C 239.796875 667.109375 239.839844 665.949219 239.695312 664.828125 C 239.652344 664.25 239.558594 663.726562 239.484375 663.210938 C 239.394531 662.679688 239.308594 662.15625 239.226562 661.617188 C 238.886719 659.503906 238.542969 657.339844 238.195312 655.148438 C 236.777344 646.417969 235.285156 637.195312 233.730469 627.664062 C 232.933594 622.898438 232.121094 618.0625 231.25 613.160156 C 230.824219 610.710938 230.355469 608.246094 229.878906 605.773438 C 229.644531 604.539062 229.414062 603.292969 229.105469 602.042969 L 228.65625 600.167969 L 228.550781 599.691406 L 228.519531 599.578125 L 228.460938 599.386719 L 228.375 599.167969 C 228.285156 598.902344 228.074219 598.53125 227.851562 598.175781 C 226.988281 596.960938 225.882812 596.148438 224.765625 595.429688 C 223.636719 594.714844 222.46875 594.132812 221.265625 593.609375 C 218.875 592.5625 216.390625 591.773438 213.871094 591.121094 C 211.347656 590.492188 208.785156 589.992188 206.152344 589.75 C 204.839844 589.632812 203.515625 589.582031 202.121094 589.742188 C 201.761719 589.800781 201.40625 589.839844 201.035156 589.976562 C 200.703125 590.035156 200.1875 590.316406 199.972656 590.445312 L 198.3125 591.441406 C 189.464844 596.726562 180.675781 602.109375 172.15625 607.632812 C 167.894531 610.394531 163.699219 613.191406 159.660156 616.132812 C 157.648438 617.605469 155.671875 619.128906 153.789062 620.808594 L 152.425781 622.171875 L 152.328125 622.300781 L 152.25 622.390625 L 152.113281 622.574219 L 151.835938 622.9375 L 151.289062 623.667969 C 150.917969 624.144531 150.597656 624.710938 150.257812 625.226562 C 149.914062 625.757812 149.558594 626.289062 149.269531 626.820312 C 146.808594 631.03125 144.691406 635.308594 142.675781 639.503906 C 140.679688 643.710938 138.800781 647.859375 137.027344 651.933594 C 135.265625 656.007812 133.597656 659.980469 132.089844 663.878906 C 131.339844 665.828125 130.613281 667.753906 129.960938 669.679688 C 129.800781 670.167969 129.640625 670.644531 129.480469 671.113281 C 129.328125 671.609375 129.207031 672.117188 129.066406 672.609375 L 129.019531 672.796875 L 128.988281 672.941406 L 128.972656 673.035156 L 128.929688 673.40625 C 128.882812 673.648438 128.890625 673.972656 128.875 674.253906 C 128.890625 674.808594 128.929688 675.324219 129.003906 675.832031 C 129.300781 677.835938 129.867188 679.683594 130.476562 681.460938 C 131.082031 683.226562 131.757812 684.917969 132.453125 686.554688 C 133.832031 689.824219 135.328125 692.828125 136.761719 695.636719 C 138.207031 698.433594 139.617188 701.011719 141 703.371094 C 141.347656 703.960938 141.695312 704.539062 142.03125 705.09375 C 142.195312 705.382812 142.371094 705.660156 142.539062 705.925781 C 142.757812 706.261719 142.933594 706.464844 143.121094 706.730469 L 143.394531 707.09375 L 143.730469 707.460938 C 143.957031 707.695312 144.183594 707.929688 144.402344 708.148438 C 144.867188 708.550781 145.296875 708.960938 145.769531 709.316406 C 147.601562 710.714844 149.390625 711.683594 150.976562 712.488281 C 152.5625 713.285156 153.941406 713.851562 155.070312 714.292969 C 157.339844 715.171875 158.597656 715.527344 158.597656 715.527344 L 158.765625 714.976562 C 158.765625 714.976562 158.46875 714.871094 157.882812 714.65625 C 157.308594 714.4375 156.453125 714.09375 155.351562 713.617188 C 154.253906 713.140625 152.902344 712.535156 151.371094 711.707031 C 149.855469 710.886719 148.132812 709.878906 146.429688 708.484375 C 145.996094 708.140625 145.601562 707.738281 145.175781 707.359375 C 144.996094 707.148438 144.804688 706.945312 144.617188 706.738281 L 144.328125 706.421875 L 144.070312 706.039062 C 143.902344 705.796875 143.675781 705.503906 143.546875 705.296875 C 143.386719 705.03125 143.226562 704.757812 143.0625 704.480469 C 142.742188 703.917969 142.410156 703.347656 142.074219 702.765625 C 140.757812 700.398438 139.40625 697.796875 138.027344 694.996094 C 136.648438 692.191406 135.257812 689.171875 133.917969 685.941406 C 133.25 684.328125 132.597656 682.664062 132.023438 680.929688 C 131.445312 679.214844 130.914062 677.410156 130.664062 675.597656 C 130.605469 675.140625 130.566406 674.6875 130.558594 674.261719 C 130.582031 674.058594 130.558594 673.90625 130.597656 673.648438 L 130.648438 673.292969 L 130.65625 673.199219 L 130.671875 673.167969 L 130.726562 673.003906 C 130.847656 672.539062 130.96875 672.09375 131.113281 671.628906 C 131.269531 671.167969 131.429688 670.703125 131.589844 670.234375 C 132.242188 668.355469 132.976562 666.449219 133.734375 664.523438 C 135.28125 660.671875 136.917969 656.695312 138.671875 652.652344 C 140.429688 648.589844 142.296875 644.460938 144.28125 640.269531 C 146.277344 636.089844 148.390625 631.84375 150.789062 627.714844 C 151.074219 627.183594 151.410156 626.714844 151.710938 626.222656 C 152.046875 625.722656 152.3125 625.222656 152.683594 624.742188 L 153.503906 623.652344 L 153.644531 623.460938 L 153.714844 623.371094 L 153.761719 623.332031 L 154.988281 622.089844 C 156.761719 620.511719 158.703125 619 160.699219 617.546875 C 164.6875 614.625 168.855469 611.84375 173.101562 609.089844 C 181.59375 603.574219 190.367188 598.191406 199.191406 592.910156 L 200.84375 591.917969 L 201.050781 591.789062 L 201.210938 591.71875 L 201.527344 591.597656 C 201.761719 591.515625 202.058594 591.476562 202.347656 591.433594 C 203.507812 591.296875 204.765625 591.332031 206.007812 591.441406 C 208.503906 591.667969 211 592.144531 213.453125 592.757812 C 215.894531 593.390625 218.308594 594.15625 220.589844 595.15625 C 221.726562 595.648438 222.839844 596.210938 223.863281 596.847656 C 224.882812 597.5 225.851562 598.257812 226.457031 599.113281 C 226.570312 599.3125 226.707031 599.464844 226.820312 599.796875 L 226.914062 600.023438 L 226.921875 600.054688 L 226.945312 600.175781 L 227.050781 600.632812 L 227.472656 602.4375 C 227.777344 603.628906 228.003906 604.871094 228.238281 606.101562 C 228.710938 608.558594 229.1875 611.007812 229.613281 613.457031 C 230.492188 618.339844 231.304688 623.179688 232.105469 627.945312 C 233.660156 637.46875 235.171875 646.675781 236.589844 655.414062 C 236.945312 657.597656 237.285156 659.753906 237.625 661.875 C 237.929688 664.03125 238.46875 666.0625 237.953125 667.824219 C 237.71875 668.695312 237.261719 669.445312 236.597656 670 C 235.921875 670.5625 235.070312 670.894531 234.183594 671.105469 C 232.378906 671.515625 230.4375 671.355469 228.605469 671.0625 C 224.910156 670.417969 221.492188 669.035156 218.4375 667.429688 C 215.386719 665.804688 212.671875 663.886719 210.527344 661.746094 C 208.382812 659.609375 207.070312 657 205.925781 654.582031 C 204.789062 652.136719 203.886719 649.832031 203.121094 647.722656 C 201.589844 643.507812 200.585938 640.125 199.914062 637.820312 C 199.253906 635.503906 198.933594 634.261719 198.933594 634.261719 L 197.78125 634.558594 " fill-opacity="1" fill-rule="nonzero"/><path fill="#f9aa78" d="M 233.152344 639.101562 C 230.421875 642.097656 219.625 642.914062 219.625 642.914062 C 219.625 642.914062 224.222656 662.203125 225.8125 664.75 C 228.339844 668.785156 233.761719 667.648438 233.761719 667.648438 " fill-opacity="1" fill-rule="nonzero"/><path fill="#e28f5d" d="M 233.152344 639.101562 C 232.714844 639.503906 232.191406 639.78125 231.660156 640.027344 C 231.121094 640.277344 230.566406 640.464844 230.007812 640.632812 C 228.882812 640.964844 227.730469 641.207031 226.570312 641.40625 C 225.417969 641.617188 224.246094 641.761719 223.078125 641.882812 C 221.910156 642.019531 220.726562 642.117188 219.574219 642.1875 L 218.746094 642.226562 L 218.921875 643.082031 C 219.179688 644.378906 219.476562 645.667969 219.753906 646.964844 C 220.035156 648.253906 220.363281 649.542969 220.679688 650.824219 C 220.992188 652.109375 221.316406 653.390625 221.679688 654.671875 C 222.039062 655.945312 222.378906 657.226562 222.773438 658.492188 C 223.175781 659.761719 223.570312 661.035156 224.03125 662.285156 C 224.257812 662.914062 224.507812 663.546875 224.789062 664.175781 C 224.941406 664.492188 225.09375 664.8125 225.328125 665.160156 C 225.503906 665.417969 225.753906 665.730469 226.011719 665.980469 C 226.519531 666.503906 227.109375 666.929688 227.746094 667.238281 C 228.382812 667.574219 229.066406 667.753906 229.742188 667.882812 C 231.105469 668.109375 232.480469 668.003906 233.761719 667.648438 C 232.441406 667.738281 231.121094 667.585938 229.910156 667.207031 C 228.703125 666.8125 227.609375 666.152344 226.882812 665.207031 C 226.691406 664.972656 226.566406 664.757812 226.375 664.457031 C 226.253906 664.242188 226.132812 663.953125 226.027344 663.667969 C 225.820312 663.074219 225.625 662.453125 225.441406 661.824219 C 225.078125 660.570312 224.722656 659.304688 224.394531 658.039062 L 222.394531 650.394531 C 222.054688 649.121094 221.726562 647.835938 221.378906 646.570312 L 220.339844 642.742188 L 219.6875 643.636719 C 220.894531 643.5 222.066406 643.324219 223.257812 643.105469 C 224.441406 642.886719 225.617188 642.621094 226.777344 642.308594 C 227.9375 641.988281 229.082031 641.617188 230.1875 641.125 C 231.28125 640.632812 232.394531 640.039062 233.152344 639.101562 " fill-opacity="1" fill-rule="nonzero"/><path fill="#fddfbb" d="M 223.765625 645.585938 C 227.316406 645.585938 233.101562 641.496094 233.101562 641.496094 L 236.859375 665.570312 C 236.859375 665.570312 232.554688 667.15625 229.5 664.699219 C 226.441406 662.25 224.449219 648.664062 223.765625 645.585938 " fill-opacity="1" fill-rule="nonzero"/><path fill="#f9b016" d="M 641.910156 360.410156 C 641.910156 389.90625 618.011719 413.8125 588.523438 413.8125 C 559.046875 413.8125 535.136719 389.90625 535.136719 360.410156 C 535.136719 330.929688 559.046875 307.015625 588.523438 307.015625 C 618.011719 307.015625 641.910156 330.929688 641.910156 360.410156 " fill-opacity="1" fill-rule="nonzero"/><path fill="#ffffff" d="M 607.632812 386.226562 L 569.226562 386.226562 L 569.226562 329.648438 L 607.632812 329.648438 Z M 592.726562 393.984375 C 592.726562 395.207031 591.738281 396.199219 590.511719 396.199219 L 586.339844 396.199219 C 585.113281 396.199219 584.121094 395.207031 584.121094 393.984375 L 584.121094 389.804688 C 584.121094 388.578125 585.113281 387.59375 586.339844 387.59375 L 590.511719 387.59375 C 591.738281 387.59375 592.726562 388.578125 592.726562 389.804688 Z M 582.464844 324.457031 L 590.191406 324.457031 C 590.746094 324.457031 591.1875 324.898438 591.1875 325.453125 C 591.1875 326 590.746094 326.445312 590.191406 326.445312 L 582.464844 326.445312 C 581.921875 326.445312 581.472656 326 581.472656 325.453125 C 581.472656 324.898438 581.921875 324.457031 582.464844 324.457031 Z M 594.164062 324.230469 C 594.832031 324.230469 595.378906 324.777344 595.378906 325.453125 C 595.378906 326.121094 594.832031 326.664062 594.164062 326.664062 C 593.5 326.664062 592.953125 326.121094 592.953125 325.453125 C 592.953125 324.777344 593.5 324.230469 594.164062 324.230469 Z M 611.976562 343.0625 L 611.976562 332.125 C 611.976562 330.988281 611.300781 330.039062 610.390625 329.746094 L 610.390625 324.953125 C 610.390625 322.761719 608.609375 320.976562 606.417969 320.976562 L 570.441406 320.976562 C 568.234375 320.976562 566.460938 322.761719 566.460938 324.953125 L 566.460938 394.289062 C 566.460938 396.488281 568.234375 398.261719 570.441406 398.261719 L 606.417969 398.261719 C 608.609375 398.261719 610.390625 396.488281 610.390625 394.289062 L 610.390625 364.207031 C 611.300781 363.914062 611.976562 362.972656 611.976562 361.835938 L 611.976562 350.890625 C 611.976562 349.761719 611.300781 348.8125 610.390625 348.515625 L 610.390625 345.445312 C 611.300781 345.140625 611.976562 344.199219 611.976562 343.0625 " fill-opacity="1" fill-rule="nonzero"/><path fill="#ffffff" d="M 589.496094 389.691406 L 587.355469 389.691406 C 586.726562 389.691406 586.21875 390.191406 586.21875 390.832031 L 586.21875 392.96875 C 586.21875 393.589844 586.726562 394.105469 587.355469 394.105469 L 589.496094 394.105469 C 590.125 394.105469 590.632812 393.589844 590.632812 392.96875 L 590.632812 390.832031 C 590.632812 390.191406 590.125 389.691406 589.496094 389.691406 " fill-opacity="1" fill-rule="nonzero"/><path fill="#93d222" d="M 625.109375 214.316406 C 625.109375 243.804688 601.203125 267.710938 571.714844 267.710938 C 542.234375 267.710938 518.328125 243.804688 518.328125 214.316406 C 518.328125 184.820312 542.234375 160.914062 571.714844 160.914062 C 601.203125 160.914062 625.109375 184.820312 625.109375 214.316406 " fill-opacity="1" fill-rule="nonzero"/><path fill="#ffffff" d="M 583.238281 240.921875 L 573.042969 240.921875 L 571.941406 227.210938 C 581.890625 234.378906 595.425781 235.742188 606.972656 229.59375 L 595.324219 207.71875 C 599.429688 205.542969 600.980469 200.4375 598.796875 196.335938 C 596.613281 192.230469 591.519531 190.675781 587.417969 192.859375 L 575.769531 170.996094 C 559.675781 179.574219 553.523438 199.519531 561.964844 215.667969 L 555.648438 240.921875 L 550.960938 240.921875 C 546.464844 240.921875 542.828125 244.800781 542.828125 249.578125 L 542.828125 252.222656 L 591.367188 252.222656 L 591.367188 249.578125 C 591.367188 244.800781 587.730469 240.921875 583.238281 240.921875 " fill-opacity="1" fill-rule="nonzero"/><path fill="#7154af" d="M 784.53125 435.199219 C 784.53125 464.695312 760.625 488.59375 731.144531 488.59375 C 701.667969 488.59375 677.761719 464.695312 677.761719 435.199219 C 677.761719 405.710938 701.667969 381.796875 731.144531 381.796875 C 760.625 381.796875 784.53125 405.710938 784.53125 435.199219 " fill-opacity="1" fill-rule="nonzero"/><path fill="#ffffff" d="M 730.949219 455.933594 C 719.5 455.933594 710.21875 446.652344 710.21875 435.199219 C 710.21875 423.746094 719.5 414.457031 730.949219 414.457031 C 742.40625 414.457031 751.679688 423.746094 751.679688 435.199219 C 751.679688 446.652344 742.40625 455.933594 730.949219 455.933594 Z M 770.4375 438.605469 L 770.4375 430.648438 L 763.402344 428.101562 C 762.507812 423.988281 760.867188 420.167969 758.617188 416.785156 L 761.277344 409.683594 L 755.652344 404.058594 L 748.867188 407.226562 C 745.445312 405.035156 741.617188 403.429688 737.492188 402.609375 L 734.359375 395.707031 L 726.40625 395.707031 L 723.851562 402.738281 C 719.75 403.625 715.929688 405.269531 712.546875 407.523438 L 705.441406 404.863281 L 699.824219 410.488281 L 702.984375 417.285156 C 700.792969 420.699219 699.195312 424.527344 698.375 428.652344 L 691.46875 431.785156 L 691.46875 439.742188 L 698.496094 442.296875 C 699.390625 446.402344 701.03125 450.222656 703.289062 453.605469 L 700.628906 460.714844 L 706.253906 466.332031 L 713.039062 463.164062 C 716.453125 465.363281 720.28125 466.964844 724.40625 467.78125 L 727.542969 474.691406 L 735.492188 474.691406 L 738.054688 467.660156 C 742.15625 466.765625 745.96875 465.121094 749.351562 462.867188 L 756.457031 465.53125 L 762.082031 459.910156 L 758.914062 453.113281 C 761.105469 449.699219 762.710938 445.863281 763.53125 441.746094 L 770.4375 438.605469 " fill-opacity="1" fill-rule="nonzero"/><path fill="#ef3643" d="M 733.042969 76.742188 C 733.042969 106.230469 709.144531 130.136719 679.664062 130.136719 C 650.175781 130.136719 626.277344 106.230469 626.277344 76.742188 C 626.277344 47.246094 650.175781 23.339844 679.664062 23.339844 C 709.144531 23.339844 733.042969 47.246094 733.042969 76.742188 " fill-opacity="1" fill-rule="nonzero"/><path fill="#ffffff" d="M 687.433594 42.242188 L 687.433594 39.117188 L 682.324219 39.117188 L 682.324219 93.042969 C 679.308594 91.136719 675.203125 89.953125 670.679688 89.953125 C 661.429688 89.953125 653.929688 94.855469 653.929688 100.898438 C 653.929688 106.953125 661.429688 111.84375 670.679688 111.84375 C 679.929688 111.84375 687.433594 106.953125 687.433594 100.898438 L 687.433594 60.214844 C 698.050781 61.984375 700.71875 77.304688 700.71875 77.304688 L 703.144531 77.304688 C 703.144531 77.304688 703.144531 70.835938 703.144531 63.847656 C 703.144531 41.960938 690.269531 49.347656 687.433594 42.242188 " fill-opacity="1" fill-rule="nonzero"/><path fill="#65bed9" d="M 809.910156 249.257812 C 809.910156 278.753906 786.011719 302.660156 756.523438 302.660156 C 727.042969 302.660156 703.144531 278.753906 703.144531 249.257812 C 703.144531 219.769531 727.042969 195.863281 756.523438 195.863281 C 786.011719 195.863281 809.910156 219.769531 809.910156 249.257812 " fill-opacity="1" fill-rule="nonzero"/><path fill="#ffffff" d="M 756.996094 263.957031 C 756.996094 271.101562 751.207031 276.890625 744.066406 276.890625 C 736.929688 276.890625 731.144531 271.101562 731.144531 263.957031 C 731.144531 256.820312 736.929688 251.035156 744.066406 251.035156 C 751.207031 251.035156 756.996094 256.820312 756.996094 263.957031 " fill-opacity="1" fill-rule="nonzero"/><path fill="#ffffff" d="M 744.066406 233.511719 C 739.441406 233.511719 735.074219 234.582031 731.144531 236.425781 L 731.144531 248.152344 C 734.671875 245.261719 739.167969 243.523438 744.066406 243.523438 C 755.332031 243.523438 764.5 252.695312 764.5 263.957031 C 764.5 268.484375 763 272.664062 760.496094 276.054688 L 771.992188 276.054688 C 773.605469 272.347656 774.5 268.257812 774.5 263.957031 C 774.5 247.148438 760.875 233.511719 744.066406 233.511719 " fill-opacity="1" fill-rule="nonzero"/><path fill="#ffffff" d="M 744.066406 216 C 739.59375 216 735.261719 216.628906 731.144531 217.78125 L 731.144531 228.28125 C 735.179688 226.816406 739.53125 226.011719 744.066406 226.011719 C 764.992188 226.011719 782.007812 243.03125 782.007812 263.957031 C 782.007812 268.191406 781.304688 272.246094 780.019531 276.054688 L 790.46875 276.054688 C 791.476562 272.1875 792.007812 268.136719 792.007812 263.957031 C 792.007812 237.472656 770.550781 216 744.066406 216 " fill-opacity="1" fill-rule="nonzero"/><path fill="#80cc28" d="M 535.136719 53.679688 C 535.136719 83.167969 511.246094 107.082031 481.757812 107.082031 C 452.273438 107.082031 428.367188 83.167969 428.367188 53.679688 C 428.367188 24.191406 452.273438 0.277344 481.757812 0.277344 C 511.246094 0.277344 535.136719 24.191406 535.136719 53.679688 " fill-opacity="1" fill-rule="nonzero"/><path fill="#ffffff" d="M 496.144531 89.886719 C 499.441406 86.183594 502.1875 81.226562 504.164062 75.378906 C 510.019531 73.398438 514.976562 70.652344 518.675781 67.351562 C 514.644531 77.652344 506.433594 85.859375 496.144531 89.886719 Z M 444.839844 67.351562 C 448.542969 70.652344 453.507812 73.398438 459.347656 75.378906 C 461.332031 81.230469 464.078125 86.183594 467.367188 89.886719 C 457.078125 85.859375 448.875 77.652344 444.839844 67.351562 Z M 467.367188 16.035156 C 464.078125 19.738281 461.332031 24.699219 459.347656 30.554688 C 453.507812 32.53125 448.542969 35.277344 444.839844 38.578125 C 448.875 28.277344 457.078125 20.0625 467.367188 16.035156 Z M 518.675781 38.578125 C 514.976562 35.277344 510.019531 32.53125 504.164062 30.554688 C 502.1875 24.699219 499.441406 19.738281 496.144531 16.035156 C 506.433594 20.0625 514.644531 28.277344 518.675781 38.578125 Z M 507.613281 55.226562 L 521.140625 55.226562 C 519.945312 61.089844 514.121094 66.320312 505.757812 69.816406 C 506.820312 65.304688 507.464844 60.398438 507.613281 55.226562 Z M 484.019531 74.285156 L 484.019531 55.226562 L 503.074219 55.226562 C 502.882812 61.125 501.964844 66.714844 500.488281 71.699219 C 495.507812 73.183594 489.910156 74.101562 484.019531 74.285156 Z M 484.019531 92.367188 L 484.019531 78.828125 C 489.191406 78.675781 494.09375 78.03125 498.613281 76.960938 C 495.113281 85.335938 489.886719 91.160156 484.019531 92.367188 Z M 479.492188 78.828125 L 479.492188 92.367188 C 473.632812 91.160156 468.398438 85.335938 464.902344 76.960938 C 469.421875 78.03125 474.320312 78.675781 479.492188 78.828125 Z M 460.445312 55.226562 L 479.492188 55.226562 L 479.492188 74.285156 C 473.601562 74.101562 468.003906 73.183594 463.03125 71.699219 C 461.546875 66.714844 460.628906 61.125 460.445312 55.226562 Z M 455.902344 55.226562 C 456.046875 60.40625 456.699219 65.304688 457.769531 69.816406 C 449.390625 66.320312 443.574219 61.089844 442.371094 55.226562 Z M 455.902344 50.699219 L 442.371094 50.699219 C 443.574219 44.835938 449.390625 39.609375 457.769531 36.105469 C 456.699219 40.617188 456.046875 45.523438 455.902344 50.699219 Z M 479.492188 31.636719 L 479.492188 50.699219 L 460.445312 50.699219 C 460.628906 44.804688 461.546875 39.207031 463.03125 34.222656 C 468.003906 32.746094 473.601562 31.828125 479.492188 31.636719 Z M 479.492188 13.5625 L 479.492188 27.101562 C 474.320312 27.253906 469.421875 27.898438 464.902344 28.960938 C 468.398438 20.59375 473.632812 14.769531 479.492188 13.5625 Z M 484.019531 27.101562 L 484.019531 13.5625 C 489.886719 14.769531 495.113281 20.59375 498.613281 28.960938 C 494.09375 27.898438 489.191406 27.253906 484.019531 27.101562 Z M 503.074219 50.699219 L 484.019531 50.699219 L 484.019531 31.636719 C 489.910156 31.828125 495.507812 32.746094 500.488281 34.222656 C 501.964844 39.207031 502.882812 44.804688 503.074219 50.699219 Z M 507.613281 50.699219 C 507.464844 45.53125 506.820312 40.617188 505.757812 36.105469 C 514.121094 39.609375 519.945312 44.835938 521.140625 50.699219 Z M 481.757812 8.792969 C 457.414062 8.792969 437.609375 28.597656 437.601562 52.949219 L 437.601562 52.980469 C 437.609375 77.332031 457.414062 97.136719 481.757812 97.136719 C 506.105469 97.136719 525.910156 77.320312 525.910156 52.964844 C 525.910156 28.613281 506.105469 8.792969 481.757812 8.792969 " fill-opacity="1" fill-rule="nonzero"/><path fill="#c0253b" d="M 441.1875 216.328125 C 441.1875 245.816406 417.28125 269.730469 387.800781 269.730469 C 358.3125 269.730469 334.421875 245.816406 334.421875 216.328125 C 334.421875 186.839844 358.3125 162.925781 387.800781 162.925781 C 417.28125 162.925781 441.1875 186.839844 441.1875 216.328125 " fill-opacity="1" fill-rule="nonzero"/><path fill="#ffffff" d="M 420.410156 224.972656 C 420.152344 225.671875 419.371094 226.011719 418.683594 225.746094 C 407.089844 221.308594 396.914062 216.738281 396.816406 216.691406 C 396.308594 216.464844 395.792969 216.28125 395.269531 216.136719 C 394.191406 218.578125 392.234375 220.484375 389.75 221.5 C 387.253906 222.515625 384.523438 222.515625 382.054688 221.523438 C 381.789062 221.992188 381.539062 222.476562 381.332031 223 C 381.292969 223.101562 377.199219 233.503906 371.445312 245.027344 C 371.292969 245.335938 371.042969 245.558594 370.746094 245.671875 C 370.40625 245.808594 370.011719 245.808594 369.648438 245.625 C 368.988281 245.300781 368.714844 244.488281 369.042969 243.828125 C 374.75 232.414062 378.800781 222.121094 378.847656 222.023438 C 379.050781 221.5 379.292969 220.992188 379.558594 220.5 C 375.101562 218.679688 365.015625 214.664062 356.03125 211.792969 C 355.316406 211.570312 354.929688 210.8125 355.160156 210.109375 C 355.386719 209.402344 356.136719 209.015625 356.84375 209.242188 C 368.859375 213.082031 382.789062 218.9375 382.925781 218.988281 C 384.789062 219.777344 386.851562 219.785156 388.734375 219.019531 C 390.621094 218.246094 392.09375 216.804688 392.871094 214.9375 C 392.933594 214.800781 398.792969 200.890625 404.15625 189.992188 C 404.472656 189.328125 405.277344 189.054688 405.945312 189.378906 C 406.605469 189.714844 406.878906 190.507812 406.558594 191.175781 C 402.53125 199.359375 398.226562 209.25 396.332031 213.65625 C 396.859375 213.824219 397.390625 214.015625 397.90625 214.25 C 398.015625 214.292969 408.113281 218.835938 419.644531 223.242188 C 420.335938 223.507812 420.675781 224.28125 420.410156 224.972656 Z M 404.558594 186.390625 L 354.082031 206.960938 C 351.824219 207.886719 350.746094 210.457031 351.65625 212.710938 L 365.304688 246.195312 C 366.222656 248.445312 368.785156 249.539062 371.042969 248.621094 L 421.527344 228.050781 C 423.777344 227.128906 424.855469 224.554688 423.9375 222.304688 L 410.296875 188.808594 C 409.378906 186.558594 406.808594 185.472656 404.558594 186.390625 " fill-opacity="1" fill-rule="nonzero"/></svg>