<svg xmlns="http://www.w3.org/2000/svg" xmlns:xlink="http://www.w3.org/1999/xlink" width="1000" zoomAndPan="magnify" viewBox="0 0 750 749.999995" height="1000" preserveAspectRatio="xMidYMid meet" version="1.0"><defs><clipPath id="4f29664950"><path d="M 95.625 0 L 654.375 0 L 654.375 750 L 95.625 750 Z M 95.625 0 " clip-rule="nonzero"/></clipPath></defs><g clip-path="url(#4f29664950)"><path fill="#ffffff" d="M 654.234375 749.121094 L 96.53125 749.832031 L 95.574219 1.082031 L 653.277344 0.363281 L 654.234375 749.121094 " fill-opacity="1" fill-rule="nonzero"/></g><path fill="#bdbcbc" d="M 367.0625 303.671875 L 135.070312 303.972656 L 134.730469 43.199219 L 366.730469 42.90625 L 367.0625 303.671875 " fill-opacity="1" fill-rule="nonzero"/><path fill="#f9b095" d="M 275.015625 247.367188 L 226.964844 247.429688 L 226.941406 215.046875 L 274.988281 214.996094 L 275.015625 247.367188 " fill-opacity="1" fill-rule="nonzero"/><path fill="#aeacad" d="M 275.007812 241.785156 L 274.988281 214.996094 L 275.015625 241.785156 C 275.015625 241.785156 275.007812 241.785156 275.007812 241.785156 " fill-opacity="1" fill-rule="nonzero"/><path fill="#e4a187" d="M 261.980469 243.097656 C 261.855469 243.097656 261.726562 243.097656 261.59375 243.097656 C 253.800781 243.042969 245.851562 241.316406 238.621094 238.460938 C 234.648438 236.882812 230.339844 234.761719 226.957031 231.800781 L 226.941406 215.046875 L 274.988281 214.996094 L 275.007812 241.785156 C 270.730469 242.542969 266.328125 243.097656 261.980469 243.097656 " fill-opacity="1" fill-rule="nonzero"/><path fill="#f9b095" d="M 301.039062 155.003906 C 301.199219 153.832031 303.140625 151.914062 304.007812 151.265625 C 305.902344 149.824219 307.820312 151.296875 308.378906 153.179688 C 308.878906 154.859375 308.933594 156.738281 309.054688 158.480469 C 309.339844 162.722656 308.722656 166.894531 306.867188 170.734375 C 305.625 173.285156 303.667969 175.390625 301.355469 176.984375 C 301.355469 176.984375 298.855469 178.25 298.363281 175.328125 L 301.039062 155.003906 " fill-opacity="1" fill-rule="nonzero"/><path fill="#dd9c83" d="M 300.652344 157.566406 C 300.761719 156.714844 302.148438 155.34375 302.765625 154.882812 C 304.121094 153.847656 305.5 154.898438 305.902344 156.246094 C 306.257812 157.441406 306.289062 158.796875 306.378906 160.039062 C 306.589844 163.078125 306.148438 166.070312 304.816406 168.796875 C 303.929688 170.632812 302.527344 172.144531 300.875 173.285156 C 300.875 173.285156 299.085938 174.195312 298.726562 172.097656 L 300.652344 157.566406 " fill-opacity="1" fill-rule="nonzero"/><path fill="#f9b095" d="M 199.492188 155.128906 C 199.332031 153.964844 197.378906 152.042969 196.523438 151.398438 C 194.621094 149.964844 192.699219 151.4375 192.152344 153.324219 C 191.660156 154.996094 191.613281 156.886719 191.5 158.636719 C 191.207031 162.875 191.84375 167.039062 193.71875 170.878906 C 194.96875 173.421875 196.925781 175.519531 199.238281 177.101562 C 199.238281 177.101562 201.730469 178.375 202.230469 175.453125 L 199.492188 155.128906 " fill-opacity="1" fill-rule="nonzero"/><path fill="#dd9c83" d="M 199.894531 157.679688 C 199.785156 156.847656 198.375 155.476562 197.773438 155.003906 C 196.402344 153.988281 195.035156 155.042969 194.644531 156.386719 C 194.289062 157.589844 194.25 158.9375 194.164062 160.1875 C 193.964844 163.230469 194.414062 166.207031 195.761719 168.945312 C 196.65625 170.773438 198.050781 172.28125 199.71875 173.410156 C 199.71875 173.410156 201.496094 174.308594 201.84375 172.230469 L 199.894531 157.679688 " fill-opacity="1" fill-rule="nonzero"/><path fill="#f9b095" d="M 302.5625 158.828125 C 302.585938 172.230469 300.34375 185.773438 294.199219 197.378906 C 288.808594 207.523438 280.714844 215.65625 272.035156 222.148438 C 264.996094 227.421875 257.4375 233.558594 248.519531 232.828125 C 239.222656 232.054688 231.957031 223.945312 225.160156 217.625 C 215.582031 208.734375 208.035156 197.671875 203.363281 184.664062 C 200.496094 176.644531 199.167969 167.59375 199.152344 158.960938 C 199.101562 115.65625 222.214844 88.371094 250.777344 88.332031 C 279.335938 88.300781 302.511719 115.515625 302.5625 158.828125 " fill-opacity="1" fill-rule="nonzero"/><path fill="#f9b095" d="M 334.921875 261.929688 L 275.023438 246.34375 L 250.992188 246.371094 L 226.96875 246.402344 L 167.113281 262.148438 C 167.113281 262.148438 139.371094 272.453125 136.335938 305.003906 L 365.808594 304.710938 C 362.683594 272.175781 334.921875 261.929688 334.921875 261.929688 " fill-opacity="1" fill-rule="nonzero"/><path fill="#ffffff" d="M 334.921875 261.929688 L 275.023438 246.34375 L 250.992188 246.371094 L 226.96875 246.402344 L 167.113281 262.148438 C 167.113281 262.148438 139.371094 272.453125 136.335938 305.003906 L 365.808594 304.710938 C 362.683594 272.175781 334.921875 261.929688 334.921875 261.929688 " fill-opacity="1" fill-rule="nonzero"/><path fill="#183651" d="M 334.921875 261.929688 L 290.589844 250.398438 L 251.070312 304.859375 L 211.835938 250.382812 L 167.113281 262.148438 C 167.113281 262.148438 139.371094 272.453125 136.335938 305.003906 L 365.808594 304.710938 C 362.683594 272.175781 334.921875 261.929688 334.921875 261.929688 " fill-opacity="1" fill-rule="nonzero"/><path fill="#bf1b2c" d="M 245.78125 277.605469 L 234.78125 304.875 L 266.128906 304.84375 L 255.34375 277.589844 L 245.78125 277.605469 " fill-opacity="1" fill-rule="nonzero"/><path fill="#bf1b2c" d="M 250.285156 246.90625 L 236.253906 265.769531 L 246.035156 277.675781 L 250.808594 277.597656 L 255.597656 277.511719 L 264.949219 265.269531 L 250.285156 246.90625 " fill-opacity="1" fill-rule="nonzero"/><path fill="#d3d2d2" d="M 236.253906 265.769531 L 249.691406 247.691406 C 249.691406 247.699219 249.691406 247.699219 249.691406 247.699219 L 236.253906 265.769531 M 264.949219 265.269531 L 260.976562 260.304688 C 260.976562 260.296875 260.976562 260.296875 260.976562 260.296875 L 264.949219 265.269531 " fill-opacity="1" fill-rule="nonzero"/><path fill="#9f1523" d="M 246.035156 277.675781 L 236.253906 265.769531 L 249.691406 247.699219 C 248.125 251.855469 245.28125 255.515625 244.234375 259.910156 C 243.152344 264.421875 245.320312 268.855469 250.007812 269.871094 C 250.484375 269.980469 250.949219 270.027344 251.394531 270.027344 C 255.226562 270.027344 258.070312 266.449219 259.675781 263.265625 C 260.160156 262.308594 260.59375 261.3125 260.976562 260.304688 L 264.949219 265.269531 L 255.597656 277.511719 L 246.035156 277.675781 " fill-opacity="1" fill-rule="nonzero"/><path fill="#11273a" d="M 251.070312 304.859375 L 211.835938 250.382812 L 180.535156 258.617188 L 220.59375 286.734375 L 210.316406 291.28125 L 228.835938 304.890625 L 251.070312 304.859375 " fill-opacity="1" fill-rule="nonzero"/><path fill="#11273a" d="M 251.070312 304.9375 L 290.167969 250.359375 L 321.484375 258.507812 L 281.507812 286.734375 L 291.792969 291.25 L 273.304688 304.90625 L 251.070312 304.9375 " fill-opacity="1" fill-rule="nonzero"/><path fill="#e5e4e4" d="M 203.410156 247.582031 L 226.878906 236.535156 L 250.832031 246.511719 L 274.761719 236.464844 L 299.875 247.453125 L 264.417969 271.261719 L 250.839844 251.855469 L 236.261719 271.296875 L 203.410156 247.582031 " fill-opacity="1" fill-rule="nonzero"/><path fill="#190d07" d="M 281.230469 214.308594 C 281.230469 214.308594 294.191406 202.011719 297.042969 191.179688 C 297.042969 191.179688 281.742188 205.019531 276.398438 203.5625 L 281.230469 214.308594 " fill-opacity="1" fill-rule="nonzero"/><path fill="#190d07" d="M 224.296875 218.054688 C 224.296875 218.054688 209.222656 205.1875 205.082031 189.019531 C 205.082031 189.019531 222.269531 208.828125 227.609375 207.347656 L 224.296875 218.054688 " fill-opacity="1" fill-rule="nonzero"/><path fill="#1e100a" d="M 260.082031 196.761719 C 268.578125 196.851562 273.214844 199.789062 273.214844 199.789062 C 280.683594 203.296875 282.613281 212.867188 282.613281 212.867188 C 282.613281 212.867188 277.484375 218.554688 271.207031 222.589844 C 257.0625 234.339844 250.5625 232.867188 250.5625 232.867188 C 242.503906 232.886719 236.832031 227.847656 236.832031 227.847656 L 223.570312 217.484375 C 221.898438 205.679688 232.191406 199.835938 232.191406 199.835938 C 238.367188 196.824219 239.484375 197.230469 239.484375 197.230469 C 239.484375 197.230469 248.734375 196.136719 251.007812 199.804688 C 251.007812 199.804688 253.328125 196.769531 259.613281 196.746094 " fill-opacity="1" fill-rule="nonzero"/><path fill="#f9b095" d="M 252.1875 206.476562 C 252.1875 206.476562 246.367188 203.570312 237.902344 206.714844 C 237.902344 206.714844 250.761719 220.320312 265.335938 206.851562 C 265.335938 206.851562 257.507812 203.214844 252.1875 206.476562 " fill-opacity="1" fill-rule="nonzero"/><path fill="#190d07" d="M 304.5 143.402344 C 304.523438 142.761719 304.523438 142.199219 304.492188 141.699219 C 306.566406 130.226562 308.402344 111.53125 302.949219 94.9375 C 303.195312 94.761719 303.375 94.570312 303.605469 94.382812 C 303.050781 89.347656 301.230469 85.0625 298.507812 81.5 C 297.359375 81.746094 296.597656 81.847656 296.597656 81.847656 C 297.113281 81.53125 297.570312 81.207031 298 80.867188 C 295.332031 77.578125 291.917969 74.902344 288.046875 72.820312 C 285.835938 73.683594 284.253906 74.152344 284.253906 74.152344 C 285.15625 73.542969 285.847656 72.84375 286.414062 72.070312 C 284.382812 71.316406 282.179688 70.636719 279.75 70.019531 C 277.59375 69.480469 275.425781 69.148438 273.265625 68.894531 C 270.027344 70.199219 267.554688 70.832031 267.554688 70.832031 C 268.765625 70.128906 269.8125 69.398438 270.746094 68.648438 C 263.261719 68.078125 255.765625 68.664062 248.25 68.480469 C 247.140625 68.695312 246.484375 68.789062 246.484375 68.789062 C 246.484375 68.789062 220.996094 71.15625 214.710938 92.324219 C 196.078125 95.023438 195.945312 126.535156 197.265625 143.53125 L 198.46875 164.09375 L 202.601562 164.101562 C 200.734375 154.25 202.578125 140.890625 202.578125 140.890625 C 205.40625 131.304688 206.863281 125.648438 208.699219 121.636719 C 213.101562 111.992188 219.96875 109.070312 224.363281 108.199219 L 228.535156 107.882812 C 246.785156 105.183594 252.164062 118.121094 252.164062 118.121094 C 254.988281 110.667969 264.515625 108.855469 264.515625 108.855469 C 292.257812 105.125 296.265625 127.066406 296.265625 127.066406 L 299.417969 141.027344 C 299.859375 145.667969 300.621094 156.429688 299.21875 163.972656 L 303.34375 163.964844 L 304.5 143.402344 " fill-opacity="1" fill-rule="nonzero"/><path fill="#d82930" d="M 615.238281 57.277344 L 391.195312 57.570312 L 391.179688 42.867188 L 615.222656 42.582031 L 615.238281 57.277344 " fill-opacity="1" fill-rule="nonzero"/><path fill="#d82930" d="M 483.394531 88.03125 L 391.242188 88.160156 L 391.21875 73.460938 L 483.378906 73.34375 L 483.394531 88.03125 " fill-opacity="1" fill-rule="nonzero"/><path fill="#d82930" d="M 367.125 354.269531 L 133.113281 354.5625 L 133.089844 339.875 L 367.109375 339.574219 L 367.125 354.269531 " fill-opacity="1" fill-rule="nonzero"/><path fill="#bdbcbc" d="M 615.378906 160.734375 L 391.339844 161.027344 L 391.324219 154.8125 L 615.371094 154.527344 L 615.378906 160.734375 " fill-opacity="1" fill-rule="nonzero"/><path fill="#bdbcbc" d="M 615.394531 176.175781 L 391.355469 176.46875 L 391.339844 170.261719 L 615.386719 169.96875 L 615.394531 176.175781 " fill-opacity="1" fill-rule="nonzero"/><path fill="#bdbcbc" d="M 615.410156 191.609375 L 391.371094 191.894531 L 391.355469 185.707031 L 615.410156 185.40625 L 615.410156 191.609375 " fill-opacity="1" fill-rule="nonzero"/><path fill="#bdbcbc" d="M 615.433594 207.054688 L 391.386719 207.339844 L 391.378906 201.140625 L 615.433594 200.847656 L 615.433594 207.054688 " fill-opacity="1" fill-rule="nonzero"/><path fill="#bdbcbc" d="M 615.453125 222.488281 L 391.410156 222.78125 L 391.402344 216.574219 L 615.445312 216.289062 L 615.453125 222.488281 " fill-opacity="1" fill-rule="nonzero"/><path fill="#bdbcbc" d="M 615.476562 237.929688 L 391.433594 238.214844 L 391.425781 232.023438 L 615.460938 231.722656 L 615.476562 237.929688 " fill-opacity="1" fill-rule="nonzero"/><path fill="#bdbcbc" d="M 615.492188 253.375 L 391.449219 253.660156 L 391.441406 247.453125 L 615.484375 247.167969 L 615.492188 253.375 " fill-opacity="1" fill-rule="nonzero"/><path fill="#bdbcbc" d="M 615.515625 268.808594 L 391.464844 269.09375 L 391.464844 262.894531 L 615.5 262.609375 L 615.515625 268.808594 " fill-opacity="1" fill-rule="nonzero"/><path fill="#bdbcbc" d="M 615.53125 284.25 L 391.488281 284.535156 L 391.472656 278.328125 L 615.523438 278.042969 L 615.53125 284.25 " fill-opacity="1" fill-rule="nonzero"/><path fill="#bdbcbc" d="M 615.554688 299.691406 L 391.511719 299.972656 L 391.496094 293.773438 L 615.539062 293.488281 L 615.554688 299.691406 " fill-opacity="1" fill-rule="nonzero"/><path fill="#bdbcbc" d="M 615.648438 371.925781 L 135.164062 372.542969 L 135.15625 366.351562 L 615.632812 365.734375 L 615.648438 371.925781 " fill-opacity="1" fill-rule="nonzero"/><path fill="#bdbcbc" d="M 615.664062 387.367188 L 135.179688 387.984375 L 135.171875 381.792969 L 615.65625 381.167969 L 615.664062 387.367188 " fill-opacity="1" fill-rule="nonzero"/><path fill="#bdbcbc" d="M 615.695312 402.808594 L 135.203125 403.425781 L 135.195312 397.230469 L 615.679688 396.613281 L 615.695312 402.808594 " fill-opacity="1" fill-rule="nonzero"/><path fill="#bdbcbc" d="M 615.703125 418.246094 L 135.21875 418.863281 L 135.210938 412.664062 L 615.695312 412.046875 L 615.703125 418.246094 " fill-opacity="1" fill-rule="nonzero"/><path fill="#bdbcbc" d="M 615.726562 433.6875 L 135.242188 434.296875 L 135.234375 428.097656 L 615.71875 427.488281 L 615.726562 433.6875 " fill-opacity="1" fill-rule="nonzero"/><path fill="#bdbcbc" d="M 337.675781 449.484375 L 135.257812 449.746094 L 135.242188 443.539062 L 337.667969 443.277344 L 337.675781 449.484375 " fill-opacity="1" fill-rule="nonzero"/><path fill="#bdbcbc" d="M 615.769531 464.566406 L 135.277344 465.175781 L 135.277344 458.976562 L 615.761719 458.367188 L 615.769531 464.566406 " fill-opacity="1" fill-rule="nonzero"/><path fill="#bdbcbc" d="M 615.777344 480.007812 L 135.300781 480.625 L 135.292969 474.417969 L 615.769531 473.808594 L 615.777344 480.007812 " fill-opacity="1" fill-rule="nonzero"/><path fill="#bdbcbc" d="M 615.800781 495.441406 L 135.316406 496.058594 L 135.308594 489.851562 L 615.785156 489.25 L 615.800781 495.441406 " fill-opacity="1" fill-rule="nonzero"/><path fill="#bdbcbc" d="M 358.40625 511.214844 L 135.332031 511.5 L 135.332031 505.296875 L 358.398438 505.011719 L 358.40625 511.214844 " fill-opacity="1" fill-rule="nonzero"/><path fill="#d82930" d="M 368.390625 548.0625 L 134.378906 548.355469 L 134.363281 533.660156 L 368.367188 533.367188 L 368.390625 548.0625 " fill-opacity="1" fill-rule="nonzero"/><path fill="#bdbcbc" d="M 616.902344 565.722656 L 136.414062 566.332031 L 136.414062 560.140625 L 616.902344 559.527344 L 616.902344 565.722656 " fill-opacity="1" fill-rule="nonzero"/><path fill="#bdbcbc" d="M 616.925781 581.167969 L 136.4375 581.777344 L 136.4375 575.578125 L 616.910156 574.96875 L 616.925781 581.167969 " fill-opacity="1" fill-rule="nonzero"/><path fill="#bdbcbc" d="M 616.941406 596.609375 L 136.449219 597.21875 L 136.441406 591.011719 L 616.933594 590.402344 L 616.941406 596.609375 " fill-opacity="1" fill-rule="nonzero"/><path fill="#bdbcbc" d="M 616.964844 612.042969 L 136.480469 612.660156 L 136.472656 606.453125 L 616.941406 605.851562 L 616.964844 612.042969 " fill-opacity="1" fill-rule="nonzero"/><path fill="#bdbcbc" d="M 616.980469 627.480469 L 136.496094 628.097656 L 136.488281 621.898438 L 616.964844 621.28125 L 616.980469 627.480469 " fill-opacity="1" fill-rule="nonzero"/><path fill="#bdbcbc" d="M 338.929688 643.277344 L 136.519531 643.53125 L 136.511719 637.332031 L 338.921875 637.078125 L 338.929688 643.277344 " fill-opacity="1" fill-rule="nonzero"/><path fill="#bdbcbc" d="M 617.019531 658.355469 L 136.535156 658.980469 L 136.535156 652.773438 L 617.011719 652.164062 L 617.019531 658.355469 " fill-opacity="1" fill-rule="nonzero"/><path fill="#bdbcbc" d="M 617.035156 673.792969 L 136.558594 674.414062 L 136.542969 668.210938 L 617.035156 667.609375 L 617.035156 673.792969 " fill-opacity="1" fill-rule="nonzero"/><path fill="#bdbcbc" d="M 617.066406 689.234375 L 136.574219 689.851562 L 136.566406 683.652344 L 617.050781 683.035156 L 617.066406 689.234375 " fill-opacity="1" fill-rule="nonzero"/><path fill="#bdbcbc" d="M 359.664062 705.007812 L 136.597656 705.285156 L 136.582031 699.09375 L 359.664062 698.808594 L 359.664062 705.007812 " fill-opacity="1" fill-rule="nonzero"/></svg>