<svg xmlns="http://www.w3.org/2000/svg" xmlns:xlink="http://www.w3.org/1999/xlink" width="1080" zoomAndPan="magnify" viewBox="0 0 810 809.999993" height="1080" preserveAspectRatio="xMidYMid meet" version="1.0"><path fill="#ffffff" d="M 156.773438 209.03125 L 26.128906 209.03125 L 26.128906 26.128906 L 156.773438 26.128906 Z M 182.902344 130.644531 L 235.160156 130.644531 L 235.160156 365.804688 L 444.195312 365.804688 L 444.195312 339.675781 L 261.289062 339.675781 L 261.289062 104.515625 L 182.902344 104.515625 L 182.902344 0 L 0 0 L 0 235.160156 L 182.902344 235.160156 L 182.902344 130.644531 " fill-opacity="1" fill-rule="nonzero"/><path fill="#ffffff" d="M 156.773438 496.453125 L 26.128906 496.453125 L 26.128906 313.546875 L 156.773438 313.546875 Z M 182.902344 418.066406 L 444.195312 418.066406 L 444.195312 391.933594 L 182.902344 391.933594 L 182.902344 287.417969 L 0 287.417969 L 0 522.582031 L 182.902344 522.582031 L 182.902344 418.066406 " fill-opacity="1" fill-rule="nonzero"/><path fill="#ffffff" d="M 731.613281 421.738281 L 701.605469 431.691406 L 699.410156 437.507812 C 698.746094 439.191406 698.136719 440.824219 697.421875 442.40625 L 694.867188 448.070312 L 709.003906 476.34375 L 685.375 499.972656 L 657.105469 485.835938 L 651.441406 488.386719 C 649.859375 489.101562 648.171875 489.765625 646.488281 490.378906 L 640.722656 492.625 L 630.769531 522.582031 L 597.292969 522.582031 L 587.34375 492.625 L 581.574219 490.378906 C 579.890625 489.765625 578.207031 489.101562 576.625 488.386719 L 570.960938 485.835938 L 542.6875 499.972656 L 519.058594 476.34375 L 533.195312 448.070312 L 530.644531 442.40625 C 529.929688 440.824219 529.316406 439.191406 528.652344 437.507812 L 526.460938 431.691406 L 496.453125 421.738281 L 496.453125 388.261719 L 526.460938 378.308594 L 528.652344 372.492188 C 529.316406 370.808594 529.929688 369.175781 530.644531 367.59375 L 533.195312 361.929688 L 519.058594 333.65625 L 542.6875 310.027344 L 570.960938 324.164062 L 576.625 321.613281 C 578.207031 320.898438 579.890625 320.234375 581.574219 319.621094 L 587.34375 317.375 L 597.292969 287.417969 L 630.769531 287.417969 L 640.722656 317.375 L 646.488281 319.621094 C 648.171875 320.234375 649.859375 320.898438 651.441406 321.613281 L 657.105469 324.164062 L 685.375 310.027344 L 709.003906 333.65625 L 694.867188 361.929688 L 697.421875 367.59375 C 698.136719 369.175781 698.746094 370.808594 699.410156 372.492188 L 701.605469 378.308594 L 731.613281 388.261719 Z M 757.742188 369.480469 L 725.640625 358.765625 L 740.800781 328.5 L 690.53125 278.234375 L 660.269531 293.390625 L 649.550781 261.289062 L 578.511719 261.289062 L 567.796875 293.390625 L 537.535156 278.234375 L 487.265625 328.5 L 502.421875 358.765625 L 470.324219 369.480469 L 470.324219 440.519531 L 502.421875 451.234375 L 487.265625 481.5 L 537.535156 531.765625 L 567.796875 516.609375 L 578.511719 548.710938 L 649.550781 548.710938 L 660.269531 516.609375 L 690.53125 531.765625 L 740.800781 481.5 L 725.640625 451.234375 L 757.742188 440.519531 L 757.742188 369.480469 " fill-opacity="1" fill-rule="nonzero"/><path fill="#ffffff" d="M 614.03125 444.195312 C 592.394531 444.195312 574.839844 426.636719 574.839844 405 C 574.839844 383.363281 592.394531 365.804688 614.03125 365.804688 C 635.671875 365.804688 653.226562 383.363281 653.226562 405 C 653.226562 426.636719 635.671875 444.195312 614.03125 444.195312 Z M 614.03125 339.675781 C 578.003906 339.675781 548.710938 368.96875 548.710938 405 C 548.710938 441.03125 578.003906 470.324219 614.03125 470.324219 C 650.0625 470.324219 679.355469 441.03125 679.355469 405 C 679.355469 368.96875 650.0625 339.675781 614.03125 339.675781 " fill-opacity="1" fill-rule="nonzero"/><path fill="#ffffff" d="M 358.152344 130.644531 L 444.195312 44.601562 L 444.195312 130.644531 Z M 451.847656 0 L 313.546875 138.300781 L 313.546875 313.546875 L 339.675781 313.546875 L 339.675781 156.773438 L 470.324219 156.773438 L 470.324219 26.128906 L 783.871094 26.128906 L 783.871094 783.871094 L 339.675781 783.871094 L 339.675781 496.453125 L 313.546875 496.453125 L 313.546875 810 L 810 810 L 810 0 L 451.847656 0 " fill-opacity="1" fill-rule="nonzero"/><path fill="#ffffff" d="M 731.613281 130.644531 L 522.582031 130.644531 L 522.582031 78.386719 L 731.613281 78.386719 Z M 757.742188 52.257812 L 496.453125 52.257812 L 496.453125 156.773438 L 757.742188 156.773438 L 757.742188 52.257812 " fill-opacity="1" fill-rule="nonzero"/><path fill="#ffffff" d="M 365.804688 182.902344 L 365.804688 209.03125 L 391.933594 209.03125 L 391.933594 182.902344 L 365.804688 182.902344 " fill-opacity="1" fill-rule="nonzero"/><path fill="#ffffff" d="M 418.066406 209.03125 L 757.742188 209.03125 L 757.742188 182.902344 L 418.066406 182.902344 L 418.066406 209.03125 " fill-opacity="1" fill-rule="nonzero"/><path fill="#ffffff" d="M 705.484375 705.484375 L 731.613281 705.484375 L 731.613281 731.613281 L 705.484375 731.613281 Z M 757.742188 757.742188 L 757.742188 679.355469 L 679.355469 679.355469 L 679.355469 757.742188 L 757.742188 757.742188 " fill-opacity="1" fill-rule="nonzero"/><path fill="#ffffff" d="M 600.96875 705.484375 L 627.097656 705.484375 L 627.097656 731.613281 L 600.96875 731.613281 Z M 653.226562 757.742188 L 653.226562 679.355469 L 574.839844 679.355469 L 574.839844 757.742188 L 653.226562 757.742188 " fill-opacity="1" fill-rule="nonzero"/><path fill="#ffffff" d="M 496.453125 705.484375 L 522.582031 705.484375 L 522.582031 731.613281 L 496.453125 731.613281 Z M 548.710938 757.742188 L 548.710938 679.355469 L 470.324219 679.355469 L 470.324219 757.742188 L 548.710938 757.742188 " fill-opacity="1" fill-rule="nonzero"/><path fill="#ffffff" d="M 391.933594 705.484375 L 418.066406 705.484375 L 418.066406 731.613281 L 391.933594 731.613281 Z M 365.804688 757.742188 L 444.195312 757.742188 L 444.195312 679.355469 L 365.804688 679.355469 L 365.804688 757.742188 " fill-opacity="1" fill-rule="nonzero"/><path fill="#ffffff" d="M 365.804688 627.097656 L 365.804688 653.226562 L 391.933594 653.226562 L 391.933594 627.097656 L 365.804688 627.097656 " fill-opacity="1" fill-rule="nonzero"/><path fill="#ffffff" d="M 757.742188 627.097656 L 418.066406 627.097656 L 418.066406 653.226562 L 757.742188 653.226562 L 757.742188 627.097656 " fill-opacity="1" fill-rule="nonzero"/><path fill="#ffffff" d="M 757.742188 574.839844 L 365.804688 574.839844 L 365.804688 600.96875 L 757.742188 600.96875 L 757.742188 574.839844 " fill-opacity="1" fill-rule="nonzero"/><path fill="#ffffff" d="M 130.644531 627.097656 L 52.257812 627.097656 L 52.257812 653.226562 L 130.644531 653.226562 L 130.644531 627.097656 " fill-opacity="1" fill-rule="nonzero"/><path fill="#ffffff" d="M 130.644531 679.355469 L 52.257812 679.355469 L 52.257812 705.484375 L 130.644531 705.484375 L 130.644531 679.355469 " fill-opacity="1" fill-rule="nonzero"/><path fill="#ffffff" d="M 130.644531 731.613281 L 52.257812 731.613281 L 52.257812 757.742188 L 130.644531 757.742188 L 130.644531 731.613281 " fill-opacity="1" fill-rule="nonzero"/><path fill="#ffffff" d="M 130.644531 339.675781 L 52.257812 339.675781 L 52.257812 365.804688 L 130.644531 365.804688 L 130.644531 339.675781 " fill-opacity="1" fill-rule="nonzero"/><path fill="#ffffff" d="M 130.644531 391.933594 L 52.257812 391.933594 L 52.257812 418.066406 L 130.644531 418.066406 L 130.644531 391.933594 " fill-opacity="1" fill-rule="nonzero"/><path fill="#ffffff" d="M 130.644531 444.195312 L 52.257812 444.195312 L 52.257812 470.324219 L 130.644531 470.324219 L 130.644531 444.195312 " fill-opacity="1" fill-rule="nonzero"/><path fill="#ffffff" d="M 130.644531 52.257812 L 52.257812 52.257812 L 52.257812 78.386719 L 130.644531 78.386719 L 130.644531 52.257812 " fill-opacity="1" fill-rule="nonzero"/><path fill="#ffffff" d="M 130.644531 104.515625 L 52.257812 104.515625 L 52.257812 130.644531 L 130.644531 130.644531 L 130.644531 104.515625 " fill-opacity="1" fill-rule="nonzero"/><path fill="#ffffff" d="M 130.644531 156.773438 L 52.257812 156.773438 L 52.257812 182.902344 L 130.644531 182.902344 L 130.644531 156.773438 " fill-opacity="1" fill-rule="nonzero"/><path fill="#ffffff" d="M 156.773438 783.871094 L 26.128906 783.871094 L 26.128906 600.96875 L 156.773438 600.96875 Z M 444.195312 444.195312 L 235.160156 444.195312 L 235.160156 679.355469 L 182.902344 679.355469 L 182.902344 574.839844 L 0 574.839844 L 0 810 L 182.902344 810 L 182.902344 705.484375 L 261.289062 705.484375 L 261.289062 470.324219 L 444.195312 470.324219 L 444.195312 444.195312 " fill-opacity="1" fill-rule="nonzero"/></svg>