<svg xmlns="http://www.w3.org/2000/svg" xmlns:xlink="http://www.w3.org/1999/xlink" width="1080" zoomAndPan="magnify" viewBox="0 0 810 809.999993" height="1080" preserveAspectRatio="xMidYMid meet" version="1.0"><path fill="#ff914d" d="M 806.484375 351.535156 L 754.933594 333.210938 C 745.683594 287.945312 727.851562 245.828125 703.261719 208.570312 L 726.757812 159.144531 C 704.945312 130.660156 679.445312 105.160156 650.96875 83.351562 L 601.542969 106.851562 C 564.285156 82.253906 522.160156 64.429688 476.898438 55.183594 L 458.578125 3.628906 C 441.039062 1.320312 423.164062 0.101562 404.992188 0.101562 C 386.832031 0.101562 368.960938 1.320312 351.417969 3.628906 L 341.09375 32.695312 L 338.140625 41.007812 L 338.140625 135.207031 C 359.558594 129.914062 381.953125 127.113281 404.992188 127.113281 C 558.539062 127.113281 682.988281 251.574219 682.988281 405.101562 C 682.988281 525.984375 605.863281 628.839844 498.121094 667.128906 C 487 671.09375 475.554688 674.355469 463.820312 676.875 L 487.71875 653.023438 L 544.269531 596.574219 L 544.269531 548.097656 C 566.398438 543.105469 582.921875 523.316406 582.921875 499.691406 C 582.921875 472.269531 560.691406 450.054688 533.285156 450.054688 C 505.863281 450.054688 483.648438 472.269531 483.648438 499.691406 C 483.648438 523.304688 500.160156 543.082031 522.269531 548.082031 L 522.269531 587.445312 L 445.410156 664.167969 L 440.417969 669.148438 L 440.417969 475.214844 L 544.269531 371.558594 L 544.269531 323.082031 C 566.398438 318.089844 582.921875 298.300781 582.921875 274.675781 C 582.921875 247.257812 560.691406 225.039062 533.285156 225.039062 C 505.863281 225.039062 483.648438 247.257812 483.648438 274.675781 C 483.648438 298.300781 500.160156 318.0625 522.269531 323.082031 L 522.269531 362.429688 L 418.429688 466.089844 L 418.429688 809.894531 C 420.238281 809.84375 422.015625 809.765625 423.8125 809.6875 C 429.375 809.421875 434.914062 809.046875 440.417969 808.574219 C 442.214844 808.421875 444.015625 808.257812 445.800781 808.074219 C 450.082031 807.652344 454.339844 807.160156 458.578125 806.597656 L 476.898438 755.042969 C 522.160156 745.796875 564.285156 727.96875 601.542969 703.375 L 650.96875 726.859375 C 679.445312 705.066406 704.945312 679.558594 726.757812 651.085938 L 703.261719 601.65625 C 727.851562 564.394531 745.683594 522.273438 754.933594 477.015625 L 806.484375 458.675781 C 808.792969 441.148438 810.011719 423.28125 810.011719 405.101562 C 810.011719 386.945312 808.792969 369.074219 806.484375 351.535156 " fill-opacity="1" fill-rule="nonzero"/><path fill="#ff3131" d="M 436.375 248.453125 C 418.835938 248.453125 404.609375 234.230469 404.609375 216.675781 C 404.609375 199.132812 418.835938 184.910156 436.375 184.910156 C 453.929688 184.910156 468.152344 199.132812 468.152344 216.675781 C 468.152344 234.230469 453.929688 248.453125 436.375 248.453125 Z M 265.9375 360.820312 C 248.382812 360.820312 234.15625 346.589844 234.15625 329.039062 C 234.15625 311.5 248.382812 297.273438 265.9375 297.273438 C 283.480469 297.273438 297.703125 311.5 297.703125 329.039062 C 297.703125 346.589844 283.480469 360.820312 265.9375 360.820312 Z M 127 405.101562 C 127 290.640625 196.1875 192.347656 294.996094 149.75 L 294.996094 212.03125 L 369.542969 286.246094 L 369.542969 574.578125 L 276.953125 481.9375 L 276.953125 377.445312 C 299.0625 372.445312 315.574219 352.667969 315.574219 329.039062 C 315.574219 301.632812 293.34375 279.402344 265.9375 279.402344 C 238.527344 279.402344 216.300781 301.632812 216.300781 329.039062 C 216.300781 352.679688 232.824219 372.457031 254.949219 377.445312 L 254.949219 491.066406 L 369.542969 605.675781 L 369.542969 680.863281 C 232.757812 663.460938 127 546.628906 127 405.101562 Z M 436.375 167.042969 C 408.964844 167.042969 386.75 189.265625 386.75 216.675781 C 386.75 240.3125 403.25 260.078125 425.375 265.085938 L 425.375 356.222656 L 391.535156 389.992188 L 391.535156 277.117188 L 317 202.898438 L 317 58.878906 C 315.890625 59.160156 314.792969 59.433594 313.699219 59.726562 C 307.398438 61.390625 301.152344 63.210938 294.996094 65.203125 C 264.089844 75.191406 235.042969 89.300781 208.457031 106.851562 L 159.03125 83.351562 C 130.550781 105.160156 105.050781 130.664062 83.242188 159.144531 L 106.738281 208.566406 C 82.144531 245.828125 64.3125 287.945312 55.054688 333.214844 L 3.515625 351.535156 C 1.207031 369.074219 -0.0117188 386.941406 -0.0117188 405.101562 C -0.0117188 423.28125 1.207031 441.148438 3.515625 458.675781 L 55.054688 477.015625 C 64.3125 522.273438 82.128906 564.394531 106.738281 601.65625 L 83.242188 651.085938 C 105.050781 679.558594 130.550781 705.066406 159.03125 726.859375 L 208.457031 703.375 C 245.714844 727.96875 287.835938 745.796875 333.101562 755.042969 L 351.417969 806.59375 C 357.433594 807.390625 363.464844 808.050781 369.542969 808.574219 C 371.339844 808.734375 373.136719 808.878906 374.933594 809.015625 C 380.441406 809.421875 385.972656 809.714844 391.535156 809.898438 L 391.535156 421.070312 L 447.367188 365.347656 L 447.367188 265.097656 C 469.503906 260.089844 486.011719 240.320312 486.011719 216.675781 C 486.011719 189.265625 463.796875 167.042969 436.375 167.042969 " fill-opacity="1" fill-rule="nonzero"/></svg>