<svg xmlns="http://www.w3.org/2000/svg" xmlns:xlink="http://www.w3.org/1999/xlink" width="1000" zoomAndPan="magnify" viewBox="0 0 750 749.999995" height="1000" preserveAspectRatio="xMidYMid meet" version="1.0"><path fill="#0277b5" d="M 687.34375 0 L 63.03125 0 C 28.515625 0 0.75 28.140625 0.75 62.28125 L 0.75 687.71875 C 0.75 722.234375 28.890625 750 63.03125 750 L 686.96875 750 C 721.484375 750 749.25 721.859375 749.25 687.71875 L 749.25 62.28125 C 749.625 28.140625 721.859375 0 687.34375 0 Z M 222.484375 618.683594 L 111.804688 618.683594 L 111.804688 286.269531 L 222.484375 286.269531 Z M 166.957031 246.125 C 132.066406 246.125 103.925781 217.984375 103.925781 183.089844 C 103.925781 148.199219 132.066406 120.058594 166.957031 120.058594 C 201.851562 120.058594 229.988281 148.199219 229.988281 183.089844 C 229.988281 217.984375 201.851562 246.125 166.957031 246.125 Z M 638.945312 618.683594 L 527.890625 618.683594 L 525.261719 421.335938 C 525.261719 421.335938 527.890625 368.808594 470.484375 369.183594 C 413.082031 369.558594 405.203125 421.335938 405.203125 421.335938 L 405.203125 618.683594 L 293.398438 618.683594 L 293.398438 286.269531 L 400.699219 286.269531 L 400.699219 332.039062 C 400.699219 332.039062 405.203125 317.035156 429.964844 299.398438 C 454.726562 281.765625 495.621094 278.015625 513.257812 278.765625 C 530.890625 279.515625 554.902344 276.511719 595.046875 304.277344 C 638.195312 333.917969 639.320312 411.582031 639.320312 411.582031 Z M 638.945312 618.683594 " fill-opacity="1" fill-rule="nonzero"/></svg>