<svg xmlns="http://www.w3.org/2000/svg" xmlns:xlink="http://www.w3.org/1999/xlink" width="1000" zoomAndPan="magnify" viewBox="0 0 750 749.999995" height="1000" preserveAspectRatio="xMidYMid meet" version="1.0"><defs><clipPath id="945a773e25"><path d="M 372 178.125 L 376 178.125 L 376 229 L 372 229 Z M 372 178.125 " clip-rule="nonzero"/></clipPath><clipPath id="dd2506a868"><path d="M 218 487 L 285 487 L 285 571.875 L 218 571.875 Z M 218 487 " clip-rule="nonzero"/></clipPath><clipPath id="4d26fe7329"><path d="M 228 507 L 281 507 L 281 571.875 L 228 571.875 Z M 228 507 " clip-rule="nonzero"/></clipPath><clipPath id="5ff2d7b88a"><path d="M 237 490 L 403 490 L 403 571.875 L 237 571.875 Z M 237 490 " clip-rule="nonzero"/></clipPath><clipPath id="4bd33edcc6"><path d="M 465 487 L 532 487 L 532 571.875 L 465 571.875 Z M 465 487 " clip-rule="nonzero"/></clipPath><clipPath id="dd4e2eba82"><path d="M 468 505 L 530 505 L 530 571.875 L 468 571.875 Z M 468 505 " clip-rule="nonzero"/></clipPath><clipPath id="5c4338e887"><path d="M 347 490 L 513 490 L 513 571.875 L 347 571.875 Z M 347 490 " clip-rule="nonzero"/></clipPath></defs><path fill="#f5e37d" d="M 393.199219 185.476562 C 395.699219 186.105469 398.589844 187.089844 399.359375 189.550781 C 399.859375 191.152344 399.261719 192.929688 399.679688 194.558594 C 400.308594 197.015625 402.9375 198.300781 405.28125 199.273438 C 412.5 202.269531 419.71875 205.265625 426.9375 208.265625 C 415.546875 210.667969 403.832031 211.183594 392.1875 211.007812 C 389.710938 210.972656 386.820312 210.679688 385.511719 208.574219 C 384.667969 207.21875 384.726562 205.398438 383.714844 204.160156 C 381.613281 201.574219 377.058594 203.539062 374.3125 201.65625 C 374.253906 198.003906 374.199219 194.351562 374.144531 190.699219 C 374.113281 188.730469 373.019531 183.125 374.617188 181.707031 C 376.292969 180.21875 380.949219 182.386719 382.761719 182.84375 C 386.242188 183.722656 389.71875 184.597656 393.199219 185.476562 Z M 393.199219 185.476562 " fill-opacity="1" fill-rule="nonzero"/><g clip-path="url(#945a773e25)"><path fill="#2a303a" d="M 373.867188 228.726562 C 373.863281 228.726562 373.863281 228.726562 373.859375 228.726562 C 372.949219 228.71875 372.214844 227.976562 372.21875 227.070312 L 372.449219 180.148438 C 372.460938 179.238281 373.195312 178.507812 374.101562 178.507812 C 374.105469 178.507812 374.105469 178.507812 374.109375 178.507812 C 375.015625 178.515625 375.753906 179.253906 375.75 180.164062 L 375.515625 227.085938 C 375.507812 227.992188 374.773438 228.726562 373.867188 228.726562 Z M 373.867188 228.726562 " fill-opacity="1" fill-rule="nonzero"/></g><path fill="#ef5350" d="M 277.085938 524.488281 C 277.21875 527.066406 274.953125 533.734375 275.085938 536.3125 C 262.0625 536.890625 248.773438 537.378906 235.304688 537.734375 C 173.921875 539.511719 108.050781 539.199219 41.332031 539.113281 C 37.644531 539.113281 33.242188 539.421875 31.332031 535.824219 C 30.351562 534 30.351562 531.734375 30.351562 529.601562 L 31.152344 348.117188 C 31.152344 340.605469 31.199219 333.050781 31.242188 325.539062 C 72 327.269531 112.847656 325.980469 153.609375 325.269531 C 174.453125 324.871094 195.300781 324.558594 216.144531 324.738281 C 224.371094 324.828125 237.304688 323.183594 248.195312 324.78125 C 255.308594 325.847656 261.484375 328.25 264.90625 333.492188 C 269.664062 340.78125 269.929688 350.027344 270.0625 358.785156 C 270.863281 414.125 269.128906 469.726562 277.085938 524.488281 Z M 277.085938 524.488281 " fill-opacity="1" fill-rule="nonzero"/><path fill="#d83636" d="M 277.085938 524.488281 C 277.21875 527.066406 274.953125 533.734375 275.085938 536.3125 C 262.0625 536.890625 248.773438 537.378906 235.304688 537.734375 C 235.257812 536.976562 235.214844 536.222656 235.171875 535.46875 C 231.703125 479.683594 230.859375 423.769531 232.726562 367.898438 C 232.902344 362.964844 232.726562 357.230469 228.726562 354.296875 C 226.371094 352.5625 223.257812 352.382812 220.324219 352.207031 C 195.476562 350.960938 170.632812 349.984375 145.785156 349.273438 C 107.960938 348.160156 69.066406 345.628906 31.152344 348.117188 C 31.152344 340.605469 31.199219 333.050781 31.242188 325.539062 C 72 327.269531 112.847656 325.980469 153.609375 325.269531 C 174.453125 324.871094 195.300781 324.558594 216.144531 324.738281 C 224.371094 324.828125 237.304688 323.183594 248.195312 324.78125 C 255.308594 325.847656 261.484375 328.25 264.90625 333.492188 C 269.664062 340.78125 269.929688 350.027344 270.0625 358.785156 C 270.863281 414.125 269.128906 469.726562 277.085938 524.488281 Z M 277.085938 524.488281 " fill-opacity="1" fill-rule="nonzero"/><path fill="#bcbcaf" d="M 483.519531 459.179688 C 482.28125 429.839844 481.042969 400.503906 479.804688 371.164062 C 479.3125 359.527344 481.558594 347.058594 480.699219 335.753906 C 479.871094 324.914062 464.273438 323.09375 453.054688 322.175781 C 435.28125 320.722656 417.4375 319.800781 399.578125 319.347656 C 399.445312 319.34375 399.3125 319.335938 399.179688 319.332031 C 397.722656 319.296875 396.265625 319.3125 394.804688 319.28125 C 388.203125 319.148438 381.601562 319.027344 375 319.03125 C 368.398438 319.027344 361.796875 319.148438 355.195312 319.28125 C 353.734375 319.3125 352.277344 319.296875 350.816406 319.332031 C 350.6875 319.335938 350.554688 319.34375 350.421875 319.347656 C 332.5625 319.800781 314.71875 320.722656 296.945312 322.175781 C 285.726562 323.09375 270.128906 324.914062 269.300781 335.753906 C 268.441406 347.058594 270.6875 359.527344 270.195312 371.164062 C 268.957031 400.503906 267.71875 429.839844 266.480469 459.179688 C 266.191406 466.027344 266.285156 473.707031 272.296875 478.597656 C 277.945312 483.195312 286.859375 483.691406 294.917969 483.875 C 312.945312 484.28125 330.976562 484.539062 349.007812 484.679688 C 349.839844 484.707031 350.671875 484.726562 351.480469 484.730469 C 359.320312 484.777344 367.160156 484.707031 375 484.707031 C 382.839844 484.707031 390.679688 484.777344 398.519531 484.730469 C 399.328125 484.726562 400.160156 484.707031 400.992188 484.679688 C 419.023438 484.539062 437.054688 484.28125 455.082031 483.875 C 463.140625 483.691406 472.054688 483.195312 477.703125 478.597656 C 483.714844 473.707031 483.808594 466.027344 483.519531 459.179688 Z M 483.519531 459.179688 " fill-opacity="1" fill-rule="nonzero"/><g clip-path="url(#dd2506a868)"><path fill="#f0f0e4" d="M 284.332031 497.910156 C 284.285156 501.019531 282.507812 503.773438 280.820312 506.355469 C 280.640625 506.664062 280.417969 506.929688 280.242188 507.242188 C 272.507812 518.886719 264.816406 530.578125 257.082031 542.222656 C 255.261719 544.980469 253.617188 548.179688 251.261719 550.578125 C 249.925781 551.914062 248.058594 552.757812 246.90625 554.269531 C 243.660156 558.667969 245.125 565.113281 240.992188 569.113281 C 238.238281 571.78125 234.058594 572.09375 230.238281 572.269531 L 230.191406 572.269531 C 226.859375 572.449219 222.992188 572.359375 220.992188 569.648438 C 219.96875 568.269531 219.703125 566.492188 219.523438 564.757812 C 218.902344 559.246094 218.148438 552.800781 219.167969 547.289062 C 219.878906 543.421875 222.859375 540.445312 225.257812 537.335938 C 236.105469 523.332031 247.125 509.464844 257.75 495.332031 C 261.394531 490.53125 263.574219 487.863281 270.019531 487.507812 C 276.242188 487.195312 284.464844 490.53125 284.332031 497.910156 Z M 284.332031 497.910156 " fill-opacity="1" fill-rule="nonzero"/></g><g clip-path="url(#4d26fe7329)"><path fill="#d8d8ca" d="M 280.242188 507.242188 C 272.507812 518.886719 264.816406 530.578125 257.082031 542.222656 C 255.261719 544.980469 253.617188 548.179688 251.261719 550.578125 C 249.925781 551.914062 248.058594 552.757812 246.90625 554.269531 C 243.660156 558.667969 245.125 565.113281 240.992188 569.113281 C 238.238281 571.78125 234.058594 572.09375 230.238281 572.269531 L 230.191406 572.269531 C 230.058594 571.070312 229.96875 569.914062 229.835938 568.757812 C 229.390625 564.890625 228.949219 561.023438 228.546875 557.15625 C 228.238281 554.402344 227.925781 551.558594 228.769531 548.933594 C 229.925781 545.066406 248.460938 525.421875 255.21875 518.933594 C 262.019531 512.488281 270.59375 507.152344 279.976562 507.242188 Z M 280.242188 507.242188 " fill-opacity="1" fill-rule="nonzero"/></g><g clip-path="url(#5ff2d7b88a)"><path fill="#707067" d="M 237.019531 557.578125 C 237.261719 558.425781 237.019531 571.339844 237.019531 571.339844 C 294.261719 571.335938 340.828125 571.066406 390.746094 569.46875 C 393.214844 569.386719 393.75 567.644531 395.445312 565.851562 C 396.808594 564.40625 397.128906 562.296875 397.382812 560.324219 C 398.875 548.761719 400.367188 537.195312 401.859375 525.632812 C 402.703125 519.097656 403.324219 511.734375 399.152344 506.636719 C 395.734375 502.460938 390.054688 501.050781 384.789062 499.882812 C 367.898438 496.140625 350.933594 492.386719 333.675781 491.179688 C 319.191406 490.164062 296.632812 489.125 283.953125 497.636719 C 278.882812 501.039062 237.679688 550.644531 237.019531 557.578125 Z M 237.019531 557.578125 " fill-opacity="1" fill-rule="nonzero"/></g><path fill="#707067" d="M 303.933594 321.3125 C 303.53125 324.914062 302.953125 328.828125 300.332031 331.316406 C 296.332031 335.050781 290.152344 332.207031 284.6875 332.382812 C 244.503906 333.847656 193.035156 336.339844 42.976562 335.40625 C 37.242188 335.359375 19.773438 337.761719 10.085938 334.339844 C 6.75 333.183594 4.351562 331.269531 3.683594 328.382812 C 2.574219 323.582031 7.0625 319.449219 11.0625 316.558594 C 22.398438 308.378906 33.730469 300.203125 45.066406 292.023438 C 48.042969 289.847656 50.976562 287.578125 53.957031 285.355469 C 61.199219 279.800781 68.667969 274.378906 77.113281 271.355469 C 87.292969 267.753906 98.269531 267.578125 109.070312 267.398438 C 164.808594 266.644531 220.589844 265.84375 276.328125 265.042969 C 280.820312 265 285.664062 265.089844 290.019531 266.199219 C 293.710938 267.089844 297.042969 268.734375 299.53125 271.621094 C 304.019531 276.867188 304.109375 284.421875 303.84375 291.3125 C 303.398438 303.535156 305.308594 309.179688 303.933594 321.3125 Z M 303.933594 321.3125 " fill-opacity="1" fill-rule="nonzero"/><path fill="#51514a" d="M 303.933594 321.3125 C 303.53125 324.914062 302.953125 328.828125 300.332031 331.316406 C 296.332031 335.050781 290.152344 332.207031 284.6875 332.382812 C 244.503906 333.847656 193.035156 336.339844 42.976562 335.40625 C 37.242188 335.359375 19.773438 337.761719 10.085938 334.339844 C 12.351562 331.316406 15.863281 328.871094 18.839844 327.539062 C 27.019531 323.714844 37.777344 324.25 46.621094 323.269531 C 57.199219 322.160156 67.734375 321.003906 78.3125 319.890625 C 102.136719 317.3125 126.007812 314.738281 149.828125 312.160156 C 167.699219 310.246094 185.609375 308.292969 202.902344 303.359375 C 217.835938 299.046875 232.058594 292.601562 246.238281 286.15625 C 260.816406 279.488281 275.441406 272.867188 290.019531 266.199219 C 293.710938 267.089844 297.042969 268.734375 299.53125 271.621094 C 304.019531 276.867188 304.109375 284.421875 303.84375 291.3125 C 303.398438 303.535156 305.308594 309.179688 303.933594 321.3125 Z M 303.933594 321.3125 " fill-opacity="1" fill-rule="nonzero"/><path fill="#f0f0e4" d="M 327.046875 322.417969 C 317.367188 319.175781 305.699219 321.230469 295.613281 321.289062 C 284.964844 321.347656 274.316406 321.285156 263.667969 321.324219 C 241.863281 321.402344 220.054688 321.484375 198.246094 321.566406 C 155.003906 321.726562 111.753906 321.679688 68.511719 322.066406 C 46.789062 322.261719 25.214844 322.757812 3.527344 323.941406 C 2.519531 324 1.371094 324.128906 0.785156 324.945312 C 0.316406 325.601562 0.371094 326.480469 0.445312 327.28125 C 0.652344 329.539062 0.863281 331.796875 1.070312 334.054688 C 1.1875 335.332031 1.339844 336.691406 2.144531 337.683594 C 4.078125 340.066406 10.351562 339.15625 13.171875 339.078125 C 19.019531 338.917969 24.859375 338.800781 30.710938 338.808594 C 42.203125 338.824219 53.691406 339.132812 65.183594 339.171875 C 86.621094 339.242188 108.0625 339.121094 129.5 339.078125 L 258.125 338.824219 C 269.90625 338.800781 281.6875 338.765625 293.46875 338.664062 C 304.507812 338.566406 319.109375 339.671875 328.398438 332.761719 C 332.308594 329.859375 331.941406 324.054688 327.046875 322.417969 Z M 327.046875 322.417969 " fill-opacity="1" fill-rule="nonzero"/><path fill="#f0f0e4" d="M 241.457031 296.683594 C 238.84375 299.097656 236.917969 301.625 237.210938 303.71875 C 237.683594 307.132812 242.195312 307.9375 245.644531 307.894531 C 286.296875 307.34375 326.949219 306.796875 367.597656 306.246094 C 370.453125 306.210938 373.5 306.109375 375.824219 304.453125 C 379.179688 302.058594 379.78125 297.398438 380.089844 293.285156 C 381.324219 276.835938 382.621094 260.390625 383.789062 243.933594 C 384.546875 233.238281 383.632812 223.398438 371.238281 226.101562 C 355.761719 229.480469 260.59375 283.214844 252.441406 288.609375 C 250.335938 290.003906 245.191406 293.230469 241.457031 296.683594 Z M 241.457031 296.683594 " fill-opacity="1" fill-rule="nonzero"/><path fill="#f0f0e4" d="M 375.886719 321.472656 C 378.605469 321.542969 381.789062 321.398438 383.371094 319.183594 C 384.527344 317.558594 384.382812 315.378906 384.195312 313.394531 C 383.441406 305.613281 382.691406 297.835938 381.941406 290.054688 C 381.824219 288.84375 381.65625 287.519531 380.78125 286.671875 C 379.796875 285.71875 378.273438 285.691406 376.90625 285.722656 C 337.394531 286.675781 296.898438 288.992188 257.75 294.585938 C 252 295.40625 245.648438 296.847656 243.445312 302.917969 C 242.519531 305.46875 242.59375 308.316406 242.828125 310.976562 C 242.957031 312.398438 243.011719 314.300781 243.53125 315.636719 C 244.710938 318.664062 245.734375 318.089844 249.089844 318.164062 C 269.097656 318.59375 289.101562 319.207031 309.105469 319.730469 C 331.367188 320.3125 353.625 320.890625 375.886719 321.472656 Z M 375.886719 321.472656 " fill-opacity="1" fill-rule="nonzero"/><path fill="#f0f0e4" d="M 250.675781 350.074219 C 250.808594 351.929688 251.113281 354.050781 252.671875 355.066406 C 253.699219 355.734375 255.003906 355.730469 256.230469 355.707031 C 298.117188 354.855469 340.003906 354.003906 381.890625 353.148438 C 384.6875 353.09375 387.714844 352.957031 389.882812 351.191406 C 392.660156 348.9375 393.027344 344.910156 393.175781 341.335938 C 393.59375 331.398438 394.011719 321.460938 394.433594 311.519531 C 394.558594 308.503906 394.554688 305.121094 392.453125 302.949219 C 390.375 300.796875 387.027344 300.660156 384.035156 300.675781 C 343.5 300.851562 302.972656 302.636719 262.578125 306.023438 C 260.035156 306.234375 257.398438 306.480469 255.179688 307.738281 C 249.410156 311.003906 250.3125 319.894531 250.152344 325.371094 C 249.90625 333.605469 250.082031 341.855469 250.675781 350.074219 Z M 250.675781 350.074219 " fill-opacity="1" fill-rule="nonzero"/><path fill="#f0f0e4" d="M 282.214844 401.785156 C 282.074219 394.117188 281.9375 386.453125 281.800781 378.785156 C 281.65625 370.777344 282.261719 362.375 280.390625 354.460938 C 279.433594 350.40625 273.3125 347.753906 268.175781 348.226562 C 262.167969 348.78125 259.0625 352.007812 258.222656 356.253906 C 256.753906 363.6875 257.859375 371.722656 258.003906 379.242188 C 258.148438 386.910156 258.296875 394.574219 258.441406 402.242188 C 258.738281 417.578125 258.898438 432.914062 259.34375 448.246094 C 259.449219 451.925781 262.683594 456.003906 267.847656 456.90625 C 270.070312 457.292969 271.90625 457.421875 274.148438 457.027344 C 279.097656 456.15625 283.070312 452.53125 283.039062 448.707031 C 282.914062 433.066406 282.496094 417.425781 282.214844 401.785156 Z M 282.214844 401.785156 " fill-opacity="1" fill-rule="nonzero"/><path fill="#f0f0e4" d="M 355.800781 401.785156 C 355.664062 394.117188 355.523438 386.453125 355.386719 378.785156 C 355.242188 370.777344 355.847656 362.375 353.976562 354.460938 C 353.019531 350.40625 346.902344 347.753906 341.761719 348.226562 C 335.753906 348.78125 332.648438 352.007812 331.808594 356.253906 C 330.339844 363.6875 331.445312 371.722656 331.589844 379.242188 C 331.734375 386.910156 331.882812 394.574219 332.03125 402.242188 C 332.324219 417.578125 332.484375 432.914062 332.929688 448.246094 C 333.035156 451.925781 336.273438 456.003906 341.433594 456.90625 C 343.65625 457.292969 345.492188 457.421875 347.734375 457.027344 C 352.683594 456.15625 356.65625 452.53125 356.625 448.707031 C 356.5 433.066406 356.082031 417.425781 355.800781 401.785156 Z M 355.800781 401.785156 " fill-opacity="1" fill-rule="nonzero"/><path fill="#2a303a" d="M 85.214844 365.597656 C 85.03125 361.636719 62.035156 363.054688 61.132812 364.226562 C 60.652344 364.847656 60.660156 367.613281 60.628906 368.914062 C 60.582031 370.742188 60.535156 388.457031 60.792969 395.480469 C 60.832031 396.519531 60.90625 397.648438 61.585938 398.4375 C 62.414062 399.410156 63.847656 399.535156 65.125 399.570312 C 69.039062 399.6875 82.757812 400.597656 84.386719 398.515625 C 85.140625 397.554688 85.1875 396.234375 85.199219 395.011719 C 85.261719 387.117188 85.289062 367.125 85.214844 365.597656 Z M 85.214844 365.597656 " fill-opacity="1" fill-rule="nonzero"/><path fill="#2a303a" d="M 133.796875 365.597656 C 133.613281 361.636719 110.617188 363.054688 109.714844 364.226562 C 109.234375 364.847656 109.242188 367.613281 109.210938 368.914062 C 109.167969 370.742188 109.117188 388.457031 109.375 395.480469 C 109.414062 396.519531 109.488281 397.648438 110.164062 398.4375 C 111 399.410156 112.429688 399.535156 113.710938 399.570312 C 117.621094 399.6875 131.335938 400.597656 132.96875 398.515625 C 133.722656 397.554688 133.769531 396.234375 133.78125 395.011719 C 133.84375 387.117188 133.871094 367.125 133.796875 365.597656 Z M 133.796875 365.597656 " fill-opacity="1" fill-rule="nonzero"/><path fill="#2a303a" d="M 182.378906 365.597656 C 182.195312 361.636719 159.199219 363.054688 158.296875 364.226562 C 157.816406 364.847656 157.824219 367.613281 157.792969 368.914062 C 157.746094 370.742188 157.699219 388.457031 157.957031 395.480469 C 157.996094 396.519531 158.070312 397.648438 158.746094 398.4375 C 159.578125 399.410156 161.011719 399.535156 162.289062 399.570312 C 166.203125 399.6875 179.917969 400.597656 181.550781 398.515625 C 182.304688 397.554688 182.351562 396.234375 182.363281 395.011719 C 182.425781 387.117188 182.449219 367.125 182.378906 365.597656 Z M 182.378906 365.597656 " fill-opacity="1" fill-rule="nonzero"/><path fill="#2a303a" d="M 230.960938 365.597656 C 230.777344 361.636719 207.777344 363.054688 206.878906 364.226562 C 206.398438 364.847656 206.40625 367.613281 206.375 368.914062 C 206.328125 370.742188 206.28125 388.457031 206.539062 395.480469 C 206.578125 396.519531 206.652344 397.648438 207.328125 398.4375 C 208.160156 399.410156 209.59375 399.535156 210.871094 399.570312 C 214.785156 399.6875 228.5 400.597656 230.132812 398.515625 C 230.886719 397.554688 230.933594 396.234375 230.945312 395.011719 C 231.007812 387.117188 231.03125 367.125 230.960938 365.597656 Z M 230.960938 365.597656 " fill-opacity="1" fill-rule="nonzero"/><path fill="#2a303a" d="M 85.214844 425.730469 C 85.03125 421.769531 62.035156 423.1875 61.132812 424.355469 C 60.652344 424.980469 60.660156 427.746094 60.628906 429.046875 C 60.582031 430.875 60.535156 448.589844 60.792969 455.613281 C 60.832031 456.65625 60.90625 457.78125 61.585938 458.574219 C 62.414062 459.542969 63.847656 459.667969 65.125 459.703125 C 69.039062 459.820312 82.757812 460.730469 84.386719 458.648438 C 85.140625 457.6875 85.1875 456.367188 85.199219 455.144531 C 85.261719 447.246094 85.289062 427.257812 85.214844 425.730469 Z M 85.214844 425.730469 " fill-opacity="1" fill-rule="nonzero"/><path fill="#2a303a" d="M 133.796875 425.730469 C 133.613281 421.769531 110.617188 423.1875 109.714844 424.355469 C 109.234375 424.980469 109.242188 427.746094 109.210938 429.046875 C 109.167969 430.875 109.117188 448.589844 109.375 455.613281 C 109.414062 456.65625 109.488281 457.78125 110.164062 458.574219 C 111 459.542969 112.429688 459.667969 113.710938 459.703125 C 117.621094 459.820312 131.335938 460.730469 132.96875 458.648438 C 133.722656 457.6875 133.769531 456.367188 133.78125 455.144531 C 133.84375 447.246094 133.871094 427.257812 133.796875 425.730469 Z M 133.796875 425.730469 " fill-opacity="1" fill-rule="nonzero"/><path fill="#2a303a" d="M 182.378906 425.730469 C 182.195312 421.769531 159.199219 423.1875 158.296875 424.355469 C 157.816406 424.980469 157.824219 427.746094 157.792969 429.046875 C 157.746094 430.875 157.699219 448.589844 157.957031 455.613281 C 157.996094 456.65625 158.070312 457.78125 158.746094 458.574219 C 159.578125 459.542969 161.011719 459.667969 162.289062 459.703125 C 166.203125 459.820312 179.917969 460.730469 181.550781 458.648438 C 182.304688 457.6875 182.351562 456.367188 182.363281 455.144531 C 182.425781 447.246094 182.449219 427.257812 182.378906 425.730469 Z M 182.378906 425.730469 " fill-opacity="1" fill-rule="nonzero"/><path fill="#2a303a" d="M 230.960938 425.730469 C 230.777344 421.769531 207.777344 423.1875 206.878906 424.355469 C 206.398438 424.980469 206.40625 427.746094 206.375 429.046875 C 206.328125 430.875 206.28125 448.589844 206.539062 455.613281 C 206.578125 456.65625 206.652344 457.78125 207.328125 458.574219 C 208.160156 459.542969 209.59375 459.667969 210.871094 459.703125 C 214.785156 459.820312 228.5 460.730469 230.132812 458.648438 C 230.886719 457.6875 230.933594 456.367188 230.945312 455.144531 C 231.007812 447.246094 231.03125 427.257812 230.960938 425.730469 Z M 230.960938 425.730469 " fill-opacity="1" fill-rule="nonzero"/><path fill="#2a303a" d="M 85.214844 485.863281 C 85.03125 481.902344 62.035156 483.320312 61.132812 484.488281 C 60.652344 485.113281 60.660156 487.878906 60.628906 489.179688 C 60.582031 491.003906 60.535156 508.722656 60.792969 515.746094 C 60.832031 516.785156 60.90625 517.914062 61.585938 518.703125 C 62.414062 519.675781 63.847656 519.796875 65.125 519.835938 C 69.039062 519.953125 82.757812 520.863281 84.386719 518.78125 C 85.140625 517.820312 85.1875 516.5 85.199219 515.277344 C 85.261719 507.378906 85.289062 487.390625 85.214844 485.863281 Z M 85.214844 485.863281 " fill-opacity="1" fill-rule="nonzero"/><path fill="#2a303a" d="M 133.796875 485.863281 C 133.613281 481.902344 110.617188 483.320312 109.714844 484.488281 C 109.234375 485.113281 109.242188 487.878906 109.210938 489.179688 C 109.167969 491.003906 109.117188 508.722656 109.375 515.746094 C 109.414062 516.785156 109.488281 517.914062 110.164062 518.703125 C 111 519.675781 112.429688 519.796875 113.710938 519.835938 C 117.621094 519.953125 131.335938 520.863281 132.96875 518.78125 C 133.722656 517.820312 133.769531 516.5 133.78125 515.277344 C 133.84375 507.378906 133.871094 487.390625 133.796875 485.863281 Z M 133.796875 485.863281 " fill-opacity="1" fill-rule="nonzero"/><path fill="#2a303a" d="M 182.378906 485.863281 C 182.195312 481.902344 159.199219 483.320312 158.296875 484.488281 C 157.816406 485.113281 157.824219 487.878906 157.792969 489.179688 C 157.746094 491.003906 157.699219 508.722656 157.957031 515.746094 C 157.996094 516.785156 158.070312 517.914062 158.746094 518.703125 C 159.578125 519.675781 161.011719 519.796875 162.289062 519.835938 C 166.203125 519.953125 179.917969 520.863281 181.550781 518.78125 C 182.304688 517.820312 182.351562 516.5 182.363281 515.277344 C 182.425781 507.378906 182.449219 487.390625 182.378906 485.863281 Z M 182.378906 485.863281 " fill-opacity="1" fill-rule="nonzero"/><path fill="#2a303a" d="M 230.960938 485.863281 C 230.777344 481.902344 207.777344 483.320312 206.878906 484.488281 C 206.398438 485.113281 206.40625 487.878906 206.375 489.179688 C 206.328125 491.003906 206.28125 508.722656 206.539062 515.746094 C 206.578125 516.785156 206.652344 517.914062 207.328125 518.703125 C 208.160156 519.675781 209.59375 519.796875 210.871094 519.835938 C 214.785156 519.953125 228.5 520.863281 230.132812 518.78125 C 230.886719 517.820312 230.933594 516.5 230.945312 515.277344 C 231.007812 507.378906 231.03125 487.390625 230.960938 485.863281 Z M 230.960938 485.863281 " fill-opacity="1" fill-rule="nonzero"/><path fill="#ef5350" d="M 719.65625 529.601562 C 719.65625 531.734375 719.613281 534 718.679688 535.824219 C 716.765625 539.421875 712.324219 539.113281 708.679688 539.113281 C 627.292969 539.246094 547.109375 539.644531 474.925781 536.3125 C 475.058594 533.734375 472.792969 527.066406 472.878906 524.488281 C 480.878906 469.726562 479.101562 414.125 479.945312 358.785156 C 479.992188 356.875 480.035156 354.960938 480.125 353.007812 C 480.390625 346.070312 481.371094 339.183594 485.101562 333.492188 C 488.480469 328.25 494.703125 325.847656 501.816406 324.78125 C 512.707031 323.183594 525.640625 324.828125 533.820312 324.738281 C 554.707031 324.558594 575.554688 324.871094 596.402344 325.269531 C 637.160156 325.980469 678.007812 327.269531 718.769531 325.539062 C 718.988281 384.429688 719.257812 443.371094 719.523438 502.261719 Z M 719.65625 529.601562 " fill-opacity="1" fill-rule="nonzero"/><path fill="#d83636" d="M 719.523438 502.265625 C 708.011719 454.214844 700.277344 405.234375 696.367188 355.984375 C 675.164062 355.808594 653.917969 355.585938 632.714844 355.40625 C 595.335938 355.050781 557.953125 354.695312 520.617188 354.339844 C 507.726562 354.207031 492.972656 356.164062 480.125 353.007812 C 480.390625 346.074219 481.371094 339.183594 485.101562 333.492188 C 488.480469 328.25 494.703125 325.847656 501.816406 324.78125 C 512.707031 323.183594 525.640625 324.828125 533.820312 324.738281 C 554.707031 324.558594 575.554688 324.871094 596.402344 325.269531 C 637.160156 325.980469 678.007812 327.269531 718.769531 325.539062 C 718.988281 384.433594 719.257812 443.371094 719.523438 502.265625 Z M 719.523438 502.265625 " fill-opacity="1" fill-rule="nonzero"/><g clip-path="url(#4bd33edcc6)"><path fill="#f0f0e4" d="M 530.484375 564.757812 C 530.308594 566.449219 530.039062 568.179688 529.019531 569.558594 C 529.019531 569.601562 528.972656 569.601562 528.972656 569.648438 C 526.972656 572.359375 523.105469 572.449219 519.773438 572.269531 C 515.949219 572.09375 511.773438 571.78125 509.015625 569.113281 C 504.839844 565.113281 506.347656 558.667969 503.105469 554.269531 C 501.949219 552.757812 500.082031 551.914062 498.703125 550.578125 C 496.394531 548.179688 494.75 544.980469 492.925781 542.222656 C 485.015625 530.265625 477.101562 518.308594 469.191406 506.355469 C 468.96875 505.996094 468.746094 505.6875 468.523438 505.332031 C 467.058594 503.0625 465.722656 500.621094 465.679688 497.910156 C 465.546875 490.53125 473.769531 487.195312 479.992188 487.507812 C 486.4375 487.863281 488.613281 490.53125 492.261719 495.332031 C 502.882812 509.464844 513.90625 523.332031 524.707031 537.335938 C 527.105469 540.445312 530.085938 543.421875 530.839844 547.289062 C 531.863281 552.800781 531.105469 559.246094 530.484375 564.757812 Z M 530.484375 564.757812 " fill-opacity="1" fill-rule="nonzero"/></g><g clip-path="url(#dd4e2eba82)"><path fill="#d8d8ca" d="M 529.019531 569.558594 C 529.019531 569.601562 528.972656 569.601562 528.972656 569.648438 C 526.972656 572.359375 523.105469 572.449219 519.773438 572.269531 C 515.949219 572.09375 511.773438 571.78125 509.015625 569.113281 C 504.839844 565.113281 506.347656 558.667969 503.105469 554.269531 C 501.949219 552.757812 500.082031 551.914062 498.703125 550.578125 C 496.394531 548.179688 494.75 544.980469 492.925781 542.222656 C 485.015625 530.265625 477.101562 518.308594 469.191406 506.355469 C 468.96875 505.996094 468.746094 505.6875 468.523438 505.332031 C 469.011719 505.375 469.546875 505.464844 469.992188 505.554688 C 478.480469 507.507812 485.546875 513.242188 491.726562 519.375 C 497.902344 525.511719 523.417969 543.378906 526.484375 549.332031 C 528.21875 552.710938 528.394531 556.625 528.574219 560.402344 C 528.707031 563.46875 528.882812 566.492188 529.019531 569.558594 Z M 529.019531 569.558594 " fill-opacity="1" fill-rule="nonzero"/></g><g clip-path="url(#5c4338e887)"><path fill="#707067" d="M 512.980469 557.578125 C 512.738281 558.425781 512.980469 571.339844 512.980469 571.339844 C 455.738281 571.335938 409.171875 571.066406 359.253906 569.46875 C 356.785156 569.386719 356.25 567.644531 354.554688 565.851562 C 353.191406 564.40625 352.871094 562.296875 352.617188 560.324219 C 351.125 548.761719 349.632812 537.195312 348.140625 525.632812 C 347.296875 519.097656 346.675781 511.734375 350.847656 506.636719 C 354.265625 502.460938 359.945312 501.050781 365.210938 499.882812 C 382.101562 496.140625 399.066406 492.386719 416.324219 491.179688 C 430.808594 490.164062 453.367188 489.125 466.046875 497.636719 C 471.117188 501.039062 512.316406 550.644531 512.980469 557.578125 Z M 512.980469 557.578125 " fill-opacity="1" fill-rule="nonzero"/></g><path fill="#707067" d="M 746.503906 327.046875 C 746.503906 327.492188 746.460938 327.9375 746.328125 328.382812 C 743.925781 338.605469 720.058594 336.070312 709.835938 335.496094 C 708.722656 335.449219 707.789062 335.40625 707.035156 335.40625 C 556.976562 336.339844 505.503906 333.847656 465.324219 332.382812 C 461.367188 332.25 457.011719 333.714844 453.410156 333.09375 C 452.035156 332.871094 450.789062 332.339844 449.675781 331.316406 C 447.054688 328.828125 446.433594 324.914062 446.03125 321.3125 C 444.699219 309.179688 446.613281 303.535156 446.121094 291.3125 C 445.855469 284.421875 445.988281 276.867188 450.476562 271.621094 C 455.855469 265.308594 465.367188 264.953125 473.679688 265.042969 C 529.417969 265.84375 585.199219 266.644531 640.9375 267.398438 C 651.742188 267.578125 662.71875 267.753906 672.898438 271.355469 C 681.34375 274.378906 688.808594 279.800781 696.054688 285.355469 C 699.03125 287.578125 701.964844 289.847656 704.898438 292.023438 C 716.234375 300.203125 727.570312 308.378906 738.902344 316.558594 C 740.457031 317.671875 742.148438 319.003906 743.480469 320.46875 C 745.304688 322.425781 746.546875 324.648438 746.503906 327.046875 Z M 746.503906 327.046875 " fill-opacity="1" fill-rule="nonzero"/><path fill="#51514a" d="M 746.503906 327.046875 C 734.679688 331.316406 722.414062 333.9375 709.835938 335.496094 C 708.722656 335.449219 707.789062 335.40625 707.035156 335.40625 C 556.976562 336.339844 505.503906 333.847656 465.324219 332.382812 C 461.367188 332.25 457.011719 333.714844 453.410156 333.09375 C 444.164062 322.515625 447.457031 303.625 464.390625 301.625 C 471.101562 300.824219 478.125 304.78125 484.527344 306.335938 C 496.035156 309.136719 508.394531 309.582031 520.171875 310.515625 C 570.890625 314.515625 621.824219 313.316406 672.628906 315.136719 C 696.320312 315.980469 720.011719 317.492188 743.480469 320.46875 C 745.304688 322.425781 746.546875 324.648438 746.503906 327.046875 Z M 746.503906 327.046875 " fill-opacity="1" fill-rule="nonzero"/><path fill="#f0f0e4" d="M 422.953125 322.417969 C 432.632812 319.175781 444.300781 321.230469 454.386719 321.289062 C 465.035156 321.347656 475.683594 321.285156 486.332031 321.324219 C 508.136719 321.402344 529.945312 321.484375 551.753906 321.566406 C 594.996094 321.726562 638.246094 321.679688 681.488281 322.066406 C 703.210938 322.261719 724.785156 322.757812 746.472656 323.941406 C 747.480469 324 748.628906 324.128906 749.214844 324.945312 C 749.683594 325.601562 749.628906 326.480469 749.554688 327.28125 C 749.347656 329.539062 749.136719 331.796875 748.929688 334.054688 C 748.8125 335.332031 748.660156 336.691406 747.855469 337.683594 C 745.921875 340.066406 739.648438 339.15625 736.828125 339.078125 C 730.980469 338.917969 725.136719 338.800781 719.289062 338.808594 C 707.796875 338.824219 696.304688 339.132812 684.816406 339.171875 C 663.378906 339.242188 641.9375 339.121094 620.5 339.078125 L 491.875 338.824219 C 480.09375 338.800781 468.3125 338.765625 456.53125 338.664062 C 445.492188 338.566406 430.890625 339.671875 421.601562 332.761719 C 417.695312 329.859375 418.058594 324.054688 422.953125 322.417969 Z M 422.953125 322.417969 " fill-opacity="1" fill-rule="nonzero"/><path fill="#f0f0e4" d="M 508.542969 296.683594 C 511.15625 299.097656 513.082031 301.625 512.789062 303.71875 C 512.316406 307.132812 507.804688 307.9375 504.355469 307.894531 C 463.703125 307.34375 423.050781 306.796875 382.402344 306.246094 C 379.546875 306.210938 376.5 306.109375 374.175781 304.453125 C 370.820312 302.058594 370.21875 297.398438 369.910156 293.285156 C 368.675781 276.835938 367.378906 260.390625 366.210938 243.933594 C 365.453125 233.238281 366.367188 223.398438 378.761719 226.101562 C 394.238281 229.480469 489.40625 283.214844 497.558594 288.609375 C 499.664062 290.003906 504.808594 293.230469 508.542969 296.683594 Z M 508.542969 296.683594 " fill-opacity="1" fill-rule="nonzero"/><path fill="#d8d8ca" d="M 329.820312 274.75 C 342.359375 267.730469 356.40625 262.847656 370.777344 262.941406 C 381.125 263.007812 391.269531 265.628906 401.285156 268.238281 C 421.253906 273.433594 441.222656 278.632812 461.191406 283.832031 C 437.878906 267.339844 412.035156 254.839844 386.324219 242.414062 C 383.332031 240.96875 380.210938 239.488281 376.886719 239.4375 C 373.007812 239.375 369.390625 241.253906 365.972656 243.085938 C 331.613281 261.523438 297.59375 280.601562 263.9375 300.304688 C 265.171875 299.582031 269.839844 300.660156 271.410156 300.699219 C 274.214844 300.769531 277.023438 300.753906 279.828125 300.652344 C 284.417969 300.484375 289.511719 300.5 293.980469 299.320312 C 297.394531 298.417969 299.953125 295.839844 302.652344 293.6875 C 306.667969 290.484375 310.726562 287.335938 314.898438 284.34375 C 319.703125 280.890625 324.65625 277.640625 329.820312 274.75 Z M 329.820312 274.75 " fill-opacity="1" fill-rule="nonzero"/><path fill="#f0f0e4" d="M 374.113281 321.472656 C 371.394531 321.542969 368.210938 321.398438 366.628906 319.183594 C 365.472656 317.558594 365.617188 315.378906 365.804688 313.394531 C 366.558594 305.613281 367.308594 297.835938 368.058594 290.054688 C 368.175781 288.84375 368.34375 287.519531 369.21875 286.671875 C 370.203125 285.71875 371.726562 285.691406 373.09375 285.722656 C 412.605469 286.675781 453.101562 288.992188 492.25 294.585938 C 498 295.40625 504.351562 296.847656 506.554688 302.917969 C 507.480469 305.46875 507.40625 308.316406 507.171875 310.976562 C 507.042969 312.398438 506.988281 314.300781 506.46875 315.636719 C 505.289062 318.664062 504.265625 318.089844 500.910156 318.164062 C 480.902344 318.59375 460.898438 319.207031 440.894531 319.730469 C 418.632812 320.3125 396.375 320.890625 374.113281 321.472656 Z M 374.113281 321.472656 " fill-opacity="1" fill-rule="nonzero"/><path fill="#f0f0e4" d="M 499.324219 350.074219 C 499.191406 351.929688 498.886719 354.050781 497.328125 355.066406 C 496.300781 355.734375 494.996094 355.730469 493.769531 355.707031 C 451.882812 354.855469 409.996094 354.003906 368.109375 353.148438 C 365.3125 353.09375 362.285156 352.957031 360.113281 351.191406 C 357.339844 348.9375 356.972656 344.910156 356.824219 341.335938 C 356.40625 331.398438 355.988281 321.460938 355.566406 311.519531 C 355.441406 308.503906 355.445312 305.121094 357.546875 302.949219 C 359.625 300.796875 362.972656 300.660156 365.964844 300.675781 C 406.5 300.851562 447.027344 302.636719 487.421875 306.023438 C 489.964844 306.234375 492.601562 306.480469 494.820312 307.738281 C 500.589844 311.003906 499.6875 319.894531 499.847656 325.371094 C 500.09375 333.605469 499.917969 341.855469 499.324219 350.074219 Z M 499.324219 350.074219 " fill-opacity="1" fill-rule="nonzero"/><path fill="#f0f0e4" d="M 467.785156 401.785156 C 467.925781 394.117188 468.0625 386.453125 468.199219 378.785156 C 468.34375 370.777344 467.738281 362.375 469.609375 354.460938 C 470.566406 350.40625 476.6875 347.753906 481.824219 348.226562 C 487.832031 348.78125 490.9375 352.007812 491.777344 356.253906 C 493.246094 363.6875 492.140625 371.722656 491.996094 379.242188 C 491.851562 386.910156 491.703125 394.574219 491.558594 402.242188 C 491.261719 417.578125 491.101562 432.914062 490.65625 448.246094 C 490.550781 451.925781 487.316406 456.003906 482.152344 456.90625 C 479.929688 457.292969 478.09375 457.421875 475.851562 457.027344 C 470.902344 456.15625 466.929688 452.53125 466.960938 448.707031 C 467.085938 433.066406 467.503906 417.425781 467.785156 401.785156 Z M 467.785156 401.785156 " fill-opacity="1" fill-rule="nonzero"/><path fill="#f0f0e4" d="M 394.199219 401.785156 C 394.335938 394.117188 394.476562 386.453125 394.613281 378.785156 C 394.757812 370.777344 394.152344 362.375 396.023438 354.460938 C 396.980469 350.40625 403.097656 347.753906 408.238281 348.226562 C 414.246094 348.78125 417.351562 352.007812 418.191406 356.253906 C 419.660156 363.6875 418.554688 371.722656 418.410156 379.242188 C 418.265625 386.910156 418.117188 394.574219 417.96875 402.242188 C 417.675781 417.578125 417.515625 432.914062 417.070312 448.246094 C 416.964844 451.925781 413.726562 456.003906 408.566406 456.90625 C 406.34375 457.292969 404.507812 457.421875 402.265625 457.027344 C 397.316406 456.15625 393.34375 452.53125 393.375 448.707031 C 393.5 433.066406 393.917969 417.425781 394.199219 401.785156 Z M 394.199219 401.785156 " fill-opacity="1" fill-rule="nonzero"/><path fill="#f0f0e4" d="M 502.882812 455.015625 C 502.347656 470.171875 501.773438 485.375 501.195312 500.53125 C 501.0625 503.996094 500.703125 507.953125 497.902344 510.042969 C 495.636719 511.730469 492.527344 511.285156 489.679688 511.285156 C 480.304688 511.332031 470.214844 511.417969 459.8125 511.554688 C 452.433594 511.597656 444.921875 511.6875 437.410156 511.777344 C 427.453125 511.863281 417.5 511.953125 407.941406 511.953125 C 400.253906 511.953125 392.785156 511.910156 385.761719 511.777344 C 382.027344 511.730469 378.472656 511.644531 375.003906 511.554688 C 371.046875 511.644531 366.914062 511.730469 362.605469 511.777344 L 362.558594 511.777344 C 355.539062 511.910156 348.113281 511.953125 340.46875 511.953125 C 330.867188 511.953125 320.910156 511.863281 311 511.777344 C 303.441406 511.6875 295.886719 511.597656 288.507812 511.507812 C 278.6875 511.417969 269.171875 511.332031 260.285156 511.285156 C 257.4375 511.285156 254.371094 511.730469 252.105469 510.042969 C 249.304688 507.953125 248.949219 503.996094 248.816406 500.53125 C 248.238281 485.375 247.660156 470.171875 247.082031 455.015625 C 246.992188 452.261719 247.039062 449.191406 248.949219 447.191406 C 250.859375 445.238281 253.929688 445.148438 256.640625 445.148438 C 278.730469 445.28125 300.777344 445.414062 322.867188 445.546875 C 329.445312 445.59375 346.558594 445.769531 361.402344 445.8125 C 362.828125 445.636719 364.339844 445.59375 366.027344 445.636719 C 368.070312 445.726562 371.226562 445.769531 375.003906 445.8125 C 378.785156 445.769531 381.894531 445.726562 383.984375 445.636719 C 385.671875 445.59375 387.183594 445.636719 388.5625 445.8125 C 403.453125 445.769531 420.5625 445.59375 427.144531 445.546875 C 449.234375 445.414062 471.28125 445.28125 493.371094 445.148438 C 496.082031 445.148438 499.148438 445.238281 501.0625 447.191406 C 502.972656 449.191406 503.015625 452.261719 502.882812 455.015625 Z M 502.882812 455.015625 " fill-opacity="1" fill-rule="nonzero"/><path fill="#2a303a" d="M 664.785156 365.597656 C 664.96875 361.636719 687.964844 363.054688 688.867188 364.226562 C 689.347656 364.847656 689.339844 367.613281 689.371094 368.914062 C 689.417969 370.742188 689.464844 388.457031 689.207031 395.480469 C 689.167969 396.519531 689.09375 397.648438 688.414062 398.4375 C 687.585938 399.410156 686.152344 399.535156 684.871094 399.570312 C 680.960938 399.6875 667.242188 400.597656 665.613281 398.515625 C 664.855469 397.554688 664.8125 396.234375 664.800781 395.011719 C 664.738281 387.117188 664.710938 367.125 664.785156 365.597656 Z M 664.785156 365.597656 " fill-opacity="1" fill-rule="nonzero"/><path fill="#2a303a" d="M 616.203125 365.597656 C 616.386719 361.636719 639.382812 363.054688 640.285156 364.226562 C 640.765625 364.847656 640.757812 367.613281 640.789062 368.914062 C 640.832031 370.742188 640.882812 388.457031 640.625 395.480469 C 640.585938 396.519531 640.511719 397.648438 639.835938 398.4375 C 639 399.410156 637.570312 399.535156 636.292969 399.570312 C 632.378906 399.6875 618.664062 400.597656 617.03125 398.515625 C 616.277344 397.554688 616.230469 396.234375 616.21875 395.011719 C 616.152344 387.117188 616.132812 367.125 616.203125 365.597656 Z M 616.203125 365.597656 " fill-opacity="1" fill-rule="nonzero"/><path fill="#2a303a" d="M 567.621094 365.597656 C 567.804688 361.636719 590.800781 363.054688 591.703125 364.226562 C 592.183594 364.847656 592.175781 367.613281 592.207031 368.914062 C 592.253906 370.742188 592.300781 388.457031 592.042969 395.480469 C 592.003906 396.519531 591.929688 397.648438 591.253906 398.4375 C 590.421875 399.410156 588.988281 399.535156 587.710938 399.570312 C 583.796875 399.6875 570.082031 400.597656 568.449219 398.515625 C 567.695312 397.554688 567.648438 396.234375 567.636719 395.011719 C 567.574219 387.117188 567.546875 367.125 567.621094 365.597656 Z M 567.621094 365.597656 " fill-opacity="1" fill-rule="nonzero"/><path fill="#2a303a" d="M 519.039062 365.597656 C 519.222656 361.636719 542.222656 363.054688 543.121094 364.226562 C 543.601562 364.847656 543.59375 367.613281 543.625 368.914062 C 543.671875 370.742188 543.71875 388.457031 543.460938 395.480469 C 543.421875 396.519531 543.347656 397.648438 542.671875 398.4375 C 541.839844 399.410156 540.40625 399.535156 539.128906 399.570312 C 535.214844 399.6875 521.5 400.597656 519.867188 398.515625 C 519.113281 397.554688 519.066406 396.234375 519.054688 395.011719 C 518.992188 387.117188 518.96875 367.125 519.039062 365.597656 Z M 519.039062 365.597656 " fill-opacity="1" fill-rule="nonzero"/><path fill="#2a303a" d="M 664.785156 425.730469 C 664.96875 421.769531 687.964844 423.1875 688.867188 424.355469 C 689.347656 424.980469 689.339844 427.746094 689.371094 429.046875 C 689.417969 430.875 689.464844 448.589844 689.207031 455.613281 C 689.167969 456.65625 689.09375 457.78125 688.414062 458.574219 C 687.585938 459.542969 686.152344 459.667969 684.871094 459.703125 C 680.960938 459.820312 667.242188 460.730469 665.613281 458.648438 C 664.855469 457.6875 664.8125 456.367188 664.800781 455.144531 C 664.738281 447.246094 664.710938 427.257812 664.785156 425.730469 Z M 664.785156 425.730469 " fill-opacity="1" fill-rule="nonzero"/><path fill="#2a303a" d="M 616.203125 425.730469 C 616.386719 421.769531 639.382812 423.1875 640.285156 424.355469 C 640.765625 424.980469 640.757812 427.746094 640.789062 429.046875 C 640.832031 430.875 640.882812 448.589844 640.625 455.613281 C 640.585938 456.65625 640.511719 457.78125 639.835938 458.574219 C 639 459.542969 637.570312 459.667969 636.292969 459.703125 C 632.378906 459.820312 618.664062 460.730469 617.03125 458.648438 C 616.277344 457.6875 616.230469 456.367188 616.21875 455.144531 C 616.152344 447.246094 616.132812 427.257812 616.203125 425.730469 Z M 616.203125 425.730469 " fill-opacity="1" fill-rule="nonzero"/><path fill="#2a303a" d="M 563.035156 425.730469 C 563.21875 421.769531 586.214844 423.1875 587.117188 424.355469 C 587.597656 424.980469 587.589844 427.746094 587.621094 429.046875 C 587.664062 430.875 587.714844 448.589844 587.457031 455.613281 C 587.417969 456.65625 587.34375 457.78125 586.667969 458.574219 C 585.832031 459.542969 584.402344 459.667969 583.121094 459.703125 C 579.207031 459.820312 565.496094 460.730469 563.863281 458.648438 C 563.109375 457.6875 563.0625 456.367188 563.050781 455.144531 C 562.988281 447.246094 562.960938 427.257812 563.035156 425.730469 Z M 563.035156 425.730469 " fill-opacity="1" fill-rule="nonzero"/><path fill="#2a303a" d="M 519.039062 425.730469 C 519.222656 421.769531 542.222656 423.1875 543.121094 424.355469 C 543.601562 424.980469 543.59375 427.746094 543.625 429.046875 C 543.671875 430.875 543.71875 448.589844 543.460938 455.613281 C 543.421875 456.65625 543.347656 457.78125 542.671875 458.574219 C 541.839844 459.542969 540.40625 459.667969 539.128906 459.703125 C 535.214844 459.820312 521.5 460.730469 519.867188 458.648438 C 519.113281 457.6875 519.066406 456.367188 519.054688 455.144531 C 518.992188 447.246094 518.96875 427.257812 519.039062 425.730469 Z M 519.039062 425.730469 " fill-opacity="1" fill-rule="nonzero"/><path fill="#2a303a" d="M 664.785156 485.863281 C 664.96875 481.902344 687.964844 483.320312 688.867188 484.488281 C 689.347656 485.113281 689.339844 487.878906 689.371094 489.179688 C 689.417969 491.003906 689.464844 508.722656 689.207031 515.746094 C 689.167969 516.785156 689.09375 517.914062 688.414062 518.703125 C 687.585938 519.675781 686.152344 519.796875 684.871094 519.835938 C 680.960938 519.953125 667.242188 520.863281 665.613281 518.78125 C 664.855469 517.820312 664.8125 516.5 664.800781 515.277344 C 664.738281 507.378906 664.710938 487.390625 664.785156 485.863281 Z M 664.785156 485.863281 " fill-opacity="1" fill-rule="nonzero"/><path fill="#2a303a" d="M 616.203125 485.863281 C 616.386719 481.902344 639.382812 483.320312 640.285156 484.488281 C 640.765625 485.113281 640.757812 487.878906 640.789062 489.179688 C 640.832031 491.003906 640.882812 508.722656 640.625 515.746094 C 640.585938 516.785156 640.511719 517.914062 639.835938 518.703125 C 639 519.675781 637.570312 519.796875 636.292969 519.835938 C 632.378906 519.953125 618.664062 520.863281 617.03125 518.78125 C 616.277344 517.820312 616.230469 516.5 616.21875 515.277344 C 616.152344 507.378906 616.132812 487.390625 616.203125 485.863281 Z M 616.203125 485.863281 " fill-opacity="1" fill-rule="nonzero"/><path fill="#2a303a" d="M 567.621094 485.863281 C 567.804688 481.902344 590.800781 483.320312 591.703125 484.488281 C 592.183594 485.113281 592.175781 487.878906 592.207031 489.179688 C 592.253906 491.003906 592.300781 508.722656 592.042969 515.746094 C 592.003906 516.785156 591.929688 517.914062 591.253906 518.703125 C 590.421875 519.675781 588.988281 519.796875 587.710938 519.835938 C 583.796875 519.953125 570.082031 520.863281 568.449219 518.78125 C 567.695312 517.820312 567.648438 516.5 567.636719 515.277344 C 567.574219 507.378906 567.546875 487.390625 567.621094 485.863281 Z M 567.621094 485.863281 " fill-opacity="1" fill-rule="nonzero"/><path fill="#2a303a" d="M 519.039062 485.863281 C 519.222656 481.902344 542.222656 483.320312 543.121094 484.488281 C 543.601562 485.113281 543.59375 487.878906 543.625 489.179688 C 543.671875 491.003906 543.71875 508.722656 543.460938 515.746094 C 543.421875 516.785156 543.347656 517.914062 542.671875 518.703125 C 541.839844 519.675781 540.40625 519.796875 539.128906 519.835938 C 535.214844 519.953125 521.5 520.863281 519.867188 518.78125 C 519.113281 517.820312 519.066406 516.5 519.054688 515.277344 C 518.992188 507.378906 518.96875 487.390625 519.039062 485.863281 Z M 519.039062 485.863281 " fill-opacity="1" fill-rule="nonzero"/><path fill="#2a303a" d="M 251.875 308.238281 C 251.300781 308.238281 250.742188 307.941406 250.433594 307.410156 C 249.96875 306.613281 250.242188 305.59375 251.035156 305.128906 C 270.519531 293.789062 292.667969 281.863281 314.082031 270.328125 C 335.464844 258.808594 357.574219 246.90625 376.996094 235.597656 C 377.785156 235.140625 378.8125 235.40625 379.277344 236.203125 C 379.742188 236.996094 379.46875 238.015625 378.671875 238.480469 C 359.199219 249.8125 337.066406 261.734375 315.664062 273.261719 C 294.273438 284.785156 272.148438 296.699219 252.710938 308.011719 C 252.445312 308.164062 252.160156 308.238281 251.875 308.238281 Z M 251.875 308.238281 " fill-opacity="1" fill-rule="nonzero"/><path fill="#2a303a" d="M 462.746094 285.972656 C 462.445312 285.972656 462.148438 285.894531 461.878906 285.726562 C 434.859375 269.199219 406.441406 254.445312 377.410156 241.871094 C 376.566406 241.503906 376.175781 240.523438 376.546875 239.675781 C 376.910156 238.832031 377.894531 238.445312 378.738281 238.808594 C 407.90625 251.449219 436.464844 266.277344 463.617188 282.882812 C 464.398438 283.363281 464.648438 284.386719 464.171875 285.175781 C 463.851562 285.6875 463.308594 285.972656 462.746094 285.972656 Z M 462.746094 285.972656 " fill-opacity="1" fill-rule="nonzero"/><path fill="#2a303a" d="M 503.535156 302.859375 C 464.351562 302.820312 423.953125 302.808594 383.542969 302.796875 C 342.433594 302.789062 301.308594 302.777344 261.449219 302.734375 C 260.527344 302.734375 259.78125 301.984375 259.78125 301.066406 C 259.78125 300.144531 260.527344 299.402344 261.449219 299.402344 C 301.3125 299.441406 342.433594 299.453125 383.546875 299.464844 C 423.953125 299.472656 464.355469 299.484375 503.535156 299.527344 C 504.457031 299.527344 505.203125 300.273438 505.203125 301.195312 C 505.203125 302.117188 504.457031 302.859375 503.535156 302.859375 Z M 503.535156 302.859375 " fill-opacity="1" fill-rule="nonzero"/><path fill="#2a303a" d="M 257.261719 320.117188 C 256.367188 320.117188 255.625 319.40625 255.59375 318.507812 C 255.5625 317.585938 256.28125 316.816406 257.203125 316.78125 C 305.589844 315.160156 354.035156 315.699219 400.882812 316.222656 C 430.800781 316.558594 461.75 316.902344 492.519531 316.6875 C 493.476562 316.753906 494.195312 317.421875 494.199219 318.34375 C 494.203125 319.261719 493.464844 320.015625 492.542969 320.023438 C 461.726562 320.234375 430.777344 319.890625 400.847656 319.554688 C 354.027344 319.027344 305.605469 318.488281 257.316406 320.117188 C 257.300781 320.117188 257.277344 320.117188 257.261719 320.117188 Z M 257.261719 320.117188 " fill-opacity="1" fill-rule="nonzero"/><path fill="#2a303a" d="M 263.34375 355.910156 C 262.488281 355.910156 261.757812 355.253906 261.683594 354.382812 C 261.605469 353.46875 262.285156 352.660156 263.203125 352.582031 L 279.171875 351.222656 C 280.152344 351.117188 280.898438 351.828125 280.976562 352.742188 C 281.054688 353.65625 280.375 354.464844 279.457031 354.542969 L 263.488281 355.902344 C 263.441406 355.90625 263.390625 355.910156 263.34375 355.910156 Z M 263.34375 355.910156 " fill-opacity="1" fill-rule="nonzero"/><path fill="#2a303a" d="M 350.996094 355.234375 L 333.328125 355.234375 C 332.410156 355.234375 331.664062 354.488281 331.664062 353.566406 C 331.664062 352.648438 332.410156 351.898438 333.328125 351.898438 L 350.996094 351.898438 C 351.917969 351.898438 352.664062 352.648438 352.664062 353.566406 C 352.664062 354.488281 351.917969 355.234375 350.996094 355.234375 Z M 350.996094 355.234375 " fill-opacity="1" fill-rule="nonzero"/><path fill="#2a303a" d="M 417.585938 355.234375 L 401.277344 355.234375 C 400.359375 355.234375 399.613281 354.488281 399.613281 353.566406 C 399.613281 352.648438 400.359375 351.898438 401.277344 351.898438 L 417.585938 351.898438 C 418.507812 351.898438 419.253906 352.648438 419.253906 353.566406 C 419.253906 354.488281 418.507812 355.234375 417.585938 355.234375 Z M 417.585938 355.234375 " fill-opacity="1" fill-rule="nonzero"/><path fill="#2a303a" d="M 486.191406 357.816406 C 486.136719 357.816406 486.074219 357.816406 486.007812 357.804688 L 472.808594 356.375 C 471.890625 356.273438 471.226562 355.453125 471.328125 354.535156 C 471.429688 353.625 472.1875 352.941406 473.164062 353.058594 L 486.371094 354.496094 C 487.285156 354.589844 487.949219 355.417969 487.847656 356.332031 C 487.753906 357.1875 487.03125 357.816406 486.191406 357.816406 Z M 486.191406 357.816406 " fill-opacity="1" fill-rule="nonzero"/><path fill="#2a303a" d="M 486.199219 447.148438 C 486.1875 447.148438 486.167969 447.148438 486.15625 447.148438 C 412.484375 445.203125 337.765625 445.023438 264.054688 446.605469 C 263.148438 446.652344 262.375 445.894531 262.351562 444.972656 C 262.335938 444.054688 263.0625 443.292969 263.984375 443.269531 C 337.746094 441.691406 412.519531 441.871094 486.242188 443.8125 C 487.164062 443.839844 487.886719 444.605469 487.867188 445.523438 C 487.839844 446.429688 487.101562 447.148438 486.199219 447.148438 Z M 486.199219 447.148438 " fill-opacity="1" fill-rule="nonzero"/><path fill="#2a303a" d="M 267.519531 446.617188 C 266.632812 446.617188 265.894531 445.921875 265.851562 445.03125 C 264.539062 418.179688 264.246094 390.933594 264.964844 364.050781 C 264.992188 363.128906 265.664062 362.402344 266.675781 362.429688 C 267.59375 362.453125 268.324219 363.222656 268.296875 364.140625 C 267.578125 390.941406 267.875 418.101562 269.183594 444.871094 C 269.226562 445.789062 268.519531 446.570312 267.601562 446.617188 C 267.570312 446.617188 267.542969 446.617188 267.519531 446.617188 Z M 267.519531 446.617188 " fill-opacity="1" fill-rule="nonzero"/><path fill="#2a303a" d="M 341.6875 445.644531 C 340.832031 445.644531 340.101562 444.996094 340.027344 444.125 C 337.574219 416.671875 336.8125 388.808594 337.746094 361.324219 C 337.773438 360.40625 338.582031 359.660156 339.46875 359.714844 C 340.386719 359.746094 341.109375 360.515625 341.078125 361.4375 C 340.144531 388.789062 340.910156 416.507812 343.34375 443.832031 C 343.425781 444.746094 342.75 445.558594 341.835938 445.640625 C 341.785156 445.644531 341.734375 445.644531 341.6875 445.644531 Z M 341.6875 445.644531 " fill-opacity="1" fill-rule="nonzero"/><path fill="#2a303a" d="M 402.472656 445.644531 C 402.464844 445.644531 402.449219 445.644531 402.4375 445.644531 C 401.519531 445.625 400.789062 444.867188 400.804688 443.945312 C 401.066406 430.738281 401.539062 417.566406 402 404.824219 C 402.460938 392.101562 402.933594 378.941406 403.195312 365.761719 C 403.210938 364.851562 403.953125 364.128906 404.859375 364.128906 C 404.867188 364.128906 404.882812 364.128906 404.894531 364.128906 C 405.816406 364.148438 406.542969 364.90625 406.527344 365.828125 C 406.265625 379.035156 405.792969 392.207031 405.332031 404.949219 C 404.875 417.671875 404.398438 430.832031 404.140625 444.011719 C 404.121094 444.921875 403.378906 445.644531 402.472656 445.644531 Z M 402.472656 445.644531 " fill-opacity="1" fill-rule="nonzero"/><path fill="#2a303a" d="M 471.292969 446.261719 C 471.253906 446.261719 471.214844 446.257812 471.175781 446.253906 C 470.257812 446.191406 469.566406 445.394531 469.628906 444.476562 L 475.226562 365.378906 C 475.289062 364.460938 476.09375 363.796875 477.007812 363.832031 C 477.925781 363.898438 478.617188 364.695312 478.550781 365.613281 L 472.957031 444.710938 C 472.894531 445.589844 472.164062 446.261719 471.292969 446.261719 Z M 471.292969 446.261719 " fill-opacity="1" fill-rule="nonzero"/><path fill="#2a303a" d="M 273.730469 501.332031 C 272.875 501.332031 272.144531 500.679688 272.066406 499.8125 C 270.820312 485.667969 270.347656 471.3125 270.664062 457.152344 C 270.6875 456.234375 271.519531 455.480469 272.371094 455.523438 C 273.289062 455.542969 274.019531 456.304688 273.996094 457.226562 C 273.683594 471.265625 274.148438 485.496094 275.390625 499.519531 C 275.46875 500.4375 274.792969 501.246094 273.875 501.324219 C 273.824219 501.328125 273.777344 501.332031 273.730469 501.332031 Z M 273.730469 501.332031 " fill-opacity="1" fill-rule="nonzero"/><path fill="#2a303a" d="M 473.421875 494.195312 C 472.527344 494.195312 471.789062 493.484375 471.753906 492.585938 L 470.570312 459.285156 C 470.539062 458.363281 471.253906 457.59375 472.175781 457.558594 C 473.253906 457.53125 473.867188 458.25 473.902344 459.167969 L 475.085938 492.46875 C 475.117188 493.386719 474.402344 494.160156 473.480469 494.195312 C 473.460938 494.195312 473.4375 494.195312 473.421875 494.195312 Z M 473.421875 494.195312 " fill-opacity="1" fill-rule="nonzero"/><path fill="#2a303a" d="M 312.109375 479.949219 C 312.066406 488.664062 312.066406 497.417969 312.023438 506.175781 C 312.023438 507.996094 311.976562 509.996094 311.222656 511.464844 C 311.175781 511.554688 311.089844 511.6875 311 511.777344 C 303.441406 511.6875 295.886719 511.597656 288.507812 511.507812 C 288.464844 511.464844 288.464844 511.417969 288.421875 511.375 C 287.753906 510.175781 287.664062 508.441406 287.621094 506.886719 C 287.398438 498.21875 287.441406 489.550781 287.441406 480.882812 C 287.441406 477.105469 287.621094 473.285156 287.441406 469.550781 C 287.175781 464.4375 289.441406 460.394531 294.109375 457.773438 C 297.574219 455.769531 302.019531 455.371094 305.710938 456.972656 C 308.289062 458.082031 309.933594 459.859375 310.953125 461.992188 C 313.355469 467.148438 312.109375 474.394531 312.109375 479.949219 Z M 312.109375 479.949219 " fill-opacity="1" fill-rule="nonzero"/><path fill="#2a303a" d="M 363.671875 479.949219 C 363.671875 488.664062 363.671875 497.417969 363.625 506.175781 C 363.625 507.996094 363.582031 509.996094 362.828125 511.464844 C 362.78125 511.554688 362.691406 511.6875 362.605469 511.777344 L 362.558594 511.777344 C 355.539062 511.910156 348.113281 511.953125 340.46875 511.953125 C 340.289062 511.777344 340.15625 511.597656 340.023438 511.375 C 339.359375 510.175781 339.269531 508.441406 339.222656 506.886719 C 339.003906 498.21875 339.046875 489.550781 339.046875 480.882812 C 339.046875 477.105469 339.222656 473.285156 339.046875 469.550781 C 338.78125 464.4375 341.046875 460.394531 345.714844 457.773438 C 349.179688 455.769531 353.625 455.371094 357.316406 456.972656 C 359.894531 458.082031 361.539062 459.859375 362.558594 461.992188 C 364.960938 467.148438 363.714844 474.394531 363.671875 479.949219 Z M 363.671875 479.949219 " fill-opacity="1" fill-rule="nonzero"/><path fill="#2a303a" d="M 460.96875 480.882812 C 460.921875 489.550781 460.96875 498.21875 460.746094 506.886719 C 460.699219 508.441406 460.613281 510.175781 459.945312 511.375 C 459.902344 511.417969 459.855469 511.507812 459.8125 511.554688 C 452.433594 511.597656 444.921875 511.6875 437.410156 511.777344 C 437.277344 511.6875 437.1875 511.554688 437.144531 511.464844 C 436.386719 510 436.34375 507.996094 436.34375 506.175781 C 436.300781 497.417969 436.300781 488.664062 436.300781 479.949219 C 436.300781 474.394531 435.011719 467.148438 437.410156 461.992188 C 438.433594 459.859375 440.078125 458.082031 442.699219 456.972656 C 446.34375 455.371094 450.789062 455.769531 454.257812 457.773438 C 458.921875 460.394531 461.191406 464.4375 460.921875 469.550781 C 460.746094 473.285156 460.96875 477.105469 460.96875 480.882812 Z M 460.96875 480.882812 " fill-opacity="1" fill-rule="nonzero"/><path fill="#2a303a" d="M 409.363281 480.882812 C 409.320312 489.550781 409.363281 498.21875 409.140625 506.886719 C 409.097656 508.441406 409.050781 510.175781 408.339844 511.375 C 408.207031 511.597656 408.074219 511.777344 407.941406 511.953125 C 400.253906 511.953125 392.785156 511.910156 385.761719 511.777344 C 385.671875 511.6875 385.582031 511.554688 385.539062 511.464844 C 384.78125 509.996094 384.738281 507.996094 384.738281 506.175781 C 384.695312 497.417969 384.695312 488.664062 384.695312 479.949219 C 384.695312 474.394531 383.449219 467.148438 385.804688 461.992188 C 386.828125 459.859375 388.472656 458.082031 391.09375 456.972656 C 394.742188 455.371094 399.183594 455.769531 402.652344 457.773438 C 407.320312 460.394531 409.585938 464.4375 409.320312 469.550781 C 409.140625 473.285156 409.363281 477.105469 409.363281 480.882812 Z M 409.363281 480.882812 " fill-opacity="1" fill-rule="nonzero"/><path fill="#2a303a" d="M 298.375 523.3125 C 288.542969 523.3125 279.722656 523.304688 272.234375 523.296875 C 271.316406 523.296875 270.570312 522.550781 270.570312 521.628906 C 270.570312 520.707031 271.316406 519.964844 272.234375 519.964844 C 317.5 520.003906 411.648438 520.070312 479.707031 518.464844 C 480.675781 518.550781 481.390625 519.175781 481.410156 520.09375 C 481.433594 521.015625 480.703125 521.777344 479.785156 521.800781 C 422.957031 523.140625 347.945312 523.3125 298.375 523.3125 Z M 298.375 523.3125 " fill-opacity="1" fill-rule="nonzero"/><path fill="#2a303a" d="M 292.4375 531.996094 C 282.410156 531.996094 273.394531 531.992188 265.710938 531.992188 C 264.792969 531.992188 264.046875 531.242188 264.046875 530.324219 C 264.046875 529.402344 264.792969 528.65625 265.710938 528.65625 C 313.421875 528.667969 412.628906 528.714844 484.25 527.824219 C 485.191406 527.945312 485.925781 528.550781 485.9375 529.46875 C 485.953125 530.394531 485.214844 531.148438 484.292969 531.160156 C 424.1875 531.902344 344.65625 531.996094 292.4375 531.996094 Z M 292.4375 531.996094 " fill-opacity="1" fill-rule="nonzero"/><path fill="#2a303a" d="M 493.6875 540.601562 L 254.304688 540.601562 C 253.382812 540.601562 252.636719 539.851562 252.636719 538.933594 C 252.636719 538.011719 253.382812 537.265625 254.304688 537.265625 L 493.6875 537.265625 C 494.605469 537.265625 495.351562 538.011719 495.351562 538.933594 C 495.351562 539.851562 494.605469 540.601562 493.6875 540.601562 Z M 493.6875 540.601562 " fill-opacity="1" fill-rule="nonzero"/><path fill="#2a303a" d="M 277.148438 550.039062 C 265.46875 550.039062 254.972656 550.035156 246.027344 550.035156 C 245.105469 550.035156 244.359375 549.289062 244.359375 548.367188 C 244.359375 547.445312 245.105469 546.699219 246.027344 546.699219 C 301.527344 546.722656 416.941406 546.757812 499.953125 545.871094 C 499.957031 545.871094 499.96875 545.871094 499.972656 545.871094 C 500.882812 545.871094 501.628906 546.605469 501.636719 547.519531 C 501.648438 548.4375 500.910156 549.191406 499.988281 549.203125 C 430.34375 549.949219 337.886719 550.039062 277.148438 550.039062 Z M 277.148438 550.039062 " fill-opacity="1" fill-rule="nonzero"/><path fill="#2a303a" d="M 504.761719 559.0625 C 504.753906 559.0625 504.746094 559.0625 504.742188 559.0625 C 417.414062 558.171875 297.0625 558.214844 239.238281 558.230469 C 238.316406 558.230469 237.570312 557.484375 237.570312 556.566406 C 237.570312 555.644531 238.316406 554.898438 239.238281 554.898438 C 297.050781 554.871094 417.421875 554.835938 504.777344 555.730469 C 505.699219 555.738281 506.433594 556.492188 506.425781 557.414062 C 506.417969 558.328125 505.671875 559.0625 504.761719 559.0625 Z M 504.761719 559.0625 " fill-opacity="1" fill-rule="nonzero"/><path fill="#2a303a" d="M 81.621094 341.382812 C 66.886719 341.382812 52.109375 341.289062 37.378906 341.046875 C 36.457031 341.03125 35.722656 340.269531 35.738281 339.347656 C 35.753906 338.429688 36.410156 337.753906 37.433594 337.710938 C 73.199219 338.304688 109.308594 337.984375 144.234375 337.679688 C 179.175781 337.367188 215.308594 337.050781 251.117188 337.648438 C 252.039062 337.664062 252.773438 338.421875 252.757812 339.34375 C 252.742188 340.261719 252.097656 340.960938 251.066406 340.980469 C 215.289062 340.386719 179.183594 340.707031 144.265625 341.011719 C 123.695312 341.195312 102.707031 341.382812 81.621094 341.382812 Z M 81.621094 341.382812 " fill-opacity="1" fill-rule="nonzero"/><path fill="#2a303a" d="M 251.476562 354.554688 C 251.445312 354.554688 251.414062 354.554688 251.382812 354.554688 C 250.460938 354.5 249.757812 353.714844 249.8125 352.796875 C 250.273438 344.511719 250.144531 336.136719 249.429688 327.890625 C 249.351562 326.976562 250.03125 326.171875 250.949219 326.089844 C 251.820312 326 252.671875 326.6875 252.753906 327.605469 C 253.480469 336.003906 253.609375 344.539062 253.136719 352.980469 C 253.089844 353.867188 252.355469 354.554688 251.476562 354.554688 Z M 251.476562 354.554688 " fill-opacity="1" fill-rule="nonzero"/><path fill="#2a303a" d="M 510.671875 340.472656 C 509.757812 340.472656 509.011719 339.730469 509.003906 338.8125 C 509 337.894531 509.742188 337.144531 510.664062 337.136719 L 714.160156 336.082031 C 715.246094 336.078125 715.832031 336.820312 715.835938 337.742188 C 715.839844 338.660156 715.097656 339.414062 714.179688 339.417969 L 510.679688 340.472656 C 510.675781 340.472656 510.675781 340.472656 510.671875 340.472656 Z M 510.671875 340.472656 " fill-opacity="1" fill-rule="nonzero"/><path fill="#2a303a" d="M 136.800781 410.886719 C 86.527344 410.886719 56 410.558594 37.742188 410.207031 C 36.820312 410.191406 36.089844 409.425781 36.105469 408.507812 C 36.125 407.585938 36.839844 406.890625 37.804688 406.871094 C 66.515625 407.425781 125.632812 407.925781 244.175781 407.171875 C 247.507812 407.148438 249.59375 407.136719 250.902344 407.214844 C 251.046875 407.167969 251.207031 407.136719 251.367188 407.132812 L 251.371094 407.25 C 253.082031 407.410156 253.089844 407.8125 253.105469 408.761719 C 253.125 409.675781 252.390625 410.433594 251.480469 410.464844 C 251.421875 410.464844 251.378906 410.464844 251.332031 410.460938 C 250.714844 410.492188 248.332031 410.476562 244.199219 410.503906 C 200.976562 410.777344 165.632812 410.886719 136.800781 410.886719 Z M 136.800781 410.886719 " fill-opacity="1" fill-rule="nonzero"/><path fill="#2a303a" d="M 122.226562 475.503906 C 83.382812 475.503906 57.441406 475.210938 40.605469 474.886719 C 39.683594 474.871094 38.953125 474.109375 38.972656 473.1875 C 38.988281 472.269531 39.777344 471.523438 40.671875 471.554688 C 69.835938 472.113281 126.378906 472.578125 230.113281 471.597656 C 232.265625 471.578125 233.742188 471.558594 234.726562 471.609375 C 234.84375 471.578125 234.96875 471.558594 235.09375 471.554688 L 235.097656 471.632812 C 236.808594 471.753906 236.816406 472.136719 236.835938 473.183594 C 236.855469 474.097656 236.117188 474.855469 235.207031 474.886719 C 235.148438 474.886719 235.109375 474.890625 235.066406 474.886719 C 234.671875 474.886719 232.964844 474.90625 230.144531 474.929688 C 186.214844 475.347656 150.746094 475.503906 122.226562 475.503906 Z M 122.226562 475.503906 " fill-opacity="1" fill-rule="nonzero"/><path fill="#2a303a" d="M 555.796875 415.050781 C 540.183594 415.050781 524.316406 414.917969 507.898438 414.582031 C 506.976562 414.5625 506.25 413.800781 506.265625 412.878906 C 506.285156 411.972656 507.027344 411.25 507.933594 411.25 C 507.941406 411.25 507.953125 411.25 507.96875 411.25 C 558.023438 412.273438 603.132812 411.433594 650.878906 410.554688 C 671.449219 410.171875 692.273438 409.789062 713.804688 409.554688 C 714.828125 409.402344 715.480469 410.28125 715.488281 411.203125 C 715.5 412.125 714.761719 412.875 713.839844 412.886719 C 692.316406 413.121094 671.507812 413.507812 650.941406 413.886719 C 618.804688 414.480469 587.863281 415.050781 555.796875 415.050781 Z M 555.796875 415.050781 " fill-opacity="1" fill-rule="nonzero"/><path fill="#2a303a" d="M 667.1875 473.589844 C 648.347656 473.589844 629.5625 473.402344 611.136719 473.21875 C 579.328125 472.902344 546.429688 472.578125 514.097656 473.21875 C 514.082031 473.21875 514.070312 473.21875 514.0625 473.21875 C 513.15625 473.21875 512.414062 472.496094 512.394531 471.585938 C 512.378906 470.664062 513.105469 469.90625 514.027344 469.886719 C 546.40625 469.242188 579.332031 469.566406 611.171875 469.886719 C 642.976562 470.203125 675.867188 470.53125 708.207031 469.886719 C 708.21875 469.886719 708.230469 469.886719 708.242188 469.886719 C 709.148438 469.886719 709.890625 470.613281 709.910156 471.519531 C 709.925781 472.441406 709.195312 473.199219 708.277344 473.21875 C 694.632812 473.492188 680.894531 473.589844 667.1875 473.589844 Z M 667.1875 473.589844 " fill-opacity="1" fill-rule="nonzero"/><path fill="#2a303a" d="M 261.910156 512.691406 C 261.117188 512.691406 260.472656 512.058594 260.46875 511.261719 C 260.460938 510.46875 261.105469 509.816406 261.902344 509.8125 C 298.941406 509.558594 337.550781 509.496094 374.890625 509.433594 C 412.222656 509.375 450.828125 509.308594 487.859375 509.058594 L 487.867188 509.058594 C 488.65625 509.058594 489.308594 509.695312 489.308594 510.492188 C 489.316406 511.289062 488.671875 511.9375 487.875 511.941406 C 450.84375 512.195312 412.230469 512.257812 374.894531 512.316406 C 337.558594 512.378906 298.953125 512.441406 261.917969 512.691406 C 261.917969 512.691406 261.914062 512.691406 261.910156 512.691406 Z M 261.910156 512.691406 " fill-opacity="1" fill-rule="nonzero"/><path fill="#2a303a" d="M 232.65625 548.273438 C 232.339844 548.273438 232.015625 548.167969 231.75 547.957031 C 231.132812 547.457031 231.035156 546.546875 231.535156 545.929688 L 259.5 511.203125 C 260.003906 510.585938 260.902344 510.476562 261.527344 510.988281 C 262.148438 511.484375 262.246094 512.394531 261.746094 513.015625 L 233.78125 547.738281 C 233.492188 548.09375 233.078125 548.273438 232.65625 548.273438 Z M 232.65625 548.273438 " fill-opacity="1" fill-rule="nonzero"/><path fill="#f5e37d" d="M 355.121094 263.425781 C 354.5 264.429688 354.015625 265.480469 353.707031 266.566406 C 351.730469 273.550781 353.625 281.542969 358.585938 286.851562 C 364.351562 293.019531 373.820312 295.3125 381.855469 292.726562 C 388.1875 290.691406 393.59375 285.714844 395.789062 279.4375 C 398.816406 270.78125 394.589844 261.015625 387.109375 256.042969 C 382.808594 253.183594 377.433594 251.96875 372.328125 252.734375 C 371.863281 252.804688 371.40625 252.886719 370.949219 252.988281 C 365.414062 254.195312 358.375 258.164062 355.121094 263.425781 Z M 355.121094 263.425781 " fill-opacity="1" fill-rule="nonzero"/><path fill="#f0f0e4" d="M 358.261719 276.042969 C 359.125 280.121094 361.75 283.75 365.238281 286.03125 C 369.207031 288.628906 374.269531 289.484375 378.871094 288.335938 C 383.472656 287.183594 387.539062 284.046875 389.820312 279.890625 C 391.929688 276.042969 392.464844 271.210938 390.609375 267.238281 C 389.394531 264.632812 387.257812 262.542969 384.863281 260.949219 C 378.917969 256.984375 371.722656 256.007812 365.59375 260.007812 C 360.335938 263.441406 356.921875 269.714844 358.261719 276.042969 Z M 358.261719 276.042969 " fill-opacity="1" fill-rule="nonzero"/><path fill="#2a303a" d="M 374.914062 296.625 C 371.847656 296.625 368.785156 296.179688 365.785156 295.300781 C 361.992188 294.175781 358.917969 292.480469 356.644531 290.257812 C 354.53125 288.191406 352.839844 285.398438 351.621094 281.953125 C 349.800781 276.796875 349.464844 271.609375 350.660156 266.941406 C 353.675781 255.191406 366.265625 249.632812 376.578125 250.261719 C 384.476562 250.78125 391.773438 254.773438 396.101562 260.925781 C 400.671875 267.4375 401.546875 276.109375 398.335938 283.015625 C 396.472656 287.035156 393.203125 290.558594 389.148438 292.9375 C 385.386719 295.136719 380.917969 296.40625 376.242188 296.597656 C 375.796875 296.617188 375.355469 296.625 374.914062 296.625 Z M 374.847656 253.5 C 366.179688 253.5 356.285156 258.289062 353.855469 267.761719 C 352.820312 271.789062 353.121094 276.316406 354.726562 280.847656 C 355.777344 283.816406 357.195312 286.191406 358.945312 287.902344 C 360.832031 289.742188 363.449219 291.171875 366.71875 292.136719 C 369.804688 293.046875 372.953125 293.457031 376.105469 293.308594 C 380.246094 293.136719 384.1875 292.023438 387.484375 290.09375 C 390.96875 288.054688 393.761719 285.046875 395.34375 281.628906 C 398.074219 275.769531 397.308594 268.386719 393.398438 262.820312 C 389.640625 257.472656 383.277344 254.007812 376.359375 253.550781 C 375.863281 253.515625 375.355469 253.5 374.847656 253.5 Z M 374.847656 253.5 " fill-opacity="1" fill-rule="nonzero"/><path fill="#2a303a" d="M 374.953125 289.667969 C 371.183594 289.667969 367.367188 288.320312 364.359375 285.863281 C 360.847656 282.980469 358.476562 278.640625 357.855469 273.945312 C 357.734375 273.046875 358.371094 272.214844 359.277344 272.101562 C 360.167969 271.988281 361.007812 272.613281 361.125 273.519531 C 361.632812 277.386719 363.578125 280.957031 366.449219 283.3125 C 369.421875 285.746094 373.34375 286.84375 376.972656 286.203125 C 380.695312 285.578125 383.984375 283.144531 385.554688 279.867188 C 385.957031 279.042969 386.9375 278.699219 387.757812 279.09375 C 388.578125 279.488281 388.925781 280.472656 388.53125 281.292969 C 386.496094 285.523438 382.277344 288.648438 377.523438 289.453125 C 376.679688 289.597656 375.8125 289.667969 374.953125 289.667969 Z M 374.953125 289.667969 " fill-opacity="1" fill-rule="nonzero"/><path fill="#2a303a" d="M 386.953125 267.222656 C 386.316406 267.222656 385.714844 266.855469 385.441406 266.234375 C 384.015625 262.964844 380.804688 260.574219 377.265625 260.140625 C 376.363281 260.027344 375.722656 259.207031 375.832031 258.300781 C 375.941406 257.394531 376.785156 256.753906 377.667969 256.867188 C 382.34375 257.441406 386.582031 260.601562 388.464844 264.914062 C 388.828125 265.75 388.449219 266.722656 387.613281 267.082031 C 387.394531 267.179688 387.171875 267.222656 386.953125 267.222656 Z M 386.953125 267.222656 " fill-opacity="1" fill-rule="nonzero"/><path fill="#2a303a" d="M 375.417969 276.183594 C 375.410156 276.183594 375.402344 276.183594 375.402344 276.183594 C 374.488281 276.171875 373.757812 275.425781 373.765625 274.515625 L 373.863281 265.308594 C 373.875 264.40625 374.609375 263.675781 375.511719 263.675781 C 375.515625 263.675781 375.523438 263.675781 375.527344 263.675781 C 376.441406 263.6875 377.171875 264.433594 377.160156 265.34375 L 377.066406 274.550781 C 377.054688 275.453125 376.316406 276.183594 375.417969 276.183594 Z M 375.417969 276.183594 " fill-opacity="1" fill-rule="nonzero"/><path fill="#2a303a" d="M 369.042969 280.519531 C 368.464844 280.519531 367.902344 280.210938 367.601562 279.664062 C 367.160156 278.867188 367.453125 277.863281 368.25 277.425781 C 370.378906 276.253906 372.5 274.953125 374.554688 273.550781 C 375.316406 273.03125 376.335938 273.238281 376.84375 273.984375 C 377.359375 274.734375 377.167969 275.761719 376.414062 276.269531 C 374.269531 277.730469 372.058594 279.089844 369.835938 280.3125 C 369.585938 280.449219 369.3125 280.519531 369.042969 280.519531 Z M 369.042969 280.519531 " fill-opacity="1" fill-rule="nonzero"/><path fill="#2a303a" d="M 56.289062 323.449219 C 46.746094 323.449219 37.402344 323.433594 28.371094 323.394531 C 27.460938 323.390625 26.722656 322.644531 26.726562 321.738281 C 26.730469 320.832031 27.472656 320.09375 28.378906 320.09375 C 28.382812 320.09375 28.382812 320.09375 28.386719 320.09375 C 59.597656 320.238281 94.625 320.082031 128.488281 319.953125 C 162.226562 319.816406 197.117188 319.683594 228.230469 319.804688 C 229.140625 319.808594 229.875 320.554688 229.871094 321.464844 C 229.867188 322.367188 229.128906 323.105469 228.222656 323.105469 C 228.21875 323.105469 228.21875 323.105469 228.214844 323.105469 C 197.128906 322.980469 162.238281 323.113281 128.5 323.25 C 104.421875 323.351562 79.753906 323.449219 56.289062 323.449219 Z M 56.289062 323.449219 " fill-opacity="1" fill-rule="nonzero"/><path fill="#2a303a" d="M 679.953125 323.816406 C 654.753906 323.816406 627.675781 323.496094 601.390625 323.1875 C 571.78125 322.839844 541.171875 322.46875 513.40625 322.578125 C 513.398438 322.578125 513.398438 322.578125 513.398438 322.578125 C 512.488281 322.578125 511.753906 321.839844 511.746094 320.933594 C 511.746094 320.023438 512.480469 319.28125 513.386719 319.277344 C 541.203125 319.226562 571.816406 319.542969 601.429688 319.890625 C 631.023438 320.238281 661.625 320.636719 689.398438 320.5 C 689.40625 320.5 689.40625 320.5 689.40625 320.5 C 690.316406 320.5 691.050781 321.238281 691.058594 322.148438 C 691.058594 323.054688 690.324219 323.796875 689.414062 323.800781 C 686.292969 323.808594 683.140625 323.816406 679.953125 323.816406 Z M 679.953125 323.816406 " fill-opacity="1" fill-rule="nonzero"/></svg>